<svg id="Pantalla_3" data-name="Pantalla 3" xmlns="http://www.w3.org/2000/svg" viewBox="0 0 653.43 247.32"><defs><style>.cls-1{fill:#154b96;}.cls-2,.cls-3{fill:#15478d;}.cls-3,.cls-9{fill-rule:evenodd;}.cls-4,.cls-9{fill:#d55019;}.cls-5,.cls-7,.cls-8{fill:none;stroke:#15478d;stroke-miterlimit:10;stroke-width:2.98px;}.cls-5{stroke-dasharray:14.81 14.81;}.cls-6{fill:#f5a527;}.cls-7{stroke-dasharray:14.88;}.cls-8{stroke-dasharray:14.88;}.cls-10{fill:#154b97;}</style></defs><title>MECANICA</title><path class="cls-1" d="M3390.34,351a4.63,4.63,0,0,1,4.75-4.7,4.46,4.46,0,0,1,3.91,2.19l-.62.35a3.71,3.71,0,0,0-3.29-1.88,4,4,0,1,0,0,8.08,3.74,3.74,0,0,0,3.32-1.91l.61.35a4.46,4.46,0,0,1-3.93,2.23A4.63,4.63,0,0,1,3390.34,351Z" transform="translate(-3369.55 -230.23)"/><path class="cls-1" d="M3399.49,352.31a3.42,3.42,0,1,1,3.43,3.4A3.37,3.37,0,0,1,3399.49,352.31Zm6.18,0a2.76,2.76,0,1,0-2.75,2.77A2.74,2.74,0,0,0,3405.67,352.31Z" transform="translate(-3369.55 -230.23)"/><path class="cls-1" d="M3416.7,351.43v4.13h-.65v-4.13a1.69,1.69,0,0,0-1.74-1.9c-1.09,0-1.95.73-1.95,2.4v3.63h-.65v-4.13c0-1.23-.67-1.9-1.67-1.9s-2,.73-2,2.4v3.63h-.65v-6.51h.65v1.12a2.27,2.27,0,0,1,2.1-1.26,2.06,2.06,0,0,1,2,1.33,2.37,2.37,0,0,1,2.18-1.33A2.28,2.28,0,0,1,3416.7,351.43Z" transform="translate(-3369.55 -230.23)"/><path class="cls-1" d="M3424.84,352.31a3.35,3.35,0,0,1-3.37,3.4,3.07,3.07,0,0,1-2.8-1.66v4.12H3418v-9.12h.66v1.51a3.08,3.08,0,0,1,2.8-1.65A3.35,3.35,0,0,1,3424.84,352.31Zm-.65,0a2.76,2.76,0,1,0-2.76,2.77A2.74,2.74,0,0,0,3424.19,352.31Z" transform="translate(-3369.55 -230.23)"/><path class="cls-1" d="M3428.72,349v.62a2.11,2.11,0,0,0-2.17,2.36v3.62h-.65v-6.51h.65v1.28A2.19,2.19,0,0,1,3428.72,349Z" transform="translate(-3369.55 -230.23)"/><path class="cls-1" d="M3435.52,349.05v6.51h-.66v-1.47a3.13,3.13,0,0,1-2.8,1.62,3.4,3.4,0,0,1,0-6.8,3.12,3.12,0,0,1,2.8,1.61v-1.47Zm-.66,3.26a2.76,2.76,0,1,0-2.75,2.77A2.74,2.74,0,0,0,3434.86,352.31Z" transform="translate(-3369.55 -230.23)"/><path class="cls-1" d="M3440,346.05h.65v9.51H3440Z" transform="translate(-3369.55 -230.23)"/><path class="cls-1" d="M3448.25,352.33c0,.11,0,.21,0,.32h-5.9a2.64,2.64,0,0,0,2.76,2.43,2.46,2.46,0,0,0,2.25-1.18l.58.34a3.23,3.23,0,0,1-2.84,1.47,3.4,3.4,0,0,1-.06-6.8A3.26,3.26,0,0,1,3448.25,352.33Zm-5.91-.32h5.24a2.54,2.54,0,0,0-2.55-2.48A2.62,2.62,0,0,0,3442.34,352Z" transform="translate(-3369.55 -230.23)"/><path class="cls-1" d="M3454.77,351.51v4.05h-.67v-4.05a1.8,1.8,0,0,0-1.91-2c-1.28,0-2.28.84-2.28,2.59v3.44h-.66v-6.51h.66v1.24a2.43,2.43,0,0,1,2.33-1.38A2.4,2.4,0,0,1,3454.77,351.51Z" transform="translate(-3369.55 -230.23)"/><path class="cls-1" d="M3457.47,349.69v4.23c0,1.15.62,1.18,2,1.06v.58c-1.71.27-2.61-.15-2.61-1.64v-4.23h-1.43v-.64h1.43v-1.63l.66-.19v1.82h2v.64Z" transform="translate(-3369.55 -230.23)"/><path class="cls-1" d="M3466.22,352.33c0,.11,0,.21,0,.32h-5.9a2.65,2.65,0,0,0,2.76,2.43,2.49,2.49,0,0,0,2.26-1.18l.57.34a3.22,3.22,0,0,1-2.84,1.47,3.4,3.4,0,1,1-.05-6.8A3.26,3.26,0,0,1,3466.22,352.33Zm-5.92-.32h5.24a2.53,2.53,0,0,0-2.54-2.48A2.63,2.63,0,0,0,3460.3,352Z" transform="translate(-3369.55 -230.23)"/><path class="cls-1" d="M3471.35,353.86c0,1.07-.94,1.85-2.33,1.85a2.44,2.44,0,0,1-2.48-1.45l.56-.32a1.87,1.87,0,0,0,1.92,1.14c.91,0,1.68-.4,1.68-1.22,0-1.77-3.95-.76-3.95-3.1a2,2,0,0,1,2.22-1.85,2.29,2.29,0,0,1,2.21,1.3l-.55.31a1.69,1.69,0,0,0-1.66-1c-.85,0-1.57.44-1.57,1.23C3467.4,352.5,3471.35,351.47,3471.35,353.86Z" transform="translate(-3369.55 -230.23)"/><path class="cls-1" d="M3406.53,362.85l-2.81,7.11a2.74,2.74,0,0,1-2.58,2v-.61c.87.07,1.53-.58,1.94-1.53l.14-.35-3-6.63h.71l2.63,5.8,2.27-5.8Z" transform="translate(-3369.55 -230.23)"/><path class="cls-1" d="M3416.54,360.24v9.12h-.66v-1.51a3.08,3.08,0,0,1-2.8,1.66,3.41,3.41,0,0,1,0-6.81,3.07,3.07,0,0,1,2.8,1.66v-4.12Zm-.66,5.86a2.76,2.76,0,1,0-2.76,2.78A2.74,2.74,0,0,0,3415.88,366.1Z" transform="translate(-3369.55 -230.23)"/><path class="cls-1" d="M3417.82,360.75a.53.53,0,1,1,.53.52A.52.52,0,0,1,3417.82,360.75Zm.2,2.1h.65v6.51H3418Z" transform="translate(-3369.55 -230.23)"/><path class="cls-1" d="M3420.16,359.85h.65v9.51h-.65Z" transform="translate(-3369.55 -230.23)"/><path class="cls-1" d="M3422.1,360.75a.52.52,0,1,1,.52.52A.51.51,0,0,1,3422.1,360.75Zm.19,2.1h.65v6.51h-.65Z" transform="translate(-3369.55 -230.23)"/><path class="cls-1" d="M3430.87,362.85v6.2a3,3,0,0,1-3.25,3.06,3.21,3.21,0,0,1-3.07-1.56l.57-.33a2.51,2.51,0,0,0,2.5,1.27,2.34,2.34,0,0,0,2.6-2.44v-1.2a3.11,3.11,0,0,1-2.81,1.66,3.41,3.41,0,0,1,0-6.81,3.09,3.09,0,0,1,2.81,1.66v-1.51Zm-.65,3.25a2.77,2.77,0,1,0-2.77,2.78A2.74,2.74,0,0,0,3430.22,366.1Z" transform="translate(-3369.55 -230.23)"/><path class="cls-1" d="M3438.5,366.13c0,.1,0,.21,0,.31h-5.91a2.66,2.66,0,0,0,2.77,2.44,2.48,2.48,0,0,0,2.25-1.19l.58.34a3.23,3.23,0,0,1-2.85,1.48,3.41,3.41,0,1,1,3.17-3.38Zm-5.92-.33h5.24a2.52,2.52,0,0,0-2.54-2.47A2.64,2.64,0,0,0,3432.58,365.8Z" transform="translate(-3369.55 -230.23)"/><path class="cls-1" d="M3445,365.31v4.05h-.67v-4.05a1.8,1.8,0,0,0-1.91-2c-1.28,0-2.29.83-2.29,2.59v3.44h-.65v-6.51h.65v1.23a2.47,2.47,0,0,1,2.34-1.38A2.41,2.41,0,0,1,3445,365.31Z" transform="translate(-3369.55 -230.23)"/><path class="cls-1" d="M3445.89,366.1a3.34,3.34,0,0,1,3.42-3.4,3,3,0,0,1,2.84,1.67l-.53.31a2.47,2.47,0,0,0-2.31-1.35,2.78,2.78,0,0,0,0,5.55,2.6,2.6,0,0,0,2.35-1.36l.55.33a3.22,3.22,0,0,1-2.9,1.66A3.34,3.34,0,0,1,3445.89,366.1Z" transform="translate(-3369.55 -230.23)"/><path class="cls-1" d="M3452.92,360.75a.52.52,0,0,1,.52-.51.52.52,0,1,1,0,1A.52.52,0,0,1,3452.92,360.75Zm.2,2.1h.65v6.51h-.65Z" transform="translate(-3369.55 -230.23)"/><path class="cls-1" d="M3461.65,362.85v6.51H3461v-1.47a3.13,3.13,0,0,1-2.8,1.62,3.41,3.41,0,0,1,0-6.81,3.13,3.13,0,0,1,2.8,1.62v-1.47Zm-.66,3.25a2.76,2.76,0,1,0-2.75,2.78A2.73,2.73,0,0,0,3461,366.1Z" transform="translate(-3369.55 -230.23)"/><path class="cls-1" d="M3466.09,359.85h.65v9.51h-.65Z" transform="translate(-3369.55 -230.23)"/><path class="cls-1" d="M3474.63,362.85v6.51H3474v-1.47a3.12,3.12,0,0,1-2.8,1.62,3.41,3.41,0,0,1,0-6.81,3.12,3.12,0,0,1,2.8,1.62v-1.47Zm-.67,3.25a2.76,2.76,0,1,0-2.75,2.78A2.73,2.73,0,0,0,3474,366.1Z" transform="translate(-3369.55 -230.23)"/><path class="cls-1" d="M3480.46,363.48v4.24c0,1.15.61,1.17,1.94,1.06v.58c-1.7.26-2.6-.15-2.6-1.64v-4.24h-1.44v-.63h1.44v-1.63l.66-.2v1.83h1.94v.63Z" transform="translate(-3369.55 -230.23)"/><path class="cls-1" d="M3483.25,360.75a.52.52,0,1,1,.52.52A.51.51,0,0,1,3483.25,360.75Zm.19,2.1h.66v6.51h-.66Z" transform="translate(-3369.55 -230.23)"/><path class="cls-1" d="M3488.41,362.75v.63a2.11,2.11,0,0,0-2.18,2.36v3.62h-.65v-6.51h.65v1.27A2.2,2.2,0,0,1,3488.41,362.75Z" transform="translate(-3369.55 -230.23)"/><path class="cls-1" d="M3492,362.75v.63a2.11,2.11,0,0,0-2.18,2.36v3.62h-.65v-6.51h.65v1.27A2.2,2.2,0,0,1,3492,362.75Z" transform="translate(-3369.55 -230.23)"/><path class="cls-1" d="M3492.63,360.75a.52.52,0,1,1,.52.52A.51.51,0,0,1,3492.63,360.75Zm.19,2.1h.66v6.51h-.66Z" transform="translate(-3369.55 -230.23)"/><path class="cls-1" d="M3495,359.85h.65v9.51H3495Z" transform="translate(-3369.55 -230.23)"/><path class="cls-1" d="M3497.1,359.85h.65v9.51h-.65Z" transform="translate(-3369.55 -230.23)"/><path class="cls-1" d="M3505.63,362.85v6.51H3505v-1.47a3.13,3.13,0,0,1-2.8,1.62,3.41,3.41,0,0,1,0-6.81,3.13,3.13,0,0,1,2.8,1.62v-1.47Zm-.66,3.25a2.76,2.76,0,1,0-2.75,2.78A2.73,2.73,0,0,0,3505,366.1Z" transform="translate(-3369.55 -230.23)"/><path class="cls-1" d="M3516.47,360.24v9.12h-.65v-1.51a3.09,3.09,0,0,1-2.8,1.66,3.41,3.41,0,0,1,0-6.81,3.08,3.08,0,0,1,2.8,1.66v-4.12Zm-.65,5.86a2.77,2.77,0,1,0-2.76,2.78A2.74,2.74,0,0,0,3515.82,366.1Z" transform="translate(-3369.55 -230.23)"/><path class="cls-1" d="M3524.1,366.13c0,.1,0,.21,0,.31h-5.9a2.65,2.65,0,0,0,2.76,2.44,2.49,2.49,0,0,0,2.26-1.19l.57.34a3.2,3.2,0,0,1-2.84,1.48,3.41,3.41,0,0,1-.05-6.81A3.26,3.26,0,0,1,3524.1,366.13Zm-5.91-.33h5.24a2.53,2.53,0,0,0-2.54-2.47A2.63,2.63,0,0,0,3518.19,365.8Z" transform="translate(-3369.55 -230.23)"/><path class="cls-1" d="M3436.83,377.24v6.52h-.67v-1.47a3.13,3.13,0,0,1-2.8,1.61,3.4,3.4,0,0,1,0-6.8,3.12,3.12,0,0,1,2.8,1.62v-1.48Zm-.67,3.26a2.76,2.76,0,1,0-2.75,2.78A2.73,2.73,0,0,0,3436.16,380.5Z" transform="translate(-3369.55 -230.23)"/><path class="cls-1" d="M3443.65,377.24v6.52H3443v-1.24a2.44,2.44,0,0,1-2.33,1.38,2.4,2.4,0,0,1-2.53-2.6v-4.06h.67v4.06a1.8,1.8,0,0,0,1.91,2c1.28,0,2.28-.84,2.28-2.6v-3.44Z" transform="translate(-3369.55 -230.23)"/><path class="cls-1" d="M3446.53,377.88v4.24c0,1.14.61,1.17,1.94,1.05v.59c-1.7.26-2.6-.16-2.6-1.64v-4.24h-1.44v-.64h1.44v-1.63l.66-.19v1.82h1.94v.64Z" transform="translate(-3369.55 -230.23)"/><path class="cls-1" d="M3448.68,380.5a3.42,3.42,0,1,1,3.43,3.4A3.38,3.38,0,0,1,3448.68,380.5Zm6.18,0a2.76,2.76,0,1,0-2.75,2.78A2.73,2.73,0,0,0,3454.86,380.5Z" transform="translate(-3369.55 -230.23)"/><path class="cls-1" d="M3459.39,377.15v.63a2.11,2.11,0,0,0-2.18,2.36v3.62h-.65v-6.52h.65v1.28A2.2,2.2,0,0,1,3459.39,377.15Z" transform="translate(-3369.55 -230.23)"/><path class="cls-1" d="M3460,375.15a.52.52,0,0,1,1,0,.52.52,0,0,1-1,0Zm.2,2.09h.65v6.52h-.65Z" transform="translate(-3369.55 -230.23)"/><path class="cls-1" d="M3467,383.12v.64H3462v-.43l3.91-5.45h-3.78v-.64h4.69v.43l-3.9,5.45Z" transform="translate(-3369.55 -230.23)"/><path class="cls-1" d="M3474,377.24v6.52h-.66v-1.47a3.14,3.14,0,0,1-2.8,1.61,3.4,3.4,0,0,1,0-6.8,3.13,3.13,0,0,1,2.8,1.62v-1.48Zm-.66,3.26a2.76,2.76,0,1,0-2.75,2.78A2.73,2.73,0,0,0,3473.36,380.5Z" transform="translate(-3369.55 -230.23)"/><path class="cls-1" d="M3475.06,380.5a3.34,3.34,0,0,1,3.43-3.4,3,3,0,0,1,2.84,1.67l-.53.31a2.48,2.48,0,0,0-2.31-1.35,2.78,2.78,0,0,0,0,5.55,2.6,2.6,0,0,0,2.34-1.36l.55.33a3.19,3.19,0,0,1-2.89,1.65A3.34,3.34,0,0,1,3475.06,380.5Z" transform="translate(-3369.55 -230.23)"/><path class="cls-1" d="M3482.1,375.15a.51.51,0,0,1,.52-.51.52.52,0,0,1,.52.51.53.53,0,0,1-.52.52A.52.52,0,0,1,3482.1,375.15Zm.19,2.09h.65v6.52h-.65Z" transform="translate(-3369.55 -230.23)"/><path class="cls-1" d="M3484,380.5a3.42,3.42,0,1,1,3.42,3.4A3.37,3.37,0,0,1,3484,380.5Zm6.17,0a2.76,2.76,0,1,0-2.75,2.78A2.73,2.73,0,0,0,3490.16,380.5Zm-2.7-4.17,1.19-1.65h-.78l-1,1.65Z" transform="translate(-3369.55 -230.23)"/><path class="cls-1" d="M3497.38,379.71v4.05h-.66v-4.05a1.8,1.8,0,0,0-1.92-2c-1.28,0-2.28.83-2.28,2.59v3.44h-.65v-6.52h.65v1.24a2.45,2.45,0,0,1,2.33-1.38A2.41,2.41,0,0,1,3497.38,379.71Z" transform="translate(-3369.55 -230.23)"/><path class="cls-2" d="M3490.05,344h2.74c-.23.58-.47,1.56-.73,2.38h.08a4.07,4.07,0,0,1,5-2.44l-.61,2.12a5.92,5.92,0,0,0-1.25,0c-2,.21-3.34,2.29-3.89,4.7l-1.06,4.45h-2.84Z" transform="translate(-3369.55 -230.23)"/><path class="cls-3" d="M3496.5,355.17c.73-3.19,1.82-8,2.54-11.19h2.7l-1.18,5.83c-.37,1.62-.86,3.73-1.23,5.36Z" transform="translate(-3369.55 -230.23)"/><polygon class="cls-3" points="130.31 109.73 133.01 109.73 132.56 111.96 129.8 111.96 130.31 109.73"/><path class="cls-3" d="M3525.32,355.28c.73-3.19,2.68-12.13,3.41-15.32h2.69l-2,10c-.37,1.62-.86,3.73-1.23,5.35Z" transform="translate(-3369.55 -230.23)"/><path class="cls-3" d="M3510.81,355.24h-9.31c.12-.52.25-1,.37-1.54l7.2-7.88h-5.16l.42-1.8h8.7c-.13.54-.25,1.07-.37,1.6l-7.23,7.77,5.79-.06Z" transform="translate(-3369.55 -230.23)"/><path class="cls-3" d="M3522.44,355.28c.6-2.85,1.72-8.37,2.31-11.22h-2.68c-.05.38-.1.75-.16,1.13-1.78-1.95-4.36-1.71-6.56-.08a7.84,7.84,0,0,0-2.55,7.91c1.12,3.34,6.08,3.38,7.67-.13-.2,1.13-.26,1.38-.49,2.39ZM3518,346.1a2.4,2.4,0,0,1,3.38.75,12,12,0,0,1-2.12,5.84c-1.07,1.36-3.74,1.65-3.79-1.28a6.18,6.18,0,0,1,2.53-5.31" transform="translate(-3369.55 -230.23)"/><path class="cls-3" d="M3487.79,343.46c.35-1.42.22-1.06.57-2.48a5.37,5.37,0,0,0-1-.63,8.24,8.24,0,0,0-8.4.72,9.52,9.52,0,0,0-3.25,10.64c1.09,2.85,5,4.59,9.08,3.1a4.54,4.54,0,0,0,1.07-.63c.31-1.35.18-1,.5-2.37a7.46,7.46,0,0,1-3.42,1.47c-2.5.39-4.52-.82-4.64-4-.16-2.72,1.48-6.21,4.21-7.11,2.41-.81,4.13-.28,5.32,1.31" transform="translate(-3369.55 -230.23)"/><polygon class="cls-2" points="168.93 116.98 167.39 116.98 166.22 122.03 166.22 122.04 167.77 122.04 168.93 116.98"/><path class="cls-2" d="M3534.11,354.13c-.73,0-1.17-.36-1.17-.87a1.76,1.76,0,0,1,0-.19h-1.91v0c0,1.41.95,2.3,2.87,2.3a3,3,0,0,0,3.18-2.32h-1.57a1.44,1.44,0,0,1-1.42,1.06" transform="translate(-3369.55 -230.23)"/><path class="cls-2" d="M3534.26,347.22h-1.92c-.59,2.42-1,4.09-1.17,5h1.95c.21-1,.6-2.67,1.14-5" transform="translate(-3369.55 -230.23)"/><polygon class="cls-2" points="177.48 117.43 176.26 116.66 172.87 122.04 174.5 122.04 177.48 117.43"/><polygon class="cls-2" points="171.97 116.98 170.07 116.98 170.42 122.04 172.31 122.04 171.97 116.98"/><polygon class="cls-2" points="170.63 125.02 172.57 125.02 173.98 122.84 170.48 122.84 170.63 125.02"/><path class="cls-2" d="M3534,340.08a1.25,1.25,0,0,1,.62.16,1.14,1.14,0,0,1,.48.47,1.25,1.25,0,0,1,0,1.26,1.18,1.18,0,0,1-.47.47,1.29,1.29,0,0,1-.63.17,1.26,1.26,0,0,1-.62-.17,1.18,1.18,0,0,1-.47-.47,1.25,1.25,0,0,1,0-1.26,1.12,1.12,0,0,1,.47-.47,1.27,1.27,0,0,1,.62-.16m0,.21a1,1,0,0,0-.51.13,1.1,1.1,0,0,0-.4.4,1,1,0,0,0,0,1,.92.92,0,0,0,.39.39,1,1,0,0,0,.52.14,1,1,0,0,0,.53-.14,1,1,0,0,0,.39-.39,1.07,1.07,0,0,0,.14-.52,1,1,0,0,0-.15-.52,1,1,0,0,0-.39-.4,1.08,1.08,0,0,0-.52-.13m-.55,1.75v-1.36h.47a.94.94,0,0,1,.34,0,.28.28,0,0,1,.17.13.31.31,0,0,1,.07.2.38.38,0,0,1-.11.26.43.43,0,0,1-.28.12.35.35,0,0,1,.11.07,1.54,1.54,0,0,1,.21.28l.16.26h-.27l-.12-.21a1,1,0,0,0-.23-.32.26.26,0,0,0-.17-.05h-.13V342Zm.22-.77h.26a.46.46,0,0,0,.27,0,.21.21,0,0,0,.07-.15.15.15,0,0,0,0-.11.16.16,0,0,0-.09-.07.54.54,0,0,0-.22,0h-.25Z" transform="translate(-3369.55 -230.23)"/><path class="cls-4" d="M3519.76,292.13h-6.3c-.13-.1-.25-.21-.38-.3-4.31-2.65-21.9-2-32.45,1.16q-1.43.43-2.64.9a26.34,26.34,0,0,1-5.68,1.64,57.28,57.28,0,0,1-16,0,26.18,26.18,0,0,1-5.68-1.64q-1.21-.47-2.64-.9c-10.55-3.19-28.14-3.81-32.45-1.16a3.86,3.86,0,0,0-.38.3h-6.3a2,2,0,0,0-2,2v4.42a2.83,2.83,0,0,0,1.26,2.36l1.83,1.22a2,2,0,0,1,.87,1.7,37.34,37.34,0,0,0,2.93,15.43c3.45,8.07,15.42,10.49,24,10.49a26.94,26.94,0,0,0,7.7-.89c4.18-1.38,7.94-7.08,10.06-12a31.5,31.5,0,0,0,2.8-11.78,2,2,0,0,1,.91-1.67,9.83,9.83,0,0,1,10.11,0,2,2,0,0,1,.92,1.67,31.11,31.11,0,0,0,2.8,11.78c2.12,4.88,5.87,10.58,10,12a27,27,0,0,0,7.71.89c8.58,0,20.55-2.43,24-10.49a37.35,37.35,0,0,0,2.94-15.43,2,2,0,0,1,.87-1.7l1.83-1.22a2.83,2.83,0,0,0,1.26-2.36v-4.42A2,2,0,0,0,3519.76,292.13Zm-67.85,23.2c-2.16,5-5.31,9-7.66,9.79-4.86,1.6-23.32.78-26.81-7.4a33.23,33.23,0,0,1-2.6-13c0-4.78,1.15-8.55,2.8-9.57,1.13-.69,4.49-1.08,8.77-1.08a77.18,77.18,0,0,1,20.45,2.66c3.74,1.13,5.44,2.27,6.21,3a2.68,2.68,0,0,1,.58.75v0a10.09,10.09,0,0,1,.75,4.09A27.29,27.29,0,0,1,3451.91,315.33Zm59.32,2.36,0,0c-.05.11-.09.21-.14.31l-.12.23,0,.09c-3.25,5.86-14.55,7.62-21.66,7.38a18.6,18.6,0,0,1-4.85-.65c-2.35-.77-5.5-4.8-7.67-9.78-2.51-5.78-3.19-11.57-1.73-14.74.22-.47,1.35-2.14,6.79-3.78a77.31,77.31,0,0,1,20.46-2.66h1c3.79.06,6.71.43,7.74,1.07,1.64,1,2.78,4.77,2.8,9.54A33.39,33.39,0,0,1,3511.23,317.69Z" transform="translate(-3369.55 -230.23)"/><circle class="cls-5" cx="3465.32" cy="333.2" r="94.28" transform="translate(-3162.78 1328.26) rotate(-26.1)"/><circle class="cls-5" cx="3708.87" cy="381.79" r="94.28" transform="translate(-2553.22 2504.16) rotate(-45)"/><circle class="cls-5" cx="3927.22" cy="326" r="94.28" transform="translate(-2805.56 2149.56) rotate(-36.16)"/><circle class="cls-2" cx="176.28" cy="52.25" r="15.25"/><path class="cls-6" d="M3544.28,279.71l-2.65.58-1-4,4.86-1.33h4.12v16.41h-5.35Z" transform="translate(-3369.55 -230.23)"/><circle class="cls-2" cx="251.26" cy="103.34" r="15.25"/><path class="cls-6" d="M3613.86,337.41l6.75-4.84a4.2,4.2,0,0,0,1.09-1,1.68,1.68,0,0,0,.33-1,1.08,1.08,0,0,0-.39-.87,1.54,1.54,0,0,0-1.08-.34,2.59,2.59,0,0,0-1.41.46,11.38,11.38,0,0,0-1.73,1.56l-3.58-3a13.34,13.34,0,0,1,1.43-1.54,7.55,7.55,0,0,1,1.59-1.13,8.18,8.18,0,0,1,1.87-.69,10.66,10.66,0,0,1,2.3-.23,7.87,7.87,0,0,1,2.57.4,6.14,6.14,0,0,1,2,1.1A5.17,5.17,0,0,1,3627,328a4.8,4.8,0,0,1,.48,2.14v0a5.32,5.32,0,0,1-.24,1.66,4.55,4.55,0,0,1-.67,1.34,6.5,6.5,0,0,1-1.05,1.12,12.51,12.51,0,0,1-1.32,1l-2.91,1.87h6.35v4.25h-13.73Z" transform="translate(-3369.55 -230.23)"/><path class="cls-4" d="M3965,303.26l-.11-.15a10.79,10.79,0,0,0-4.83-2.77,20.68,20.68,0,0,0-9.07-.81l-14.73,3.23-25.68-3.33a2.07,2.07,0,0,0-.66,0,1.41,1.41,0,0,0-1.1,1,1.59,1.59,0,0,0,1.08,1.77l10,4.11-11.83,2.6c-2.63-2.1-5.1-4.11-7.38-6q-5.29-4.35-7.64-3.37c-1.63.68-1.37,2.8-1.09,3.51l6.33,13.57a1.83,1.83,0,0,0,.93,1,3.34,3.34,0,0,0,2.27,0l2.89-.65,15.33-1.26-3.87,5.34a1.4,1.4,0,0,0,.39,1.93,2.16,2.16,0,0,0,.64.33,2,2,0,0,0,1,.06,1.86,1.86,0,0,0,.56-.24l10.9-7.48,6.23-3.17,24.9-5.45,1.11-.22a12.11,12.11,0,0,0,2.29-.58c1.34-.55,1.72-1.54,1.12-3.05Zm0,0" transform="translate(-3369.55 -230.23)"/><circle class="cls-2" cx="506.64" cy="17.16" r="15.25"/><path class="cls-6" d="M3876.36,255.6a11.18,11.18,0,0,1-4.36-.77,9.49,9.49,0,0,1-3.16-2.17l3.23-3.32a7.46,7.46,0,0,0,1.86,1.31,4.62,4.62,0,0,0,2,.45,2.28,2.28,0,0,0,1.39-.36,1.13,1.13,0,0,0,.47-.94v-.05a1.08,1.08,0,0,0-.52-.95,3,3,0,0,0-1.62-.35h-2.3l-.72-2.42,3.58-2.84h-6.05V239h12.52v3.74l-3.65,2.75a6.33,6.33,0,0,1,2.93,1.59,4.13,4.13,0,0,1,1.09,3v0a5,5,0,0,1-.53,2.34,5.21,5.21,0,0,1-1.46,1.71,6.63,6.63,0,0,1-2.13,1A8.55,8.55,0,0,1,3876.36,255.6Z" transform="translate(-3369.55 -230.23)"/><path class="cls-2" d="M3610.68,390.93c-1.8-.54-3.61-1-5.43-1.43a37.48,37.48,0,0,0-7.91-1.5.84.84,0,0,0-.52,1.53c.17.49.33,1,.48,1.48h0c.16,1,.32,2.06.49,3.09l.4,2.59.36,2.27a.79.79,0,0,0,.77.66l-.25.18c-.81.55.1,1.81.93,1.4a46.06,46.06,0,0,0,9.58-6.29.83.83,0,0,0,0-1.26l.52-.47.65,0a.87.87,0,0,0,.51-1.58A.77.77,0,0,0,3610.68,390.93Zm-9.34,1.93-1,.32a15.05,15.05,0,0,0-.85-1.77c.76.2,1.52.39,2.28.55Q3601.52,392.41,3601.34,392.86Zm3.22,2.79-2.34,1.22c0-.17,0-.33,0-.49C3603,396.16,3603.81,395.92,3604.56,395.65Z" transform="translate(-3369.55 -230.23)"/><path class="cls-7" d="M3558.92,369.6s2.4,19.2,48.68,25.82" transform="translate(-3369.55 -230.23)"/><path class="cls-2" d="M3842,264.28c-.48-.42-.94-.87-1.4-1.31l-5.15-6.42a.62.62,0,0,0-.59-.73l-4-4.93c-.52-.64-1.45.24-.94.89l1.37,1.72c-.2.33-.4.66-.61,1l-.28-.28a.65.65,0,0,0-1.11.43,12.59,12.59,0,0,1-.37,2.33l-.35.43-1.71,2c-.68.71-1.37,1.41-2.06,2.11a.65.65,0,0,0-.19,1.26l1.35.51c-.66.06-1.32.13-2,.17a.69.69,0,0,0-.42.2c-.62.1-.85,1.06-.12,1.23.91.22,1.83.43,2.75.63a.66.66,0,0,0,.63.13,121.22,121.22,0,0,0,15.88,2.28c.77.06.83-1,.21-1.25l-.31-.13a.65.65,0,0,0,0-.83l-.52-.66A.55.55,0,0,0,3842,264.28Zm-10.82-5a1.88,1.88,0,0,1-.23-.16c.19-.39.37-.78.55-1.17l.47.51Zm4.09,3.64a.53.53,0,0,0,.11-.21l.45-.12,1.14,1.22C3836.36,263.55,3835.79,263.26,3835.23,263Zm5.52,2.73a.66.66,0,0,0-.46-.27l-.16,0-2.79-3,.17.06.69.54c.87.92,1.75,1.82,2.64,2.72Z" transform="translate(-3369.55 -230.23)"/><path class="cls-8" d="M3736.36,292.73s23.1-57,92.19-34.78" transform="translate(-3369.55 -230.23)"/><path class="cls-1" d="M3659.21,399.39V400H3654v-9.12h5.19v.65h-4.5v3.54h4.17v.65h-4.17v3.63Z" transform="translate(-3369.55 -230.23)"/><path class="cls-1" d="M3669.58,395.91V400h-.65v-4.13a1.69,1.69,0,0,0-1.73-1.91c-1.1,0-2,.73-2,2.4V400h-.65v-4.13c0-1.24-.66-1.91-1.67-1.91s-2,.73-2,2.4V400h-.65v-6.52h.65v1.12a2.28,2.28,0,0,1,2.1-1.26,2.07,2.07,0,0,1,2,1.33,2.35,2.35,0,0,1,2.17-1.33A2.28,2.28,0,0,1,3669.58,395.91Z" transform="translate(-3369.55 -230.23)"/><path class="cls-1" d="M3677.72,396.78a3.35,3.35,0,0,1-3.37,3.4,3.08,3.08,0,0,1-2.8-1.66v4.12h-.65v-9.12h.65V395a3.09,3.09,0,0,1,2.8-1.65A3.35,3.35,0,0,1,3677.72,396.78Zm-.65,0a2.76,2.76,0,1,0-2.76,2.77A2.74,2.74,0,0,0,3677.07,396.78Z" transform="translate(-3369.55 -230.23)"/><path class="cls-1" d="M3685.18,393.52V400h-.67v-1.48a3.13,3.13,0,0,1-2.8,1.62,3.4,3.4,0,0,1,0-6.8,3.14,3.14,0,0,1,2.8,1.61v-1.47Zm-.67,3.26a2.76,2.76,0,1,0-2.75,2.77A2.74,2.74,0,0,0,3684.51,396.78Z" transform="translate(-3369.55 -230.23)"/><path class="cls-1" d="M3692.17,396V400h-.66V396a1.8,1.8,0,0,0-1.92-2c-1.28,0-2.28.84-2.28,2.6V400h-.65v-6.52h.65v1.24a2.45,2.45,0,0,1,2.33-1.38A2.4,2.4,0,0,1,3692.17,396Zm-3.91-3.54h-.57c0-1.47.9-1.75,1.8-1,.73.62,1.17.63,1.17-.37h.57c0,1.46-.9,1.75-1.79,1C3688.71,391.45,3688.26,391.42,3688.26,392.44Z" transform="translate(-3369.55 -230.23)"/><path class="cls-1" d="M3699.89,393.52V400h-.67v-1.48a3.13,3.13,0,0,1-2.8,1.62,3.4,3.4,0,0,1,0-6.8,3.14,3.14,0,0,1,2.8,1.61v-1.47Zm-.67,3.26a2.76,2.76,0,1,0-2.75,2.77A2.74,2.74,0,0,0,3699.22,396.78Z" transform="translate(-3369.55 -230.23)"/><path class="cls-1" d="M3705.72,394.16v4.23c0,1.15.61,1.18,1.94,1.06V400c-1.71.26-2.6-.16-2.6-1.65v-4.23h-1.44v-.64h1.44v-1.63l.66-.19v1.82h1.94v.64Z" transform="translate(-3369.55 -230.23)"/><path class="cls-1" d="M3714.05,393.52V400h-.66V398.8a2.45,2.45,0,0,1-2.33,1.38,2.41,2.41,0,0,1-2.53-2.61v-4.05h.67v4.05a1.8,1.8,0,0,0,1.91,2c1.28,0,2.28-.83,2.28-2.59v-3.44Z" transform="translate(-3369.55 -230.23)"/><path class="cls-1" d="M3719.92,398.33c0,1.07-.94,1.85-2.33,1.85a2.45,2.45,0,0,1-2.48-1.45l.56-.32a1.87,1.87,0,0,0,1.92,1.14c.91,0,1.68-.4,1.68-1.22,0-1.77-3.95-.76-3.95-3.1a2,2,0,0,1,2.22-1.85,2.3,2.3,0,0,1,2.21,1.3l-.55.31a1.7,1.7,0,0,0-1.66-1c-.85,0-1.57.45-1.57,1.23C3716,397,3719.92,395.94,3719.92,398.33Z" transform="translate(-3369.55 -230.23)"/><path class="cls-1" d="M3723.93,390.52h.65V400h-.65Z" transform="translate(-3369.55 -230.23)"/><path class="cls-1" d="M3732.22,396.81c0,.1,0,.2,0,.31h-5.91a2.65,2.65,0,0,0,2.77,2.43,2.48,2.48,0,0,0,2.25-1.18l.57.34a3.22,3.22,0,0,1-2.84,1.47,3.41,3.41,0,1,1,3.17-3.37Zm-5.92-.33h5.24A2.53,2.53,0,0,0,3729,394,2.63,2.63,0,0,0,3726.3,396.48Z" transform="translate(-3369.55 -230.23)"/><path class="cls-1" d="M3738.73,396V400h-.66V396a1.8,1.8,0,0,0-1.92-2c-1.27,0-2.28.84-2.28,2.6V400h-.65v-6.52h.65v1.24a2.45,2.45,0,0,1,2.33-1.38A2.4,2.4,0,0,1,3738.73,396Z" transform="translate(-3369.55 -230.23)"/><path class="cls-1" d="M3741.44,394.16v4.23c0,1.15.61,1.18,1.94,1.06V400c-1.7.26-2.6-.16-2.6-1.65v-4.23h-1.44v-.64h1.44v-1.63l.66-.19v1.82h1.94v.64Z" transform="translate(-3369.55 -230.23)"/><path class="cls-1" d="M3750.18,396.81c0,.1,0,.2,0,.31h-5.9a2.65,2.65,0,0,0,2.76,2.43,2.49,2.49,0,0,0,2.26-1.18l.57.34a3.23,3.23,0,0,1-2.84,1.47,3.4,3.4,0,1,1-.05-6.8A3.26,3.26,0,0,1,3750.18,396.81Zm-5.91-.33h5.24A2.54,2.54,0,0,0,3747,394,2.63,2.63,0,0,0,3744.27,396.48Z" transform="translate(-3369.55 -230.23)"/><path class="cls-1" d="M3755.32,398.33c0,1.07-.94,1.85-2.34,1.85a2.44,2.44,0,0,1-2.47-1.45l.56-.32a1.85,1.85,0,0,0,1.91,1.14c.92,0,1.69-.4,1.69-1.22,0-1.77-4-.76-4-3.1a2,2,0,0,1,2.21-1.85,2.31,2.31,0,0,1,2.22,1.3l-.55.31a1.71,1.71,0,0,0-1.67-1c-.84,0-1.56.45-1.56,1.23C3751.37,397,3755.32,395.94,3755.32,398.33Z" transform="translate(-3369.55 -230.23)"/><path class="cls-1" d="M3764.8,393.52l-2.81,7.12a2.73,2.73,0,0,1-2.58,2V402c.87.08,1.53-.57,1.94-1.52l.14-.36-3-6.63h.71l2.63,5.8,2.27-5.8Z" transform="translate(-3369.55 -230.23)"/><path class="cls-4" d="M3689.69,406.88V416h-2v-.62a2.44,2.44,0,0,1-1.94.8,3.46,3.46,0,0,1,0-6.88,2.46,2.46,0,0,1,1.94.79v-3.22Zm-2,5.87a1.55,1.55,0,1,0-1.55,1.59A1.49,1.49,0,0,0,3687.73,412.75Z" transform="translate(-3369.55 -230.23)"/><path class="cls-4" d="M3694.43,414.44a1.73,1.73,0,0,0,1.25-.49l1.56.9a3.32,3.32,0,0,1-2.84,1.34,3.44,3.44,0,1,1-.14-6.88,3.29,3.29,0,0,1,3.31,3.44,4,4,0,0,1-.08.78h-4.63A1.49,1.49,0,0,0,3694.43,414.44Zm1.19-2.37a1.33,1.33,0,0,0-1.38-1,1.36,1.36,0,0,0-1.42,1Z" transform="translate(-3369.55 -230.23)"/><path class="cls-4" d="M3703.47,414.05c0,1.5-1.3,2.14-2.71,2.14a2.85,2.85,0,0,1-2.8-1.55l1.69-1a1.06,1.06,0,0,0,1.11.77c.47,0,.7-.14.7-.4,0-.72-3.2-.34-3.2-2.59,0-1.43,1.19-2.14,2.55-2.14a2.85,2.85,0,0,1,2.54,1.39l-1.67.9a.93.93,0,0,0-.87-.57c-.34,0-.55.13-.55.36C3700.26,412.14,3703.47,411.64,3703.47,414.05Z" transform="translate(-3369.55 -230.23)"/><path class="cls-4" d="M3704.05,412.75a3.38,3.38,0,0,1,3.46-3.44,3.34,3.34,0,0,1,2.94,1.67l-1.71,1a1.34,1.34,0,0,0-1.26-.73,1.51,1.51,0,0,0,0,3,1.32,1.32,0,0,0,1.26-.73l1.71,1a3.34,3.34,0,0,1-2.94,1.68A3.38,3.38,0,0,1,3704.05,412.75Z" transform="translate(-3369.55 -230.23)"/><path class="cls-4" d="M3717.46,409.49V416h-1.95v-.62a2.23,2.23,0,0,1-1.87.8,2.44,2.44,0,0,1-2.43-2.7v-4h1.95v3.71a1.08,1.08,0,0,0,1.13,1.19c.72,0,1.22-.42,1.22-1.34v-3.56Z" transform="translate(-3369.55 -230.23)"/><path class="cls-4" d="M3725.9,412.75a3.27,3.27,0,0,1-3.11,3.44,2.42,2.42,0,0,1-1.94-.8V416h-2v-9.13h2v3.22a2.45,2.45,0,0,1,1.94-.79A3.27,3.27,0,0,1,3725.9,412.75Zm-2,0a1.55,1.55,0,1,0-1.55,1.59A1.49,1.49,0,0,0,3724,412.75Z" transform="translate(-3369.55 -230.23)"/><path class="cls-4" d="M3730.92,409.36v2.22a1.54,1.54,0,0,0-2,1.48V416H3727v-6.52H3729v1.16A2,2,0,0,1,3730.92,409.36Z" transform="translate(-3369.55 -230.23)"/><path class="cls-4" d="M3734.94,414.44a1.71,1.71,0,0,0,1.25-.49l1.57.9a3.33,3.33,0,0,1-2.84,1.34,3.44,3.44,0,1,1-.15-6.88,3.28,3.28,0,0,1,3.31,3.44,3.33,3.33,0,0,1-.08.78h-4.62A1.48,1.48,0,0,0,3734.94,414.44Zm1.2-2.37a1.33,1.33,0,0,0-1.38-1,1.35,1.35,0,0,0-1.42,1Z" transform="translate(-3369.55 -230.23)"/><path class="cls-4" d="M3667.21,430.41a1.71,1.71,0,0,0,1.25-.49l1.57.9a3.54,3.54,0,1,1-3-5.54,3.29,3.29,0,0,1,3.31,3.44,3.33,3.33,0,0,1-.08.78h-4.62A1.47,1.47,0,0,0,3667.21,430.41Zm1.2-2.37a1.47,1.47,0,0,0-2.8,0Z" transform="translate(-3369.55 -230.23)"/><path class="cls-4" d="M3671.46,422.46h1.95V432h-1.95Z" transform="translate(-3369.55 -230.23)"/><path class="cls-4" d="M3684.79,425.46V432h-2v-.62a2.44,2.44,0,0,1-1.94.8,3.46,3.46,0,0,1,0-6.88,2.46,2.46,0,0,1,1.94.79v-.61Zm-2,3.26a1.55,1.55,0,1,0-1.55,1.59A1.49,1.49,0,0,0,3682.83,428.72Z" transform="translate(-3369.55 -230.23)"/><path class="cls-4" d="M3692.54,425.46l-2.41,6.52h-2.22l-2.41-6.52h2.16l1.36,4.13,1.35-4.13Z" transform="translate(-3369.55 -230.23)"/><path class="cls-4" d="M3693.06,423.71a1.17,1.17,0,1,1,1.17,1.18A1.18,1.18,0,0,1,3693.06,423.71Zm.19,1.75h2V432h-2Z" transform="translate(-3369.55 -230.23)"/><path class="cls-4" d="M3696.31,428.72a3.46,3.46,0,1,1,3.46,3.44A3.42,3.42,0,0,1,3696.31,428.72Zm5,0a1.5,1.5,0,1,0-1.5,1.54A1.47,1.47,0,0,0,3701.27,428.72Zm-.8-4.17,1.51-1.83h-2.34l-1,1.83Z" transform="translate(-3369.55 -230.23)"/><path class="cls-4" d="M3710.58,428v4h-1.95v-3.72a1.07,1.07,0,0,0-1.14-1.18c-.71,0-1.21.41-1.21,1.34V432h-2v-6.52h2v.61a2.22,2.22,0,0,1,1.86-.79A2.44,2.44,0,0,1,3710.58,428Z" transform="translate(-3369.55 -230.23)"/><path class="cls-4" d="M3714.85,427.42a4.63,4.63,0,0,1,4.75-4.75,4.53,4.53,0,0,1,3.9,2.11l-1.79,1.05a2.36,2.36,0,0,0-2.11-1.13,2.72,2.72,0,0,0,0,5.43,2.34,2.34,0,0,0,2.11-1.13l1.79,1.05a4.51,4.51,0,0,1-3.9,2.11A4.63,4.63,0,0,1,3714.85,427.42Z" transform="translate(-3369.55 -230.23)"/><path class="cls-4" d="M3727.55,429h-1v3h-2.08v-9.13h3.65a3.13,3.13,0,0,1,3.13,3.13,3,3,0,0,1-1.69,2.65l1.95,3.35h-2.25Zm-1-1.83h1.57a1.18,1.18,0,0,0,0-2.34h-1.57Z" transform="translate(-3369.55 -230.23)"/><path class="cls-4" d="M3734.58,422.85V432h-2.09v-9.13Z" transform="translate(-3369.55 -230.23)"/><path class="cls-4" d="M3742.07,430v2h-6.26v-1.62l3.5-5.5h-3.43v-2H3742v1.62l-3.49,5.5Z" transform="translate(-3369.55 -230.23)"/><path class="cls-4" d="M3748.58,430.54h-3.39l-.45,1.44h-2.28l3.1-9.13h2.66l3.1,9.13H3749Zm-.62-2-1.07-3.35-1.07,3.35Z" transform="translate(-3369.55 -230.23)"/><path class="cls-4" d="M3757.44,430v2h-5.34v-9.13h2.08V430Z" transform="translate(-3369.55 -230.23)"/><path class="cls-4" d="M3735,342.62l-7.62,5.78-16.69,1.19-2.63,2,11,3.64a45,45,0,0,1-7.86,5.44l-2.83-1.48a1.53,1.53,0,0,0-1.82.4l-.71,3.48c-2.44,3.16-15.82,8.87-10.35,8.57h.14l.15,0c.42,0,2.46-.25,2.89-.32,5.14-.74,13-3.3,24.51-13l1.06,10.39,2.41-1.73,5.12-14.85,6.13-5.3C3741.14,344.1,3738.49,340.73,3735,342.62Z" transform="translate(-3369.55 -230.23)"/><path class="cls-9" d="M3709.33,342.83c.84-3.44.54-2.56,1.39-6a13.17,13.17,0,0,0-2.51-1.52,20,20,0,0,0-20.36,1.74c-8,6.19-11.14,16.94-7.87,25.76,2.64,6.92,12.18,11.12,22,7.52a11.26,11.26,0,0,0,2.58-1.53c.76-3.26.45-2.48,1.21-5.75a18,18,0,0,1-8.27,3.57c-6.05.94-10.94-2-11.24-9.74-.39-6.57,3.58-15,10.18-17.2,5.84-2,10-.69,12.89,3.15" transform="translate(-3369.55 -230.23)"/><path class="cls-10" d="M3876.09,339.61a.57.57,0,1,1-1.14,0,.57.57,0,0,1,1.14,0Zm-.32,1.83.13,4V348h-.76v-2.52l.13-4Z" transform="translate(-3369.55 -230.23)"/><path class="cls-10" d="M3879.91,341.84v3.63h-.67v-3.63l-3.21-5.19h.75l2.8,4.55,2.78-4.55h.76Z" transform="translate(-3369.55 -230.23)"/><path class="cls-10" d="M3890.82,343.82c0,1-.9,1.79-2.25,1.79a2.38,2.38,0,0,1-2.4-1.4l.55-.32a1.77,1.77,0,0,0,1.85,1.11c.88,0,1.62-.39,1.62-1.18,0-1.72-3.81-.73-3.81-3a1.92,1.92,0,0,1,2.14-1.79,2.22,2.22,0,0,1,2.14,1.26l-.53.3a1.65,1.65,0,0,0-1.61-1c-.82,0-1.51.43-1.51,1.19C3887,342.51,3890.82,341.51,3890.82,343.82Z" transform="translate(-3369.55 -230.23)"/><path class="cls-10" d="M3897.61,342.34c0,.11,0,.21,0,.31h-5.71a2.57,2.57,0,0,0,2.68,2.35,2.42,2.42,0,0,0,2.18-1.14l.55.32a3.11,3.11,0,0,1-2.75,1.43,3.3,3.3,0,1,1,3.07-3.27Zm-5.73-.31H3897a2.45,2.45,0,0,0-2.46-2.4A2.55,2.55,0,0,0,3891.88,342Zm2.63-3.74h-.62l1-1.6h.75Z" transform="translate(-3369.55 -230.23)"/><path class="cls-10" d="M3907.39,342.34c0,.11,0,.21,0,.31h-5.71a2.56,2.56,0,0,0,2.67,2.35,2.42,2.42,0,0,0,2.18-1.14l.55.32a3.09,3.09,0,0,1-2.74,1.43,3.29,3.29,0,1,1,0-6.58A3.16,3.16,0,0,1,3907.39,342.34Zm-5.72-.31h5.06a2.45,2.45,0,0,0-2.45-2.4A2.54,2.54,0,0,0,3901.67,342Z" transform="translate(-3369.55 -230.23)"/><path class="cls-10" d="M3908.36,336.27h.63v9.2h-.63Z" transform="translate(-3369.55 -230.23)"/><path class="cls-10" d="M3914.39,338.83v.34h1.88v.62h-1.88v5.68h-.64v-5.68h-1.09v-.62h1.09v-.34a2.1,2.1,0,0,1,2.52-2.32v.6C3915,337,3914.39,337.61,3914.39,338.83Z" transform="translate(-3369.55 -230.23)"/><path class="cls-10" d="M3922.27,342.34c0,.11,0,.21,0,.31h-5.71a2.57,2.57,0,0,0,2.68,2.35,2.42,2.42,0,0,0,2.18-1.14l.55.32a3.1,3.1,0,0,1-2.75,1.43,3.3,3.3,0,1,1,3.07-3.27Zm-5.73-.31h5.07a2.45,2.45,0,0,0-2.46-2.4A2.55,2.55,0,0,0,3916.54,342Z" transform="translate(-3369.55 -230.23)"/><path class="cls-10" d="M3923.24,336.27h.63v9.2h-.63Z" transform="translate(-3369.55 -230.23)"/><path class="cls-10" d="M3925.12,337.14a.51.51,0,1,1,.5.5A.5.5,0,0,1,3925.12,337.14Zm.19,2h.63v6.3h-.63Z" transform="translate(-3369.55 -230.23)"/><path class="cls-10" d="M3931.86,344.85v.62h-4.79v-.42l3.78-5.26h-3.65v-.62h4.54v.41l-3.77,5.27Z" transform="translate(-3369.55 -230.23)"/><path class="cls-10" d="M3942,339.17v6a2.9,2.9,0,0,1-3.14,3,3.1,3.1,0,0,1-3-1.51l.55-.32a2.43,2.43,0,0,0,2.42,1.22,2.25,2.25,0,0,0,2.51-2.35V344a3,3,0,0,1-2.71,1.6,3.29,3.29,0,0,1,0-6.58,3,3,0,0,1,2.71,1.6v-1.46Zm-.63,3.15a2.67,2.67,0,1,0-2.67,2.68A2.65,2.65,0,0,0,3941.34,342.32Z" transform="translate(-3369.55 -230.23)"/><path class="cls-10" d="M3949.6,339.17v6.3H3949v-1.42a3,3,0,0,1-2.71,1.56,3.29,3.29,0,0,1,0-6.58,3,3,0,0,1,2.71,1.56v-1.42Zm-.64,3.15a2.67,2.67,0,1,0-2.66,2.68A2.65,2.65,0,0,0,3949,342.32Z" transform="translate(-3369.55 -230.23)"/><path class="cls-10" d="M3956.37,341.55v3.92h-.64v-3.92a1.74,1.74,0,0,0-1.85-1.92c-1.24,0-2.21.81-2.21,2.51v3.33H3951v-6.3h.63v1.2a2.37,2.37,0,0,1,2.26-1.34A2.32,2.32,0,0,1,3956.37,341.55Z" transform="translate(-3369.55 -230.23)"/><path class="cls-10" d="M3963.83,339.17v6.3h-.64v-1.42a3,3,0,0,1-2.71,1.56,3.29,3.29,0,0,1,0-6.58,3,3,0,0,1,2.71,1.56v-1.42Zm-.64,3.15a2.67,2.67,0,1,0-2.66,2.68A2.65,2.65,0,0,0,3963.19,342.32Z" transform="translate(-3369.55 -230.23)"/><path class="cls-10" d="M3971.46,336.65v8.82h-.63V344a3,3,0,0,1-2.71,1.6,3.29,3.29,0,0,1,0-6.58,3,3,0,0,1,2.71,1.6v-4Zm-.63,5.67a2.67,2.67,0,1,0-2.67,2.68A2.65,2.65,0,0,0,3970.83,342.32Z" transform="translate(-3369.55 -230.23)"/><path class="cls-10" d="M3972.47,342.32a3.31,3.31,0,1,1,3.32,3.29A3.27,3.27,0,0,1,3972.47,342.32Zm6,0a2.67,2.67,0,1,0-2.66,2.68A2.65,2.65,0,0,0,3978.45,342.32Z" transform="translate(-3369.55 -230.23)"/><path class="cls-10" d="M3982.83,339.08v.61a2,2,0,0,0-2.1,2.28v3.5h-.63v-6.3h.63v1.23A2.13,2.13,0,0,1,3982.83,339.08Z" transform="translate(-3369.55 -230.23)"/><path class="cls-4" d="M3900.07,352.1v8.83h-1.89v-.6a2.37,2.37,0,0,1-1.88.77,3.34,3.34,0,0,1,0-6.65,2.37,2.37,0,0,1,1.88.77V352.1Zm-1.89,5.67a1.5,1.5,0,1,0-1.5,1.54A1.44,1.44,0,0,0,3898.18,357.77Z" transform="translate(-3369.55 -230.23)"/><path class="cls-4" d="M3904.66,359.41a1.63,1.63,0,0,0,1.21-.48l1.51.87a3.18,3.18,0,0,1-2.74,1.3,3.33,3.33,0,1,1-.14-6.65,3.18,3.18,0,0,1,3.2,3.32,3.69,3.69,0,0,1-.08.76h-4.47A1.43,1.43,0,0,0,3904.66,359.41Zm1.16-2.29a1.42,1.42,0,0,0-2.71,0Z" transform="translate(-3369.55 -230.23)"/><path class="cls-4" d="M3917.89,354.62v6.31H3916v-.6a2.15,2.15,0,0,1-1.81.77,2.36,2.36,0,0,1-2.35-2.61v-3.87h1.89v3.6a1,1,0,0,0,1.09,1.14c.7,0,1.18-.4,1.18-1.3v-3.44Z" transform="translate(-3369.55 -230.23)"/><path class="cls-4" d="M3925.33,357.06v3.87h-1.9v-3.6a1,1,0,0,0-1.09-1.14c-.7,0-1.17.4-1.17,1.29v3.45h-1.89v-6.31h1.89v.6a2.14,2.14,0,0,1,1.8-.77A2.36,2.36,0,0,1,3925.33,357.06Z" transform="translate(-3369.55 -230.23)"/><path class="cls-4" d="M3935.89,354.62l-2.33,6.31h-2.14l-2.34-6.31h2.1l1.31,4,1.31-4Z" transform="translate(-3369.55 -230.23)"/><path class="cls-4" d="M3936.4,352.93a1.14,1.14,0,1,1,1.13,1.14A1.14,1.14,0,0,1,3936.4,352.93Zm.19,1.69h1.89v6.31h-1.89Z" transform="translate(-3369.55 -230.23)"/><path class="cls-4" d="M3946.33,354.62v6.31h-1.89v-.6a2.37,2.37,0,0,1-1.88.77,3.34,3.34,0,0,1,0-6.65,2.37,2.37,0,0,1,1.88.77v-.6Zm-1.89,3.15a1.5,1.5,0,1,0-1.5,1.54A1.44,1.44,0,0,0,3944.44,357.77Z" transform="translate(-3369.55 -230.23)"/><path class="cls-4" d="M3947.78,354.62h1.89v6.31c0,2-.9,2.81-2.9,2.69v-1.81c.7,0,1-.22,1-.88Zm-.19-1.69a1.14,1.14,0,1,1,1.14,1.14A1.15,1.15,0,0,1,3947.59,352.93Z" transform="translate(-3369.55 -230.23)"/><path class="cls-4" d="M3954.26,359.41a1.63,1.63,0,0,0,1.21-.48l1.51.87a3.18,3.18,0,0,1-2.74,1.3,3.33,3.33,0,1,1-.14-6.65,3.18,3.18,0,0,1,3.2,3.32,3.69,3.69,0,0,1-.08.76h-4.47A1.43,1.43,0,0,0,3954.26,359.41Zm1.16-2.29a1.42,1.42,0,0,0-2.71,0Z" transform="translate(-3369.55 -230.23)"/><path class="cls-4" d="M3958.25,359.9a1.2,1.2,0,1,1,1.19,1.2A1.2,1.2,0,0,1,3958.25,359.9Zm.06-5.28V352.1h2.27v2.52l-.38,3.15h-1.51Z" transform="translate(-3369.55 -230.23)"/></svg>