<?xml version="1.0" encoding="utf-8"?>
<!-- Generator: Adobe Illustrator 22.1.0, SVG Export Plug-In . SVG Version: 6.00 Build 0)  -->
<svg version="1.1" id="Capa_8" xmlns="http://www.w3.org/2000/svg" xmlns:xlink="http://www.w3.org/1999/xlink" x="0px" y="0px"
	 width="155.4px" height="75.6px" viewBox="0 0 155.4 75.6" style="enable-background:new 0 0 155.4 75.6;" xml:space="preserve">
<style type="text/css">
	.st0{fill:#D55019;}
</style>
<path class="st0" d="M45.8,69.8c-0.1-3.1,2.4-5.7,5.5-5.8c0.1,0,0.2,0,0.3,0c1.9,0,3.8,1,4.8,2.6l-2.2,1.3c-0.5-0.9-1.5-1.4-2.6-1.4
	c-1.8,0-3.3,1.5-3.3,3.3c0,1.8,1.5,3.3,3.3,3.3c1,0.1,2-0.5,2.6-1.4l2.2,1.3c-1,1.6-2.9,2.6-4.8,2.6c-3.1,0.1-5.7-2.4-5.8-5.5
	C45.8,70,45.8,69.9,45.8,69.8z"/>
<path class="st0" d="M58,71.8v-7.6h2.6v7.4c0,0.8,0.4,1.6,1.8,1.6s1.8-0.7,1.8-1.6v-7.4h2.6v7.6c0,2.4-1.9,3.8-4.3,3.8
	S58,74.2,58,71.8z"/>
<path class="st0" d="M77.1,72.1c0,1.9-1.6,3.3-3.4,3.3c-0.1,0-0.1,0-0.2,0h-4.7V64.2h4.4c1.8-0.1,3.4,1.2,3.5,3c0,0.1,0,0.1,0,0.2
	c0,0.8-0.4,1.7-1,2.2C76.6,70.1,77.2,71.1,77.1,72.1z M71.4,66.6v2h1.8c0.6,0,1-0.4,1-1s-0.4-1-1-1H71.4z M74.6,71.9
	c0-0.6-0.4-1-0.9-1.1c0,0-0.1,0-0.1,0h-2.1V73h2.1c0.6,0,1-0.4,1.1-0.9C74.6,72,74.6,72,74.6,71.9L74.6,71.9z"/>
<path class="st0" d="M85.4,73.6h-4.2l-0.6,1.8h-2.8l3.8-11.2h3.3l3.8,11.2H86L85.4,73.6z M84.6,71.2l-1.3-4.1L82,71.2H84.6z"/>
<path class="st0" d="M27.9,30.3c-3.8,0-6.8,3.1-6.8,6.8s3.1,6.8,6.8,6.8c3.8,0,6.8-3.1,6.8-6.8C34.7,33.4,31.6,30.3,27.9,30.3z
	 M27.9,43.3c-3.4,0-6.1-2.8-6.1-6.1c0-3.4,2.8-6.1,6.1-6.1c3.4,0,6.1,2.8,6.1,6.1C34,40.6,31.3,43.3,27.9,43.3L27.9,43.3z"/>
<path class="st0" d="M27.7,31.4c-3.2,0.1-5.7,2.8-5.6,6c0.1,3.2,2.8,5.7,6,5.6c3.1-0.1,5.6-2.7,5.6-5.8C33.7,33.9,31,31.4,27.7,31.4
	z M27.7,42.3c-2.8-0.1-5-2.5-4.9-5.3c0.1-2.8,2.5-5,5.3-4.9c2.7,0.1,4.9,2.4,4.9,5.1C33,40.1,30.6,42.4,27.7,42.3z"/>
<path class="st0" d="M148.1,31.1c0.1-1.1,0.2-2.1,0.2-3.2c0-0.2-0.1-0.3-0.2-0.5c-0.2-0.1-0.4-0.2-0.6-0.3c-0.1-2.3-0.4-4.6-0.5-5.4
	c0.8-1.5,2.6-5.3,1.9-7c1.3-2,2.2-4.2,2.8-6.5c0.1-0.3,0-0.7-0.3-0.9c-0.6-0.6-2.1-2.2-28.7,1.5c-0.4-0.7-1.8-2.1-6.8-5.5
	C108.5-2,62.1,0.7,60.1,0.8h-0.8l0.3,0.7c0,0,0.1,0.2,0.3,0.6c-4.5,3.8-8.1,10.7-8.9,12.1L5.5,14.4H5.3l-0.1,0.1
	c-1.5,0.9-3.8,3.6-1.9,7.7c0.1,0.3,0.3,0.6,0.6,0.9l0,0c-0.1,0.2-1.7,3.5-0.7,6.3c0.4,1.2,0.7,2.4,0.8,3.6c-1.4-0.1-2.5-0.1-2.9-0.1
	H0.7l-0.1,0.3C0.2,35,0,37,0,39c0,0.6,0.3,1.1,0.7,1.4c1,0.9,3.2,1.2,5.5,1.2c2.2,0,4.4-0.1,6.6-0.5c2-0.4,2.7-1.5,2.8-2.3
	c0.1-0.6,0.1-1.3-0.1-1.9v-0.1c0.7-2.1,1.6-4.2,2.9-6c-1.1,2-1.8,4.2-1.8,6.5c0.2,6.3,5.5,11.3,11.8,11.1
	c6.1-0.2,10.9-5.1,11.1-11.1v-0.1c-0.2-0.9-0.5-1.7-0.8-2.6c1.6,1.5,2.9,3.2,4,5l0.1,0.3l60.8,0.3h0.6l-0.1-0.6
	c-0.1-1.2-0.1-2.3,0.3-3.5c-0.1,0.6-0.1,1.2-0.1,1.8c0,6.3,5.1,11.5,11.4,11.5c6.3,0,11.5-5.1,11.5-11.4c0-0.7-0.1-1.5-0.2-2.2
	c0.7,0.3,1.5,0.7,2.3,1c0.4,0.1,0.7,0.4,0.9,0.8c0.1,0.4,0,0.8-0.2,1.2l-0.7,1.1l1.2-0.3c0,0,2.6-0.6,5.7-1.5
	c0.2,0.2,0.6,0.4,0.9,0.4c0.5,0,1.3,0.1,2.2,0.1c4,0,11-0.5,14.9-2c1-0.4,1.4-0.8,1.4-1.4C155.4,33.3,149.8,31.6,148.1,31.1z
	 M115.4,4.1c2.2,1.4,4.3,3.1,6.2,4.9h-0.2L120.6,9c-2.4-3.2-6-5.3-9.9-5.9l0,0c0,0-2.3-0.1-5.6-0.2h-0.6l1.9,8.4l-0.7,0.1l-1.7-7.8
	V3.5l-0.4-0.6h-0.3C96,2.6,86.8,2.3,83.6,2.3c-0.3,0-0.5,0.1-0.7,0.3c-0.6,0.8-0.3,2.8-0.2,3.4l2,8.1h-1.6L83,13.6
	c-2.5-10.8-2.7-10.8-3.1-11s-3.2-0.1-6.3-0.1c-3.5,0-7.4,0-8,0.1c-0.4,0-0.9,0.3-1.1,0.6c-0.4,0.6-0.5,1.3-0.4,2l2,8.8l-3.1,0.1
	v-0.3l0,0c1.6-2.6-0.2-8-1.6-11.3l0,0L61.1,2V2L61,1.7C67.1,1.4,108.7-0.7,115.4,4.1z M119.4,9.2c-4.2,0.6-8.4,1.2-12.3,1.8
	l-1.6-7.2l5,0.2C114,4.7,117.2,6.6,119.4,9.2L119.4,9.2z M104.4,11.5C97,12.7,91,13.7,88.6,14.2h-2.8l-2.1-8.3
	c-0.2-0.8-0.2-1.7,0-2.6c3.2-0.1,12.2,0.2,19.2,0.5L104.4,11.5z M82,14.2l-15,0.1l-2.1-9.2c-0.1-0.4,0-0.9,0.2-1.3
	c0.1-0.1,0.3-0.2,0.4-0.2c1.2-0.1,12.1-0.1,13.7,0c0.5,1.1,1.8,7,2.6,10.2L82,14.2z M60.3,3.6c0-0.1,0.2-0.1,0.2-0.1
	c0,0,0.1,0,0.1,0.1c0.8,2,2,5.3,1.9,7.7h-0.2c-1.9-0.1-3.5,1.2-3.9,3h-6L60.3,3.6z M59.4,14.2L59.4,14.2c0.3-1.1,1.3-1.8,2.4-1.9
	v1.1c-0.5,0.5-1.1,0.8-1.8,0.7L59.4,14.2L59.4,14.2z M5.5,15.4c2.2,0,28.4-0.1,53.3-0.2h0.5v-0.1h0.3h2.1v0.1h0.5l19.9-0.1v0.1
	l3.7-0.1v-0.1h2.7h0.1c2.4-0.4,8.5-1.5,15.9-2.7l0,0l2.6-0.4c4.1-0.6,8.4-1.3,12.8-1.9l0,0l2.2-0.3c8-1.1,14.5-1.8,19.2-2.2
	c7.9-0.6,9,0.1,9.1,0.3c-0.5,2.3-1.5,4.5-2.8,6.4l-0.2,0.3l0.2,0.3c0.6,0.8-0.5,3.8-1.6,6L5,22.9c-0.4-0.3-0.7-0.6-0.9-1.1
	C2.4,17.9,5,15.8,5.5,15.4L5.5,15.4z M132.5,22.6L132.5,22.6z M14.9,38.6c-0.2,1-1,1.5-2.3,1.8c-4.5,0.8-9.8,0.9-11.4-0.4
	c-0.3-0.2-0.5-0.6-0.5-0.9c0-1.8,0.2-3.7,0.6-5.4c0.8,0,1.7,0.1,2.7,0.1v0.2h0.5c7.6,0.4,8.6,0.8,8.8,0.9c0.6,0.5,1,1.2,1.3,1.9
	l0.5,1.2C14.9,38.1,14.9,38.3,14.9,38.6z M38.7,37.2c-0.2,6-5.2,10.6-11.1,10.4c-5.7-0.2-10.3-4.7-10.4-10.4c0-3.6,1.9-8.4,5.6-9.4
	h0.5c5.1,0.2,10,2.1,13.9,5.4C37.9,34.5,38.4,35.8,38.7,37.2L38.7,37.2z M115.6,48.6c-5.9,0-10.8-4.8-10.8-10.8
	c0-1.2,0.2-2.4,0.6-3.6c1.6-1.4,3.6-2.3,5.7-2.7c0.6,0,1.1,0,1.7,0c-3.5,1.5-5,5.6-3.5,9s5.6,5,9,3.5s5-5.6,3.5-9
	c-0.3-0.7-0.7-1.3-1.2-1.8c1.6,0.5,3.5,1.2,5.5,2.1c0.2,0.8,0.3,1.7,0.3,2.5C126.4,43.8,121.6,48.6,115.6,48.6L115.6,48.6z
	 M114.5,31.8c1.5,0.2,3.1,0.6,4.6,1c2.8,1.9,3.5,5.8,1.6,8.6c-1.9,2.8-5.8,3.5-8.6,1.6c-2.8-1.9-3.5-5.8-1.6-8.6
	C111.4,33,112.9,32,114.5,31.8z M135.3,37.1c-1.8,0.5-3.4,0.9-4.4,1.2c0.1-0.3,0.1-0.7,0-1c-0.2-0.7-0.7-1.2-1.4-1.5
	c-11.7-5.5-19.7-6.7-23.8-3.6c-2.8,2.1-2.9,5.5-2.8,6.9l-59.6-0.3c-1.7-2.7-3.9-5.1-6.5-7.1c-1.6-1.8-3.9-3-7.4-3.8
	c-2-0.6-4.1-1-6.2-1.1c-2.2-0.1-4.2,1.1-6,3.5c-1,1.5-1.9,3.1-2.5,4.9c-0.3-0.5-0.7-0.9-1.1-1.3c-0.3-0.2-1-0.6-8.8-1
	c-0.1-1.3-0.4-2.6-0.8-3.8c-0.7-2,0.2-4.5,0.5-5.3h0.2c0.9,0.5,2,0.6,3,0.3l7-0.1c7.3,0.2,32.2,0.4,60.6,0.4
	c16.8,0,32.5-0.1,44.3-0.2c5.8-0.1,10.3,0.2,13.4-0.2c1.5-0.2,5.4-0.7,5.4-0.7s-3.9-0.5-5.4-0.7c-0.1,0-0.2,0-0.3,0l13.2-0.2
	c0.1,1,0.3,2.7,0.4,4.4c-3.3,0.1-6.5,0.5-9.8,1.1l-0.3,0.1l-0.1,0.3C136.1,29.1,134.5,34.5,135.3,37.1L135.3,37.1z M153.8,35.8
	c-4.6,1.8-13.9,2.2-16.8,1.9c-0.1,0-0.2,0-0.2-0.1l-0.3-0.5c-0.9-1.5,0.2-6.2,0.7-8.2c1.4-0.2,7.4-1.3,9.7-1.1h0.6v-0.1
	c0.1,0,0.1,0,0.1,0.1c0,1.1-0.1,2.2-0.3,3.4v0.3l0.3,0.1c2.9,0.8,7.1,2.4,7.1,3.4C154.8,35.3,154.4,35.6,153.8,35.8L153.8,35.8z"/>
<path class="st0" d="M115.4,43.7c3.2-0.1,5.7-2.8,5.6-6c-0.1-3.2-2.8-5.7-6-5.6c-3.1,0.1-5.6,2.7-5.6,5.8
	C109.5,41.1,112.2,43.7,115.4,43.7C115.4,43.7,115.4,43.7,115.4,43.7z M115.4,32.8c2.8,0.1,5,2.5,4.9,5.3c-0.1,2.8-2.5,5-5.3,4.9
	c-2.7-0.1-4.9-2.4-4.9-5.1C110.1,35,112.5,32.7,115.4,32.8C115.4,32.8,115.4,32.8,115.4,32.8z"/>
</svg>
