<?xml version="1.0" encoding="utf-8"?>
<!-- Generator: Adobe Illustrator 22.1.0, SVG Export Plug-In . SVG Version: 6.00 Build 0)  -->
<svg version="1.1" id="Capa_8" xmlns="http://www.w3.org/2000/svg" xmlns:xlink="http://www.w3.org/1999/xlink" x="0px" y="0px"
	 width="160.3px" height="76.6px" viewBox="0 0 160.3 76.6" style="enable-background:new 0 0 160.3 76.6;" xml:space="preserve">
<style type="text/css">
	.st0{fill:#D55019;}
</style>
<path class="st0" d="M39.7,70.7c-0.1-3.1,2.4-5.7,5.5-5.8c0.1,0,0.2,0,0.3,0c1.9,0,3.8,1,4.8,2.6l-2.2,1.3c-0.6-0.9-1.5-1.4-2.6-1.4
	c-1.8,0-3.3,1.5-3.3,3.3c0,1.8,1.5,3.3,3.3,3.3c1.1,0.1,2-0.5,2.6-1.4l2.2,1.3c-1,1.6-2.9,2.6-4.8,2.6c-3.1,0.1-5.7-2.4-5.8-5.5
	C39.7,70.9,39.7,70.8,39.7,70.7z"/>
<path class="st0" d="M51.8,72.7v-7.6h2.6v7.4c0,0.8,0.4,1.6,1.8,1.6s1.8-0.7,1.8-1.6v-7.4h2.6v7.6c0,2.4-1.9,3.8-4.3,3.8
	S51.8,75.1,51.8,72.7z"/>
<path class="st0" d="M66.5,72.7h-1.2v3.7h-2.6V65.1h4.6c2.1,0,3.8,1.7,3.8,3.8c0,0,0,0,0,0c0,1.4-0.8,2.6-2.1,3.2l2.4,4.1h-2.8
	L66.5,72.7z M65.2,70.4h2c0.8-0.1,1.4-0.8,1.3-1.6c-0.1-0.7-0.6-1.2-1.3-1.3h-2L65.2,70.4z"/>
<path class="st0" d="M79.5,74.6h-4.2l-0.6,1.8H72l3.8-11.2h3.3l3.8,11.2h-2.8L79.5,74.6z M78.7,72.2l-1.3-4.1l-1.3,4.1H78.7z"/>
<path class="st0" d="M91.5,73.9v2.5h-7.7v-2l4.3-6.8h-4.2v-2.5h7.5v2l-4.3,6.8H91.5z"/>
<path class="st0" d="M99.9,74.6h-4.2l-0.6,1.8h-2.8l3.8-11.2h3.3l3.8,11.2h-2.8L99.9,74.6z M99.1,72.2l-1.3-4.1l-1.3,4.1H99.1z"/>
<path class="st0" d="M103.7,70.7c0-3.2,2.6-5.8,5.8-5.8c3.2,0,5.8,2.6,5.8,5.8c0,3.2-2.6,5.8-5.8,5.8c-3.2,0-5.8-2.5-5.8-5.7
	C103.7,70.8,103.7,70.8,103.7,70.7z M112.8,70.7c0-1.8-1.5-3.2-3.3-3.2s-3.2,1.5-3.2,3.3c0,1.8,1.5,3.2,3.3,3.2
	c1.8,0,3.2-1.4,3.3-3.1C112.8,70.9,112.8,70.8,112.8,70.7L112.8,70.7z"/>
<path class="st0" d="M160.1,9.3c-0.1-0.1-0.3-0.2-0.5-0.2c-0.4,0.1-35.4,6.1-84.6,9.7V8h3c0.3,0,0.6-0.3,0.6-0.6c0,0,0,0,0,0V3.5
	c0-0.3-0.3-0.6-0.6-0.6h-3c-0.4-1.8-2.1-3-3.9-2.9l0,0H36.5c-1.8-0.1-3.5,1.1-3.9,2.9h-2c-0.3,0-0.6,0.3-0.6,0.6c0,0,0,0,0,0v3.9
	C30,7.7,30.2,8,30.6,8c0,0,0,0,0,0h2v12.2C12.2,19.8,1,18.1,0.8,18.1c-0.2,0-0.4,0-0.5,0.2c-0.1,0.1-0.2,0.3-0.2,0.5
	c0,0.1,0.2,1.4,0.7,3.4l0,0C0.9,22.4,0.9,22.7,1,23l0.1,0.3l0,0l0.2,0.6l0,0V24l0,0l0.2,0.8l0,0l0,0l0,0c0.1,0.3,0.2,0.5,0.3,0.8
	l0,0l0,0l0,0c0.4,1.3,0.9,2.6,1.5,3.9c-0.1-0.2-0.1-0.4,0-0.6c0.1-0.1,0.1-0.2,0.2-0.2c0.1,0,0.2-0.1,0.3,0h0.3
	c-0.5-1.1-1-2.3-1.3-3.4l0,0l-0.3-0.8l0,0v-0.1l0,0l-0.5-1.7l0,0l1.1,0.1h0.1l1.2,0.1h0.1L6,23.1h0.4l1.2,0.1H8l1.6,0.1l0.5,0
	l1.3,0.1l0.8,0.1l1.4,0.1h0.7l2,0.1l0.9,0l1.4,0.1l1,0l2.2,0.1h0.9l1.7,0.1h1.1h1.8h1l2.6,0.1h1.2H34h9h2.2h1.2l3.4-0.1h1.2l2.5-0.1
	l1.4,0l3-0.1h0.9l3.9-0.2l1.2-0.1l2.3-0.1l0.8,0l1.3-0.1c1.4-0.1,2.9-0.2,4.3-0.3l2.4-0.2l0.9-0.1l0,0c-0.2,0.1-0.5,0.3-0.7,0.5
	c-1.6,1.3-2.5,3.3-2.4,5.3l-1.5,0.1l-3.1,0.2L66.7,29l-1.5,0.1h-0.1l-1.3,0.1l-1.7,0.1l-1.4,0.1h-0.8h-0.5h-0.2l-1.6,0.1l-1.2,0.1
	l-1.6,0.1h-0.1h-0.7h-0.4H52h-1.1h-1.3h-0.8h-0.5h-1.7h-0.9h-0.9H43h-1.6h-7.8h-1.7h-0.7h-0.9h-1.1h-1.7h-0.4h-0.8h-0.9h-0.3
	l-1.7-0.1h-0.8h-1.1h-0.2h-1.2h-0.9L18,29.5h-0.1h-0.9h-0.8l0,0l-1.5-0.1h-0.1H14h-0.9h0l-1.4-0.1l0,0h-0.4l-0.8-0.1h-0.2L9,29.1
	H8.9H8.6L7.8,29H7.7l0,0l-1.1-0.1H6.2l-0.8-0.1H5.2l-0.9-0.1H4.2H3.9c-0.1,0-0.2,0-0.3,0c-0.3,0.1-0.4,0.5-0.3,0.8c0,0,0,0,0,0l0,0
	c0.2,0.5,0.5,1,0.8,1.4l0.2,0.4l0,0l0,0c0.3,0.4,0.5,0.8,0.8,1.2l0,0c0.1,0.2,0.2,0.3,0.4,0.5l0,0l0.1,0.1c0.1,0.1,0.1,0.2,0.2,0.2
	l0,0c0.2,0.2,0.4,0.4,0.6,0.6c0.1,0,0.1,0.1,0.2,0.1c0,0-0.1,0-0.1-0.1c0.4,0.4,0.8,0.7,1.3,1c6.3,3.6,22.4,5.4,47.9,5.4
	c7.8,0,16.5-0.2,26.1-0.5c30.4-1.1,58.7-3.5,59-3.6c0.1,0,0.1,0,0.2-0.1c1-0.6,1.9-1.2,2.8-2l0,0c0.4-0.3,0.9-0.8,1.4-1.2l0,0
	l0.4-0.4l0,0l0,0l0.4-0.4l0.6-0.6l0.4-0.5l0,0l0.6-0.7l0.2-0.2l0,0c0.5-0.6,1.1-1.3,1.6-2l0,0l0.1-0.2c0.3-0.4,0.7-0.9,1-1.3l0,0
	l0.2-0.2c0.4-0.5,0.7-1,1.1-1.5l0,0l0.1-0.2c0.4-0.5,0.8-1.1,1.1-1.7l0,0l0.1-0.2l0.1-0.2l0,0c0.4-0.7,0.9-1.4,1.2-2
	c0,0,0.1-0.1,0.1-0.1l0,0c0,0.1-0.1,0.1-0.1,0.1l0.1-0.2l0.1-0.1c0.5-0.8,1-1.7,1.5-2.5l0.1-0.2c0.2-0.4,0.4-0.8,0.6-1.2l0,0
	l0.6-1.1l0,0l0.2-0.3l0,0l0,0l0.2-0.5l0,0l0,0l0.2-0.5l0,0l0,0l0.2-0.3l0,0l0.4-0.7l0,0c0.6-1.1,1-2.3,1.3-3.5
	C160.2,9.6,160.2,9.4,160.1,9.3z M74.4,4.1h3v2.7H61.3V4.1H74.4L74.4,4.1z M73.8,19L73.1,19c-4.1,0.3-8,0.5-11.7,0.7V8h12.5L73.8,19
	z M36.5,1.2H71l0,0c1.2-0.1,2.3,0.6,2.7,1.7H61.2c0-0.1-0.1-0.1-0.1-0.1c-0.1-0.1-0.3-0.2-0.4-0.2h-1c-0.2,0-0.4,0.1-0.5,0.3H47.7
	c-0.1-0.2-0.3-0.3-0.5-0.3h-1c-0.2,0-0.3,0.1-0.4,0.2c0,0-0.1,0.1-0.1,0.1H33.7C34.1,1.8,35.3,1.1,36.5,1.2z M59.1,8v11.8
	c-4,0.2-7.8,0.3-11.3,0.4V8L59.1,8z M47.8,6.8V4.2h11.3v2.7H47.8z M45.6,20.2c-4.3,0.1-8.2,0.1-11.9,0V8h11.9L45.6,20.2z M32.5,6.8
	h-1.4V4.2h14.5v2.7H32.5L32.5,6.8z M74,28.9c-0.1-1.7,0.7-3.3,2-4.3l0,0l0.9,1c-1,0.8-1.6,1.9-1.5,3.2c0,0.2,0,0.4,0,0.6
	c0,0.2,0.1,0.4,0.2,0.6l0,0c0,0.1,0.1,0.1,0.1,0.2l-0.5,0.5l0,0l-0.5,0.5v0.1l0,0v-0.2c-0.1-0.1-0.1-0.3-0.2-0.4l0,0
	c-0.1-0.2-0.2-0.4-0.2-0.6l0,0c-0.1-0.2-0.1-0.4-0.1-0.6C74,29.3,74,29.1,74,28.9L74,28.9z M77.6,26.6l0.2-0.2
	c0.3-0.2,0.6-0.3,0.9-0.3c0.2,0,0.3,0,0.5,0c0.8,0,1.5,0.3,2,0.9c0.1,0.1,0.2,0.3,0.3,0.5c0.1,0.2,0.2,0.4,0.2,0.5
	c0,0.1,0,0.2,0.1,0.4h-0.1l-2.4,0.2h-0.6l0,0l-2.2,0.2C76.6,27.9,77,27.1,77.6,26.6L77.6,26.6z M77.2,23.9c2.1-0.9,4.4-0.3,5.9,1.3
	l-1,0.9l0,0c-0.9-1-2.3-1.5-3.6-1.2c-0.1,0-0.2,0.1-0.3,0.1L77.2,23.9z M81.4,30.2l-2.1,0.2L78,30.5l-0.7,0.1
	c-0.1-0.1-0.2-0.3-0.3-0.5c0,0,0-0.1-0.1-0.2l0,0l1.6-0.1h0.3l1.5-0.1l0.7-0.1l0.8-0.1C81.7,29.8,81.6,30,81.4,30.2
	C81.7,30.2,81.5,30.2,81.4,30.2L81.4,30.2z M79.2,32.6c0.3,0,0.5,0,0.8-0.1l0.3-0.1l1,1.1c-2.1,0.9-4.5,0.4-6-1.2l0.5-0.5l0.5-0.4
	l0,0c0.1,0.1,0.3,0.2,0.4,0.3C77.5,32.3,78.3,32.6,79.2,32.6L79.2,32.6z M78,31.1l2.9-0.2l0,0c-0.1,0.1-0.2,0.1-0.3,0.2
	c-0.2,0.1-0.5,0.2-0.8,0.3C79.2,31.5,78.5,31.4,78,31.1L78,31.1z M5.5,30.7H5.1l0,0c-0.1-0.2-0.2-0.3-0.3-0.5h0.1l1.9,0.2h0.2h0.3
	l2,0.2h0.5l2.2,0.2h0.6l2.6,0.2h0.5l2.5,0.1h0.6h0.5l2.6,0.1h0.6l3.1,0.1h0.4l3.6,0.1h0.8c2.5,0,5,0.1,7.8,0.1h1.5h3.1h1.4l4.3-0.1
	h0.3c1.6,0,3.2-0.1,4.9-0.2H55l3.8-0.2l1.7-0.1l3.8-0.2l1.6-0.1c1.8-0.1,3.6-0.2,5.5-0.4l1.6-0.1c0,0.2,0.1,0.4,0.2,0.6l0,0l-1,0.1
	L69.7,31h0.1H69h0.7H69l0,0l-1.3,0.1h-0.6L66,31.1l0,0l-1.8,0.1h-0.6H63l0,0l-1.9,0.1h-1l-2,0.1h-0.8l-2.2,0.1h-0.5l-2.2,0.1h-0.6
	l-2.1,0.1h-0.5h-2.2h-0.4h-2.1H44h-2.1h-2.7c-0.7,0-1.3,0-1.9,0h-2.7h-1.8h-0.5h-1.7h-0.4h-1.6H28h-1.5H26h-1.4H24l-1.3,0h-0.6
	l-1.2-0.1h-0.4h-0.2l-1.2-0.1h-0.6l-1.1-0.1h-0.6l-1-0.1h-0.5h-0.1l-0.9-0.1h-0.5h-0.1l-0.9-0.1l-0.6,0l-0.8-0.1h-0.6l-0.7-0.1H9.6
	l-0.7,0l-0.6-0.1l-0.6,0l-0.6-0.1l-0.6,0L6,30.7L5.5,30.7z M140.7,35.4c-4,0.3-99.4,8.4-127.4,0.7l0.4,0.1c0.5,0.1,0.9,0.2,1.4,0.2
	l1,0.2l1.6,0.2l1,0.2l2,0.2l0.8,0.1c1,0.1,2,0.2,3,0.3l1.1,0.1l2.2,0.2l1.5,0.1l2,0.1l1.6,0.1l2.1,0.1l1.8,0.1l2.1,0.1l1.9,0.1h2.2
	h2h2.3h2.1h9.9h4h1l4.2-0.1h1.5l4.5-0.1h1.7l3.7-0.1h1.1l0,0l2.5-0.1h1.2l1.3,0h1.4h1.1l1.4,0h1.1l1.4-0.1h1l1.5-0.1h1l1.5-0.1h0.9
	l1.6-0.1h0.7l1.6-0.1h0.7l1.6-0.1h0.5l1.8-0.1h0.1l6.1-0.3h0.3l1.4-0.1h0.8l1.2-0.1h0.9l1.1-0.1l0.9-0.1l0.9-0.1l1.1-0.1l0.7,0
	l1.3-0.1h0.5l1.4-0.1h0.5l1.6-0.1l0,0l2.3-0.2h0.4l1.8-0.1h0.4l1.8-0.1h0.1l3.5-0.3l3.2-0.2C141.1,35.1,140.8,35.3,140.7,35.4
	L140.7,35.4z M145.9,31L145.9,31l-0.6,0.6l-0.8,0.8c-0.4,0.3-0.7,0.7-1,0.9l-0.1,0.1l0,0h-0.2h-0.6l-3.8,0.3l0,0l-3.8,0.3h-0.4
	l-1.2,0.1h-0.7l-2,0.1l-0.9,0.1l-1.2,0.1l-1,0.1l-1.2,0.1l-2,0.1l-1.1,0.1l-1.4,0.1l-1.1,0.1l-1.5,0.1l-1.9,0.1l-1.5,0.1l-1.4,0.1
	l-1.3,0.1l-1.5,0.1l-1.4,0.1l-2.7,0.2l-1.1,0.1l-0.9,0l0,0l2.1-0.2h0.3l2.1-0.2l0.6-0.1l6.4-0.7h0.2l2-0.2h0.3l5.9-0.7h0.2l1.8-0.2
	h0.4l5.1-0.7l0.3,0l1.5-0.2l0.4-0.1l4.4-0.6h0.2l1.3-0.2h0.3l3.6-0.5l0.4-0.1L145.9,31L145.9,31L145.9,31z M144.3,29.9l3-0.4
	L144.3,29.9z M148.1,30.5L148.1,30.5c0.1-0.1,0.2-0.2,0.3-0.4C148.3,30.2,148.2,30.3,148.1,30.5L148.1,30.5z M151.9,23.3l-0.7,1l0,0
	l0,0.1l-0.1,0.1c-0.4,0.5-0.7,1-1,1.5l0,0l-0.2,0.2c-0.3,0.5-0.7,0.9-1,1.3l-0.1,0.2c-0.1,0.1-0.1,0.2-0.2,0.3l0,0l-0.5,0.7
	l-0.4,0.5c-0.1,0.1-0.2,0.2-0.3,0.3l0,0c-3.5,0.5-8.2,1.2-13.8,2l-0.5,0.1h-0.2l-1.6,0.2H131l-1.6,0.2l-0.6,0.1l-1.3,0.2l-0.8,0.1
	l-1.2,0.2l-0.9,0.1l-1.1,0.1l-1.1,0.1l-0.9,0.1L120,33l-0.7,0.1l-1.5,0.2l-0.7,0.1l-4.5,0.5l0,0c-9.3,1-19.9,2.1-31.3,3l-6.9,0.2
	h-0.2l-2.5,0.1h-0.9l-2.6,0h-0.7h-2.3h-1h-2.1h-1h-2.4h-9.5h-1.5h-1.3h-1.5h-1.2h-1.4h-1.2h-1.3h-1.2l-1.2,0h-1.3l-1.1,0L33.7,37
	L32.6,37l-1.2-0.1l-1-0.1l-1.2-0.1l-1-0.1l-1.1-0.1l-0.9-0.1L25,36.4l-0.9-0.1l-1-0.1l-0.9-0.1l-1-0.1L20.4,36l-1-0.1l-0.7-0.1
	l-1-0.1L17,35.5l-0.9-0.1l-0.7-0.1l-0.9-0.1L13.9,35l-0.8-0.1l-0.7-0.1l-0.7-0.2l-0.6-0.2l-0.6-0.2l-0.6-0.2L9.3,34l-0.6-0.2
	l-0.5-0.2c-0.2,0-0.4-0.1-0.5-0.2l-0.4-0.1l0,0c-0.2-0.1-0.3-0.3-0.5-0.5l-0.3-0.3l0,0l0,0l-0.3-0.3l0,0l0,0l-0.1-0.1h0.3L8,32.3
	h0.1h0.4h0.2l2,0.2l0,0h0.4h0.1l1.9,0.1h0.5h0h0.2l2.4,0.2h0.1h0.5h0.2l2.3,0.1h0.2h0.4h0.2l2.8,0.1h0.8l2.9,0.1h0.7l3.3,0.1h0.9
	h3.8h5.4h3.1h1.4l4.6-0.1h0.3l4.5-0.1l1.6-0.1l3.5-0.2l1.8-0.1l3.6-0.2l1.7-0.1l5.5-0.4l1.5-0.1c0.2,0.4,0.5,0.8,0.8,1.1
	c1.9,2.1,5,2.7,7.5,1.4l0.4-0.2c0.3-0.2,0.6-0.4,0.9-0.6c0.9-0.7,1.5-1.6,1.9-2.6l0.8-0.1h0.2l0.7-0.1h0.5l1.9-0.2h0.3l1-0.1H91
	l1.8-0.2h0.3l1-0.1h0.2l1.7-0.2h0.4l1.1-0.1h0.3l1.4-0.1h0.4l0.9-0.1h0.3l1.5-0.2h0.5l0.7-0.1l0.5,0l1.4-0.1h0.5l0.6-0.1l0.6-0.1
	l1.3-0.1l0.5-0.1l0.6-0.1l0.6-0.1l1.2-0.1l0.6-0.1l0.6-0.1l0.5-0.1l1.1-0.1l0.6-0.1l0.7-0.1h0.4l1-0.1l0.6-0.1l0.7-0.1l0.5-0.1
	l0.9-0.1l0.6-0.1l0.5-0.1l0.6-0.1l0.8-0.1l0.6-0.1l0.6-0.1l0.6-0.1l0.7-0.1l0.6-0.1l0.6-0.1l0.6-0.1L127,27l0.6-0.1l0.7-0.1l0.5-0.1
	l0.5-0.1l0.6-0.1l0.7-0.1l0.5-0.1l0.5-0.1l0.6-0.1l0.6-0.1l0.6-0.1l0.4-0.1l0.5-0.1l0.7-0.1l0.5-0.1l0.3,0h0.4l0.8-0.1l0.6-0.1h0.2
	h0h0.2l1-0.1l0.7-0.1l1.2-0.2l0.6-0.1L143,25l0.6-0.1l1.1-0.2l0.5-0.1l1.1-0.2l0.5-0.1l1.1-0.2l0.4-0.1l1.1-0.2h0.3l1-0.2h0.3l1-0.1
	h0.1L151.9,23.3z M153.2,21.2c-0.1,0.3-0.3,0.5-0.5,0.8l0,0l-4.6,0.7l0,0h-0.2h-0.2l-1.1,0.2h-0.1h-0.2l-0.4,0.1l-1,0.2h-0.1h-0.1
	h-0.3l-2,0.3l-0.6,0.1l-2.7,0.6l0,0h-0.4l-1.6,0.2h-0.1l-0.6,0.1l0.4-0.1l-1.6,0.2l1.2-0.2l-1.2,0.2h-0.2H135l-1.2,0.2h-0.4h-0.2
	l-0.5,0.1l-1.3,0.2h-0.2h-0.2l-0.7,0.1l-1.6,0.2l-0.8,0.1l0,0l-1.3,0.2h-0.2h0.1h0.1h-0.2l-1,0.1l0,0l-0.8,0.1l-0.7,0.1l-1.1,0.1
	l0,0l-0.5,0l-0.9,0.1l-1.3,0.2l0,0H120l-0.7,0.1H119l-1.4,0.2l-1.2,0.1l-1.6,0.2l0,0l-1,0.1L112,27h-0.4h-0.2h-0.2l-2.1,0.2
	l-0.6,0.1l0,0l-2.4,0.2l-0.7,0.1l-2.4,0.2h-0.1h-0.3h-0.2l-2.6,0.3h-0.1l-3.1,0.3h-0.2c-3.2,0.3-6.6,0.6-10,0.9l0,0h-0.4h-0.3
	l-1.3,0.1c0,0.2-0.1,0.4-0.2,0.6c-0.1,0.2-0.2,0.4-0.3,0.6c-0.3,0.6-0.8,1.1-1.3,1.6l0,0l-0.9-1l0,0c0.2-0.1,0.3-0.3,0.5-0.4l0,0
	c0.2-0.2,0.3-0.4,0.5-0.6c0.1-0.2,0.2-0.4,0.3-0.6l0,0c0.1-0.2,0.1-0.4,0.2-0.7l0,0c0.1-0.4,0.1-0.8,0-1.2h-0.2h-0.3H83h0
	c0-0.2-0.1-0.4-0.1-0.6c0-0.1-0.1-0.2-0.1-0.2l1.1-1c0.3,0.5,0.4,1.1,0.5,1.7c0,0.2,0,0.4,0,0.6s0,0.4,0,0.6c0,0.2-0.1,0.4-0.1,0.7
	l1.3-0.1c0-0.2,0-0.4,0.1-0.7l0,0h0.3l1.6-0.1l1.6-0.1h0.3l1.6-0.1l0.8-0.1l1.1-0.1l1.6-0.2l1.7-0.2l1.7-0.2l1.6-0.2l1.7-0.2
	l1.5-0.2l1.6-0.2h0.2l1.3-0.1l1.5-0.2l1.5-0.2l1.6-0.2l0.7-0.1l0.7-0.1l1.6-0.2l1.4-0.2l1.5-0.2l0.5-0.1l0.8-0.1l1.5-0.2l1.2-0.2
	L122,25l1.2-0.1l1.5-0.2l1.1-0.1l1.5-0.2l1-0.1l1.5-0.2l0.9-0.1l1.4-0.2l0.7-0.1h0.2l1.4-0.2l0.8-0.1h0.1l1.3-0.2l0.5-0.1h0.2
	l1.4-0.2l0.3,0h0.3l1.3-0.2l0.7-0.1l1-0.1h0.3l0.6-0.1c4.1-0.6,7.4-1.1,10-1.5L153.2,21.2z M157.4,13.9L157.4,13.9l-0.6,1.2
	c-0.3,0.6-0.7,1.2-1,1.9l-0.3,0.5c-0.4,0.7-0.9,1.5-1.3,2.3l0,0l-2,0.3l-0.4,0.1l-0.7,0.1l-0.9,0.1l-0.5,0.1l-0.3,0l0,0l-1.2,0.2
	l-0.3,0h0l-1.2,0.2h-0.3H146l-0.7,0.1l-0.9,0.1h-0.2l0,0l-1.4,0.2h-0.2h-0.2h-0.1l-1.4,0.2h-0.2h-0.2l-1.8,0.2h-0.2l-0.7,0.1
	l-0.7,0.1l-0.4,0H136l-1.9,0.3h-0.3h-0.3l-1.2,0.6h-0.4h-0.4h-0.1l-1.2,0.2l-0.6,0.1l-0.6,0.1h-0.1l-1.3,0.2l-0.6,0.1l-0.5,0.1l0,0
	l-1.2,0.2l-0.8,0.1l-0.6,0.1l-2.1,0.2l-0.6,0.1h-0.1h-0.2l-1.8,0.2l-0.7,0.1l-2.2,0.2l-0.7,0.1l-2.4,0.3l-0.5,0.1l-2.4,0.3l-0.6,0.1
	l0,0l-2.1,0.2h-0.3l-0.7,0.1l-0.5,0l-1.6,0.2h-0.2l-0.9,0.1l-2.3,0.2l-0.9,0.1l0,0l-0.7,0.1l-1.8,0.2l-0.8,0.1l-1.5,0.1L94.3,27
	l-1.1,0.1l0,0L91,27.3l-0.7,0.1h-0.5l-1.3,0.1l-1.3,0.1l0,0l-0.9,0.1h-0.5c-0.1-0.8-0.3-1.6-0.7-2.3L85,25.2
	c-0.2-0.4-0.5-0.8-0.8-1.1c-0.7-0.7-1.5-1.3-2.4-1.7l0.8-0.1l2.7-0.2l1.5-0.1l2.5-0.2l1.5-0.1l2.4-0.2l1.5-0.1l2.3-0.2l1.5-0.2
	l2.3-0.2l1.4-0.1l2.2-0.2l1.4-0.1l2.2-0.2l1.3-0.1l2,0.1l1.3-0.1l2.1-0.2l1.2-0.1l2.1-0.2l1.1-0.1l2.1-0.2l1-0.1l2.1-0.2l0.9-0.1
	l2.1-0.3l0.8-0.1l2.2-0.3l0.5-0.1l2.4-0.3h0.3l4-0.5l5.7-0.8h0.1l2-0.3h0.2l1.7-0.2l0.4-0.1l1.4-0.2l0.4-0.1l1.3-0.2h0.3l1.3-0.2
	h0.2l1.1-0.2l0.3,0l1-0.2h0.2l1-0.2l0,0l0.9-0.2h0.1h0.3L157.4,13.9z M158,12.5L158,12.5h-0.2h-0.2l-0.5,0.1h-0.3l-0.6,0.1l-0.4,0.1
	l-0.6,0.1l-0.6,0.1l-0.6,0.1l-0.7,0.1l-0.7,0.1l-0.7,0.1l-0.7,0.1l-0.9,0.1l-0.8,0.1l-0.9,0.1l-0.9,0.1l-1,0.2l-0.9,0.1l-1.2,0.2
	l-0.8,0.1l-1.3,0.2l-0.9,0.1l-1.3,0.2l-1,0.1l-1.4,0.2l-1,0.1l-1.5,0.2l-1.1,0.1l-1.5,0.2l-1.1,0.1l-1.6,0.2l-1.2,0.2l-1.7,0.2
	l-1.2,0.2l-1.7,0.2l-1.2,0.2l-1.8,0.2l-1.2,0.2l-1.9,0.2l-1.3,0.2l-1.9,0.2l-1.4,0.2l-2,0.2l-1.3,0.1l-2.2,0.2l-1.3,0.1l-2.3,0.2
	l-1.4,0.1l-2.2,0.2L99.2,20l-2.3,0.2l-1.5,0.1l-2.4,0.2l-1.6,0.2l-2.3,0.2l-1.7,0.2l-2.3,0.2l-1.7,0.1L81,21.6l-1.8,0.1l-2.4,0.2
	l-1.8,0.1h-0.6h-0.6l-1.2,0.1l-3.7,0.2l-1.5,0.1l-1,0.1l-1.1,0.1l-1.6,0.1l-2,0.1h-0.3h-0.6h-0.8h-0.2h-0.6h-1l-1.7,0.1l-1.7,0.1
	L53,23h-0.3h-1.3h-1.6h-1.6h-0.5h-1h-1h-2h-1.5h-7.1h-1.4h-1.3h-1.3h-1.2h-1.3h-1.2h-1.2H25h-1.2l-1.1,0h-1.1l-1,0h-1.1h-1l-1.1-0.1
	l-0.9-0.1l-1-0.1h-0.8l-1-0.1H13l-0.9-0.1h-0.7l-0.8-0.1l-0.7-0.1l-0.7-0.1l-0.7-0.1l-0.6-0.1l-0.7-0.1l-0.5-0.1l-0.7-0.1H5.5
	L4.9,22H4.6l-0.7-0.1H3.7L3,21.9l0,0l-0.8-0.1l-0.4,0H1.8c-0.2-0.9-0.4-1.6-0.4-2.1c10.3,1.3,20.7,1.9,31.1,2h1.2
	c3.7,0,7.7,0,11.9,0h0.6h1h0.6c3.6-0.1,7.4-0.2,11.3-0.4h0.6h1h0.6c3.8-0.2,7.7-0.4,11.8-0.7h0.7l0.6,0H75c44.9-3.3,78-8.6,83.9-9.6
	C158.7,11,158.5,11.6,158,12.5L158,12.5z"/>
<path class="st0" d="M27.2,28.2h4c0.2,0,0.3-0.1,0.4-0.2c0.1-0.1,0.2-0.3,0.2-0.4v-1.7c0-0.3-0.3-0.6-0.6-0.6c0,0,0,0,0,0h-4
	c-0.2,0-0.3,0.1-0.4,0.2c-0.1,0.1-0.2,0.3-0.2,0.4v1.7C26.6,27.9,26.9,28.2,27.2,28.2C27.2,28.2,27.2,28.2,27.2,28.2z M30.6,26.5V27
	h-2.7v-0.5L30.6,26.5z"/>
<path class="st0" d="M64.5,18.3h5.9c0.3,0,0.6-0.3,0.6-0.6c0,0,0,0,0,0v-6.6c0-0.3-0.3-0.6-0.6-0.6c0,0,0,0,0,0h-5.9
	c-0.3,0-0.6,0.3-0.6,0.6v0v6.6C63.9,18.1,64.2,18.3,64.5,18.3L64.5,18.3z M65.1,11.8h4.7v5.4h-4.7V11.8z"/>
<path class="st0" d="M50.2,18.3H56c0.3,0,0.6-0.3,0.6-0.6v0v-6.6c0-0.3-0.3-0.6-0.6-0.6l0,0h-5.9c-0.3,0-0.6,0.3-0.6,0.6
	c0,0,0,0,0,0v6.6C49.5,18.1,49.8,18.3,50.2,18.3C50.1,18.3,50.1,18.3,50.2,18.3z M50.8,11.8h4.7v5.4h-4.7V11.8z"/>
<path class="st0" d="M36.6,18.3h5.9c0.3,0,0.6-0.3,0.6-0.6c0,0,0,0,0,0v-6.6c0-0.3-0.3-0.6-0.6-0.6c0,0,0,0,0,0h-5.9
	c-0.3,0-0.6,0.3-0.6,0.6v0v6.6C36,18.1,36.3,18.3,36.6,18.3L36.6,18.3z M37.2,11.8h4.7v5.4h-4.7L37.2,11.8z"/>
</svg>
