<?xml version="1.0" encoding="utf-8"?>
<!-- Generator: Adobe Illustrator 22.1.0, SVG Export Plug-In . SVG Version: 6.00 Build 0)  -->
<svg version="1.1" id="Capa_8" xmlns="http://www.w3.org/2000/svg" xmlns:xlink="http://www.w3.org/1999/xlink" x="0px" y="0px"
	 width="111.8px" height="126.9px" viewBox="0 0 111.8 126.9" style="enable-background:new 0 0 111.8 126.9;" xml:space="preserve"
	>
<title>MACHUPICCHU_2</title>
<polygon style="fill:#0047BA;" points="38.7,107.5 38.7,96.3 36.2,96.3 33.1,101.3 30.1,96.3 27.5,96.3 27.5,107.5 30.1,107.5 
	30.1,101 33,105.7 33.2,105.7 36.2,101 36.2,107.5 "/>
<path style="fill:#0047BA;" d="M43.4,105.7h4.2l0.6,1.8H51l-3.8-11.2h-3.3l-3.8,11.2h2.8L43.4,105.7z M45.5,99.2l1.3,4.1h-2.6
	L45.5,99.2z"/>
<path style="fill:#0047BA;" d="M57.3,107.7c1.9,0,3.8-0.9,4.8-2.6l-2.2-1.3c-0.5,0.9-1.5,1.4-2.6,1.4c-1.8-0.1-3.2-1.7-3.1-3.5
	c0.1-1.7,1.4-3,3.1-3.1c1,0,2,0.5,2.6,1.4l2.2-1.3c-1-1.6-2.9-2.6-4.8-2.6c-3.2-0.1-5.9,2.4-6.1,5.6c-0.1,3.2,2.4,5.9,5.6,6.1
	C56.9,107.7,57.1,107.7,57.3,107.7L57.3,107.7z"/>
<polygon style="fill:#0047BA;" points="63.7,96.3 63.7,107.5 66.2,107.5 66.2,103 69.7,103 69.7,107.5 72.3,107.5 72.3,96.3 
	69.7,96.3 69.7,100.6 66.2,100.6 66.2,96.3 "/>
<path style="fill:#0047BA;" d="M74.5,96.3v7.6c0,2.4,1.9,3.8,4.3,3.8s4.3-1.4,4.3-3.8v-7.6h-2.6v7.4c0,0.8-0.4,1.6-1.8,1.6
	s-1.8-0.7-1.8-1.6v-7.4H74.5z"/>
<path style="fill:#0047BA;" d="M30.8,115.5h-4.2v11.2h2.6v-3.5h1.7c2.1,0.1,3.9-1.5,4-3.6s-1.5-3.9-3.6-4
	C31.1,115.5,30.9,115.5,30.8,115.5L30.8,115.5z M30.8,120.8h-1.7v-2.9h1.7c0.8,0,1.4,0.6,1.4,1.4S31.6,120.8,30.8,120.8z"/>
<rect x="36.4" y="115.5" style="fill:#0047BA;" width="2.6" height="11.2"/>
<path style="fill:#0047BA;" d="M46.6,117.8c1,0,2,0.5,2.6,1.4l2.2-1.3c-1-1.6-2.9-2.6-4.8-2.6c-3.2-0.1-5.9,2.4-6.1,5.6
	c-0.1,3.2,2.4,5.9,5.6,6.1c0.2,0,0.3,0,0.5,0c1.9,0,3.8-0.9,4.8-2.6l-2.2-1.3c-0.5,0.9-1.5,1.4-2.6,1.4c-1.8,0-3.3-1.5-3.3-3.3
	C43.3,119.2,44.8,117.8,46.6,117.8L46.6,117.8z"/>
<path style="fill:#0047BA;" d="M58.2,117.8c1,0,2,0.5,2.6,1.4l2.2-1.3c-1-1.6-2.9-2.6-4.8-2.6c-3.2-0.1-5.9,2.4-6.1,5.6
	c-0.1,3.2,2.4,5.9,5.6,6.1c0.2,0,0.3,0,0.5,0c1.9,0,3.8-0.9,4.8-2.6l-2.2-1.3c-0.5,0.9-1.5,1.4-2.6,1.4c-1.8,0-3.3-1.5-3.3-3.3
	C54.9,119.2,56.4,117.8,58.2,117.8L58.2,117.8z"/>
<polygon style="fill:#0047BA;" points="70.7,119.8 67.2,119.8 67.2,115.5 64.6,115.5 64.6,126.7 67.2,126.7 67.2,122.2 70.7,122.2 
	70.7,126.7 73.2,126.7 73.2,115.5 70.7,115.5 "/>
<path style="fill:#0047BA;" d="M81.6,122.9c0,0.8-0.4,1.6-1.8,1.6s-1.8-0.7-1.8-1.6v-7.4h-2.6v7.6c0,2.4,1.9,3.8,4.3,3.8
	s4.3-1.4,4.3-3.8v-7.6h-2.6V122.9z"/>
<path style="fill:#0047BA;" d="M111.7,31.1c-0.8-1.2-2-2.2-3.4-2.7l-0.6-0.3c-0.8-0.5-1.6-1.1-2.3-1.7c-0.4-0.3-0.7-0.6-1.1-0.9
	c-0.9-0.7-2-1.1-3.1-1.2c-0.6-0.1-1.2-0.3-1.8-0.5c-0.3-0.1-0.6-0.3-0.8-0.5c-0.4-0.2-0.7-0.4-1.1-0.6c-0.5-0.2-0.9-0.3-1.4-0.5
	c-0.4-0.1-0.9-0.2-1.3-0.4l-0.4-0.2c-1.3-0.7-2.8-1.2-4.3-1.4c-1.4-0.2-2.8-0.4-4.1-0.6l-1.1-0.2c-0.5-0.1-1-0.4-1.4-0.8
	c-0.5-0.5-1.1-1-1.7-1.2c-0.6-0.2-1.3-0.3-2-0.2c-0.5,0.1-1.1,0-1.5-0.3c-0.8-0.8-1.4-1.8-1.8-2.9c-0.1-0.2-0.2-0.4-0.2-0.6
	c-0.2-0.7-0.5-1.4-1-2c-0.6-0.6-1.3-1-2.2-1.3c-0.4-0.1-0.7-0.3-1.1-0.5c-0.8-0.6-1.4-1.4-1.8-2.3c-0.3-0.6-0.6-1.1-1-1.6l-0.3-0.4
	c-1.4-1.9-3.4-4.5-5.8-5c-1.4-0.4-3-0.1-4.2,0.8c-0.8,0.6-1.4,1.3-1.9,2.2c-0.3,0.5-0.7,0.9-1.1,1.3l-0.5,0.4C54,6,52.8,7.4,52,8.9
	c-0.3,0.7-0.7,1.4-1.1,2c-0.5,0.7-1,1.5-1.3,2.4c-0.3,0.7-0.5,1.5-0.7,2.3c-0.2,1.2-0.7,2.4-1.3,3.4c-0.6,0.9-1.1,1.8-1.5,2.7
	c-0.6,1.1-1.2,2.2-1.9,3.2c-0.9,1.2-1.4,1.7-2.8,1.7c-1.9,0-3.7,0.5-5.3,1.3c-0.5,0.2-1,0.6-1.4,0.9c-0.3,0.3-0.7,0.6-1.2,0.8h-0.2
	l-0.2-0.3l-0.3-0.6L32.3,28c-1.3-2.1-2.9-4.4-5-5.7c-3.2-1.9-6.7,3-7.8,4.7c-1.6,2.4-2.8,5.1-3.6,7.9c-0.3,0.9-0.6,1.9-1,2.8
	c-0.8,1.7-1.8,3.4-2.8,5c-0.7,1.1-1.2,2-1.6,2.6c-0.5,1-1.9,1.8-3.9,3.1c-2.1,1.3-4.2,2.7-6.2,4.2c-0.4,0.3-0.5,0.9-0.2,1.3
	c0,0,0,0,0,0c0.2,0.2,0.4,0.4,0.7,0.4c0.2,0,0.4-0.1,0.6-0.2c1.9-1.5,4-2.8,6-4.1c2.3-1.4,3.8-2.4,4.6-3.8c0.3-0.6,0.9-1.5,1.5-2.5
	c1.1-1.7,2.1-3.4,3-5.2c0.4-1,0.7-2,1-2.9c0.8-2.6,1.9-5.1,3.4-7.4c3.1-4.5,4.7-4.5,5.4-4.1c1.8,1.1,3.2,3.2,4.4,5.2l0.5,0.7
	c0.1,0.2,0.2,0.3,0.3,0.5c0.2,0.6,0.7,1,1.3,1.2l0.6,0.5c0.9,0.7,1.8,1.5,2.6,2.4l0.3,0.4c0.4,0.7,1.1,1.3,1.8,1.7
	c-2.3,0.5-4.3,1.6-5.8,3.4l-4-2.3c-0.3-0.2-0.7-0.2-1,0.1l-2.8,2.2c-0.9,0.4-1.7,1.1-2.2,2c-1.1,0.5-2,1.4-2.4,2.5c0,0,0,0,0,0.1
	c-0.9,0.2-1.7,0.8-2.3,1.6c-0.2,0.3-0.4,0.7-0.4,1.1c-0.2,0-0.3,0-0.5,0.1c-0.7,0.3-1.3,0.9-1.7,1.6c-0.2,0.4-0.2,0.9-0.2,1.4
	c0.1,0.8,0.7,1.6,1.4,2l0.3,0.2c0.1,0.1,0.3,0.2,0.4,0.3l0.2,0.1c0,0.3,0,0.9,0,1.3l-7.5-0.6c-0.2,0-0.5,0.1-0.7,0.2l-2.8,2.5
	c-0.3,0.2-0.4,0.6-0.3,1c0.1,0.4,0.4,0.6,0.8,0.6L19,59h0.1c0.1,0,0.2,0,0.3-0.1c0,0,0,0,0,0.1c0,0.3-0.5,0.9-2.6,2l-0.2,0.1
	c-0.5,0.3-1,0.5-1.4,0.7c-1.3,0.6-2.5,1.3-3.7,2.2c-0.3,0.2-0.6,0.5-0.8,0.8c-0.1,0.1-0.1,0.2-0.2,0.2c-0.1,0-0.2-0.1-0.3-0.1
	c-0.8-0.3-1.7-0.6-2.6-0.7C6.4,64,5.3,64,4.1,64.2c-0.8,0.1-1.6,0.2-2.4,0.1c-0.5,0-0.9,0.3-1,0.8c0,0.5,0.3,0.9,0.8,1
	c0.9,0.1,1.9,0,2.8-0.2c1-0.2,1.9-0.2,2.9-0.1c0.8,0.1,1.5,0.3,2.2,0.6c0.3,0.1,0.7,0.2,1,0.2c0.6,0,1.2-0.3,1.5-0.8
	c0.2-0.2,0.4-0.4,0.6-0.5c1.1-0.8,2.2-1.4,3.4-2c0.5-0.2,1-0.5,1.5-0.8l0.1-0.1c1.2-0.6,3.4-1.8,3.6-3.4c0.1-0.6-0.1-1.3-0.6-1.7
	l1.1-1.4c0.8-0.1,1.6-0.3,2.4-0.7c0.2,0,0.4,0.1,0.6,0.1c0.8,0,1.6-0.3,2.2-0.7c0.2,0.2,0.5,0.4,0.8,0.6c0.1,0.1,0.3,0.2,0.5,0.2
	c0.4,0,0.7-0.3,1.1-0.7l1.1-1c0.6-0.5,1.3-1.2,1.5-1.4l0,0l0.2-0.1l0,0l0.1-0.1l0,0l0,0l0,0c0,0,0,0,0,0V52c0,0,0-0.1,0-0.1
	s0-0.1,0-0.1v-0.1c0,0,0-0.1,0-0.1c0,0,0-0.1,0-0.1c0,0,0-0.1,0-0.1v-0.1v-0.1c0,0,0-0.1,0-0.1l0-0.1c0,0-0.1,0-0.1-0.1l-0.1,0
	L32,51l0,0h0l0,0h0l-0.4-0.2c-1.1-0.5-2-1.5-2.3-2.7c-0.1-0.3-0.1-0.6-0.1-0.9c0.1-0.8-0.2-1.6-0.7-2.3c-0.8-0.6-1.7-1.1-2.6-1.3
	c-0.6-0.1-1.1-0.4-1.6-0.7c-0.1-0.1-0.2-0.1-0.2-0.2l0,0c0-0.2,0.5-0.7,1.5-1.3l0.1-0.1l2.4-1.9l4.6,2.6v2.6c0,0.2,0.1,0.4,0.2,0.6
	l6,7.2c0.3,0.4,0.9,0.4,1.3,0.1c0.4-0.3,0.4-0.9,0.1-1.3c0,0,0,0,0,0l-5.8-7v-2.8c0-0.3-0.2-0.6-0.5-0.8c1-1.1,3.4-3,9.1-3
	c0.5,0.1,1,0.3,1.5,0.6c1.8,0.8,3.8,1.1,5.8,1l0,0c1,0,2,0,3,0.1c0.5,0.1,0.9,0.2,1.3,0.4c0.5,0.2,1,0.4,1.5,0.5h0.2
	c0.8,0.2,1.5,0.6,2,1.2c0.5,0.5,1.1,1,1.8,1.3c1.2,0.5,2.5,0.6,3.8,0.4c0.5,0,1,0,1.5,0h1.2c1.3-0.1,2.6,0.1,3.8,0.5
	c0.7,0.3,1.3,0.8,1.7,1.4c0.4,0.5,0.9,1,1.5,1.3c0.7,0.4,1.5,0.7,2.3,0.9c0.8,0.2,1.5,0.5,2.1,1c0.1,0.1,0.2,0.3,0.3,0.4
	c0.2,0.4,0.6,0.7,1,1c0.9,0.4,1.9,0.6,2.9,0.5c0.4,0,0.8,0,1.1,0h0.1c0.5,0,0.9,0.1,1.3,0.3c0,0.1,0.1,0.3,0.1,0.5
	c0,0.6,0.2,1.3,0.6,1.7c0.5,0.5,1.1,0.7,1.8,0.8v0.1c0,0.2-0.1,0.4-0.1,0.5c-0.2,0.4-0.2,0.9-0.2,1.4V56c0,0.8,0.4,1.5,1,1.9
	l0.3,0.2c0.6,0.5,1.2,1.1,1.6,1.7l0.2,0.4c0.5,1.2,1.7,2,3,2.1c0.3,0,0.6,0.1,0.8,0.2c0.4,0.5-0.8,2.5-1.3,3.3
	c-0.3,0.4-0.6,0.9-0.8,1.4l-0.1,0.2c-0.4,1-0.9,1.9,0.2,3.1c0.1,0.2,0.3,0.3,0.5,0.4l-1.8,0.7c-1.4,0.5-2.8,1.1-4.2,1.8
	c-1.5,0.8-3.2,1.4-4.9,1.8c-0.2,0-0.3,0.1-0.5,0.3l-1.8-2.1l7.5-2.7c0.3-0.1,0.6-0.4,0.6-0.7c0-0.3-0.1-0.7-0.4-0.9l-9.5-6.8
	c-0.1-0.1-0.3-0.1-0.4-0.2l-4.8-0.7l-6.5-4.8l-1.9-6.8c-0.1-0.2-0.2-0.4-0.4-0.5l-6-3.9c-0.4-0.3-1-0.2-1.3,0.3
	c-0.3,0.4-0.2,1,0.3,1.3l4.7,3.1H58l-3.9-2.9c-0.2-0.1-0.3-0.2-0.5-0.2h-1.4l-5.5-3.5c-0.1-0.1-0.2-0.1-0.4-0.1
	c-3.1-0.5-3.6-1.1-3.7-1.2c0.2-0.4,0.6-0.7,1-0.9c0.4-0.3,0.6-0.8,0.3-1.3c-0.2-0.4-0.7-0.5-1.1-0.3c-0.4,0.2-2.2,1.2-1.9,2.8
	c0.2,1.3,1.8,2.2,5,2.7l5.6,3.6c0.1,0.1,0.3,0.1,0.5,0.1h1.4l3.9,2.9c0.2,0.1,0.3,0.2,0.5,0.2h4.5c0.1,0,0.2,0,0.3-0.1l0.2,0.9
	l-3,0.6L53.1,50c-0.2-0.1-0.3-0.1-0.5-0.1l-5.1,0.7c-0.4,0.1-0.6,0.3-0.7,0.6c-0.1,0.3,0,0.7,0.3,1l11.5,9.9
	c0.2,0.2,0.4,0.3,0.7,0.2L63,62l6.8,6.7l-6.5,0.5c-0.3,0-0.5,0.2-0.7,0.4c-0.2,0.2-0.2,0.5-0.1,0.8L68,86.2c0.1,0.4,0.5,0.6,0.9,0.6
	c0.1,0,0.2,0,0.3,0c0.5-0.2,0.7-0.7,0.6-1.2c0,0,0,0,0,0l-0.5-1.4l11.1-1c0.3,0,0.6-0.2,0.8-0.6c0.1-0.3,0.1-0.7-0.1-0.9l-7.1-8.4
	l-1.1-4c0-0.1,0-0.1-0.1-0.2l0,0c0-0.1-0.1-0.1-0.1-0.2l0,0L64,60.5c-0.2-0.2-0.5-0.3-0.7-0.3l-3.9,0.3L49.7,52l2.9-0.4l6.7,3.2
	c0.2,0.1,0.4,0.1,0.6,0.1l3.4-0.7l0.8,3c0,0.2,0.2,0.4,0.3,0.5l6.9,5.1c0.1,0.1,0.3,0.1,0.4,0.2l4.9,0.7l7.9,5.7l-7.1,2.5
	c-0.3,0.1-0.5,0.3-0.6,0.6c-0.1,0.3,0,0.6,0.2,0.8l11.1,12.8l0,0l0.3,0.3c0.2,0.2,0.4,0.3,0.7,0.3c0.2,0,0.4-0.1,0.6-0.2
	c0.1-0.1,0.2-0.3,0.3-0.4c0.5-0.1,1.1-0.2,1.7-0.4c2.9-0.6,6.2-1.2,6.6-3.3c0.1-0.8,0-1.6-0.5-2.2c-0.1-0.1-0.1-0.2-0.2-0.3
	c0,0,0.1-0.1,0.2-0.2c0.5-0.3,1-0.7,1.5-0.9c1.7-0.9,4-2.1,3.7-4.6c-0.1-0.7-0.4-1.4-0.8-2.1c-0.8-0.8-0.8-2.1,0-2.9
	c0.2-0.2,0.4-0.3,0.6-0.4c1.6-1.4,1.2-2.7,0.8-3.9c-0.4-1-0.5-2.1-0.3-3.2c0.1-0.3,0.1-0.7,0.1-1c3.9,2.6,4.1,3.5,3.3,5.6
	c-0.3,0.4-0.7,0.8-1.1,1.2c-0.6,0.5-1.1,1-1.5,1.7c-0.5,1.3-0.5,2.8,0.2,4c0.3,0.7,0.5,1.4,0.5,2.1c-0.1,0.9-0.6,1.7-1.3,2.4
	l-0.1,0.1c-0.2,0.2-0.4,0.4-0.6,0.5c-0.9,0.5-1.4,1.5-1.2,2.5c0.1,0.4,0.3,0.7,0.6,1c0.1,0.1,0.2,0.2,0.3,0.3c0,0.3,0,0.5-0.1,0.8
	c-0.1,0.5-0.4,0.9-0.7,1.2c-0.3,0.3-0.5,0.6-0.7,0.9c-0.3,0.4-0.3,1,0.1,1.3c0.4,0.3,1,0.3,1.3-0.1c0.1-0.1,0.1-0.1,0.2-0.2
	c0.2-0.3,0.4-0.5,0.6-0.7c0.5-0.5,0.9-1.2,1.1-1.9c0.2-0.5,0.2-1.1,0.1-1.7c-0.1-0.5-0.4-0.9-0.7-1.2l-0.2-0.2
	c0-0.2,0.4-0.5,0.7-0.7c0.3-0.2,0.5-0.5,0.8-0.8l0.1-0.1c0.9-0.9,1.5-2.1,1.7-3.4c0-1-0.2-2-0.6-2.9c-0.4-1.1-0.6-1.8-0.3-2.5
	c0.3-0.4,0.7-0.8,1.1-1.1c0.7-0.5,1.2-1.1,1.6-1.8c1.5-3.9-0.4-5.6-5.6-8.8c-0.1-0.1-0.2-0.3-0.3-0.4c-1.2-1.2-3.6-1.5-7.1-0.9
	l-0.3-0.1c-1-0.5-1.9-1-2.2-1.7L93,54.7c-1.4-4.1-2.5-7.6-9.8-6.3c-0.3,0-0.6,0-0.9,0c-0.6,0.1-1.3,0-1.9-0.2
	c-0.1-0.1-0.3-0.3-0.4-0.5c-0.2-0.2-0.4-0.5-0.6-0.7c-0.8-0.7-1.8-1.1-2.8-1.4c-0.6-0.1-1.2-0.4-1.8-0.7c-0.4-0.3-0.8-0.7-1.1-1.1
	c-0.6-0.8-1.4-1.4-2.4-1.8c-1.4-0.5-3-0.7-4.5-0.6h-1.1c-0.5,0-1.1,0-1.7,0c-1.6,0.4-3.2-0.1-4.3-1.3c-0.8-0.9-1.9-1.4-3-1.7h-0.1
	c-0.4-0.1-0.8-0.2-1.1-0.4c-0.6-0.3-1.2-0.4-1.8-0.5c-1.1-0.1-2.2-0.2-3.3-0.2l0,0c-1.7,0.1-3.3-0.1-4.9-0.8
	c-0.7-0.3-1.3-0.6-2.1-0.8l0,0c-0.6-0.2-1.1-0.3-1.7-0.4c-0.8-0.1-1.7-0.4-2.5-0.6c-0.6-0.2-1.1-0.6-1.4-1.2l-0.3-0.5
	c-0.7-0.9-1.5-1.7-2.4-2.4l0.7-0.5c0.3-0.3,0.6-0.5,1-0.7c1.4-0.7,3-1.1,4.6-1.1c1.8,0,3.4-0.9,4.2-2.5c0.7-1.1,1.4-2.2,2-3.4
	c0.5-0.9,0.9-1.8,1.5-2.6c0.7-1.2,1.2-2.6,1.5-3.9c0.2-0.7,0.4-1.4,0.6-2.1c0.3-0.7,0.7-1.4,1.1-2c0.5-0.7,0.9-1.5,1.3-2.3
	c0.8-1.3,1.7-2.5,2.9-3.4c0.2-0.2,0.3-0.3,0.5-0.5c0.5-0.5,0.9-1,1.3-1.5c0.4-0.6,0.9-1.2,1.5-1.7c0.8-0.6,1.8-0.8,2.8-0.5
	c1.8,0.3,3.5,2.7,4.7,4.2l0.3,0.5c0.3,0.5,0.6,0.9,0.9,1.4C69.2,9.2,70,10.2,71,11c0.5,0.3,1,0.5,1.5,0.7c0.5,0.1,1,0.4,1.4,0.7
	c0.3,0.4,0.5,0.9,0.6,1.3c0.1,0.2,0.1,0.5,0.2,0.7c0.4,1.4,1.2,2.7,2.3,3.7c0.8,0.6,1.8,0.9,2.7,0.8c0.4,0,0.9,0,1.3,0.1
	c0.4,0.2,0.8,0.5,1.1,0.8c0.6,0.7,1.5,1.2,2.4,1.4l1.1,0.2l4.1,0.6c1.3,0.2,2.6,0.6,3.8,1.2l0.4,0.2c0.5,0.2,1.1,0.4,1.6,0.5
	c0.4,0.1,0.8,0.2,1.1,0.3c0.3,0.1,0.6,0.3,0.8,0.5c0.4,0.2,0.7,0.4,1.1,0.6c0.7,0.3,1.4,0.5,2.1,0.6c0.8,0.1,1.6,0.4,2.3,0.8
	c0.4,0.3,0.7,0.6,1.1,0.9c0.8,0.7,1.7,1.4,2.6,1.9l0.7,0.4c1,0.4,1.9,1.1,2.6,2c0.3,0.4,0.8,0.5,1.3,0.3
	C111.8,32,111.9,31.5,111.7,31.1L111.7,31.1z M31.8,52.5L31.8,52.5L31.8,52.5L31.8,52.5z M31.7,52.5L31.7,52.5L31.7,52.5L31.7,52.5z
	 M31.5,52.5L31.5,52.5z M31.2,52.5L31.2,52.5z M18.6,57.1l-9.8-1l0.9-0.8l8.9,0.7c0.2,0.1,0.4,0.1,0.7,0.1L18.6,57.1z M21.3,54.3
	L21.3,54.3L19,54.1h-0.1c0.1-0.7,0-1.5-0.2-2.2c-0.2-0.4-0.5-0.7-0.9-0.9l-0.2-0.1l-0.4-0.3c-0.3-0.2-0.6-0.5-0.6-0.6
	c0-0.2,0-0.3,0-0.5c0.2-0.2,0.4-0.4,0.6-0.6c0.2,0,0.4,0,0.5-0.2c0.6,0.7,1.4,1.3,2.2,1.7c0.4,0.2,0.8,0.5,1.2,0.8
	c0.1,0.1,0.2,0.5,0.3,0.8c0.2,0.7,0.5,1.4,0.9,2.1C22,54.2,21.6,54.3,21.3,54.3L21.3,54.3z M24.3,53.5c-0.6-0.2-0.9-1.3-1.2-2.1
	c-0.1-0.6-0.4-1.1-0.8-1.6c-0.5-0.4-1-0.7-1.6-1c-0.8-0.3-1.5-0.9-2-1.6c0,0,0-0.1,0.1-0.3c0.3-0.4,0.8-0.7,1.3-0.8
	c0.3,0.3,0.6,0.5,0.9,0.7l0.2,0.1c0.5,0.3,1,0.6,1.6,0.9c0.2,0.1,0.4,0.2,0.7,0.3l0.4,0.2c0.2,0.1,0.5,0.2,0.5,0.3
	c0.2,0.5,0.2,1,0.3,1.5c0,0.8,0.2,1.6,0.5,2.3c0.1,0.3,0.3,0.5,0.4,0.8C25.3,53.6,24.8,53.6,24.3,53.5L24.3,53.5z M25.1,45.2
	c0.7,0.1,1.3,0.4,1.9,0.9c0.1,0.3,0.1,0.7,0.1,1.1c0,0.4,0.1,0.9,0.1,1.3c0.4,1.4,1.3,2.6,2.5,3.4l-0.7,0.6l-1,1
	c-0.5-0.5-0.9-1-1.2-1.6c-0.2-0.6-0.3-1.1-0.3-1.7c0-0.7-0.2-1.4-0.4-2c-0.3-0.6-0.8-1.1-1.5-1.3l-0.3-0.1l-0.7-0.3
	c-0.5-0.2-0.9-0.5-1.4-0.7l-0.2-0.2c-0.2-0.1-0.5-0.3-0.7-0.5c0.2-0.4,0.5-0.8,0.8-1.1c0.2,0.2,0.4,0.4,0.6,0.6
	C23.6,44.8,24.4,45.1,25.1,45.2L25.1,45.2z M72.1,73.9c0,0.1,0.1,0.3,0.2,0.3l6.1,7.2l-9.9,0.9l-1.2-3.5l5.6,0.3H73
	c0.5,0,0.9-0.5,0.9-1c0-0.4-0.4-0.8-0.8-0.8l-6.4-0.4l-0.8-2.4h4.7c0.5,0.1,1-0.3,1-0.8c0.1-0.5-0.3-1-0.8-1c-0.1,0-0.1,0-0.2,0
	h-5.4l-0.6-1.8l6.6-0.5L72.1,73.9z M101.3,59.2c0.5,0.5,0.5,1.2,0.3,2.3c-0.2,1.4-0.1,2.8,0.4,4.1c0.4,1.1,0.4,1.3-0.3,2
	c-1,0.8-1.6,1.8-1.9,3c0,0.9,0.3,1.8,0.8,2.6c0.3,0.4,0.5,0.9,0.6,1.4c0.1,1.1-1,1.8-2.7,2.8c-0.6,0.3-1.3,0.7-1.8,1.1
	c-0.9,0.6-1.1,1.9-0.5,2.8c0,0,0,0,0,0.1c0.2,0.4,0.3,0.6,0.3,0.9c-0.2,0.8-3.7,1.5-5.2,1.8c-0.9,0.2-1.6,0.3-2.2,0.5l-2.9-3.4
	c1.5-0.2,3-0.5,4.5-1c3.1-1.1,5.8-3.2,7.7-5.8c0.8-1,1-2.4,0.3-3.5c-0.1-0.2-0.2-0.5-0.3-0.8c-0.1-0.9,0.1-1.9,0.6-2.7
	c0.2-0.3,0.3-0.6,0.5-0.9c0.7-1,1.9-2.9,0-4.3c-0.5-0.4-0.9-1-0.9-1.6c-0.1-0.7-0.4-1.4-0.9-2C100,58.3,101,58.8,101.3,59.2z
	 M91.2,55.3l0.1,0.3c0.5,1.4,1.9,2.1,3.1,2.8c0.6,0.3,1.2,0.6,1.7,1.1c0.3,0.4,0.5,0.9,0.6,1.4c0.2,1.1,0.8,2.1,1.7,2.7
	c0.4,0.2,0.5,0.3-0.4,1.7c-0.3,0.4-0.5,0.8-0.7,1.2c-0.7,1.2-0.9,2.6-0.7,4c0.1,0.3,0.2,0.7,0.4,1c0.3,0.8,0.4,1-0.1,1.8
	c-1.7,2.4-4.1,4.2-6.8,5.2c-1.7,0.5-3.5,0.8-5.3,1l-2.4-2.8c1.7-0.4,3.4-1.1,5-1.9c1.3-0.7,2.6-1.2,3.9-1.7c1.2-0.4,2.4-0.9,3.5-1.5
	c0.5-0.2,0.6-0.8,0.4-1.2c-0.1-0.1-0.1-0.2-0.2-0.3c-0.3-0.2-0.6-0.4-0.9-0.6c-0.3-0.1-0.5-0.3-0.8-0.5c-0.3-0.3-0.3-0.3,0.1-1.2
	l0.1-0.2c0.2-0.4,0.4-0.8,0.7-1.2c1.1-1.7,2.6-4.1,1-5.6c-0.5-0.4-1.1-0.6-1.8-0.7c-0.3,0-0.7-0.1-1-0.2c-0.3-0.3-0.6-0.6-0.8-1
	c-0.1-0.2-0.2-0.3-0.3-0.4c-0.5-0.8-1.2-1.6-2-2.2l-0.3-0.2l-0.3-0.2c0-0.1,0-0.2,0-0.4v-0.2c0-0.2,0-0.5,0.1-0.7
	c0.1-0.3,0.2-0.7,0.2-1c0-1.5-0.8-1.8-1.6-1.9c-0.3,0-0.6-0.1-0.8-0.3c0-0.1-0.1-0.3-0.1-0.5c0-0.3-0.1-0.7-0.1-1
	C89.5,50.2,90.2,52.2,91.2,55.3L91.2,55.3z"/>
<path style="fill:#0047BA;" d="M66.9,48.7c-0.4-0.3-1-0.2-1.3,0.2c-0.3,0.4-0.2,1,0.2,1.3l3,2.4c0.2,0.1,0.4,0.2,0.6,0.2h0.1
	l7.8-0.9c0.5-0.1,0.9-0.5,0.8-1c0-0.3-0.2-0.5-0.4-0.6l-3.3-2.4c-0.4-0.3-1-0.3-1.3,0.1s-0.3,1,0.1,1.3c0,0,0.1,0.1,0.2,0.1l1.4,1
	l-5.1,0.6L66.9,48.7z"/>
<path style="fill:#0047BA;" d="M69,54.4c-0.4-0.3-1-0.3-1.3,0.1c-0.3,0.4-0.3,1,0.1,1.3c0,0,0.1,0.1,0.1,0.1l5.7,4.2
	c0.2,0.1,0.4,0.2,0.5,0.2h0.1l11.9-1c0.5,0,0.9-0.5,0.9-1c0-0.3-0.1-0.5-0.3-0.7l-5.3-4.4c-0.2-0.2-0.5-0.2-0.7-0.2l-2.8,0.4
	c-0.2,0-0.4,0.1-0.5,0.3L75.1,56c-0.3,0.4-0.3,0.9,0,1.3c0.4,0.3,0.9,0.3,1.3,0l0,0l2-2.1l2-0.3l3.3,2.7l-9.3,0.7L69,54.4z"/>
<path style="fill:#0047BA;" d="M27.4,76.4c0.1,0,0.2,0,0.2,0c0.2-0.1,0.4-0.2,0.6-0.5l6.6-12.4c0.2-0.4,0.1-1-0.4-1.2c0,0,0,0,0,0
	c-0.4-0.2-1-0.1-1.2,0.4L27,74.2l-9.2-5.4c-0.1-0.1-0.3-0.1-0.4-0.1h-0.5c0.5-0.3,1.1-0.7,1.7-1s1-0.5,1.4-0.8
	c0.8-0.5,1.5-1,2.2-1.5c0.5-0.3,0.9-0.7,1.4-1c0.1-0.1,0.2-0.2,0.3-0.2c1-0.7,2.5-1.7,2.7-3c0.1-0.7-0.1-1.5-0.6-2.1
	c-0.8-0.8-1.8-1.2-2.9-1.2c-0.5,0-0.9,0.4-1,0.9c0,0.5,0.4,0.9,0.9,1c0.1,0,0.1,0,0.2,0c0.5,0,1.1,0.2,1.5,0.6
	c0.1,0.1,0.2,0.3,0.2,0.5c-0.1,0.6-1.2,1.4-1.9,1.8l-0.4,0.2c-0.5,0.3-1,0.7-1.5,1.1c-0.7,0.5-1.3,1-2,1.4c-0.5,0.3-0.9,0.5-1.4,0.8
	c-1.1,0.6-2.2,1.3-3.2,2.1c-0.1,0.1-0.2,0.2-0.3,0.4l-8.1-0.4c-0.2,0-0.4,0.1-0.6,0.2l-5.2,4.2c-0.4,0.3-0.5,0.9-0.2,1.3
	c0.3,0.4,0.9,0.5,1.3,0.2c0,0,0.1-0.1,0.1-0.1l5-4l10.7,0.5l9.8,5.8C27.1,76.4,27.2,76.4,27.4,76.4z"/>
<path style="fill:#0047BA;" d="M52.2,83.1L52.2,83.1l8.6-0.5c0.5,0,0.9-0.5,0.9-1c0,0,0-0.1,0-0.1L60,73c0-0.2-0.1-0.3-0.2-0.4
	L56.6,69c-0.2-0.2-0.4-0.3-0.7-0.3c-0.3,0-0.5,0.1-0.7,0.4L52,73.3c-0.1,0.1-0.2,0.3-0.2,0.5l-0.5,8.3c0,0.3,0.1,0.5,0.3,0.7
	C51.8,83,52,83.1,52.2,83.1z M53.6,74.2L56,71l2.3,2.6l1.4,7.2l-6.4,0.4L53.6,74.2z"/>
<path style="fill:#0047BA;" d="M48.8,86.8L48.8,86.8c0.6,0,1-0.4,1-0.8l0.8-9.1c0,0,0-0.1,0-0.1L50,67v-0.2l-2.1-8.5
	c-0.1-0.5-0.5-0.7-1-0.7l-2.3,0.2l0-0.4c0-0.2-0.1-0.5-0.3-0.6c-0.2-0.2-0.4-0.2-0.7-0.2L41.2,57l-0.9-3V54v-0.1c0,0,0-0.1-0.1-0.1
	l0,0l0,0c-0.1-0.1-0.2-0.2-0.3-0.2l0,0h-0.1h-0.1h-5.4c-0.3,0-0.6,0.2-0.8,0.5l-3.3,6c-0.2,0.3-0.2,0.6,0,0.9
	c0.2,0.3,0.5,0.5,0.8,0.5h7c0.4,0,0.8-0.3,0.9-0.7l0.7-2.8l0.2,0.6c0.1,0.4,0.6,0.7,1,0.7l2.2-0.3l0.7,6.2l-6-1
	c-0.4-0.1-0.9,0.2-1,0.6l-1.2,3.8c-0.1,0.3-0.1,0.5,0.1,0.8c0.2,0.2,0.4,0.4,0.7,0.4l7.9,0.9L44,72l-8.4-0.7c-0.4,0-0.8,0.2-0.9,0.6
	L33,76.8c-0.1,0.3-0.1,0.6,0.1,0.8c0.1,0.2,0.4,0.4,0.7,0.4l9.5,0.8l-0.7,6.7c0,0.5,0.3,0.9,0.8,1h0.1c0.5,0,0.9-0.4,0.9-0.8
	L46,69.8v-0.2l-1-9.7l1.5-0.2l1.9,7.6l0.5,9.5l-0.8,9.1C48.2,86.3,48.4,86.6,48.8,86.8z M37.1,59.4h-4.7l2.3-4.2h3.5L37.1,59.4z
	 M37.3,67.8l0.6-1.9l5.8,0.9l0.2,1.7L37.3,67.8z M43.3,76.9l-8.4-0.8l1-3.1l7.7,0.7L43.3,76.9z"/>
</svg>
