<?xml version="1.0" encoding="utf-8"?>
<!-- Generator: Adobe Illustrator 22.1.0, SVG Export Plug-In . SVG Version: 6.00 Build 0)  -->
<svg version="1.1" id="Capa_8" xmlns="http://www.w3.org/2000/svg" xmlns:xlink="http://www.w3.org/1999/xlink" x="0px" y="0px"
	 width="143.6px" height="113.4px" viewBox="0 0 143.6 113.4" style="enable-background:new 0 0 143.6 113.4;" xml:space="preserve"
	>
<style type="text/css">
	.st0{fill:#0047BA;}
</style>
<path class="st0" d="M47,113.4h-2.6v-6.5l-2.9,4.8h-0.3l-2.9-4.8v6.5h-2.5v-11.2h2.6l3,5l3-5h2.6L47,113.4z"/>
<path class="st0" d="M55.8,111.6h-4.2l-0.6,1.8h-2.8l3.8-11.2h3.3l3.8,11.2h-2.8L55.8,111.6z M55,109.2l-1.3-4.1l-1.3,4.1H55z"/>
<path class="st0" d="M70.5,107.8c0.1,3-2.3,5.5-5.3,5.6c-0.1,0-0.1,0-0.2,0h-4.5v-11.2H65c3,0,5.4,2.4,5.5,5.4
	C70.5,107.7,70.5,107.7,70.5,107.8z M68,107.8c0.1-1.6-1-3-2.6-3.1c-0.1,0-0.3,0-0.4,0h-1.9v6.3H65c1.6,0.1,2.9-1.2,3-2.8
	C68,108,68,107.9,68,107.8z"/>
<path class="st0" d="M76.1,109.7h-1.2v3.7h-2.6v-11.2h4.5c2.1,0,3.8,1.7,3.9,3.8c0,0,0,0,0,0c0,1.4-0.8,2.6-2.1,3.2l2.4,4.1h-2.8
	L76.1,109.7z M74.9,107.5h1.9c0.8-0.1,1.4-0.8,1.3-1.6c-0.1-0.7-0.6-1.2-1.3-1.3h-1.9L74.9,107.5z"/>
<path class="st0" d="M85.1,102.2v11.2h-2.6v-11.2H85.1z"/>
<path class="st0" d="M97.4,107.8c0.1,3-2.3,5.5-5.3,5.6c-0.1,0-0.1,0-0.2,0h-4.5v-11.2h4.5c3,0,5.4,2.4,5.5,5.4
	C97.4,107.7,97.4,107.7,97.4,107.8z M94.9,107.8c0.1-1.6-1-3-2.6-3.1c-0.1,0-0.3,0-0.4,0H90v6.3h1.9c1.6,0.1,2.9-1.2,3-2.7
	C94.9,108,94.9,107.9,94.9,107.8z"/>
<path class="st0" d="M53.2,22.8c-0.3,0-0.5,0.2-0.5,0.5v5.4c0,0.3,0.2,0.5,0.5,0.5c0.3,0,0.5-0.2,0.5-0.5c0,0,0,0,0,0v-5.4
	C53.7,23,53.5,22.8,53.2,22.8C53.2,22.8,53.2,22.8,53.2,22.8z M53.4,28.7c0,0.1-0.1,0.2-0.2,0.2c-0.1,0-0.2-0.1-0.2-0.2v-5.4
	c0-0.1,0.1-0.2,0.2-0.2l0,0c0.1,0,0.2,0.1,0.2,0.2V28.7z"/>
<path class="st0" d="M58.8,29.2c0.3,0,0.5-0.2,0.5-0.5v-5.4c0.1-0.3,0-0.6-0.3-0.7s-0.6,0-0.7,0.3c0,0.1,0,0.2,0,0.4v5.4
	C58.4,29,58.6,29.2,58.8,29.2z M58.6,23.3c0-0.1,0.1-0.2,0.2-0.2c0.1,0,0.2,0.1,0.2,0.2c0,0,0,0,0,0v5.4c0,0.1-0.1,0.2-0.2,0.2
	c-0.1,0-0.2-0.1-0.2-0.2V23.3z"/>
<path class="st0" d="M90.4,29.2c0.3,0,0.5-0.2,0.5-0.5c0,0,0,0,0,0v-5.4c0-0.3-0.2-0.5-0.5-0.5c0,0,0,0,0,0c-0.3,0-0.5,0.2-0.5,0.5
	v5.4C89.9,29,90.1,29.2,90.4,29.2z M90.2,23.3c0-0.1,0.1-0.2,0.2-0.2l0,0c0.1,0,0.2,0.1,0.2,0.2v5.4c0,0.1-0.1,0.2-0.2,0.2
	c-0.1,0-0.2-0.1-0.2-0.2V23.3z"/>
<path class="st0" d="M84.8,29.2c0.3,0,0.5-0.2,0.5-0.5c0,0,0,0,0,0v-5.4c0-0.3-0.2-0.5-0.5-0.5c0,0,0,0,0,0c-0.3,0-0.5,0.2-0.5,0.5
	v5.4C84.2,29,84.5,29.2,84.8,29.2z M84.6,23.3c0-0.1,0.1-0.2,0.2-0.2l0,0c0.1,0,0.2,0.1,0.2,0.2c0,0,0,0,0,0v5.4
	c0,0.1-0.1,0.2-0.2,0.2c-0.1,0-0.2-0.1-0.2-0.2V23.3z"/>
<path class="st0" d="M143.3,84.8H141v-7.6h-0.2v-1.1h-0.5V48.5c0.6-0.2,1-0.8,1-1.4c0,0,0-0.1,0-0.1v-2.9h-0.9v-2.9h0.7v-1.7h1.2
	v-2.2H139v-4.5h-1.2l0.2-2.6c0.1-0.1,0.3-0.2,0.4-0.4c0.1-0.1,0.1-0.3,0-0.5c-0.1-0.1-0.2-0.1-0.4-0.1l0.3-4.1
	c0-0.2-0.1-0.4-0.3-0.4c0,0,0,0,0,0c-0.2,0-0.4,0.1-0.4,0.3l-0.3,4.7c0,0-0.1,0.1-0.1,0.1c-0.3-0.1-0.6-0.2-0.8-0.4l0.2-0.7
	c0.1-0.3,0.1-0.7,0-1c-0.2-0.3-0.4-0.6-0.8-0.7c-0.3-0.1-0.7-0.1-1,0.1c-0.3,0.2-0.6,0.5-0.6,0.8l-0.2,0.8c0,0.1,0,0.1,0,0.2
	c-0.6,0.2-1.4,0.6-1.6,1c0,0.1-0.1,0.4-0.2,0.7l-0.3-0.1c0.3-0.9,0-1.8-0.5-2.4c-1.1-1-3-0.4-3.1-0.4l-2.5,0.8l2.7,0.2
	c0.2,0,0.4,0.1,0.6,0.2c-0.3,0.5-0.3,1-0.2,1.6c-0.2,0.1-0.4,0.1-0.6,0.2c-0.8-0.4-1.6-0.7-2.4-1l-0.8-0.3l0.1,0.8
	c0,0.8,0.3,1.7,0.6,2.4h-4.9c0.1-0.2,0.1-0.3,0.2-0.5c0.7-0.8,0.9-1.9,0.4-2.9c0.1-0.1,0.2-0.2,0.2-0.4c0.1-0.2,0-0.4-0.1-0.5
	c-0.2-0.1-0.4,0-0.5,0.1c-0.1,0.3-0.3,0.5-0.5,0.7c-0.3,0-0.6-0.1-0.9-0.1l0.1-0.7c0-0.4-0.1-0.7-0.3-1c-0.2-0.3-0.6-0.4-0.9-0.5
	c-0.4,0-0.7,0.1-1,0.3c-0.3,0.3-0.4,0.6-0.4,1v0.8c0,0.1,0,0.1,0,0.2c-0.5,0.4-1.2,0.9-1.3,1.4c-0.1,0-0.2,0.1-0.2,0.1l-1,0.8
	c0.1-0.4,0.2-0.8,0.4-1.1c0.1-0.2,0.2-0.4,0.3-0.6c0.1-0.5,0-1.1-0.3-1.5c-0.4-0.5-0.9-0.7-1.5-0.7h-3.9l1.6,1
	c0.9,0.8,1.5,1.9,1.4,3.1c-1.4-0.4-2.7-1.2-3.6-2.4l-0.5-0.7l-0.3,0.8c-0.3,0.8-0.3,1.7,0,2.5c0.1,0.3,0.3,0.5,0.5,0.7H95.4v-1.6
	h-2.3V30h-0.7v-7.8h0.7V21h0.5v-2.6h-0.5c-6.1-6.3-12-6.8-12.3-6.8h-0.4v0.7l-1.2-0.2c-0.2-1.4-1-2.6-2.2-3.3
	c0.2-0.5,0.1-1.1-0.1-1.6c-0.2-0.5-0.7-0.8-1.2-0.9l0,0c-0.3-0.1-0.6-0.3-0.7-0.6V3.6h-0.4c-0.2-0.8-0.8-1.3-1.6-1.5V0.3
	c0-0.2-0.2-0.3-0.4-0.3c-0.2,0-0.3,0.1-0.3,0.3V2c-0.8,0.1-1.4,0.7-1.6,1.5h-0.4v2.3c-0.1,0.4-0.2,0.7-0.4,0.8l0,0
	c-0.1-0.1-0.1-0.1-0.1-0.2l-0.2-1c-0.1-0.7-0.8-1.1-1.5-1c-0.6,0.1-1,0.6-1,1.2V6c-0.3-0.4-0.5-1-0.6-1.5c0-0.2-0.2-0.3-0.4-0.3
	c-0.2,0-0.3,0.2-0.3,0.4c0,0,0,0,0,0c0.1,0.7,0.3,1.4,0.8,2l-0.1,0.1l0,0c-1-0.4-1.8-1.1-2.6-1.8c-0.3-0.3-0.7-0.4-1.1-0.2
	c-1.2,0.5-2.8,3.1-2.6,4.3V9l0.2,0.1c0.2,0.1,0.4,0.1,0.6,0.1c0.3,0,0.6-0.1,0.9-0.2c0.5,1.1,1.5,1.9,2.7,2.2
	c0.2,0.3,0.3,0.6,0.4,0.8l-2,0.3v-0.7h-0.4c-0.3,0-6.2,0.5-12.3,6.8h-0.5V21h0.5v1.2h0.7V30h-0.7v1.2h-2.3v1.6H35.3
	c0.2-0.2,0.4-0.4,0.5-0.7c0.3-0.8,0.4-1.7,0.1-2.5l-0.3-0.8l-0.6,0.7c-1,1.1-2.2,2-3.6,2.4c-0.1-1.2,0.4-2.4,1.4-3.1l1.6-1h-3.9
	c-0.6,0-1.1,0.3-1.5,0.7c-0.3,0.4-0.5,1-0.3,1.5c0.1,0.2,0.2,0.4,0.3,0.6c0.2,0.3,0.3,0.7,0.4,1.1l-1-0.8c-0.1-0.1-0.1-0.1-0.2-0.1
	c-0.1-0.5-0.8-1-1.3-1.4c0-0.1,0-0.1,0-0.2v-0.8c0-0.4-0.2-0.7-0.4-1c-0.3-0.2-0.6-0.4-1-0.3c-0.7,0.1-1.3,0.7-1.2,1.4l0.1,0.7
	c-0.3,0.1-0.6,0.1-0.9,0.1c-0.2-0.2-0.4-0.4-0.5-0.7c-0.1-0.2-0.3-0.2-0.5-0.1c-0.2,0.1-0.2,0.3-0.1,0.5c0,0,0,0,0,0
	c0.6,1,0.8,2.1,0.6,3.2c0,0.2,0.1,0.3,0.2,0.5H18c0.4-0.8,0.6-1.6,0.6-2.4l0.1-0.8l-0.8,0.3c-0.8,0.3-1.7,0.6-2.5,1
	c-0.2-0.1-0.4-0.2-0.6-0.2c0.2-0.5,0.1-1.1-0.2-1.6c0.2-0.1,0.4-0.2,0.6-0.2l2.6-0.2l-2.5-0.8c-0.1,0-2-0.6-3.1,0.4
	c-0.6,0.7-0.8,1.6-0.6,2.4l-0.3,0.1c-0.1-0.3-0.2-0.6-0.2-0.7c-0.2-0.5-1-0.8-1.6-1c0-0.1,0-0.1,0-0.2L9.4,28
	c-0.1-0.3-0.3-0.6-0.7-0.8c-0.3-0.2-0.7-0.2-1-0.1c-0.7,0.2-1.1,1-0.8,1.7c0,0,0,0,0,0l0.3,0.7c-0.3,0.2-0.5,0.3-0.8,0.4
	c0,0-0.1,0-0.1-0.1l-0.4-4.7c0-0.2-0.2-0.4-0.4-0.4S5.2,25,5.2,25.2l0,0l0.3,4.1c-0.1,0-0.2,0-0.3,0.1c-0.1,0.1-0.1,0.4,0,0.5
	c0.1,0.1,0.3,0.3,0.4,0.4l0.2,2.6H4.6v4.5H1.3v2.2h1.2v1.7h0.7v2.9H2.3v3c0,0,0,0.1,0,0.1c0,0.6,0.4,1.1,1,1.4v27.6H2.8v1.1H2.6v7.6
	H0.3c-0.2,0-0.4,0.2-0.4,0.3c0,0.2,0.2,0.4,0.4,0.4h60.5c0.1,0,0.2-0.1,0.3-0.2h21.5c0.1,0.1,0.2,0.2,0.3,0.2h60.4
	c0.2,0,0.4-0.2,0.4-0.4C143.7,84.9,143.5,84.8,143.3,84.8L143.3,84.8z M137.8,33.3h0.9v4.1h-0.4v-3.8h-0.5V33.3z M137.8,34h0.2v3.4
	h-0.5L137.8,34z M136.1,29.5l0.1-0.2L136.1,29.5z M136.1,30.3c0.4,0.2,0.8,0.4,1.2,0.5l-0.2,2.5c0,0.1,0,0.1,0,0.2c0,0,0,0.1,0,0.1
	l-0.3,3.8h-17.5l-0.6-1c0.1-0.2,0.2-0.5,0.4-0.9c0,0,0.1,0,0.1,0h13.9c0,0.2,0,0.5,0.1,0.7l0.1,0.7l0.5-0.6c0.4-0.5,0.8-0.9,1.1-1.5
	c1-0.7,2.1-1.6,2.2-2.2s-0.6-1.1-1-1.3C136.1,31,136,30.6,136.1,30.3L136.1,30.3z M119.2,35.2l0.1-0.3l0-0.1h13.8c0,0.1,0,0.2,0,0.3
	L119.2,35.2L119.2,35.2z M135.6,27.9c0.2,0.1,0.3,0.2,0.4,0.3c0,0.1,0.1,0.2,0.1,0.2c0-0.1,0-0.2-0.1-0.2
	C135.9,28.1,135.8,28,135.6,27.9L135.6,27.9z M136,28.8l-0.2,0.5l0,0L136,28.8z M135.7,27.6c0.1,0,0.2,0.1,0.3,0.1
	C135.9,27.7,135.8,27.6,135.7,27.6h-0.2H135.7z M135.4,27.6L135.4,27.6z M135.4,27.9L135.4,27.9z M135.1,28.5c0-0.1,0.1-0.1,0.1-0.2
	c0.1,0,0.1,0,0.2,0c0.1,0,0.1,0.1,0.1,0.1c0,0.1,0,0.1,0,0.2l-0.2,0.6l-0.5-0.2L135.1,28.5z M135,27.7L135,27.7L135,27.7
	C135,27.7,134.9,27.6,135,27.7L135,27.7z M134.8,28.4C134.8,28.4,134.8,28.3,134.8,28.4C134.8,28.3,134.8,28.4,134.8,28.4l-0.1,0.5
	L134.8,28.4z M134.5,28.3C134.5,28.3,134.5,28.3,134.5,28.3C134.5,28.2,134.5,28.2,134.5,28.3l-0.2,0.7l0,0L134.5,28.3z M133,30.4
	c0.4-0.3,1-0.6,1.5-0.7l0.9,0.3c0,0,0,0.1,0.1,0.1c-0.1,0.6-0.1,1.2,0.1,1.7v0.1l0.1,0.1c0.4,0.2,0.8,0.6,0.8,0.7
	c-0.3,0.4-0.6,0.7-0.9,0.9c-0.1-0.6-0.3-1.2-0.7-1.7c-0.1-0.1-0.4-0.1-0.5,0c-0.1,0.1-0.1,0.4,0,0.5c0.3,0.4,0.5,0.8,0.5,1.3
	c-0.2,0.5-0.4,0.9-0.8,1.3l0,0c0-0.1,0-0.2-0.1-0.3c0-0.2,0.1-0.5,0.2-0.7l0.1-0.4l-0.4-0.1c-0.3-0.1-0.5-0.2-0.8-0.2
	c-0.1-0.2-0.3-0.3-0.5-0.3h-0.1C132.5,32.1,132.7,31.2,133,30.4L133,30.4z M132.6,34c0.1,0,0.2,0,0.2-0.1l0.5,0.1
	c0,0.1-0.1,0.3-0.1,0.4h-13.6c0.1-0.2,0.2-0.3,0.4-0.5L132.6,34z M126.4,33c-0.3-0.4-0.5-0.8-0.6-1.3
	C125.9,32.1,126.1,32.6,126.4,33z M131.7,33.7L131.7,33.7c0-0.1,0-0.2,0-0.3h0.1c0,0.1,0.1,0.2,0.4,0.3L131.7,33.7z M131.2,31.6
	c0.1,0,0.2,0,0.3-0.1l0.4,0.1c-0.1,0.5-0.2,0.9-0.2,1.4h-0.4c-0.8-0.6-1.6-1.1-2.5-1.5c0.4-0.1,0.8-0.2,1.2-0.2
	c0.1,0.1,0.3,0.2,0.5,0.2c0.1,0,0.2,0,0.2-0.1c0.1,0.1,0.2,0.2,0.3,0.2L131.2,31.6z M129.4,29.7c0.2,0.3,0.4,0.6,0.5,0.9h-0.5
	C129.2,30.3,129.2,29.9,129.4,29.7L129.4,29.7z M130.5,30.3c0,0.1,0.1,0.2,0.1,0.3l0,0C130.5,30.5,130.5,30.4,130.5,30.3L130.5,30.3
	z M130.7,28.9L130.7,28.9l-0.2-0.2C130.6,28.8,130.7,28.8,130.7,28.9L130.7,28.9z M130.5,29.1c0.2,0.3,0.4,0.6,0.3,1
	c-0.1-0.4-0.4-0.9-0.7-1.2C130.3,28.9,130.4,29,130.5,29.1L130.5,29.1z M129.9,29.1L129.9,29.1L129.9,29.1z M129.6,29.4
	c0.3,0.3,0.5,0.7,0.6,1.2l0,0C130.1,30.1,129.9,29.7,129.6,29.4z M129.5,28.5L129.5,28.5z M129.1,28.5l0.3,0.2l0,0
	C129.3,28.6,129.1,28.5,129.1,28.5L129.1,28.5z M127.4,28.5L127.4,28.5l0.9,0.1L127.4,28.5z M128.3,28.6c0.3,0,0.5,0.1,0.8,0.3l0,0
	C128.8,28.8,128.6,28.7,128.3,28.6L128.3,28.6z M128.4,31.6c0.8,0.4,1.6,0.9,2.3,1.4l0,0C130,32.4,129.2,32,128.4,31.6L128.4,31.6z
	 M129.4,32.9h-2.6c-0.4-0.5-0.7-1.1-0.8-1.7C127.2,31.7,128.4,32.3,129.4,32.9L129.4,32.9z M127.6,31.2L127.6,31.2
	c-1.2-0.6-2.2-0.9-2.2-0.9C126.2,30.6,126.9,30.9,127.6,31.2L127.6,31.2z M125.2,30.5c0,0.9,0.3,1.7,0.7,2.5l0,0
	C125.5,32.2,125.3,31.3,125.2,30.5L125.2,30.5z M125.7,33.3c0.1,0.1,0.2,0.2,0.3,0.3h-5.8l0.2-0.3H125.7z M120.5,30.2
	c0.1,0,0.1-0.1,0.2-0.1c0.2,0.5,0.1,1.1-0.2,1.6c-0.3-0.2-0.6-0.4-0.9-0.5c-0.2-0.3-0.3-0.7-0.4-1.1
	C119.6,30.3,120.1,30.3,120.5,30.2L120.5,30.2z M119.1,28.7L119.1,28.7c0-0.3-0.1-0.5-0.2-0.7C119,28.1,119.1,28.4,119.1,28.7
	L119.1,28.7z M118.7,28.7L118.7,28.7c0-0.2,0-0.3-0.1-0.5c-0.1-0.1-0.3-0.2-0.4-0.2l0,0c0.2,0,0.3,0.1,0.4,0.2
	C118.7,28.3,118.7,28.5,118.7,28.7L118.7,28.7z M118.1,27.7L118.1,27.7l0.3,0L118.1,27.7L118.1,27.7z M117.8,28.7
	c0-0.1,0-0.1,0.1-0.2c0.1,0,0.1-0.1,0.2-0.1c0.1,0,0.1,0,0.2,0.1c0,0.1,0.1,0.1,0.1,0.2l-0.1,0.7h-0.5L117.8,28.7z M117.4,28
	c0,0,0.1-0.1,0.1-0.1C117.5,27.9,117.5,27.9,117.4,28L117.4,28L117.4,28z M117.7,28.2c-0.1,0.1-0.2,0.3-0.2,0.4l0,0
	C117.5,28.4,117.5,28.2,117.7,28.2L117.7,28.2z M116.2,31.1c0.3-0.4,0.8-0.8,1.3-1.1h0.9l0,0l0.1,0.1c0.1,0.6,0.2,1.1,0.5,1.6
	l0.1,0.1h0.1c0.4,0.1,0.9,0.4,0.9,0.5c-0.1,0.2-0.2,0.4-0.3,0.6c-0.2,0.1-0.4,0.2-0.4,0.5c-0.2-0.5-0.6-1-1.1-1.3
	c-0.2-0.1-0.4-0.1-0.5,0.1c0,0,0,0,0,0c-0.1,0.2-0.1,0.4,0.1,0.5c0.2,0.2,0.8,0.7,0.9,1.1c-0.1,0.6-0.2,1.1-0.5,1.7
	c-0.1-0.4-0.2-0.8-0.1-1.3v-0.4h-0.4c-0.5,0-1,0-1.5-0.1c0,0,0-0.1,0-0.1c0,0,0-0.1,0-0.1c0-0.1,0-0.1,0-0.2
	C116.2,32.5,116.2,31.7,116.2,31.1L116.2,31.1z M115.5,32.3c0,0.2,0,0.5,0,0.7h-0.9L115.5,32.3z M115.6,33.4c0,0.1,0,0.2,0,0.3h-2.4
	l0.5-0.1c0.1-0.1,0.3-0.1,0.4-0.2H115.6z M114.3,30.1c0,0.1-0.1,0.3-0.2,0.4c-0.1,0.1-0.1,0.2-0.1,0.3c0-0.1,0.1-0.2,0.1-0.3
	C114.2,30.3,114.3,30.2,114.3,30.1L114.3,30.1z M114.4,29c0.1,0.1,0.2,0.3,0.2,0.4C114.6,29.2,114.5,29.1,114.4,29
	c-0.1-0.1-0.2-0.3-0.4-0.3C114.2,28.7,114.3,28.7,114.4,29L114.4,29z M114.1,29.2L114.1,29.2L114.1,29.2c-0.2-0.2-0.4-0.4-0.7-0.4
	c0.3,0,0.5,0.1,0.7,0.3L114.1,29.2z M113.2,29.1c0.3,0,0.5,0.1,0.7,0.3c0.1,0.2,0.2,0.4,0.1,0.6c0,0.1-0.1,0.2-0.1,0.3
	c-0.3,0.4-0.5,0.9-0.6,1.5c-0.1-0.9-0.4-1.9-0.9-2.6H113.2z M113,32.3L113,32.3L113,32.3z M111.6,28.7l0.2,0.2
	C111.8,28.9,111.7,28.8,111.6,28.7L111.6,28.7z M111,28.7l-0.5-0.3l0,0L111,28.7c1.1,0.8,1.7,2.2,1.6,3.5l0,0
	c0.1-1.4-0.4-2.8-1.5-3.7L111,28.7z M112.2,33.8h-1.4l0,0c0,0,0-0.1,0-0.1l0.5-0.2h0.8c0,0,0,0.1,0,0.1c0,0,0,0.1,0,0.1L112.2,33.8z
	 M111.5,33l-0.2,0.1h-0.9c-0.7-0.1-1.3-0.6-1.6-1.2c-0.1-0.2-0.2-0.4-0.2-0.7c0.9,0.7,1.9,1.3,2.9,1.6L111.5,33z M108.3,30.4
	c0.1,0.2,0.3,0.3,0.4,0.5l-0.2-0.2L108.3,30.4L108.3,30.4z M108.1,32.2c-0.1-0.1-0.1-0.3-0.1-0.4C108,31.9,108,32.1,108.1,32.2
	c0.2,0.3,0.4,0.6,0.7,0.9l0,0c-0.3-0.3-0.5-0.6-0.7-1L108.1,32.2z M95.4,33.4h13.2c0.2,0.1,0.4,0.2,0.6,0.3H95.4V33.4z M95.4,34.1
	h20.3c0,0,0,0.1,0.1,0.1c0.1,0.1,0.2,0.3,1,0.3H95.4L95.4,34.1z M95.4,34.9h22.1c0,0.1,0,0.2,0,0.3H95.4L95.4,34.9z M95.4,37.1v-1.4
	h22.2c0.1,0.4,0.2,0.7,0.4,1.1l0.3,0.7l0.1-0.1l0.1,0.2h-23L95.4,37.1z M141.2,38.6L141.2,38.6L92,38.6v-0.1H141.2z M136.3,40.3
	v-0.7h3.7v0.7H136.3z M139.3,41.4v2.9H137v-2.9H139.3z M121.3,53.8v-1.1h1.9v1.1H121.3z M123.3,54.9V56h-1.9v-1.1H123.3z
	 M121.3,51.7v-2.1h6V51h-4.1v0.6L121.3,51.7z M121.3,49.2v-0.3h6v0.3H121.3z M124.3,54.9v-2.8h8.6v4.5h-8.6V54.9z M128.4,51v-1.5
	h0.5V51H128.4z M127.4,48.5h-5.7c0.4-0.3,0.7-0.7,0.8-1.2c0,0,0-0.1,0-0.1v-0.3h12.5V47c0,0,0,0.1,0,0.1c0,0.5,0.3,1,0.8,1.2h-8.3
	L127.4,48.5z M122.4,45.9v-0.5h12.5v0.5H122.4z M134.9,44.3h-13.4v-2.7H136v2.7H134.9L134.9,44.3z M122.1,40.5v-0.9h13.1v0.9H122.1z
	 M117.4,40.3v-0.7h3.7v0.7H117.4z M120.4,41.4v2.9H118v-2.9H120.4z M111.7,48.8v-1.9h0.4v1.9c-0.1-0.1-0.2-0.1-0.3-0.1L111.7,48.8z
	 M112,49.3c0,0,0,0.1,0,0.1l-0.2,0.3h-0.1v-0.5v0c0,0,0.1-0.1,0.1-0.1c0,0,0.1,0,0.1,0c0,0,0.1,0,0.1,0L112,49.3z M108.4,45.9H96.9
	v-0.5h19v0.5H108.4z M109.2,52.1l-0.3-0.1l1.9-5.2h0.5V49L109.2,52.1z M109.3,52.6l0.3,0.1l0,0.1c-0.1,0.1-0.2,0.1-0.2,0
	C109.3,52.8,109.2,52.7,109.3,52.6L109.3,52.6z M108.9,52.8l-0.3-0.1c0,0,0.1-0.1,0.1-0.1l0.1-0.2l0.2,0.1c0,0.1,0,0.2,0,0.2
	L108.9,52.8z M108.5,52l-0.4-0.1l1.9-5h0.4L108.5,52z M108.4,52.3l-0.1,0.2c0,0.1-0.1,0.1-0.2,0.1c0,0-0.1-0.1-0.1-0.1
	c0,0,0-0.1,0-0.1l0-0.1L108.4,52.3z M107.9,51.8h-0.2l0.6-4.9h1.4L107.9,51.8z M107.7,52.1L107.7,52.1c0,0.2,0,0.3,0,0.4h-0.1
	L107.7,52.1L107.7,52.1z M107.3,51.7H107l0.6-4.8h0.4L107.3,51.7z M107.3,52.1v0.3h-1.8v-0.3c0.3,0,0.6-0.1,1-0.1
	c0.3,0,0.5-0.1,0.8-0.1L107.3,52.1z M106.7,51.7h-0.6l-0.6-4.8h1.7L106.7,51.7z M105.8,51.7h-0.4l-0.6-4.8h0.4L105.8,51.7z
	 M105.2,52.5L105.2,52.5c0-0.1,0-0.2,0-0.3v-0.1h0.1L105.2,52.5z M105.1,51.8h-0.1l-1.8-4.9h1.4L105.1,51.8z M104.8,52.3
	c0,0,0,0.1,0,0.1c0,0-0.1,0.1-0.1,0.1c-0.1,0-0.2,0-0.2-0.1l-0.1-0.2l0.3-0.1L104.8,52.3z M104.6,51.9l-0.4,0.1l-1.9-5.1h0.4
	L104.6,51.9z M103.8,52.4l0.2-0.1l0.1,0.2c0,0,0,0.1,0.1,0.1l-0.3,0.1c0,0,0,0,0-0.1C103.9,52.6,103.9,52.5,103.8,52.4L103.8,52.4z
	 M103.9,52l-0.3,0.1l-2.2-3.2v-2.1h0.6L103.9,52z M103.5,52.7c0,0,0,0.1-0.1,0.1c-0.1,0.1-0.2,0.1-0.2,0l0,0L103.5,52.7
	C103.5,52.6,103.5,52.6,103.5,52.7L103.5,52.7z M103.3,52.3l-0.3,0.2l-1.7-2.4h0.1v-0.4L103.3,52.3z M102.9,52.9
	c0.1,0.1,0.1,0.1,0.2,0.2c-2.4,1.2-4,3.5-4.3,6.2h-0.4C98.7,56.6,100.4,54.1,102.9,52.9L102.9,52.9z M99.2,62.5V60
	c-0.2-4,3-7.4,7-7.5c4-0.2,7.4,3,7.5,7c0,0.2,0,0.4,0,0.5v24.4H99.2V62.5z M109.7,53.1c0.1,0,0.1-0.1,0.2-0.2l0.1-0.1
	c2.5,1.3,4.2,3.7,4.4,6.5H114C113.8,56.6,112.2,54.2,109.7,53.1L109.7,53.1z M109.9,52.4l-0.3-0.1l1.8-2.5V50h0.2L109.9,52.4z
	 M100.7,48.8v-1.9h0.4v1.9C100.9,48.7,100.8,48.7,100.7,48.8L100.7,48.8z M101,49.1v0.5l0,0l-0.2-0.3c0,0,0-0.1,0-0.1
	c0,0,0-0.1,0.1-0.1C100.9,49.1,101,49.1,101,49.1C101,49.1,101,49.1,101,49.1L101,49.1z M101.9,40.5H97v-0.9h19.4v0.9H101.9
	L101.9,40.5z M109.9,41.5v2.7h-7v-2.7H109.9z M101.9,41.5v2.7h-5.7v-2.7H101.9z M97,47.2c0,0,0-0.1,0-0.1v-0.3h3.4v2.1h-4.4v-0.3
	C96.5,48.4,96.9,47.8,97,47.2L97,47.2z M96,40.5H92v-0.9H96V40.5z M95.2,41.5v1.1H92v-1.1H95.2z M95.2,43.6v0.6H92v-0.6H95.2z
	 M95.2,44.5v0.3h-1.6v-0.3H95.2z M93.6,46.9h0.3v0.1L93.6,46.9L93.6,46.9z M92.6,49.9h2.2v0.2h-2.3L92.6,49.9z M92.6,48.9v-0.4
	c0.4-0.2,0.7-0.5,0.8-0.9h0.5c0.2,0.5,0.5,0.8,1,1v0.3L92.6,48.9z M93.9,46.5h-0.4v-1.3H96v0.3c-0.2-0.1-0.3-0.1-0.5-0.1
	C94.7,45.5,94.1,45.9,93.9,46.5L93.9,46.5z M95.9,49.2h4.5c0,0.1,0,0.2,0.1,0.2l0.1,0.1h-4.7L95.9,49.2z M111,44.2v-2.7h6v2.7H111z
	 M93.8,32.5L93.8,32.5l0.5-0.1v3.5h-0.5V32.5z M93.8,37h0.5v0.4H82.4V37H93.8z M83.2,42v-2.1h7.8V42H83.2z M90.9,43v1.2h-7.6V43
	H90.9z M82.4,38.8v-0.3h8.5v0.3H82.4z M77.2,48.7v-2.1h0.4v2.1C77.4,48.7,77.3,48.7,77.2,48.7L77.2,48.7z M77.5,49.2
	c0,0,0,0.1,0,0.1l-0.2,0.3h-0.1v-0.5v0c0,0,0.1-0.1,0.1-0.1c0,0,0.1,0,0.1,0C77.5,49,77.6,49.1,77.5,49.2L77.5,49.2z M76.4,44.2
	v-2.7h5.7v2.7H76.4z M63.9,59.5c0.2-2.9,1.8-5.4,4.4-6.7l0.1,0.1c0,0.1,0.1,0.1,0.2,0.2c-2.6,1.3-4.3,3.9-4.3,6.9v24.4h-0.4v-22h0.4
	v-2.8L63.9,59.5z M66.3,48.7v-2.1h0.4v2.1C66.5,48.7,66.4,48.7,66.3,48.7L66.3,48.7z M66.6,49.1v0.5h-0.1l-0.2-0.3c0,0,0-0.1,0-0.1
	c0,0,0-0.1,0.1-0.1c0,0,0.1,0,0.1,0C66.5,49,66.6,49.1,66.6,49.1L66.6,49.1z M62.7,44.2h-1.4v-2.7h6v2.7H62.7z M65.9,49.2
	c0,0.1,0,0.2,0.1,0.2l0.1,0.1h-4.5v-0.3H65.9z M61.6,48.9v-0.3c0.6-0.2,1-0.8,1-1.4c0,0,0-0.1,0-0.1v-0.5h3.2v2.3H61.6z M74.7,52
	L74.4,52l2-5.3h0.5V49L74.7,52z M74.8,52.5l0.3,0.1l0,0c-0.1,0.1-0.2,0.1-0.2,0C74.9,52.6,74.9,52.6,74.8,52.5
	C74.8,52.5,74.8,52.5,74.8,52.5L74.8,52.5z M74.5,52.7l-0.3-0.1c0,0,0.1-0.1,0.1-0.1l0.1-0.2l0.2,0.1C74.5,52.4,74.5,52.6,74.5,52.7
	L74.5,52.7z M74.1,51.9l-0.3-0.1l1.9-5.2h0.4L74.1,51.9z M68.6,46.6H70l0.6,5h-0.2L68.6,46.6z M70.3,52.2c0,0.1,0,0.2-0.1,0.2
	c-0.1,0-0.2,0-0.2-0.1l-0.1-0.2l0.3-0.1L70.3,52.2z M70.7,52v0.3h-0.1C70.6,52.3,70.6,52.2,70.7,52L70.7,52L70.7,52z M70.4,46.6h0.4
	l0.6,5H71L70.4,46.6z M71.1,46.8h1.7l-0.6,4.8h-0.5L71.1,46.8z M71.9,51.9c0.3,0,0.7,0,1,0.1v0.3h-1.8V52
	C71.4,51.9,71.6,51.9,71.9,51.9L71.9,51.9z M72.6,51.6l0.6-5h0.4l-0.6,5H72.6z M73.2,52L73.2,52L73.2,52c0,0.2,0,0.3,0.1,0.3h-0.1
	V52z M73.2,51.7l0.6-5.1h1.4l-1.9,5.1L73.2,51.7z M73.6,52.1l0.3,0.1l-0.1,0.2c0,0.1-0.1,0.1-0.2,0.1c0,0-0.1-0.1-0.1-0.1
	c0,0,0-0.1,0-0.1L73.6,52.1z M75.4,42.6h-7v-1.1h7V42.6z M75.4,43.6v0.6h-7v-0.6H75.4z M70.1,51.8l-0.3,0.1l-2-5.2h0.4L70.1,51.8z
	 M69.3,52.3l0.2-0.1l0.1,0.2l0.1,0.1l-0.3,0.1C69.4,52.6,69.4,52.4,69.3,52.3L69.3,52.3z M69.4,51.9L69.1,52L67,49v-2.4h0.4
	L69.4,51.9z M69,52.7c-0.1,0.1-0.2,0.1-0.2,0l0-0.1l0.3-0.1l0,0C69,52.6,69,52.6,69,52.7L69,52.7z M67,49.9v-0.3l1.8,2.5l-0.3,0.1
	l-1.7-2.4H67z M64.6,59.9c-0.2-4,3-7.4,7-7.5c4-0.2,7.4,3,7.5,7c0,0.2,0,0.4,0,0.5v24.4H64.6V59.9z M75.2,53.1
	c0.1,0,0.1-0.1,0.2-0.2l0.1-0.1c2.5,1.3,4.2,3.8,4.4,6.7h-0.4C79.3,56.7,77.7,54.3,75.2,53.1L75.2,53.1z M75.3,52.4L75,52.2l1.8-2.6
	V50H77L75.3,52.4z M76.4,40.5H61.2V40h20.8v0.5H76.4z M80.3,32.5h0.9V36h-19v-3.4l0,0v-0.1H80.3L80.3,32.5z M64.1,31.4v-9h15.1v9
	H64.1z M81.4,38.5V39H62.1v-0.5H81.4z M62.1,37.5v-0.4h19v0.4H62.1z M82,30.2v1.2h-1.7V21.3H63.1v10.1h-1.5V30h-0.7v-7.8h0.7V21H82
	v1.2h0.7V30L82,30.2z M55.2,30.2v-7.8h0.7V21h0.2v1.2h0.7V30h-0.7v1.2h-0.2V30L55.2,30.2z M56.4,32.5H61v0.1L56.4,32.5L56.4,32.5z
	 M57.1,21.4V21h3.4v0.2L57.1,21.4z M59.8,22.4V30h-2v-7.8L59.8,22.4z M60.5,31.2v0.2h-3.4v-0.2H60.5z M60.9,14.4v4.2h-7.2
	C55.8,16.7,58.2,15.2,60.9,14.4L60.9,14.4z M52.6,18.6L52.6,18.6c2.4-2.3,5.3-4,8.5-5l0,0C57.9,14.5,55.1,16.2,52.6,18.6L52.6,18.6z
	 M61.9,20.1v-0.5h19.5v0.5H61.9z M82.4,13.6L82.4,13.6c3.2,1,6.1,2.7,8.4,5l0,0C88.5,16.3,85.6,14.5,82.4,13.6L82.4,13.6z
	 M89.8,18.6h-7.2v-4.2c2.7,0.8,5.1,2.2,7.3,4.1L89.8,18.6z M83,21.4V21h3.4v0.2L83,21.4z M85.7,22.4V30h-2v-7.8L85.7,22.4z
	 M86.4,31.2v0.2H83v-0.2H86.4z M87.1,32.5L87.1,32.5l-4.6,0.1v-0.1H87.1z M88.3,22.4V30h-0.7v1.2h-0.2V30h-0.7v-7.8h0.7V21h0.2v1.2
	L88.3,22.4z M92.8,36H82.4v-2.4h10.4L92.8,36z M92.8,32.5L92.8,32.5l-4.6,0.1v-0.1H92.8z M88.7,21.3V21h3.4v0.2L88.7,21.3z
	 M91.4,22.3V30h-2v-7.8L91.4,22.3z M92.1,31.2v0.2h-3.4v-0.2H92.1z M92.6,19.5V20h-10v-0.5H92.6z M81.2,12.4c1.3,0.2,6.1,1.2,11,6
	h-0.7c-2.5-2.5-5.7-4.4-9.2-5.4l-0.6-0.1v0.2L81.2,13L81.2,12.4z M76.8,9.6c0.4,0.2,2,1.4,1.8,3.1c-0.2,0.9-0.8,1.6-1.6,2
	c0-0.3,0-0.5-0.1-0.8c0.3-0.5,0.4-1,0.5-1.5c-0.3-0.7-0.7-1.4-1.2-2C76.5,10.1,76.7,9.9,76.8,9.6L76.8,9.6z M76.2,13.9
	c0.1,0.4,0.1,0.8,0,1.2c-0.2,0.1-0.4,0.1-0.6,0.1c-0.5,0-0.9,0.1-1,0.4v0c-0.3,0.8-1,1.3-1.8,1.5c-0.6,0.2-1.2,0.2-1.8,0.2
	c0.6-0.6,1.1-1.4,1.3-2.2h0.3h0.1c-0.2,0.3-0.4,0.7-0.6,0.9c-0.1,0.2,0,0.4,0.1,0.5c0.1,0,0.1,0,0.2,0c0.1,0,0.2-0.1,0.3-0.2
	c0.4-0.7,0.9-1.3,1.4-1.9c0.2,0,0.5,0,0.7,0c0.2,0,0.4-0.1,0.4-0.3c0-0.2,0-0.3-0.2-0.4c0.2-0.4,0.4-0.9,0.7-1.2l0.1-0.1v-0.1
	c0-0.2,0.1-0.3,0.3-0.3l0,0h0.2c0,0.1,0.1,0.1,0.1,0.2c-0.1,0.4-0.2,0.9-0.4,1.2l-0.1,0.1L76.2,13.9z M72.7,2.8c0.5,0,1,0.3,1.2,0.8
	h-2.4C71.7,3.1,72.2,2.7,72.7,2.8L72.7,2.8z M71.4,4.6H74v0.3h-2.6V4.6z M71,5.9h1.2V6c0,0.2,0.2,0.3,0.4,0.3l0,0
	c0.2,0,0.4-0.2,0.4-0.3v0V5.9h1.3c0.1,0.2,0.2,0.4,0.4,0.6c-0.3,0.1-0.6,0.3-0.9,0.5c-0.5,0.6-1.4,0.6-2,0.1
	c-0.3-0.2-0.7-0.3-1.1-0.4C70.9,6.4,71,6.2,71,5.9L71,5.9z M69.4,7.6c0.1-0.2,0.8-0.6,2.1,0.1c0.8,0.6,2,0.6,2.7-0.1
	c0.3-0.2,0.6-0.4,1-0.5c0.5-0.1,1,0.1,1.2,0.6c0.3,0.6,0,1.5-0.9,2.4l-0.2,0.2l0.2,0.2c0.2,0.3,0.5,0.7,0.7,1
	c-0.4,0.1-0.7,0.4-0.8,0.8c-0.4,0.4-0.7,1-0.8,1.5h-0.4c-0.3,0.1-0.5,0.3-0.7,0.5c-0.5,0.2-1.1,0.1-1.7-0.1
	c-0.3-0.2-0.6-0.5-0.7-0.9c0.7-2.2-1.4-4-1.6-4.2C69.3,8.7,69.2,8.1,69.4,7.6L69.4,7.6z M66.6,7.5c0.2-0.7,1.2-0.6,1.2-0.6
	c0.2,0,0.4-0.1,0.4-0.3c0-0.2-0.1-0.4-0.3-0.4h0V5.6c0-0.3,0.2-0.5,0.5-0.5c0.3,0,0.5,0.2,0.5,0.5l0.2,1c-0.2,0.4-1,2,0,3.2l0,0
	c0,0,2.1,1.7,1.4,3.5c-0.3,0.7-1.4,1.1-1.9,1.2l-0.3,0.1c-0.3,0.2-0.5,0.4-0.6,0.7c-0.4,0.3-0.8,0.5-1.3,0.5l0,0v-0.2
	c-0.3-1.3,0.4-2.7,1.7-3.2c0.3,0.2,0.6,0.4,1,0.4h0c0.2,0,0.3-0.1,0.3-0.3c0-0.2-0.1-0.4-0.3-0.4c-0.3-0.1-0.5-0.2-0.7-0.4
	c-0.2-0.5-0.3-1-0.3-1.5c0-0.2-0.2-0.4-0.4-0.4s-0.4,0.2-0.4,0.4c0,0.5,0.1,0.9,0.2,1.4L67,11.8l-0.1-0.4
	C66.8,10.6,66.4,8.2,66.6,7.5L66.6,7.5z M61.9,8.2c-0.3,0.2-0.6,0.3-1,0.3c0.3-1.4,1.1-2.6,2.2-3.4c0.2-0.1,0.2,0,0.3,0
	c0.8,0.8,1.7,1.5,2.7,2c0,0.1-0.1,0.1-0.1,0.2c0,0.1-0.1,0.2-0.1,0.4c-0.5-0.4-1.1-0.6-1.8-0.5c-0.2,0.1-0.3,0.2-0.4,0.3l0,0
	c-0.5,0-0.9,0.1-1.2,0.4C62.3,8,62.1,8.1,61.9,8.2L61.9,8.2z M62.5,8.7l0.3-0.2c0.4-0.3,0.5-0.3,0.8-0.3c0.1,0.7,0.4,1.5,0.7,2.2
	C63.5,10,62.9,9.4,62.5,8.7L62.5,8.7z M64.3,7.8L64.3,7.8c0.5,0.1,1,0.3,1.4,0.6c0,0,0.1,0,0.1,0c0.1,1,0.2,2.1,0.4,3.1
	c0,0.1,0,0.2,0.1,0.4l0,0l-0.5,0.1l0,0c-0.2-0.4-0.4-0.8-0.5-1.2l0,0C64.7,9.9,64.4,8.9,64.3,7.8L64.3,7.8z M63.1,13.5V13
	c0.6-0.1,2.2-0.3,3.6-0.5c-0.9,0.8-1.2,2.1-1,3.3l0.1,0.6H66c0.1,0,0.3,0,0.4,0c0.4,0,0.7-0.1,1.1-0.2c0,0.1,0,0.3,0,0.4
	c0,0.2,0.2,0.3,0.4,0.3l0,0c0.2,0,0.3-0.2,0.3-0.4c-0.1-0.5,0.1-1,0.4-1.4l0.2-0.1c0.7-0.2,1.4-0.5,2-1c0.2,0.3,0.5,0.6,0.8,0.8
	l0.3,0.2c-0.3,1-0.9,1.8-1.7,2.3l-0.9,0.4l1,0.2C70.6,18,71,18,71.4,18c0.6,0,1.1-0.1,1.7-0.2c1-0.3,1.8-1,2.2-2h0.4
	c0.4,0,0.7-0.1,1-0.3c1.2-0.4,2.2-1.4,2.5-2.7l1.2,0.2v0.5l1.1,0.3v4.7H62v-4.7L63.1,13.5z M62.4,12.5V13l-0.4,0.1V13l-0.6,0.1
	c-3.5,1-6.6,2.8-9.2,5.4h-0.7C56.3,13.6,61.1,12.6,62.4,12.5L62.4,12.5z M51,20v-0.5h9.9V20H51z M54.8,31.2v0.2h-3.4v-0.2H54.8z
	 M52.2,30v-7.8h2V30H52.2z M51.5,21.2V21h3.4v0.2L51.5,21.2z M50.8,32.3h4.6v0.1L50.8,32.3L50.8,32.3z M50.8,33.5h10.3v2.4H50.8
	L50.8,33.5z M49.3,32.3h0.5v3.5h-0.5V32.3z M49.3,36.9h11.9v0.4H49.3V36.9z M52.7,41.9v-2.1h7.6v2.1H52.7z M60.3,43v1.2h-7.6V43
	H60.3z M52.7,38.8v-0.3h8.5v0.3H52.7z M48.2,33.3v0.3H34.4c0.2-0.1,0.4-0.2,0.6-0.3H48.2z M35.7,31.7c0,0.1-0.1,0.3-0.1,0.4
	c-0.2,0.3-0.4,0.6-0.7,0.9c0.3-0.2,0.5-0.5,0.7-0.9C35.6,31.9,35.6,31.8,35.7,31.7L35.7,31.7z M35.4,30.3L35.4,30.3l-0.2,0.2
	l-0.2,0.2C35,30.6,35.2,30.5,35.4,30.3L35.4,30.3z M35.1,31.1c0,0.2-0.1,0.5-0.2,0.7c-0.4,0.6-0.9,1-1.6,1.2h-0.9l-0.2-0.1
	C33.2,32.5,34.2,31.9,35.1,31.1L35.1,31.1z M31.5,33.3h0.8l0.5,0.2c0,0,0,0.1,0,0.1l0,0h-1.4C31.4,33.5,31.4,33.4,31.5,33.3
	C31.4,33.3,31.4,33.3,31.5,33.3L31.5,33.3z M32.6,28.6l0.5-0.3l0,0L32.6,28.6c-1.1,0.8-1.7,2.2-1.6,3.5l0,0
	C30.9,30.7,31.5,29.4,32.6,28.6L32.6,28.6z M32,28.6L32,28.6l-0.2,0.2L32,28.6z M31.2,28.9c-0.5,0.8-0.8,1.7-0.9,2.6
	c-0.1-0.5-0.3-1-0.6-1.5c0-0.1-0.1-0.2-0.1-0.3c0-0.2,0-0.4,0.1-0.6c0.2-0.2,0.4-0.3,0.7-0.3H31.2z M30.7,32.2L30.7,32.2L30.7,32.2z
	 M30.5,33.6L30.5,33.6z M29.5,29c0.2-0.2,0.4-0.4,0.7-0.4C29.9,28.7,29.7,28.8,29.5,29L29.5,29C29.5,29,29.5,29,29.5,29L29.5,29z
	 M29.3,29.9L29.3,29.9c0,0.1,0.1,0.3,0.2,0.4l0.1,0.3l-0.1-0.3C29.4,30.2,29.3,30.1,29.3,29.9L29.3,29.9z M28.1,32.2l0.9,0.7h-0.9
	C28,32.7,28.1,32.5,28.1,32.2L28.1,32.2z M28,33.2h1.4c0.1,0.1,0.2,0.2,0.4,0.2l0.5,0.1H28C28,33.5,28,33.4,28,33.2L28,33.2z
	 M27.9,34.1c0,0,0-0.1,0.1-0.1h20.3v0.5H26.8C27.6,34.4,27.8,34.2,27.9,34.1L27.9,34.1z M26.1,35.1L26.1,35.1c0-0.1,0-0.2,0-0.3
	h22.1v0.3H26.1z M48.2,35.4v1.9h-23l0.1-0.2l0,0.1l0.3-0.7c0.1-0.3,0.3-0.7,0.3-1.1L48.2,35.4L48.2,35.4z M26.2,27.8L26.2,27.8
	L26.2,27.8c0,0-0.1-0.1-0.2-0.1C26.1,27.7,26.1,27.8,26.2,27.8L26.2,27.8z M26.2,28.5L26.2,28.5c0-0.2-0.1-0.3-0.2-0.4
	C26.1,28.2,26.2,28.4,26.2,28.5L26.2,28.5z M25.9,28.5v0.7h-0.5l-0.1-0.7c0-0.1,0-0.1,0.1-0.2c0-0.1,0.1-0.1,0.2-0.1
	c0.1,0,0.1,0,0.2,0.1C25.9,28.3,25.9,28.5,25.9,28.5L25.9,28.5z M25.5,27.5L25.5,27.5l-0.2,0L25.5,27.5z M25,28.5
	c0-0.2,0-0.3,0.1-0.5c0.1-0.1,0.3-0.2,0.4-0.2l0,0c-0.2,0-0.3,0.1-0.4,0.2C25,28.1,25,28.3,25,28.5z M24.6,28.5
	c0-0.3,0.1-0.5,0.2-0.7C24.7,28,24.6,28.2,24.6,28.5z M24.6,31.6l0.1-0.1c0.3-0.5,0.5-1.1,0.5-1.6c0,0,0.1,0,0.1-0.1l0,0h0.9
	c0.5,0.3,0.9,0.6,1.3,1.1c0,0.8,0,1.5-0.1,2.3c0,0.1,0,0.1,0,0.2c0,0,0,0.1,0,0.1c0,0,0,0.1,0,0.1c-0.5,0.1-1,0.1-1.5,0.1h-0.4
	l0,0.4c0,0.4,0,0.9-0.1,1.3c-0.2-0.5-0.4-1.1-0.5-1.7c0-0.5,0.6-1,0.9-1.1c0.2-0.1,0.2-0.3,0.2-0.5c-0.1-0.2-0.3-0.2-0.5-0.2
	c0,0-0.1,0-0.1,0.1c-0.5,0.3-0.9,0.8-1.1,1.3c0-0.2-0.2-0.4-0.4-0.5c-0.1-0.2-0.2-0.4-0.3-0.6c0-0.1,0.5-0.4,0.9-0.5L24.6,31.6z
	 M10.8,35.7c0-0.1,0-0.3-0.1-0.4h13.8c0.1,0,0.1,0,0.2,0c0.1,0.4,0.3,0.7,0.4,0.9l-0.6,1h-14L10.8,35.7z M10.6,34.6h13.8l0,0.1
	l0.1,0.3H10.6c-0.1,0.1-0.1,0-0.1-0.2L10.6,34.6z M23,29.9c0.1,0,0.1,0.1,0.2,0.1c0.4,0.1,0.9,0,1.3-0.1c-0.1,0.4-0.2,0.7-0.4,1.1
	c-0.3,0.1-0.7,0.3-1,0.5c-0.3-0.4-0.4-0.9-0.3-1.4L23,29.9z M23.3,33.1l0.2,0.3h-5.8c0.1-0.1,0.2-0.2,0.3-0.3H23.3z M17.4,32.8
	L17.4,32.8c0.3-0.4,0.5-0.8,0.6-1.3c-0.1,0.5-0.3,1.1-0.7,1.5L17.4,32.8z M17.5,33.1c-0.1,0.1-0.2,0.2-0.3,0.3
	c0.1,0,0.1-0.1,0.2-0.1L17.5,33.1z M17.8,32.8L17.8,32.8c0.4-0.8,0.7-1.6,0.7-2.5c0,0.9-0.3,1.9-0.8,2.7L17.8,32.8z M18.2,30.1
	c0,0-0.9,0.3-2.2,0.9l0,0c0.7-0.3,1.4-0.5,2.1-0.7L18.2,30.1z M17.7,31.1c-0.1,0.6-0.3,1.2-0.8,1.7h-2.6c1.1-0.6,2.2-1.1,3.3-1.5
	L17.7,31.1z M15.3,31.4L15.3,31.4c-0.8,0.4-1.6,0.9-2.3,1.4l0,0c0.7-0.4,1.5-0.8,2.2-1.2L15.3,31.4z M16.3,28.4L16.3,28.4l-0.9,0.1
	L16.3,28.4z M14.6,28.8L14.6,28.8c0.2-0.1,0.5-0.2,0.8-0.3c-0.3,0.1-0.6,0.2-0.8,0.4L14.6,28.8z M14.6,28.3L14.6,28.3
	c-0.1,0.1-0.2,0.1-0.3,0.2l0,0L14.6,28.3z M14.4,30.5h-0.5c0.1-0.3,0.2-0.6,0.5-0.9c0.1,0.3,0.1,0.7-0.1,1L14.4,30.5z M14.2,28.3
	L14.2,28.3z M14.1,29.2c-0.3,0.3-0.5,0.7-0.6,1.2C13.6,30,13.8,29.6,14.1,29.2L14.1,29.2z M13.9,29L13.9,29C13.8,29,13.8,29,13.9,29
	L13.9,29z M13.6,28.7c-0.4,0.4-0.6,0.8-0.8,1.3c-0.1-0.4,0-0.7,0.3-1c0.1-0.1,0.2-0.1,0.4-0.2L13.6,28.7z M13.2,30.2l-0.1,0.3l0,0
	c-0.1,0-0.1,0,0-0.1L13.2,30.2z M13,28.7c0.1-0.1,0.1-0.1,0.2-0.2L13,28.7c-0.1,0-0.1,0.1-0.1,0.2c0,0,0,0,0,0L13,28.7z M12.2,31.3
	c0.1,0.1,0.2,0.1,0.3,0.1h0.1c0.1,0,0.2-0.1,0.3-0.2c0.2,0.2,0.5,0.1,0.7-0.1c0.4,0,0.8,0.1,1.2,0.2c-0.9,0.4-1.7,1-2.5,1.5H12
	c0-0.5-0.1-1-0.2-1.4L12.2,31.3z M12,33.2L12,33.2c0,0.1,0,0.2,0,0.3l0,0h-0.4c0.2,0,0.2-0.1,0.3-0.2L12,33.2z M23.7,33.9l0.4,0.5
	H10.5c0-0.1,0-0.3-0.1-0.4l0.5-0.1c0.1,0,0.2,0.1,0.2,0.1L23.7,33.9z M10.7,30.2c0.2,0.8,0.4,1.7,0.6,2.6h-0.1
	c-0.2,0-0.4,0.1-0.5,0.3c-0.2,0.1-0.5,0.2-0.8,0.2l-0.4,0.1l0.1,0.4c0.1,0.2,0.1,0.5,0.2,0.7c-0.1,0.1-0.1,0.2-0.1,0.3l0,0
	c-0.3-0.4-0.6-0.8-0.8-1.3c-0.1-0.5,0.4-1.1,0.5-1.3c0.1-0.1,0.1-0.3,0-0.5c0,0,0,0,0,0c-0.1-0.1-0.4-0.1-0.5,0
	c-0.4,0.5-0.7,1-0.7,1.7c-0.4-0.3-0.7-0.6-0.9-0.9c0-0.1,0.4-0.5,0.8-0.7l0.1-0.1v-0.1c0.1-0.6,0.2-1.1,0.1-1.7c0,0,0-0.1,0-0.1
	l0.9-0.3c0.6,0.2,1.1,0.5,1.5,0.9L10.7,30.2z M7.7,28.4c0,0.1,0,0.1,0,0.2l0.2,0.6l0,0l-0.2-0.6c0,0,0-0.1-0.1-0.1L7.7,28.4z
	 M9.2,28.1l0.2,0.7L9.2,28.1C9.2,28.1,9.2,28.1,9.2,28.1c0-0.1-0.1,0.1-0.1,0.1L9.2,28.1z M8.9,28.2L9,28.7L8.9,28.2
	C8.9,28.2,8.9,28.1,8.9,28.2c0,0,0,0.1,0,0.1L8.9,28.2z M8.7,27.5L8.7,27.5L8.7,27.5L8.7,27.5z M8.3,27.4L8.3,27.4z M8.3,27.7
	L8.3,27.7z M8.4,28.1c0.1,0,0.1,0.1,0.1,0.2l0.2,0.6l-0.5,0.2L8,28.5c0-0.1,0-0.1,0-0.2c0-0.1,0.1-0.1,0.2-0.1
	c0.1,0,0.1,0.1,0.2,0.1L8.4,28.1z M7.9,27.4h0.2H7.9c-0.1,0-0.2,0.1-0.3,0.1c0.1,0,0.1,0,0.2,0L7.9,27.4z M7.7,28.1
	c0.1-0.1,0.2-0.3,0.4-0.3C7.9,27.8,7.8,28,7.7,28.1c0,0.1,0,0.2-0.1,0.2c0,0,0-0.1,0-0.1L7.7,28.1z M7.3,28.7l0.2,0.6l0,0L7.3,28.7
	c0-0.1-0.1-0.2-0.1-0.4c0,0.2,0,0.3,0,0.5L7.3,28.7z M7.6,30.1c0,0.4,0,0.8-0.1,1.2c-0.4,0.2-1,0.7-1,1.3s1.2,1.5,2.2,2.2
	c0.3,0.5,0.7,1,1.1,1.5l0,0.1l-0.2,0.8c0,0.1,0,0.1,0,0.2H6.8l-0.3-3.8c0,0,0-0.1,0-0.1c0-0.1,0-0.1,0-0.2l-0.2-2.5
	c0.4,0,0.9-0.1,1.2-0.3L7.6,30.1z M6.1,37.3H5.7v-3.4h0.2L6.1,37.3z M5,33.2h0.9v0.3H5.3v3.8H5L5,33.2z M2.6,38.4H2.4v-0.1h49.2v0.1
	H2.6L2.6,38.4z M48.6,42.5v-1.1h3.1v1.1H48.6z M51.7,43.5v0.6h-3.1v-0.6H51.7z M48.6,40.3h-0.8v-0.9h3.9v0.9H48.6z M42.7,48.5v-1.9
	H43v1.9c-0.1,0-0.3,0-0.4,0.1L42.7,48.5z M42.9,49c0,0,0,0.1,0,0.1l-0.2,0.3l0,0V49c0,0,0.1,0,0.1,0C42.8,49,42.9,49,42.9,49
	c-0.1,0.1-0.1,0.1-0.1,0.1L42.9,49z M39.4,45.6H27.8v-0.5h19v0.5H39.4z M40.1,51.9l-0.3-0.1l1.9-5.2h0.6v2.1L40.1,51.9z M40.2,52.3
	l0.3,0.1l0,0c-0.1,0.1-0.2,0.1-0.2,0C40.3,52.5,40.2,52.4,40.2,52.3c0,0.1,0,0.1-0.1,0.1L40.2,52.3z M39.9,52.6l-0.3-0.1
	c0,0,0.1-0.1,0.1-0.1l0.1-0.2l0.2,0.1C39.9,52.3,39.9,52.4,39.9,52.6L39.9,52.6z M39.5,51.7l-0.3-0.1l1.9-5h0.4L39.5,51.7z
	 M39.4,52.1l-0.1,0.2c0,0.1-0.1,0.1-0.2,0.1c0,0-0.1-0.1-0.1-0.1c0,0,0-0.1,0-0.1V52L39.4,52.1z M38.8,51.6h-0.1l0.6-4.9h1.4
	L38.8,51.6z M38.7,51.9L38.7,51.9c0,0.2,0,0.3,0,0.3h-0.1L38.7,51.9L38.7,51.9z M38.3,51.5h-0.4l0.6-4.8h0.4L38.3,51.5z M38.3,51.8
	v0.3h-1.8v-0.3c0.3,0,0.6,0,0.9,0c0.1,0.1,0.4,0.1,0.8,0.1L38.3,51.8z M37.6,51.4h-0.5l-0.6-4.8h1.7L37.6,51.4z M36.7,51.4h-0.4
	l-0.6-4.8h0.4L36.7,51.4z M36.1,52.2L36.1,52.2c0-0.1,0-0.2-0.1-0.3v-0.1h0.1L36.1,52.2z M36,51.5h-0.2L34,46.6h1.4L36,51.5z
	 M35.7,52.1c0,0,0,0.1,0,0.1c0,0-0.1,0.1-0.1,0.1c-0.1,0-0.2,0-0.2-0.1L35.3,52l0.3-0.1L35.7,52.1z M35.5,51.6l-0.3,0.1l-1.9-5h0.4
	L35.5,51.6z M34.8,52.2l0.2-0.1l0.1,0.2l0.1,0.1l-0.3,0.1c0-0.1-0.1-0.2-0.2-0.2L34.8,52.2z M34.8,51.8l-0.3,0.1l-2.1-3v-2.2h0.5
	L34.8,51.8z M34.4,52.6c-0.1,0.1-0.2,0.1-0.2,0l0-0.1l0.3-0.1l0,0c0.1,0,0.1,0.2,0.1,0.3s-0.2,0.1-0.3,0.1l0,0L34.4,52.6z M34.2,52
	l-0.3,0.1l-1.7-2.4h0.2v-0.3L34.2,52z M33.9,52.7c0,0.1,0.1,0.1,0.2,0.2c-2.4,1.2-4.1,3.6-4.3,6.2h-0.4c0.2-2.8,1.9-5.3,4.4-6.5
	L33.9,52.7z M30,59.7c-0.2-4,3-7.4,7-7.5c4-0.2,7.4,3,7.5,7c0,0.2,0,0.4,0,0.5v24.4H29.9L30,59.7z M40.6,52.9c0.1,0,0.1-0.1,0.2-0.2
	l0.1-0.1c2.5,1.3,4.1,3.7,4.4,6.5h-0.4c-0.3-2.6-1.9-4.9-4.3-6L40.6,52.9z M40.8,52.2L40.4,52l1.9-2.7v0.4h0.1L40.8,52.2z
	 M31.7,48.5v-1.9h0.4v1.9c-0.2,0-0.4,0-0.5,0.2L31.7,48.5z M32.1,49v0.5h-0.2l-0.2-0.3c0,0,0-0.1,0-0.1c0,0,0-0.1,0.1-0.1
	c0,0,0.1,0,0.1,0c0.1,0,0.1,0,0.1,0.1L32.1,49z M32.8,40.3h-5.4v-0.9h19.4v0.9H32.8L32.8,40.3z M40.8,41.3V44h-7v-2.7H40.8z
	 M32.8,41.3V44h-6v-2.7H32.8z M27.8,47c0,0,0-0.1,0-0.1v-0.3h3.5v2.1h-4.6v-0.3c0.5-0.2,0.8-0.6,0.9-1.2L27.8,47z M31.4,49
	c0,0.1,0,0.2,0.1,0.2l0.1,0.1h-4.7V49H31.4z M41.9,44v-2.7h5.7V44H41.9z M22.7,40v-0.7h3.7V40H22.7z M25.7,41V44h-2.3V41H25.7z
	 M7.8,53.5v-1.1h1.9v1.1H7.8z M9.7,54.5v1.1H7.8v-1.1H9.7z M7.8,51.3v-2.1h6v1.5H9.7v0.6L7.8,51.3z M7.8,48.9v-0.3h6v0.3H7.8z
	 M10.8,54.5v-2.8h8.6v4.5h-8.6V54.5z M14.9,50.7v-1.5h0.5v1.5H14.9z M13.9,48.2H8.1c0.4-0.3,0.7-0.7,0.8-1.2c0,0,0-0.1,0-0.1v-0.3
	h12.5V47c0,0,0,0.1,0,0.1c0,0.5,0.3,1,0.8,1.2h-8.3L13.9,48.2z M8.9,45.5V45h12.5v0.5H8.9z M21.4,44H7.8v-2.7h14.5V44H21.4z
	 M8.5,40.2v-0.9h13.2v0.9H8.5z M3.7,40v-0.7h3.7V40H3.7z M6.7,41V44H4.4V41H6.7z M3.5,45h4.4v0.3c-0.2-0.1-0.3-0.1-0.5-0.1
	c-0.7,0-1.2,0.4-1.5,1H5.5c-0.2-0.6-0.8-1-1.5-1c-0.2,0-0.4,0-0.5,0.1V45z M6.8,51v24.9H4.5V51.2L6.8,51z M4.5,50v-0.2h2.3V50H4.5z
	 M7.4,77L7.4,77L4,77V77H7.4z M6.8,48.7H4.5v-0.3c0.5-0.2,0.8-0.5,1-1h0.4c0.1,0.5,0.5,0.8,1,1L6.8,48.7z M3.7,81h0.9v1.7H3.7V81z
	 M7.4,84.3H3.7v-0.4h3.7V84.3z M7.4,82.8H5.6V81h1.8V82.8z M7.4,80H3.7v-1.7h3.7V80z M7.6,46.9c-0.1-0.1-0.3-0.2-0.4-0.2
	c-0.2,0-0.3,0.1-0.4,0.2H6.7c0.1-0.3,0.4-0.4,0.6-0.4C7.5,46.6,7.6,46.7,7.6,46.9L7.6,46.9z M9.6,84.8H8.4v-7.6H8.2v-1.1H7.7v-3.4
	h1.9V84.8z M9.6,71.6H7.7V70h1.9V71.6z M9.6,69H7.7v-1.6h1.9V69z M9.6,66.4H7.7v-1.6h1.9V66.4z M20,84.8H10V72.7h0.4v12h9.3v-12H20
	L20,84.8z M10,69v-1.6h0.4V69L10,69z M10.7,84.3V63.7h8.6v20.6L10.7,84.3z M20,69h-0.4v-1.6H20V69z M20,63.7h-0.4v-0.4h-9.3v0.4H10
	V63h10L20,63.7z M22.3,76.1h-0.5v1.1h-0.2v7.6h-1.3V72.7h1.9L22.3,76.1z M22.3,71.6h-1.9V70h1.9V71.6z M22.3,69h-1.9v-1.6h1.9V69z
	 M22.3,66.4h-1.9v-1.6h1.9V66.4z M22.3,63.7h-1.9v-1.1H9.6v1.1H7.7v-1.9h14.6L22.3,63.7z M22.3,60.8H7.7v-0.7h14.6V60.8z M22.3,59.1
	H7.7v-0.2h14.6V59.1z M22.3,57.8H7.7v-0.9h1.9v0.6h10.7v-0.6h1.9L22.3,57.8z M22.3,55.8h-1.9v-1.1h1.9V55.8z M22.3,53.7h-1.9v-1.1
	h1.9V53.7z M22.3,51.2v0.3h-1.9v-0.6h-4.1v-1.5h6L22.3,51.2z M22.3,48.8v0.2h-6v-0.3h6V48.8z M22.3,45.2h4.4v0.3
	c-0.2-0.1-0.3-0.1-0.5-0.1c-0.7,0-1.2,0.4-1.5,1h-0.4c-0.2-0.8-1.1-1.3-1.9-1c0,0-0.1,0-0.1,0V45.2z M26.7,60.2h2v1h-2V60.2z
	 M25.6,51.1V76h-2.3V51.2L25.6,51.1z M23.3,50.1v-0.2h2.3v0.2H23.3z M26.2,77.1L26.2,77.1l-3.4,0.1v-0.1H26.2z M25.6,48.8h-2.3v-0.3
	c0.5-0.2,0.8-0.5,1-1h0.4c0.2,0.5,0.5,0.8,1,1L25.6,48.8z M22.7,81h0.9v1.7h-0.9V81z M26.4,84.3h-3.7v-0.4h3.7V84.3z M26.4,82.8
	h-1.8V81h1.8V82.8z M26.4,80h-3.7v-1.7h3.7V80z M26.6,46.9c-0.1-0.1-0.3-0.2-0.4-0.2c-0.2,0-0.3,0.1-0.4,0.2h-0.1
	c0.1-0.3,0.4-0.4,0.6-0.4C26.5,46.6,26.6,46.7,26.6,46.9L26.6,46.9z M28.9,84.8h-1.4v-7.6h-0.2v-1.1h-0.6V62.4h2.2L28.9,84.8z
	 M26.7,59.2v-9.3h5l1.8,2.5c-2.6,1.3-4.3,3.9-4.5,6.8H26.7z M45.1,84.8H29.2V62.4h0.4v22.2h15.2V62.4h0.4L45.1,84.8z M47.7,76.1
	h-0.5v1.1H47v7.6h-1.5V62.4h2.2V76.1z M47.7,61.3h-2.2v-1h2.2V61.3z M47.7,51.2v8h-2.2c-0.2-2.9-1.9-5.5-4.5-6.8l1.8-2.5h4.9V51.2z
	 M47.7,49.6H43l0.1-0.1c0-0.1,0.1-0.2,0.1-0.2h4.5L47.7,49.6z M47.7,48.9h-4.4v-2.1h3.4V47c0,0,0,0.1,0,0.1c0,0.6,0.4,1.1,1,1.4
	L47.7,48.9z M47.7,45.2h2.4v1.3h-0.4c-0.2-0.6-0.8-1-1.5-1c-0.2,0-0.4,0-0.5,0.1V45.2z M50.1,46.9L50.1,46.9L49.8,47c0,0,0,0,0-0.1
	L50.1,46.9z M48.1,81h0.6v1.7h-0.6V81z M50.5,84.3h-2.4v-0.4h2.4V84.3z M50.5,82.8h-0.7V81h0.7V82.8z M50.5,80h-2.4v-1.7h2.4V80z
	 M50.7,77.2h-2.4v-0.1L50.7,77.2L50.7,77.2z M51.1,76.1h-2.2V51.2h2.3L51.1,76.1z M51.1,50.1h-2.2v-0.2h2.3L51.1,50.1z M51.1,48.8
	h-2.2v-0.3c0.5-0.2,0.8-0.5,1-1h0.5c0.1,0.4,0.4,0.7,0.8,0.9L51.1,48.8z M51.2,45.2h4.4v0.3c-0.2-0.1-0.3-0.1-0.5-0.1
	c-0.7,0-1.2,0.4-1.5,1h-0.4c-0.2-0.6-0.8-1-1.5-1c-0.2,0-0.4,0-0.5,0.1V45.2z M52.2,50.1v-0.2h2.3v0.2H52.2z M54.5,51.1V76h-2.3
	V51.2L54.5,51.1z M52.2,48.8v-0.3c0.5-0.2,0.8-0.5,1-1h0.4c0.2,0.5,0.5,0.8,1,1v0.3H52.2z M51.6,81h0.9v1.7h-0.9V81z M55.1,84.2
	h-3.5v-0.4h3.5V84.2z M55.1,82.7h-1.6V81h1.6V82.7z M55.1,79.9h-3.5v-1.7h3.5V79.9z M55.1,77.1h-3v-0.1L55.1,77.1L55.1,77.1z
	 M55.4,46.8c-0.2-0.2-0.5-0.3-0.7-0.1c0,0-0.1,0.1-0.1,0.1h-0.1c0.1-0.3,0.4-0.4,0.6-0.4C55.3,46.5,55.5,46.6,55.4,46.8L55.4,46.8z
	 M56.6,84.7h-0.3v-0.2h0.3V84.7z M56.6,79.9v4.3h-0.3v-6h0.3V79.9z M56.6,77.8h-0.3v-0.3h0.3V77.8z M57.3,48.8v27.2h-0.5v1.1h-0.7
	v-1.1h-0.6V48.5c0.1-0.5,0.5-0.8,1-0.8c0.4,0,0.7,0.4,0.8,0.8L57.3,48.8z M57.3,45.2h4.3v0.3c-0.1,0-0.3-0.1-0.4-0.1
	c-0.7,0-1.2,0.4-1.5,1h-0.4c-0.2-0.6-0.8-1-1.5-1c-0.2,0-0.4,0-0.5,0.1L57.3,45.2z M60.6,51.2v24.9h-2.3V51.2L60.6,51.2z M58.4,50.2
	v-0.2h2.3v0.2H58.4z M61.2,77.2L61.2,77.2l-3.3,0.1v-0.1H61.2z M60.6,48.9h-2.3v-0.3c0.5-0.2,0.8-0.5,1-1h0.4c0.1,0.5,0.5,0.8,1,1
	L60.6,48.9z M57.7,81h0.9v1.7h-0.9V81z M61.4,84.3h-3.7v-0.4h3.7V84.3z M61.4,82.8h-1.8V81h1.8V82.8z M61.4,80h-3.7v-1.7h3.7V80z
	 M61.6,46.9c-0.2-0.2-0.5-0.3-0.8-0.1c0,0-0.1,0.1-0.1,0.1h-0.1c0.1-0.2,0.3-0.3,0.5-0.3C61.4,46.5,61.6,46.7,61.6,46.9L61.6,46.9z
	 M63.6,85h-1.1v-0.3h1.1V85z M63.6,84.3h-1.1v-7h-0.2v-1.1h-0.6V62.2h1.9V84.3z M61.6,59.4v-9.5h4.7l1.8,2.5c-2.7,1.3-4.4,4-4.6,7
	L61.6,59.4z M79.8,85H63.9v-0.3h15.9V85z M79.8,84.3h-0.4v-22h0.4V84.3z M81.1,85h-1v-0.3h1V85z M81.9,76.1h-0.6v1.1h-0.2v7h-1v-22
	h1.7L81.9,76.1z M81.9,51.2v8.2h-1.8c-0.1-3-1.9-5.6-4.5-7l1.8-2.5h4.5L81.9,51.2z M81.9,49.6h-4.2l0.1-0.1c0-0.1,0.1-0.2,0.1-0.2h4
	L81.9,49.6z M81.9,48.9h-4v-2.3h3V47c0,0,0,0.1,0,0.1c0,0.6,0.4,1.1,1,1.4V48.9z M81.9,45.2h4.4v0.3c-0.8-0.3-1.7,0.1-2,0.9
	c0,0,0,0.1,0,0.1h-0.4c-0.2-0.6-0.8-1-1.5-1c-0.2,0-0.4,0-0.5,0.1V45.2z M83,49.9h2.3v0.2H83L83,49.9L83,49.9z M83,48.9v-0.3
	c0.5-0.2,0.8-0.5,1-1h0.4c0.1,0.5,0.5,0.8,1,1v0.3H83L83,48.9z M85.3,51.2v24.9H83V51.2L85.3,51.2z M85.7,77.2L85.7,77.2l-3.3,0.1
	v-0.1H85.7z M82,47c0.1-0.3,0.4-0.4,0.6-0.4c0.2,0,0.3,0.2,0.4,0.4h-0.1c-0.1-0.1-0.3-0.2-0.4-0.2C82.3,46.8,82.2,46.8,82,47L82,47z
	 M82.2,81.1H84v1.7h-1.8V81.1z M85.9,84.4h-3.7v-0.4h3.7V84.4z M85.9,82.9h-0.9V81h0.9V82.9z M85.9,80.1h-3.7v-1.7h3.7V80.1z
	 M88.1,49v27.2h-0.6v1.1h-0.2v7.6H87v-7.6h-0.2v-1.1h-0.5V48.5c0.1-0.5,0.5-0.8,1-0.8c0.4,0,0.7,0.4,0.8,0.8L88.1,49z M88.1,47
	c0.1-0.2,0.3-0.3,0.5-0.3c0.2,0,0.4,0.1,0.5,0.3H89c-0.2-0.2-0.5-0.3-0.8-0.1C88.2,46.9,88.2,46.9,88.1,47L88.1,47z M91.4,50v0.2
	h-2.3V50H91.4z M89.1,49v-0.3c0.5-0.2,0.8-0.5,1-1h0.4c0.1,0.5,0.5,0.8,1,1V49H89.1z M91.4,51.3v24.9h-2.3v-25L91.4,51.3z
	 M91.5,77.3L91.5,77.3l-3,0.1v-0.1H91.5z M88.3,81.2h1.8v1.7h-1.8V81.2z M92,84.4h-3.7V84H92V84.4z M92,82.9h-0.9V81H92V82.9z
	 M92,80.1h-3.7v-1.7H92V80.1z M92.4,45.7c-0.2-0.1-0.3-0.1-0.5-0.1c-0.7,0-1.2,0.4-1.5,1H90c-0.2-0.6-0.8-1-1.5-1
	c-0.2,0-0.4,0-0.5,0.1v-0.3h4.4V45.7z M92.5,51.3h2.3v24.9h-2.3V51.3z M92.9,77.3h2.4v0.1L92.9,77.3L92.9,77.3z M93.1,81.2h0.7v1.7
	h-0.7V81.2z M95.5,84.4h-2.4V84h2.4V84.4z M95.5,82.9h-0.6V81h0.6V82.9z M95.5,80.2h-2.4v-1.7h2.4V80.2z M98.1,85h-1.5v-7.6h-0.2
	v-1.1h-0.5V62.4h2.2V85z M98.1,61.5h-2.2v-1h2.2V61.5z M95.9,59.4v-9.3h4.9l1.8,2.5c-2.6,1.3-4.3,3.9-4.5,6.8H95.9z M114.4,85H98.4
	V62.4h0.4v22.2H114V62.4h0.4V85z M116.9,76.3h-0.6v1.1h-0.2V85h-1.4V62.4h2.2V76.3z M116.9,61.5h-2v-1h2V61.5z M116.9,51.4v8h-2.2
	c-0.2-2.9-1.9-5.5-4.5-6.8l1.8-2.5h5V51.4z M116.9,49.7h-4.8l0.1-0.1c0-0.1,0.1-0.2,0.1-0.2h4.6L116.9,49.7z M116.9,49h-4.6v-2.1
	h3.5V47c0,0,0,0.1,0,0.1c0,0.6,0.4,1.1,1,1.4L116.9,49z M116.9,45.4h4.4v0.3c-0.2-0.1-0.3-0.1-0.5-0.1c-0.7,0-1.2,0.4-1.5,1h-0.4
	c-0.2-0.6-0.8-1-1.5-1c-0.2,0-0.4,0-0.5,0.1V45.4z M120.2,50.1v0.2H118v-0.2H120.2z M118,49.1v-0.3c0.5-0.2,0.8-0.5,1-1h0.4
	c0.1,0.5,0.5,0.8,1,1v0.3H118z M120.2,51.4v24.9H118V51.2L120.2,51.4z M120.7,77.4L120.7,77.4l-3.3,0.1v-0.1H120.7z M117,47.1
	c0.1-0.2,0.3-0.3,0.5-0.3c0.2,0,0.4,0.1,0.5,0.3h-0.1c-0.1-0.1-0.3-0.2-0.4-0.2C117.3,46.9,117.1,47,117,47.1L117,47.1z M117.2,81.3
	h1.8V83h-1.8V81.3z M120.9,84.5h-3.7v-0.4h3.7V84.5z M120.9,83h-0.9v-2h0.9V83z M120.9,80.3h-3.7v-1.7h3.7V80.3z M123.2,85H122v-7.6
	h-0.2v-1.1h-0.5v-3.4h1.9V85z M123.2,71.9h-1.9V70h1.9V71.9z M123.2,69.3h-1.9v-1.6h1.9V69.3z M123.2,66.6h-1.9v-1.6h1.9V66.6z
	 M133.6,85h-10V72.7h0.4v12h9.3v-12h0.4L133.6,85z M123.6,69.3v-1.6h0.4V69L123.6,69.3z M124.3,84.5V63.7h8.6v20.6L124.3,84.5z
	 M133.6,69.3h-0.4v-1.6h0.4V69.3z M133.6,64h-0.4v-0.4H124V64h-0.4v-1h10L133.6,64z M135.9,76.4h-0.6v1.1h-0.2V85H134V72.7h1.9V76.4
	z M135.9,71.9H134V70h1.9V71.9z M135.9,69.3H134v-1.6h1.9V69.3z M135.9,66.6H134v-1.6h1.9V66.6z M135.9,64H134v-1.4h-10.7v1.1h-1.9
	v-1.9h14.6L135.9,64z M135.9,61.1h-14.6v-0.7h14.6V61.1z M135.9,59.3h-14.6v-0.2h14.6V59.3z M135.9,58.1h-14.6v-0.9h1.9v0.6H134
	v-0.6h1.9L135.9,58.1z M135.9,56.1H134V55h1.9V56.1z M135.9,53.9H134v-1.1h1.9V53.9z M135.9,51.4v0.3H134v-0.6h-4.1v-1.5h6
	L135.9,51.4z M135.9,49.1v0.2h-6V49h6V49.1z M135.9,45.5h4.4v0.3c-0.2-0.1-0.3-0.1-0.5-0.1c-0.7,0-1.2,0.4-1.5,1h-0.4
	c-0.2-0.8-1.1-1.3-1.9-1c0,0-0.1,0-0.1,0V45.5z M139.3,50.2v0.2H137v-0.2H139.3z M137,49.2v-0.3c0.5-0.2,0.8-0.5,1-1h0.4
	c0.2,0.5,0.5,0.8,1,1v0.3H137z M139.3,51.5v24.9H137V51.2L139.3,51.5z M139.7,77.5L139.7,77.5l-3.3,0.1v-0.1H139.7z M136,47.2
	c0.1-0.2,0.3-0.3,0.5-0.3c0.2,0,0.4,0.1,0.5,0.3h-0.1c-0.2-0.2-0.5-0.3-0.8-0.1C136.1,47.1,136,47.2,136,47.2L136,47.2z M136.2,81.4
	h1.8v1.7h-1.8V81.4z M139.9,84.6h-3.7v-0.4h3.7V84.6z M139.9,83.1H139V81h0.9V83.1z M139.9,80.3h-3.7v-1.7h3.7V80.3z"/>
<path class="st0" d="M65.3,29.1h12.9v-5.8H65.3V29.1z M66.3,24.4h10.8V28H66.3V24.4z"/>
<path class="st0" d="M73.1,11.8c0.7,0,1.3-0.6,1.3-1.3V8.9h-2.6v1.6C71.8,11.2,72.4,11.8,73.1,11.8z M72.8,9.9h0.5v0.5
	c0,0.1-0.2,0.2-0.3,0.2c-0.1,0-0.2-0.1-0.2-0.2V9.9z"/>
</svg>
