<?xml version="1.0" encoding="utf-8"?>
<!-- Generator: Adobe Illustrator 22.1.0, SVG Export Plug-In . SVG Version: 6.00 Build 0)  -->
<svg version="1.1" id="Capa_8" xmlns="http://www.w3.org/2000/svg" xmlns:xlink="http://www.w3.org/1999/xlink" x="0px" y="0px"
	 width="67.2px" height="130.2px" viewBox="0 0 67.2 130.2" style="enable-background:new 0 0 67.2 130.2;" xml:space="preserve">
<style type="text/css">
	.st0{fill:#0047BA;}
</style>
<path class="st0" d="M11.9,107.1h-1.2v3.7H8.1V99.6h4.5c2.1,0,3.8,1.7,3.8,3.8c0,0,0,0,0,0c0,1.4-0.8,2.6-2.1,3.2l2.4,4.1H14
	L11.9,107.1z M10.7,104.9h1.9c0.8-0.1,1.4-0.8,1.3-1.6c-0.1-0.7-0.6-1.2-1.3-1.3h-1.9V104.9z"/>
<path class="st0" d="M18.3,98.6l1.3-2.2h2.9l-1.9,2.2H18.3z M18.4,99.6v11.2H21V99.6L18.4,99.6z"/>
<path class="st0" d="M22.8,105.2c0-3.2,2.6-5.8,5.8-5.8c3.2,0,5.8,2.6,5.8,5.8c0,3.2-2.6,5.8-5.8,5.8c-3.2,0-5.8-2.5-5.8-5.7
	C22.8,105.2,22.8,105.2,22.8,105.2z M31.9,105.2c0-1.8-1.5-3.2-3.3-3.2s-3.2,1.5-3.2,3.3c0,1.8,1.5,3.2,3.3,3.2
	c1.8,0,3.2-1.4,3.3-3.1C31.9,105.3,31.9,105.3,31.9,105.2z"/>
<path class="st0" d="M50.6,105.2c0.1,3-2.2,5.5-5.2,5.6c-0.1,0-0.1,0-0.2,0h-4.5V99.6h4.5c3,0,5.4,2.4,5.4,5.4
	C50.6,105,50.6,105.1,50.6,105.2z M48.1,105.2c0.1-1.6-1-3-2.6-3.1c-0.1,0-0.3,0-0.4,0h-1.9v6.3h1.9c1.6,0,2.9-1.2,3-2.8
	C48.2,105.4,48.1,105.3,48.1,105.2z"/>
<path class="st0" d="M59.5,108.3v2.5h-7V99.6h7v2.5h-4.4v1.8h4v2.4h-4v2L59.5,108.3z"/>
<path class="st0" d="M0,128l2.2-1.3c0.3,0.6,0.9,1.1,1.6,1c1.1,0,1.5-0.6,1.5-1.3v-7.6h2.6v7.6c0,2.5-1.7,3.8-4,3.8
	C2.2,130.3,0.7,129.5,0,128z"/>
<path class="st0" d="M16.3,128.2h-4.2l-0.6,1.8H8.7l3.8-11.2h3.3l3.8,11.2h-2.8L16.3,128.2z M15.5,125.8l-1.3-4.1l-1.3,4.1H15.5z"/>
<path class="st0" d="M29.8,118.8V130h-1.9l-4.3-6.1v6.1H21v-11.2h1.9l4.3,6.1v-6.1H29.8z"/>
<path class="st0" d="M39.2,127.5v2.5h-7v-11.2h7v2.5h-4.4v1.8h4v2.4h-4v2L39.2,127.5z"/>
<path class="st0" d="M43.6,118.8V130H41v-11.2H43.6z"/>
<path class="st0" d="M49.7,126.3h-1.2v3.7h-2.6v-11.2h4.5c2.1,0,3.8,1.7,3.9,3.8c0,0,0,0,0,0c0,1.4-0.8,2.6-2.1,3.2l2.4,4.1h-2.8
	L49.7,126.3z M48.5,124.1h1.9c0.8-0.1,1.4-0.8,1.3-1.6c-0.1-0.7-0.6-1.2-1.3-1.3h-1.9V124.1z"/>
<path class="st0" d="M55.5,124.4c0-3.2,2.6-5.8,5.8-5.8c3.2,0,5.8,2.6,5.8,5.8c0,3.2-2.6,5.8-5.8,5.8c-3.2,0-5.8-2.5-5.8-5.7
	C55.5,124.4,55.5,124.4,55.5,124.4z M64.6,124.4c0-1.8-1.5-3.2-3.3-3.2s-3.2,1.5-3.2,3.3c0,1.8,1.5,3.2,3.3,3.2
	c1.8,0,3.2-1.3,3.3-3.1C64.6,124.5,64.6,124.5,64.6,124.4z"/>
<path class="st0" d="M60.1,13.4H39.5c1.1-5.5,0-10-3.1-12.2c-2.1-1.5-5-1.5-7.1,0c-3.1,2.2-4.2,6.7-3.1,12.2H0.1l0.2,1.2
	c0,0.1,0.6,3.4,5.5,3.7c0.7,2.2,2.3,4.1,4.3,5.3l0.2,0.2h8.8l2.5,2.8l-0.8,10l2,0.3L22,44.7l1.7,1l-1.8,27.9h-4.5l-3.6,10.6
	c-1,2.7,0.5,5.7,3.2,6.7c0.6,0.2,1.2,0.3,1.8,0.3h29.7c2.9,0,5.3-2.3,5.3-5.2c0-0.8-0.2-1.6-0.5-2.3l-4.9-10H45l-1.1-16.4l2-3.5
	l-0.5-3h0.1l0.6,0.2l0.9-0.8L47,49.7l-2.9-23.2l2.5-2.8h8.7l0.2-0.2c2-1.2,3.6-3,4.3-5.3c4.9-0.3,5.5-3.6,5.5-3.7l0.2-1.2L60.1,13.4
	z M45.1,75.7H47l4.3,8.8c0.8,1.6,0.1,3.5-1.5,4.3c-0.4,0.2-0.9,0.3-1.4,0.3H18.7c-1.8,0-3.2-1.4-3.2-3.2c0-0.3,0.1-0.7,0.2-1
	l3.2-9.2L45.1,75.7L45.1,75.7z M33.4,51.7l8.4,5.1l1.1,16.8H24L25.7,47L33.4,51.7z M43.6,53.7l-0.8,1.4L42.7,55l0,0l-1.1-0.7l0,0
	l-8.2-5l-5.8-3.5l-1.7-1l-1.7-1h-0.1l0.7-6.5l0.9,0.2v2.4l10.9,0.9v7.1l4.6,1.6l0,0l1,0.4l0,0l0.9,0.3l0.2,1.3v0.1l0.3,1.9l-0.1,0.2
	L43.6,53.7z M23.1,34.8l0.6-7.5l0.1-1l0.1-1l0.1-2c0.6,0.2,1.2,0.5,1.9,0.6v11.3L24.1,35L23.1,34.8L23.1,34.8z M30.5,2.9
	c1.4-1,3.3-1,4.7,0c1.4,1.1,2.3,2.6,2.5,4.3c0.3,2.1,0.2,4.2-0.3,6.2h-0.3V5.9l-0.2-0.2l-0.2-0.2c-3-2.1-3.4-2.2-3.6-2.3l-0.2-0.1
	l-0.2,0.1c-0.2,0-0.6,0.2-3.6,2.3l-0.2,0.2l-0.2,0.1v7.5h-0.3c-0.5-2-0.6-4.1-0.3-6.2C28.2,5.5,29.1,3.9,30.5,2.9L30.5,2.9z
	 M27.9,37.7V24.4c1.3,0.2,2.6,0.4,3.9,0.4c0.3,0,0.7,0,1,0h0.5h0.6c0.9,0,1.8-0.1,2.8-0.2v13.9l-8.8-0.7L27.9,37.7z M23.2,20.7
	c-2.3-1.1-4.2-3-5.3-5.2h18.8v7.2c-1,0.1-1.9,0.1-2.8,0.1h-1c-0.4,0-0.7,0-1,0c-1.3,0-2.6-0.2-3.9-0.5c-0.4-0.1-0.7-0.1-1-0.2
	s-0.7-0.2-1-0.3l-1-0.3C24.3,21.2,23.7,21,23.2,20.7L23.2,20.7z M30.8,7.2V6.8c1.1-0.8,1.7-1.2,2.1-1.4c0.3,0.2,1,0.6,2.1,1.4v3.4
	c-0.3,1.1-1.4,1.9-2.5,1.6c-0.8-0.2-1.4-0.8-1.6-1.6V7.2L30.8,7.2z M35.1,13.4h-0.2l0.2-0.1V13.4z M30.6,13.2l0.2,0.1h-0.2V13.2z
	 M15.6,15.4c0.8,2,2.1,3.8,3.7,5.1c0.8,0.7,1.7,1.3,2.6,1.8l-0.1,1.3l-1.8-2H11c-2.2-1.3-3.5-3.7-3.6-6.2L15.6,15.4z M44,48.2
	l-0.8-0.3l0,0l-0.3-0.1l-0.7-0.2l0,0l-1-0.4l0,0l-2.4-0.8V15.5l0,0h1.9l1.2,9.7l0.1,1l0.1,1l1.1,8.9l1.5,12.2L44,48.2z M42.7,15.4
	h15.5c0,2.6-1.4,4.9-3.6,6.2h-9.1l-1.9,2.1L42.7,15.4z"/>
</svg>
