<svg id="Capa_8" data-name="Capa 8" xmlns="http://www.w3.org/2000/svg" viewBox="0 0 1082.76 170.86"><defs><style>.cls-1,.cls-6{fill:#00539e;}.cls-2{fill:#fff;}.cls-3,.cls-4,.cls-5{fill:none;stroke:#00539e;}.cls-3{stroke-width:3.69px;}.cls-4,.cls-5{stroke-miterlimit:10;}.cls-4{stroke-width:2.07px;}.cls-5{stroke-width:1.48px;}.cls-6{font-size:14.97px;font-family:MyriadPro-Bold, Myriad Pro;font-weight:700;letter-spacing:-0.04em;}</style></defs><title>BENEFICIOS</title><path class="cls-1" d="M1760.37,764.6h9.36a8.17,8.17,0,0,1,6,2.07,6.43,6.43,0,0,1,1.75,4.68v0a6.36,6.36,0,0,1-4.38,6.35l5,7.3h-5.27l-4.38-6.54h-3.54v6.54h-4.5Zm9.06,9.93c2.2,0,3.45-1.17,3.45-2.89v-.06c0-1.93-1.34-2.92-3.53-2.92h-4.48v5.87Z" transform="translate(-1760.37 -645.54)"/><path class="cls-1" d="M1780,777.31v-.06c0-4.47,3.18-8.15,7.74-8.15,5.23,0,7.63,4.06,7.63,8.5,0,.35,0,.76-.06,1.17h-10.9a3.63,3.63,0,0,0,3.83,3.07,5.14,5.14,0,0,0,3.8-1.61l2.54,2.25a8.27,8.27,0,0,1-14.58-5.17Zm11-1.32c-.26-2-1.43-3.33-3.3-3.33s-3,1.32-3.39,3.33Z" transform="translate(-1760.37 -645.54)"/><path class="cls-1" d="M1799.46,773.19h-1.85v-3.66h1.85v-1a5.17,5.17,0,0,1,1.25-3.8,4.88,4.88,0,0,1,3.6-1.23,9.84,9.84,0,0,1,3.15.44v3.68a5.66,5.66,0,0,0-2-.37c-1,0-1.61.52-1.61,1.69v.61h3.59v3.63h-3.53v11.86h-4.44Zm10.6-9.47h4.45v21.33h-4.45Z" transform="translate(-1760.37 -645.54)"/><path class="cls-1" d="M1817.93,777.31v-.06c0-4.47,3.19-8.15,7.74-8.15,5.24,0,7.63,4.06,7.63,8.5,0,.35,0,.76-.06,1.17h-10.9a3.63,3.63,0,0,0,3.83,3.07,5.14,5.14,0,0,0,3.8-1.61l2.54,2.25a8.27,8.27,0,0,1-14.58-5.17Zm11-1.32c-.27-2-1.43-3.33-3.31-3.33s-3,1.32-3.39,3.33Z" transform="translate(-1760.37 -645.54)"/><path class="cls-1" d="M1834.3,789.64v-3.48a5.15,5.15,0,0,0,.94.09c.93,0,1.57-.49,1.57-1.81V769.39h4.45v15.4c0,3.45-1.76,5-5,5A9,9,0,0,1,1834.3,789.64Zm2.4-25.92h4.67v3.94h-4.67Z" transform="translate(-1760.37 -645.54)"/><path class="cls-1" d="M1844.65,777.31v-.06a8.48,8.48,0,0,1,16.95-.06v.06a8.23,8.23,0,0,1-8.51,8.16A8.14,8.14,0,0,1,1844.65,777.31Zm12.57,0v-.06a4.16,4.16,0,0,0-4.13-4.32,4,4,0,0,0-4.06,4.26v.06a4.17,4.17,0,0,0,4.12,4.33A4,4,0,0,0,1857.22,777.31Z" transform="translate(-1760.37 -645.54)"/><path class="cls-1" d="M1863.56,783l1.9-2.92a8.93,8.93,0,0,0,4.94,1.87c1.29,0,1.87-.47,1.87-1.17v-.06c0-1-1.52-1.29-3.24-1.81-2.2-.64-4.68-1.67-4.68-4.71v-.06c0-3.18,2.57-5,5.73-5a10.81,10.81,0,0,1,5.84,1.82l-1.69,3.07a9.27,9.27,0,0,0-4.24-1.47c-1.08,0-1.64.47-1.64,1.09v.05c0,.88,1.49,1.29,3.19,1.87,2.19.74,4.73,1.79,4.73,4.65v.06c0,3.48-2.6,5.06-6,5.06A10.94,10.94,0,0,1,1863.56,783Z" transform="translate(-1760.37 -645.54)"/><path class="cls-1" d="M1939.14,764.6h9.35a8.18,8.18,0,0,1,6,2.07,6.43,6.43,0,0,1,1.75,4.68v0a6.36,6.36,0,0,1-4.38,6.35l5,7.3h-5.26l-4.38-6.54h-3.54v6.54h-4.5Zm9.06,9.93c2.19,0,3.45-1.17,3.45-2.89v-.06c0-1.93-1.34-2.92-3.54-2.92h-4.47v5.87Z" transform="translate(-1760.37 -645.54)"/><path class="cls-1" d="M1958.87,780.55v-.06c0-3.42,2.6-5,6.32-5a11.22,11.22,0,0,1,3.83.64v-.26c0-1.84-1.14-2.87-3.37-2.87a11.43,11.43,0,0,0-4.32.85l-1.11-3.39a13.81,13.81,0,0,1,6.08-1.26,7.24,7.24,0,0,1,5.29,1.76,6.81,6.81,0,0,1,1.69,5v9.09H1969v-1.69a6,6,0,0,1-4.74,2C1961.3,785.35,1958.87,783.65,1958.87,780.55Zm10.2-1v-.79a6.88,6.88,0,0,0-2.83-.58c-1.9,0-3.07.76-3.07,2.16v.06c0,1.2,1,1.9,2.43,1.9C1967.67,782.28,1969.07,781.14,1969.07,779.53Z" transform="translate(-1760.37 -645.54)"/><path class="cls-1" d="M1976.91,788.74l1.49-3.22a4.06,4.06,0,0,0,1.9.62,1.49,1.49,0,0,0,1.55-1l-6.14-15.72h4.71l3.56,10.67,3.42-10.67H1992l-6,16c-1.2,3.19-2.49,4.39-5.15,4.39A7.37,7.37,0,0,1,1976.91,788.74Z" transform="translate(-1760.37 -645.54)"/><path class="cls-1" d="M1993.72,780.55v-.06c0-3.42,2.6-5,6.31-5a11.13,11.13,0,0,1,3.83.64v-.26c0-1.84-1.14-2.87-3.36-2.87a11.44,11.44,0,0,0-4.33.85l-1.11-3.39a13.84,13.84,0,0,1,6.08-1.26,7.23,7.23,0,0,1,5.29,1.76,6.81,6.81,0,0,1,1.7,5v9.09h-4.3v-1.69a6,6,0,0,1-4.74,2C1996.14,785.35,1993.72,783.65,1993.72,780.55Zm10.2-1v-.79a6.93,6.93,0,0,0-2.84-.58c-1.9,0-3.07.76-3.07,2.16v.06c0,1.2,1,1.9,2.43,1.9C2002.51,782.28,2003.92,781.14,2003.92,779.53Z" transform="translate(-1760.37 -645.54)"/><path class="cls-1" d="M2010.73,783l1.9-2.92a8.91,8.91,0,0,0,4.94,1.87c1.28,0,1.87-.47,1.87-1.17v-.06c0-1-1.52-1.29-3.24-1.81-2.2-.65-4.68-1.67-4.68-4.71v-.06c0-3.18,2.57-5,5.73-5a10.84,10.84,0,0,1,5.84,1.82L2021.4,774a9.27,9.27,0,0,0-4.24-1.47c-1.08,0-1.64.47-1.64,1.09v.05c0,.88,1.49,1.29,3.19,1.87,2.19.74,4.73,1.79,4.73,4.65v.06c0,3.48-2.6,5.06-6,5.06A10.94,10.94,0,0,1,2010.73,783Z" transform="translate(-1760.37 -645.54)"/><path class="cls-1" d="M2095.73,764.6h4.51v8.09h8.3V764.6h4.5v20.45h-4.5v-8.21h-8.3v8.21h-4.51Z" transform="translate(-1760.37 -645.54)"/><path class="cls-1" d="M2117.37,779.53V769.39h4.44v8.74c0,2.1,1,3.18,2.69,3.18s2.77-1.08,2.77-3.18v-8.74h4.45v15.66h-4.45v-2.22a5.52,5.52,0,0,1-4.58,2.52C2119.32,785.35,2117.37,783.13,2117.37,779.53Z" transform="translate(-1760.37 -645.54)"/><path class="cls-1" d="M2134.93,777.31v-.06c0-4.47,3.19-8.15,7.75-8.15,5.23,0,7.63,4.06,7.63,8.5,0,.35,0,.76-.06,1.17h-10.9a3.63,3.63,0,0,0,3.83,3.07,5.14,5.14,0,0,0,3.8-1.61l2.54,2.25a8.28,8.28,0,0,1-14.59-5.17ZM2146,776c-.26-2-1.43-3.33-3.3-3.33s-3,1.32-3.39,3.33Z" transform="translate(-1760.37 -645.54)"/><path class="cls-1" d="M2153.82,763.72h4.44v21.33h-4.44Z" transform="translate(-1760.37 -645.54)"/><path class="cls-1" d="M2162.65,763.72h4.44v21.33h-4.44Z" transform="translate(-1760.37 -645.54)"/><path class="cls-1" d="M2170.33,780.55v-.06c0-3.42,2.6-5,6.32-5a11.12,11.12,0,0,1,3.82.64v-.26c0-1.84-1.14-2.87-3.36-2.87a11.43,11.43,0,0,0-4.32.85l-1.11-3.39a13.81,13.81,0,0,1,6.08-1.26,7.24,7.24,0,0,1,5.29,1.76,6.81,6.81,0,0,1,1.69,5v9.09h-4.3v-1.69a6,6,0,0,1-4.73,2C2172.76,785.35,2170.33,783.65,2170.33,780.55Zm10.2-1v-.79a6.88,6.88,0,0,0-2.83-.58c-1.9,0-3.07.76-3.07,2.16v.06c0,1.2,1,1.9,2.42,1.9C2179.13,782.28,2180.53,781.14,2180.53,779.53Z" transform="translate(-1760.37 -645.54)"/><path class="cls-1" d="M2187.35,783l1.9-2.92a8.88,8.88,0,0,0,4.93,1.87c1.29,0,1.87-.47,1.87-1.17v-.06c0-1-1.51-1.29-3.24-1.81-2.19-.65-4.68-1.67-4.68-4.71v-.06c0-3.18,2.58-5,5.73-5a10.87,10.87,0,0,1,5.85,1.82L2198,774a9.24,9.24,0,0,0-4.23-1.47c-1.09,0-1.64.47-1.64,1.09v.05c0,.88,1.49,1.29,3.18,1.87,2.2.74,4.74,1.79,4.74,4.65v.06c0,3.48-2.6,5.06-6,5.06A10.94,10.94,0,0,1,2187.35,783Z" transform="translate(-1760.37 -645.54)"/><path class="cls-1" d="M2278.4,764.45h4.15l8.77,20.6h-4.71l-1.87-4.58h-8.65l-1.87,4.58h-4.59Zm4.74,12-2.72-6.63-2.72,6.63Z" transform="translate(-1760.37 -645.54)"/><path class="cls-1" d="M2292.52,788.15l1.52-3.33a10.18,10.18,0,0,0,5.29,1.43c3,0,4.47-1.46,4.47-4.26v-.76a6.14,6.14,0,0,1-5.11,2.54,6.88,6.88,0,0,1-7-7.31v-.06a6.89,6.89,0,0,1,7-7.3,6.35,6.35,0,0,1,5,2.33v-2h4.45v12.13c0,2.8-.68,4.85-2,6.16-1.46,1.47-3.71,2.11-6.75,2.11A14.89,14.89,0,0,1,2292.52,788.15Zm11.28-11.69v-.06a3.82,3.82,0,0,0-7.63,0v.06a3.59,3.59,0,0,0,3.8,3.63A3.62,3.62,0,0,0,2303.8,776.46Z" transform="translate(-1760.37 -645.54)"/><path class="cls-1" d="M2310.47,779.53V769.39h4.44v8.74c0,2.1,1,3.18,2.69,3.18s2.78-1.08,2.78-3.18v-8.74h4.44v15.66h-4.44v-2.22a5.55,5.55,0,0,1-4.59,2.52C2312.43,785.35,2310.47,783.13,2310.47,779.53Z" transform="translate(-1760.37 -645.54)"/><path class="cls-1" d="M2326.28,780.55v-.06c0-3.42,2.6-5,6.32-5a11.12,11.12,0,0,1,3.82.64v-.26c0-1.84-1.14-2.87-3.36-2.87a11.43,11.43,0,0,0-4.32.85l-1.11-3.39a13.81,13.81,0,0,1,6.08-1.26A7.24,7.24,0,0,1,2339,771a6.81,6.81,0,0,1,1.69,5v9.09h-4.3v-1.69a6,6,0,0,1-4.73,2C2328.71,785.35,2326.28,783.65,2326.28,780.55Zm10.2-1v-.79a6.88,6.88,0,0,0-2.83-.58c-1.9,0-3.07.76-3.07,2.16v.06c0,1.2,1,1.9,2.42,1.9C2335.08,782.28,2336.48,781.14,2336.48,779.53Z" transform="translate(-1760.37 -645.54)"/><path class="cls-1" d="M2430.58,764.6h8.35c4.89,0,7.84,2.89,7.84,7.07v.06c0,4.73-3.68,7.19-8.27,7.19h-3.42v6.13h-4.5Zm8.06,10.31c2.25,0,3.57-1.34,3.57-3.1v0c0-2-1.4-3.1-3.66-3.1h-3.47v6.25Z" transform="translate(-1760.37 -645.54)"/><path class="cls-1" d="M2448.87,777.31v-.06a8.22,8.22,0,0,1,8.51-8.15,8.14,8.14,0,0,1,8.45,8.09v.06a8.22,8.22,0,0,1-8.51,8.15A8.14,8.14,0,0,1,2448.87,777.31Zm12.57,0v-.06a4.16,4.16,0,0,0-4.12-4.33,4,4,0,0,0-4.06,4.27v.06a4.16,4.16,0,0,0,4.12,4.33A4,4,0,0,0,2461.44,777.31Z" transform="translate(-1760.37 -645.54)"/><path class="cls-1" d="M2469.25,763.72h4.44v21.33h-4.44Z" transform="translate(-1760.37 -645.54)"/><path class="cls-1" d="M2476.47,769.39h4.7l3.51,10.49,3.54-10.49h4.62l-6.17,15.78h-4Z" transform="translate(-1760.37 -645.54)"/><path class="cls-1" d="M2494.65,777.31v-.06a8.22,8.22,0,0,1,8.51-8.15,8.13,8.13,0,0,1,8.44,8.09v.06a8.48,8.48,0,0,1-16.95.06Zm12.57,0v-.06a4.17,4.17,0,0,0-4.12-4.33,4,4,0,0,0-4.06,4.27v.06a4.16,4.16,0,0,0,4.12,4.33A4,4,0,0,0,2507.22,777.31Z" transform="translate(-1760.37 -645.54)"/><path class="cls-1" d="M2610.46,764.6H2615V781h10.2v4.09h-14.71Z" transform="translate(-1760.37 -645.54)"/><path class="cls-1" d="M2628,779.53V769.39h4.45v8.74c0,2.1,1,3.18,2.69,3.18s2.77-1.08,2.77-3.18v-8.74h4.44v15.66h-4.44v-2.22a5.53,5.53,0,0,1-4.59,2.52C2629.93,785.35,2628,783.13,2628,779.53Z" transform="translate(-1760.37 -645.54)"/><path class="cls-1" d="M2645.78,781.93l8.09-8.95H2646v-3.59h13.36v3.13l-8.13,8.94h8.13v3.59h-13.62Z" transform="translate(-1760.37 -645.54)"/><path class="cls-1" d="M2549.25,807.28V795.59h4.51v11.57c0,3.34,1.66,5.06,4.41,5.06s4.41-1.67,4.41-4.91V795.59h4.5v11.55c0,6.19-3.48,9.23-9,9.23S2549.25,813.3,2549.25,807.28Z" transform="translate(-1760.37 -645.54)"/><path class="cls-1" d="M2571.41,794.71h4.44v21.34h-4.44Z" transform="translate(-1760.37 -645.54)"/><path class="cls-1" d="M2580.77,811.61v-7.43h-1.87v-3.8h1.87v-4h4.44v4h3.68v3.8h-3.68v6.7c0,1,.44,1.52,1.43,1.52a4.51,4.51,0,0,0,2.19-.56v3.57a6.56,6.56,0,0,1-3.5.9C2582.61,816.31,2580.77,815.23,2580.77,811.61Z" transform="translate(-1760.37 -645.54)"/><path class="cls-1" d="M2592.17,800.38h4.44v3.16c.9-2.16,2.37-3.56,5-3.45v4.65h-.24c-2.95,0-4.76,1.78-4.76,5.52v5.79h-4.44Z" transform="translate(-1760.37 -645.54)"/><path class="cls-1" d="M2603.45,811.55v-.06c0-3.42,2.6-5,6.31-5a11.12,11.12,0,0,1,3.83.65v-.27c0-1.84-1.14-2.86-3.36-2.86a11.52,11.52,0,0,0-4.33.85l-1.11-3.39a13.84,13.84,0,0,1,6.08-1.26,7.23,7.23,0,0,1,5.29,1.75,6.84,6.84,0,0,1,1.7,5v9.09h-4.3v-1.7a6,6,0,0,1-4.73,2C2605.88,816.34,2603.45,814.65,2603.45,811.55Zm10.2-1v-.79a6.89,6.89,0,0,0-2.84-.59c-1.89,0-3.06.76-3.06,2.17v0c0,1.2,1,1.9,2.42,1.9C2612.25,813.27,2613.65,812.13,2613.65,810.53Z" transform="translate(-1760.37 -645.54)"/><path class="cls-1" d="M2620.29,800.38h4.7l3.51,10.5,3.54-10.5h4.61l-6.16,15.79h-4Z" transform="translate(-1760.37 -645.54)"/><path class="cls-1" d="M2639.32,794.71H2644v3.95h-4.67Zm.11,5.67h4.45v15.67h-4.45Z" transform="translate(-1760.37 -645.54)"/><path class="cls-1" d="M2647.3,808.3v0a8.48,8.48,0,0,1,16.95-.06v.06a8.22,8.22,0,0,1-8.51,8.15A8.14,8.14,0,0,1,2647.3,808.3Zm12.56,0v0a4.16,4.16,0,0,0-4.12-4.33,4,4,0,0,0-4.06,4.27v.06a4.17,4.17,0,0,0,4.12,4.32A4,4,0,0,0,2659.86,808.3Z" transform="translate(-1760.37 -645.54)"/><path class="cls-1" d="M2667.67,794.71h4.44v21.34h-4.44Z" transform="translate(-1760.37 -645.54)"/><path class="cls-1" d="M2675.53,808.3v0c0-4.48,3.19-8.16,7.75-8.16,5.23,0,7.63,4.06,7.63,8.51,0,.35,0,.76-.06,1.17H2680a3.63,3.63,0,0,0,3.83,3.06,5.13,5.13,0,0,0,3.8-1.6l2.54,2.25a8.28,8.28,0,0,1-14.59-5.18Zm11-1.31c-.26-2-1.43-3.33-3.3-3.33s-3,1.31-3.39,3.33Z" transform="translate(-1760.37 -645.54)"/><path class="cls-1" d="M2694.94,811.61v-7.43h-1.87v-3.8h1.87v-4h4.45v4h3.68v3.8h-3.68v6.7c0,1,.43,1.52,1.43,1.52a4.51,4.51,0,0,0,2.19-.56v3.57a6.62,6.62,0,0,1-3.51.9C2696.78,816.31,2694.94,815.23,2694.94,811.61Z" transform="translate(-1760.37 -645.54)"/><path class="cls-1" d="M2705.41,811.55v-.06c0-3.42,2.6-5,6.31-5a11.12,11.12,0,0,1,3.83.65v-.27c0-1.84-1.14-2.86-3.36-2.86a11.48,11.48,0,0,0-4.33.85l-1.11-3.39a13.84,13.84,0,0,1,6.08-1.26,7.23,7.23,0,0,1,5.29,1.75,6.84,6.84,0,0,1,1.7,5v9.09h-4.3v-1.7a6,6,0,0,1-4.73,2C2707.83,816.34,2705.41,814.65,2705.41,811.55Zm10.2-1v-.79a6.89,6.89,0,0,0-2.84-.59c-1.9,0-3.06.76-3.06,2.17v0c0,1.2,1,1.9,2.42,1.9C2714.21,813.27,2715.61,812.13,2715.61,810.53Z" transform="translate(-1760.37 -645.54)"/><path class="cls-2" d="M2143.79,744.21a47.13,47.13,0,1,0-47.13-47.12,47.13,47.13,0,0,0,47.13,47.12" transform="translate(-1760.37 -645.54)"/><path class="cls-3" d="M2143.79,738.08a41,41,0,1,0-41-41A41,41,0,0,0,2143.79,738.08Z" transform="translate(-1760.37 -645.54)"/><path class="cls-1" d="M2128,723.62a37.58,37.58,0,0,0,8.56-7.49c1.49-1.86,2.85-3.89,2.95-6.31a31.55,31.55,0,0,0-.62-5.69c-.18-1.33-.49-2.64-.63-4-.23-2.33.8-3.37,3.11-3.64,5.91-.7,10.34,1.71,13.77,6.34.67.91,1.4,1.77,2,2.72a15.33,15.33,0,0,0,8.46,6.46c.45.15,1.2.22.56,1.07a17.1,17.1,0,0,1-8.83-5.81,64.13,64.13,0,0,0-5.81-7c-3-3-6.83-3.42-10.83-2.83-1.22.18-1.8,1.07-1.63,2.52a24.47,24.47,0,0,0,.69,4.18c1.8,5.88-.19,10.61-4.44,14.59-1.94,1.83-4.11,3.43-6.21,5.1-.24.19-.69.13-1,.18Z" transform="translate(-1760.37 -645.54)"/><path class="cls-1" d="M2119.93,707.2a2.73,2.73,0,0,1,.35-1q4.54-4.82,9.15-9.59c2.5-2.6,5.06-5.14,8.59-6.29,6.74-2.2,12.75-1.07,17.66,4.29a34.76,34.76,0,0,0,11.89,8.76c.26.11.4.5.47.88a27.37,27.37,0,0,1-9.41-5.57c-1.48-1.32-2.87-2.75-4.24-4.19-6.06-6.37-16-5.31-21.31-.19-3,2.88-5.75,6-8.65,9-1.34,1.4-2.76,2.72-4.15,4.08l-.35-.23" transform="translate(-1760.37 -645.54)"/><path class="cls-1" d="M2167.11,709.54c-4.42-1.36-8.21-3.51-10.93-7.39a36,36,0,0,0-4.48-5.42c-3.85-3.68-12.88-3.6-17,.62-1.9,1.93-3.55,4.11-5.39,6.11-2.13,2.31-4.32,4.57-6.52,6.81a11,11,0,0,1-1.56,1.12l-.3-.17c.11-.29.14-.71.36-.85,3.8-2.62,6.4-6.37,9.36-9.79A32.19,32.19,0,0,1,2135,696a14.4,14.4,0,0,1,19.74,2.66,15.29,15.29,0,0,1,1.34,1.85,18,18,0,0,0,10.34,8c.78.26.77.27.66,1.07" transform="translate(-1760.37 -645.54)"/><path class="cls-1" d="M2119.26,702.2c.14-.37.18-.85.44-1.1,3.62-3.5,7.13-7.14,11-10.4a20,20,0,0,1,15.86-4.81,19,19,0,0,1,8.77,3.56c4.26,3,8.48,6.07,12.7,9.14.25.18.32.59.48.89l-.3.25c-1.82-1.24-3.66-2.44-5.44-3.73q-3.45-2.47-6.79-5.08c-8.27-6.43-17.48-5.36-24.43.19-3.27,2.62-6.19,5.68-9.24,8.57-.91.86-1.73,1.83-2.6,2.75l-.4-.23" transform="translate(-1760.37 -645.54)"/><path class="cls-1" d="M2119.09,696.92a3.87,3.87,0,0,1,.45-1.33c5.37-6.4,11.7-11.34,20.12-13,6.67-1.32,12.86.13,18.67,3.51a43.66,43.66,0,0,1,9.45,7.62,5.53,5.53,0,0,1,.71,1.44l-.43.33c-1-1.14-2-2.34-3.15-3.39a34.08,34.08,0,0,0-12.85-7.92c-8.14-2.61-15.65-1-22.67,3.56a41.56,41.56,0,0,0-9.44,8.61l-.55.66-.31-.09" transform="translate(-1760.37 -645.54)"/><path class="cls-1" d="M2167.77,690.51c-6.68-6.84-14.38-11.58-24.29-11.2-9.74.37-17.44,5-23.73,12.21l-.26-.15a4.77,4.77,0,0,1,.61-1.42,32.77,32.77,0,0,1,20.41-11.21c9.79-1.35,18,2.19,25.15,8.59a15.89,15.89,0,0,1,1.72,1.66,5.28,5.28,0,0,1,.64,1.33l-.25.19" transform="translate(-1760.37 -645.54)"/><path class="cls-1" d="M2166.82,686.07a10.41,10.41,0,0,1-1-.75c-4.37-4.22-9.27-7.57-15.27-9-9.45-2.23-17.84.27-25.38,6.06a41.16,41.16,0,0,0-3.79,3.57,3.14,3.14,0,0,0-.48,1l-.63-.5a7.73,7.73,0,0,1,.86-1.48,31.74,31.74,0,0,1,15.55-9.29c10.31-2.63,19.31.14,27.3,6.84.89.75,1.73,1.55,2.56,2.35a4.66,4.66,0,0,1,.57.91l-.32.28" transform="translate(-1760.37 -645.54)"/><path class="cls-1" d="M2165.7,681.67a11.11,11.11,0,0,1-1-.79c-4.67-4.38-9.94-7.65-16.36-8.68-8.88-1.43-16.68,1.14-23.62,6.68-.5.41-1,.86-1.45,1.31s-.91.91-1.36,1.37l-.3-.21a9.8,9.8,0,0,1,1.22-1.88,30.33,30.33,0,0,1,16.62-8.14c10.29-1.54,18.76,2.19,26.05,9.19a4,4,0,0,1,.55.83l-.33.32" transform="translate(-1760.37 -645.54)"/><path class="cls-1" d="M2164.31,677.06c-12.75-11.46-26-11.92-40-2.2a10.47,10.47,0,0,1,1.55-1.8c11.62-8.11,26.2-8.15,37.75,2.34a8.24,8.24,0,0,1,1,1.43l-.25.23" transform="translate(-1760.37 -645.54)"/><path class="cls-1" d="M2121.82,714.05c.12-.3.16-.73.38-.89a22.5,22.5,0,0,0,5.36-5.65,38.92,38.92,0,0,1,2.82-3.58,9,9,0,0,1,2.17-1.78,2.71,2.71,0,0,1,4.19,1.57,8.61,8.61,0,0,1,0,5.56c-1.65,5.46-5.35,9.16-10.28,11.77-.24.12-.6,0-.9,0l-.06-.38c.46-.26.92-.52,1.37-.79,4.44-2.61,7.83-6.11,9.13-11.23a10.46,10.46,0,0,0,.12-4.06c-.35-2.18-2.09-2.84-3.7-1.32a40.4,40.4,0,0,0-4.51,5.25,21.28,21.28,0,0,1-5.78,5.65l-.28-.13" transform="translate(-1760.37 -645.54)"/><path class="cls-1" d="M2158.62,725.52a4.22,4.22,0,0,1-1.12-.38,21.83,21.83,0,0,1-6.16-7.89,29.84,29.84,0,0,0-2.51-3.91,4.74,4.74,0,0,0-1.41-1.17,2.35,2.35,0,0,0-3.32.47,13,13,0,0,0-1.87,3,22.58,22.58,0,0,1-9.86,10.79,3.81,3.81,0,0,1-1.19.23l-.11-.38c.38-.24.76-.49,1.15-.72a21.79,21.79,0,0,0,9.32-10.43,12.66,12.66,0,0,1,1.65-2.79,3.39,3.39,0,0,1,4.82-.82,10.1,10.1,0,0,1,3.68,4.47,23.52,23.52,0,0,0,5,7.32c.66.61,1.37,1.17,2,1.76,0,.14-.07.28-.1.42" transform="translate(-1760.37 -645.54)"/><path class="cls-1" d="M2165.51,715.47c-.3.08-.63.28-.91.23-4.56-.81-8.6-2.52-11.37-6.49-.31-.44-1-1-1.36-.91-.83.26-.82,1.14-.56,1.85a29.81,29.81,0,0,0,1.6,3.77c1.93,3.6,4.12,7,7.61,9.33,0,.12,0,.23,0,.34-.34,0-.79.11-1-.07a22,22,0,0,1-3.57-3.45c-1.77-2.54-3.32-5.25-4.84-8a7.08,7.08,0,0,1-.68-2.71,1.76,1.76,0,0,1,1.18-2c.89-.32,1.43.19,2,.8.79.94,1.55,1.92,2.42,2.78,2.11,2.1,4.82,3,7.64,3.63l1.78.44.12.39" transform="translate(-1760.37 -645.54)"/><path class="cls-1" d="M2134.92,728.54c1.5-1.19,3.06-2.31,4.48-3.59a19.41,19.41,0,0,0,4.4-6.15,19.24,19.24,0,0,1,1.62-2.82,1.35,1.35,0,0,1,2.41.14,6.84,6.84,0,0,1,.77,1.67c1.21,4,3,7.54,6.79,9.73-.56.7-1,.38-1.45.05a15,15,0,0,1-5.4-7.44c-.39-1.09-.76-2.19-1.25-3.24s-.89-1-1.45-.08a27.7,27.7,0,0,0-1.43,2.69,22,22,0,0,1-8.06,8.92,5.27,5.27,0,0,1-1.36.42c0-.1,0-.2-.07-.3" transform="translate(-1760.37 -645.54)"/><path class="cls-1" d="M2129.7,667.32a11.87,11.87,0,0,1,2.33-1.59c9.54-3.71,18.64-2.84,27.21,2.84a8,8,0,0,1,2,2.21c-9.84-7.4-20.27-8.43-31.36-3.22,0-.08-.08-.16-.13-.24" transform="translate(-1760.37 -645.54)"/><path class="cls-1" d="M2132.1,706.83c-.86,1.1-1.77,2.15-2.57,3.3a23,23,0,0,1-5.46,5.83c-.29.21-.59.41-.89.61l-.31-.11c.1-.3.11-.74.32-.88a24,24,0,0,0,6.1-6.56,16.66,16.66,0,0,1,2.11-2.48,1.54,1.54,0,0,1,1.34-.29,1.38,1.38,0,0,1,.56,1.14,12.64,12.64,0,0,1-.7,3.25,16.35,16.35,0,0,1-7.73,8.07c-.22.12-.59-.05-.88-.23,4.41-2.74,8-5.9,8.6-11.3l-.49-.35" transform="translate(-1760.37 -645.54)"/><path class="cls-1" d="M2145.67,708.12c-.6-.08-1.22-.12-1.82-.25a2.07,2.07,0,0,1-1.8-1.78c-.22-1.46-.46-2.92-.65-4.39a1.29,1.29,0,0,1,1.08-1.51,5.57,5.57,0,0,1,5.53.74c.76.61,1.66,1,2.46,1.59,1.2.84,1.23,1.77.42,3a5.48,5.48,0,0,1-5.22,2.64m0-.84c2.15.26,3.56-.83,4.7-2.48.46-.66.37-1.13-.27-1.54a30.62,30.62,0,0,1-2.64-1.72,4.59,4.59,0,0,0-4-.78c-1,.18-1.39.63-1.18,1.63s.45,2.13.56,3.21a1.58,1.58,0,0,0,1.54,1.52c.43.07.86.11,1.29.16" transform="translate(-1760.37 -645.54)"/><path class="cls-1" d="M2162,721.81c-.31,0-.72.13-.92,0a20.14,20.14,0,0,1-6-7.63c-.13-.28,0-.71.06-1.07.33.08.77,0,1,.26,2.23,2.32,5.11,3.46,8.06,4.4-.06,1-.65.69-1.08.53a36,36,0,0,1-3.51-1.45c-1.09-.55-2.1-1.25-3.21-1.93a25.83,25.83,0,0,0,5.59,6.91" transform="translate(-1760.37 -645.54)"/><path class="cls-1" d="M2163.24,720c-.3.16-.6.44-.72.37a10.16,10.16,0,0,1-1.67-1.16c-.12-.11,0-.5,0-.76a2.46,2.46,0,0,1,.61.22c.52.36,1,.77,1.76,1.33" transform="translate(-1760.37 -645.54)"/><path class="cls-1" d="M2144.73,703.84c.09-.61-.07-1.51,1-1.62.77-.08,1.82,1.07,1.8,1.88a2.14,2.14,0,0,1-1.62,1.83c-.78,0-1.18-.63-1.19-2.09m.83-.87c0,.8.07,1.44.11,2.25,1.31-1,1.29-1.39-.11-2.25" transform="translate(-1760.37 -645.54)"/><path class="cls-1" d="M2150.21,729.84c-.29-.11-.85-.16-1.06-.45a22.15,22.15,0,0,1-1.69-2.86c-.4-.79-.68-1.65-1.11-2.72-.34.56-.54.88-.72,1.2a15.6,15.6,0,0,1-4.75,4.85,3.71,3.71,0,0,1-1.28.33l-.14-.27c.27-.21.53-.42.8-.61a16.11,16.11,0,0,0,5-5.34c.63-1.19,1.4-1.14,2.05.06.29.53.46,1.13.74,1.68.67,1.33,1.37,2.64,2.15,4.13" transform="translate(-1760.37 -645.54)"/><path class="cls-1" d="M2144.63,730.31a14.57,14.57,0,0,1,1-1.08c.1-.09.36,0,.55,0,0,.18.06.44,0,.53-.38.33-.81.61-1.22.91l-.28-.37" transform="translate(-1760.37 -645.54)"/><path class="cls-2" d="M2306.84,744.21a47.13,47.13,0,1,0-47.12-47.12,47.13,47.13,0,0,0,47.12,47.12" transform="translate(-1760.37 -645.54)"/><path class="cls-3" d="M2306.84,738.08a41,41,0,1,0-41-41A41,41,0,0,0,2306.84,738.08Z" transform="translate(-1760.37 -645.54)"/><path class="cls-1" d="M2307,669.51c2.44,4.47,4.85,8.61,7,12.88a78.35,78.35,0,0,1,7.13,19.29,29.05,29.05,0,0,1,.54,11c-1.06,6.17-4.85,9.69-10.72,11.46-6.26,1.88-14.8-1.43-17.45-7a20.53,20.53,0,0,1-1.51-11.3c.83-7.85,3.68-15.09,7.12-22.08,2.12-4.3,4.57-8.42,6.87-12.62.23-.42.52-.82,1-1.62m4.74,49.15A4.06,4.06,0,0,0,2316,715c0-2.06-1.95-3.84-4.29-3.84a4.05,4.05,0,0,0-4.28,3.69c0,2.13,1.83,3.81,4.26,3.82" transform="translate(-1760.37 -645.54)"/><path class="cls-2" d="M1817.68,744.21a47.13,47.13,0,1,0-47.13-47.12,47.13,47.13,0,0,0,47.13,47.12" transform="translate(-1760.37 -645.54)"/><path class="cls-3" d="M1817.68,738.08a41,41,0,1,0-41-41A41,41,0,0,0,1817.68,738.08Z" transform="translate(-1760.37 -645.54)"/><path class="cls-1" d="M1817,733c-.35-10.8-.71-21.6-1.07-32.68l-13.94,13-.2-.18,13.17-14.09L1782.41,698v-.22l32.34-1.07L1801,682l.12-.13,14.82,13.86c.36-11,.71-21.61,1.06-32.28h.24c.34,10.68.69,21.36,1,32.31l13.85-13,.18.18-12.83,13.72,32.67,1.08V698l-32.86,1.07,14.18,15.17-.12.12-15.06-14.1c-.36,11.07-.71,21.89-1.07,32.7Z" transform="translate(-1760.37 -645.54)"/><path class="cls-2" d="M2469.9,744.21a47.13,47.13,0,1,0-47.13-47.12,47.13,47.13,0,0,0,47.13,47.12" transform="translate(-1760.37 -645.54)"/><path class="cls-3" d="M2469.9,738.08a41,41,0,1,0-41-41A41,41,0,0,0,2469.9,738.08Z" transform="translate(-1760.37 -645.54)"/><path class="cls-1" d="M2481.86,680.85c.85-3.69,2.59-5.43,5.47-5.45a5.35,5.35,0,0,1,5.25,4.13,5.45,5.45,0,0,1-2.72,6.15c-2.53,1.32-5,.6-7.38-2.23a12.94,12.94,0,0,1-.22,1.62,5.29,5.29,0,0,1-5.32,4,5.09,5.09,0,0,1-5.15-4.06,2.76,2.76,0,0,0-.91-1.34,2.84,2.84,0,0,1,2.54-5,2.81,2.81,0,0,0,1.6-.06c2.46-.92,4.78-.19,6.84,2.24" transform="translate(-1760.37 -645.54)"/><path class="cls-1" d="M2459.51,720.62a5.09,5.09,0,0,1-5.28-4.32,5.48,5.48,0,0,1,3.4-6.23c.42-.17.72-.64,1.12-.88s1.16-.82,1.68-.75,1,.75,1.4,1.2c.28.29.43.73.74,1a5.63,5.63,0,0,1,2.08,6.22,5.31,5.31,0,0,1-5.14,3.81" transform="translate(-1760.37 -645.54)"/><path class="cls-1" d="M2437.93,686.6c-.75-.21-1.51-.38-2.23-.66-1-.37-1.87-.85-2.81-1.27a1.74,1.74,0,0,1-.67-2.68,2.33,2.33,0,0,0,.46-1.12,5.39,5.39,0,0,1,10.77.28,5.52,5.52,0,0,1-5.52,5.45" transform="translate(-1760.37 -645.54)"/><path class="cls-1" d="M2502.5,711.14a5.13,5.13,0,0,1-2.08,4.48,29,29,0,0,1-2.71,1.81,1.63,1.63,0,0,1-2.05-.33,11.29,11.29,0,0,0-1.45-1.13,5.61,5.61,0,0,1-2-6.81,5.41,5.41,0,0,1,6.76-3,4.93,4.93,0,0,1,3.54,5" transform="translate(-1760.37 -645.54)"/><path class="cls-1" d="M2479.51,722.06a5.41,5.41,0,1,1,5.45-5.37,5.29,5.29,0,0,1-5.45,5.37" transform="translate(-1760.37 -645.54)"/><path class="cls-1" d="M2458.83,735.65a38.5,38.5,0,0,1,1.8-5c.65-1.27,2.59-1.38,3.77-.51a2.91,2.91,0,0,1,.62,3.94,4.25,4.25,0,0,0-.61,1.77,2.84,2.84,0,0,1-2.88,2.71,2.8,2.8,0,0,1-2.7-2.93" transform="translate(-1760.37 -645.54)"/><path class="cls-1" d="M2453,726.35a2.77,2.77,0,0,1,2.77,2.8,2.79,2.79,0,1,1-5.57,0,2.77,2.77,0,0,1,2.8-2.76" transform="translate(-1760.37 -645.54)"/><path class="cls-1" d="M2435.34,697.26a2.69,2.69,0,0,1-2.76,2.77,2.73,2.73,0,0,1-2.76-2.79,2.78,2.78,0,0,1,2.84-2.85,2.74,2.74,0,0,1,2.68,2.87" transform="translate(-1760.37 -645.54)"/><path class="cls-1" d="M2475.31,700.79a2.76,2.76,0,1,1-2.7-2.86,2.76,2.76,0,0,1,2.7,2.86" transform="translate(-1760.37 -645.54)"/><path class="cls-1" d="M2483.3,698.33a2.78,2.78,0,1,1,5.55,0,2.78,2.78,0,1,1-5.55,0" transform="translate(-1760.37 -645.54)"/><path class="cls-1" d="M2488.05,728.7a2.83,2.83,0,0,1-2.84-2.75,2.81,2.81,0,1,1,5.62-.07,2.86,2.86,0,0,1-2.78,2.82" transform="translate(-1760.37 -645.54)"/><path class="cls-1" d="M2453.13,707.06a2.79,2.79,0,1,1-5.57,0,2.79,2.79,0,0,1,5.57,0" transform="translate(-1760.37 -645.54)"/><path class="cls-1" d="M2468.05,693.76a2.76,2.76,0,0,1-2.72,2.84,2.82,2.82,0,0,1,0-5.63,2.74,2.74,0,0,1,2.76,2.79" transform="translate(-1760.37 -645.54)"/><path class="cls-1" d="M2471.08,655.59a2.74,2.74,0,0,1,2.81,2.73,2.76,2.76,0,1,1-5.52.1,2.74,2.74,0,0,1,2.71-2.83" transform="translate(-1760.37 -645.54)"/><path class="cls-1" d="M2498.67,676.51a1.7,1.7,0,1,1-3.39,0,1.67,1.67,0,0,1,1.73-1.72,1.71,1.71,0,0,1,1.66,1.68" transform="translate(-1760.37 -645.54)"/><path class="cls-1" d="M2447.07,694a1.64,1.64,0,0,1-1.7-1.6,1.69,1.69,0,1,1,3.37-.16,1.65,1.65,0,0,1-1.67,1.76" transform="translate(-1760.37 -645.54)"/><path class="cls-1" d="M2507.62,705.78c.05-.8.52-1.34,1.27-1.15a1.67,1.67,0,0,1,1.09,1.17c0,.41-.64,1.06-1.1,1.17-.74.17-1.22-.35-1.26-1.19" transform="translate(-1760.37 -645.54)"/><path class="cls-1" d="M2478.06,732.89c0-1.22.46-1.77,1.21-1.62a1.87,1.87,0,0,1,1.17,1.14,1,1,0,0,1-1.18,1.23c-.48-.06-.92-.56-1.2-.75" transform="translate(-1760.37 -645.54)"/><path class="cls-1" d="M2482.61,664.84c-.33-.44-.83-.84-1-1.32-.18-.77.32-1.29,1.12-1.32a1.05,1.05,0,0,1,1.22,1.22c-.07.5-.55.93-.85,1.4l-.54,0" transform="translate(-1760.37 -645.54)"/><path class="cls-1" d="M2458.75,686c-.45.32-.88.83-1.38.9-.75.11-1.25-.45-1.24-1.23a1.07,1.07,0,0,1,1.31-1.16c.48.11.89.63,1.33,1l0,.52" transform="translate(-1760.37 -645.54)"/><path class="cls-1" d="M2447.88,667c-.49.32-1,.91-1.45.89a1.69,1.69,0,0,1-1.13-1.15,1,1,0,0,1,1.2-1.21c.49.08.92.6,1.37.92,0,.18,0,.36,0,.55" transform="translate(-1760.37 -645.54)"/><path class="cls-2" d="M1980.74,744.21a47.13,47.13,0,1,0-47.13-47.12,47.12,47.12,0,0,0,47.13,47.12" transform="translate(-1760.37 -645.54)"/><path class="cls-3" d="M1980.74,738.08a41,41,0,1,0-41-41A41,41,0,0,0,1980.74,738.08Z" transform="translate(-1760.37 -645.54)"/><line class="cls-4" x1="214.22" y1="11.68" x2="226.31" y2="34.23"/><line class="cls-4" x1="201.47" y1="15.44" x2="234.56" y2="90.5"/><line class="cls-4" x1="231.55" y1="90.52" x2="207.48" y2="67.94"/><line class="cls-4" x1="214.98" y1="33.43" x2="251.06" y2="78.51"/><line class="cls-4" x1="190.22" y1="23.77" x2="213.55" y2="53"/><path class="cls-2" d="M2633,744.21a47.13,47.13,0,1,0-47.12-47.12A47.13,47.13,0,0,0,2633,744.21" transform="translate(-1760.37 -645.54)"/><path class="cls-3" d="M2633,738.08a41,41,0,1,0-41-41A41,41,0,0,0,2633,738.08Z" transform="translate(-1760.37 -645.54)"/><path class="cls-1" d="M2647.29,718.7a4.89,4.89,0,0,1-4.89,4.9H2620a4.89,4.89,0,0,1-4.89-4.9V675.53a4.89,4.89,0,0,1,4.89-4.89h22.45a4.88,4.88,0,0,1,4.89,4.89Zm-4.89-50.36H2620a7.19,7.19,0,0,0-7.19,7.19V718.7a7.2,7.2,0,0,0,7.19,7.2h22.45a7.2,7.2,0,0,0,7.19-7.2V675.53a7.19,7.19,0,0,0-7.19-7.19" transform="translate(-1760.37 -645.54)"/><path class="cls-5" d="M2643,678.46H2619.4a1.18,1.18,0,0,0-1.18,1.17v32.65a1.17,1.17,0,0,0,1.18,1.16H2643a1.17,1.17,0,0,0,1.17-1.16V679.63A1.18,1.18,0,0,0,2643,678.46Zm-11.78,37.31a2.34,2.34,0,1,0,2.35,2.34A2.35,2.35,0,0,0,2631.18,715.77Zm-3.54-39.64h7.07a1.17,1.17,0,1,0,0-2.33h-7.07a1.17,1.17,0,1,0,0,2.33Z" transform="translate(-1760.37 -645.54)"/><path class="cls-2" d="M2796,739.8a47.13,47.13,0,1,0-47.13-47.13A47.13,47.13,0,0,0,2796,739.8" transform="translate(-1760.37 -645.54)"/><path class="cls-3" d="M2796,733.67a41,41,0,1,0-41-41A41,41,0,0,0,2796,733.67Z" transform="translate(-1760.37 -645.54)"/><path class="cls-1" d="M2812.7,703.36c-.51-.35-.92-.1-1.23.36l-.24.34,1.36.94.24-.35C2813.14,704.19,2813.23,703.71,2812.7,703.36Z" transform="translate(-1760.37 -645.54)"/><path class="cls-1" d="M2806.66,717.05l-.13.06.23.51.13-.06c.17-.08.28-.2.19-.4S2806.83,717,2806.66,717.05Z" transform="translate(-1760.37 -645.54)"/><path class="cls-1" d="M2808.27,716.25l-.13.07.22.42.13-.07c.16-.09.35-.2.24-.41S2808.45,716.15,2808.27,716.25Z" transform="translate(-1760.37 -645.54)"/><path class="cls-1" d="M2822.55,693.93c-.2,0-.24.18-.25.39v.15l.47,0v-.14C2822.77,694.17,2822.78,693.94,2822.55,693.93Z" transform="translate(-1760.37 -645.54)"/><path class="cls-1" d="M2810.17,715.11c-.28.18-.23.51,0,.81s.47.48.75.3.22-.53,0-.81S2810.45,714.92,2810.17,715.11Z" transform="translate(-1760.37 -645.54)"/><path class="cls-1" d="M2822.8,695.93c-.35,0-.67,0-.72.37s.24.51.6.56.67,0,.71-.38S2823.14,696,2822.8,695.93Z" transform="translate(-1760.37 -645.54)"/><path class="cls-1" d="M2825.33,691.6c0-.22,0-.43,0-.65v-.09h0v0h0a.46.46,0,0,0-.38-.38l-14.31-1.72h-.09a15,15,0,0,1,.49,3v0c0,.31,0,.63,0,1a16.22,16.22,0,0,1-.14,2.1,15.45,15.45,0,0,1-15.3,13.35h0a15.24,15.24,0,0,1-3-.31l-.29-.06a15.13,15.13,0,0,1-2.65-.84s0,.06,0,.09l-.22,13.8,0,.62a.45.45,0,0,0,.34.43h0l.12,0,.56.11.15,0,.58.09.17,0,.55.08.21,0,.53.06.25,0,.49,0,.32,0,.43,0,.43,0h1.08a29.76,29.76,0,0,0,29.76-29.76c0-.29,0-.58,0-.87A1.77,1.77,0,0,0,2825.33,691.6Zm-10.08,7.46.69-2.23,1.09.34-.69,2.23,2.33.72-.48,1.54-5.78-1.79,1.2-3.87,1.09.34-.72,2.33Zm-4.79,4.1c1.05-1.53,2.05-1.89,3.18-1.12s1.1,1.84.25,3.09l-.35.51,1.75,1.2-.91,1.33-5-3.42Zm-3.51,3.61a5.42,5.42,0,0,1,1.37-.78l.69,1a3.42,3.42,0,0,0-1.24.61c-.32.25-.83.69-.51,1.11.6.77,2.46-1.5,3.8.23,1,1.24.18,2.38-.88,3.21a6.93,6.93,0,0,1-1.59.9l-.71-1.14a3.53,3.53,0,0,0,1.56-.71c.41-.31.73-.69.43-1.08-.69-.89-2.52,1.43-3.87-.31C2805.11,708.7,2806,707.52,2807,706.77Zm-12.88,12.65-.9-.08,0,.43.86.07,0,.39-.85-.07,0,.46.94.08,0,.39-1.49-.12.18-2.07,1.46.13Zm1.48.93v.78H2795v-.78l-.75-1.3h.63l.4.84.41-.83h.64Zm5.13-10.07.19,1.13-2.62.44.2,1.23,2.48-.41.18,1.13-2.47.41.23,1.35,2.71-.45.19,1.13-4.31.71-1-6Zm-4.07,10.84-.13-2.07,1.46-.09,0,.39-.91.06,0,.43.86-.06,0,.39-.86.06,0,.47.94-.06,0,.39Zm1.72-.73,0-.39.8-.09,0,.39Zm1.78.41a1.85,1.85,0,0,1-.62,0l0-.46a1.23,1.23,0,0,0,.59,0c.17,0,.33-.09.3-.26-.06-.38-1,0-1.12-.72-.08-.49.38-.71.79-.78a2,2,0,0,1,.54,0l0,.43a1.25,1.25,0,0,0-.47,0c-.14,0-.37.07-.34.25.06.33,1,0,1.11.69C2801,720.51,2800.57,720.73,2800.11,720.8Zm2.18-.44a.78.78,0,0,1-1.08-.58l-.31-1.25.54-.13.28,1.16c.07.26.19.47.47.41s.29-.31.23-.58l-.29-1.16.54-.13.3,1.25A.78.78,0,0,1,2802.29,720.36Zm2.47-.75-1.13-1.12h0l.46,1.34-.48.16-.65-2,.67-.22,1.11,1.12h0l-.45-1.33.48-.16.65,2Zm-1.26-5.84-.46-1,2.16-.93.45,1.05Zm3.62,4.12-.2.09.3.66-.5.23-.86-1.89.6-.27c.58-.27.94-.19,1.13.23S2807.59,717.68,2807.12,717.89Zm2.37-.39-.28-.27c-.27-.26-.38-.3-.56-.2l-.1.05.39.72-.49.26-1-1.82.86-.47c.33-.17.67-.17.84.14a.49.49,0,0,1-.1.65h0c.18-.05.27.09.48.26l.44.4Zm1.63-.94a1.07,1.07,0,0,1-1.17-1.8,1.07,1.07,0,0,1,1.17,1.8Zm1.45-1-1-1.33-.41.31-.25-.32,1.25-1,.25.33-.4.31,1,1.32Zm1.07-.83-1.35-1.57,1.1-1,.26.3-.69.6.28.32.65-.56.26.29-.65.57.31.35.71-.62.25.3Zm2.26-2a1.07,1.07,0,0,1-1.59.09,1.05,1.05,0,0,1,.08-1.61,2.24,2.24,0,0,1,.51-.36l.28.35a1.15,1.15,0,0,0-.48.28.63.63,0,0,0,0,.93.63.63,0,0,0,.95,0,1.56,1.56,0,0,0,.3-.44l.32.29A2.42,2.42,0,0,1,2815.9,712.65Zm.87-1-1.25-1.09-.34.38-.31-.27,1-1.18.31.27-.34.38,1.25,1.1Zm.9-1-1.63-1.29.35-.43,1.62,1.29Zm1.23-1.58a1.07,1.07,0,1,1-.29-1.46A1,1,0,0,1,2818.9,709Zm1.4-2.28-1.59-.09h0l1.23.7-.25.43-1.8-1,.36-.61,1.57.11h0l-1.22-.7.25-.44,1.79,1Zm1-1.87-1.89-.85.57-1.27.35.16-.34.77.42.18.32-.73.36.16-.32.73.76.34Zm1.16-2.84H2822l-.27.73.35.31-.19.52-1.67-1.46.23-.63,2.23,0Zm.64-1.94a1.07,1.07,0,0,1-1.35.86,1,1,0,0,1-.72-1.44,2.41,2.41,0,0,1,.27-.56l.42.17a1.13,1.13,0,0,0-.29.48.66.66,0,1,0,1.29.31,1.55,1.55,0,0,0,0-.52l.42.09A2.25,2.25,0,0,1,2823.08,700.11Zm.27-1.27-1.63-.34-.1.5-.4-.09.32-1.54.41.09-.11.5,1.63.34Zm.45-2.3a1.07,1.07,0,1,1-.92-1.18A1,1,0,0,1,2823.8,696.54Zm.2-2.6-.38.1c-.36.09-.45.15-.47.36v.11l.82,0,0,.55-2.08-.12.06-1c0-.37.2-.66.56-.64a.49.49,0,0,1,.5.43h0c.05-.18.21-.18.47-.27l.58-.17Z" transform="translate(-1760.37 -645.54)"/><polygon class="cls-1" points="1061.19 56.48 1060.34 56.43 1060.34 56.44 1061.01 56.97 1061.19 56.48"/><path class="cls-1" d="M2818.29,708.05c-.3-.21-.62-.28-.81,0s0,.56.27.76.62.27.81,0S2818.57,708.24,2818.29,708.05Z" transform="translate(-1760.37 -645.54)"/><path class="cls-1" d="M2788.59,678.94a15.67,15.67,0,0,1,2.95-1.14h0a16.31,16.31,0,0,1,2.89-.49l0-.09-6.34-13a.39.39,0,0,0-.21-.21l-.1,0h-.2l-.05,0a.43.43,0,0,0-.26.43l1.29,14.36A.29.29,0,0,0,2788.59,678.94Z" transform="translate(-1760.37 -645.54)"/><path class="cls-1" d="M2783.29,683.23l.06.07a15.58,15.58,0,0,1,2.2-2.32l0,0a16.25,16.25,0,0,1,2.37-1.66l-.06-.07-11.3-9a.55.55,0,0,0-.19-.09h-.13a.45.45,0,0,0-.18.07h0l0,0,0,0h0a.44.44,0,0,0,0,.5Z" transform="translate(-1760.37 -645.54)"/><path class="cls-1" d="M2768.44,681.41l12,8,.08,0a16,16,0,0,1,1-3.07l0,0a16,16,0,0,1,1.41-2.49l-.09,0-14-3.23h-.09a.41.41,0,0,0-.16,0,.37.37,0,0,0-.21.18l0,0h0a.13.13,0,0,0,0,.06A.42.42,0,0,0,2768.44,681.41Z" transform="translate(-1760.37 -645.54)"/><path class="cls-1" d="M2780.58,696.31a15.7,15.7,0,0,1-.42-3.24v-.37a15.69,15.69,0,0,1,.2-2.49h-.09l-13.94,3.11-.14,0a.59.59,0,0,0-.14.06.43.43,0,0,0-.19.32h0s0,0,0,0,0,0,0,.05h0a.41.41,0,0,0,.35.35l14.27,2.1Z" transform="translate(-1760.37 -645.54)"/><path class="cls-1" d="M2783.6,702.42a15.72,15.72,0,0,1-1.79-2.76l0,0a14.63,14.63,0,0,1-1-2.6l-.08,0-11,8.61-.35.27h0a.42.42,0,0,0-.14.48l0,.05h0a.05.05,0,0,1,0,0,.43.43,0,0,0,.48.16l13.78-4.24Z" transform="translate(-1760.37 -645.54)"/><path class="cls-1" d="M2786.08,704.87a15.7,15.7,0,0,1-2-1.9.35.35,0,0,0-.05.08l-6.09,12.24-.19.39-.14.28a.41.41,0,0,0,.09.5v0s0,0,0,0l0,0h0a.44.44,0,0,0,.51,0l10.61-9.77.06-.07a15.69,15.69,0,0,1-2.83-1.74Z" transform="translate(-1760.37 -645.54)"/><path class="cls-1" d="M2798.32,677.5h0a15.8,15.8,0,0,1,2.85.8.28.28,0,0,0,0-.09l-.14-14.42a.43.43,0,0,0-.16-.32l-.08-.06-.06,0h-.12a.42.42,0,0,0-.42.28l-5,13.51a.44.44,0,0,0,0,.1h.4A16.28,16.28,0,0,1,2798.32,677.5Z" transform="translate(-1760.37 -645.54)"/><path class="cls-1" d="M2804.61,680.16a16.27,16.27,0,0,1,2.25,2l0-.09L2813,669a.44.44,0,0,0,0-.43l-.06-.07h0l0,0h0a.44.44,0,0,0-.51.06l-10.35,10-.06.08a15.23,15.23,0,0,1,2.69,1.54Z" transform="translate(-1760.37 -645.54)"/><path class="cls-1" d="M2807.34,682.68a15.22,15.22,0,0,1,1.75,2.51l0,0a15.94,15.94,0,0,1,1.19,2.78l.08,0,11.12-9.19a.42.42,0,0,0,.13-.46s0,0,0,0v0h0l0,0v0a.44.44,0,0,0-.49-.16l-13.66,4.6Z" transform="translate(-1760.37 -645.54)"/><path class="cls-1" d="M2803.71,681.41l0,0a6.73,6.73,0,0,0-1-.78h0a14,14,0,0,0-4.6-1.7h0a14.38,14.38,0,0,0-2.48-.23,13.67,13.67,0,0,0-3.64.49h0a13.89,13.89,0,0,0-5.42,2.87l0,0a14.12,14.12,0,0,0-3.67,4.91l0,0a14,14,0,0,0-1.2,5.69c0,.11,0,.21,0,.32v0a14.12,14.12,0,0,0,1.48,5.94l0,0a14,14,0,0,0,3.89,4.72l0,0,.19.15.48.34s-.17-.31-.39-.84l0,0a14.29,14.29,0,0,1-1.21-5.84v0a7.23,7.23,0,0,1,1.74-4.59l0,0a8.62,8.62,0,0,1,3.23-2.2h0l.34-.14c.55-.2,1.21-.41,1.84-.58h0l.74-.18.76-.17h0c.51-.11,1-.23,1.46-.35h0q1.26-.33,2.31-.66h0C2806.71,686,2805.29,683,2803.71,681.41Z" transform="translate(-1760.37 -645.54)"/><polygon class="cls-1" points="1066.21 45.55 1066.87 45.55 1066.87 47.48 1067.15 47.48 1067.15 45.55 1067.81 45.55 1067.81 45.32 1066.21 45.32 1066.21 45.55"/><path class="cls-1" d="M2830.53,690.86h-.36l-.38,1c-.1.27-.18.51-.24.73h0c-.06-.23-.13-.46-.22-.73l-.37-1h-.36l-.15,2.17h.27l.06-.93c0-.33,0-.69,0-1h0c.07.26.15.53.25.84l.36,1h.21L2830,692c.11-.3.2-.57.27-.82h0c0,.27,0,.63,0,.94l0,.95h.27Z" transform="translate(-1760.37 -645.54)"/><text class="cls-6" transform="translate(1030.06 57.1)">35</text><path class="cls-1" d="M2776.81,776.29V764.6h4.5v11.57c0,3.33,1.67,5.06,4.41,5.06s4.42-1.67,4.42-4.91V764.6h4.5v11.54c0,6.2-3.48,9.24-9,9.24S2776.81,782.31,2776.81,776.29Z" transform="translate(-1760.37 -645.54)"/><path class="cls-1" d="M2797.48,764.6h5l5.34,14.4,5.35-14.4H2818l-8.27,20.6h-4Z" transform="translate(-1760.37 -645.54)"/></svg>