<?xml version="1.0" encoding="utf-8"?>
<!-- Generator: Adobe Illustrator 22.1.0, SVG Export Plug-In . SVG Version: 6.00 Build 0)  -->
<svg version="1.1" id="Capa_1" xmlns="http://www.w3.org/2000/svg" xmlns:xlink="http://www.w3.org/1999/xlink" x="0px" y="0px"
	 width="111.8px" height="127.4px" viewBox="0 0 111.8 127.4" style="enable-background:new 0 0 111.8 127.4;" xml:space="preserve"
	>
<style type="text/css">
	.st0{fill:#0047BA;}
</style>
<g>
	<path class="st0" d="M111.8,30.8c-0.7-1.3-2.2-2.1-3.4-2.7c-0.2-0.1-0.4-0.2-0.6-0.3c-0.9-0.5-1.6-1.1-2.3-1.7
		c-0.4-0.3-0.7-0.6-1.1-0.9c-1-0.8-2.1-1-3.1-1.2c-0.6-0.1-1.2-0.2-1.8-0.5c-0.3-0.1-0.6-0.3-0.8-0.5c-0.3-0.2-0.7-0.4-1.1-0.6
		c-0.5-0.2-0.9-0.3-1.4-0.4c-0.5-0.1-0.9-0.2-1.3-0.4l-0.4-0.2C93,20.7,92,20.3,90.2,20c-1.4-0.2-2.8-0.4-4.1-0.6L85,19.2
		c-0.7-0.1-0.9-0.4-1.4-0.8c-0.4-0.4-0.9-0.9-1.7-1.2c-0.7-0.3-1.4-0.3-2-0.2c-0.7,0-1.1,0-1.5-0.3c-0.9-0.8-1.5-2-1.8-2.9
		c-0.1-0.2-0.1-0.4-0.2-0.6c-0.2-0.6-0.4-1.4-1-2c-0.6-0.7-1.4-1-2.2-1.3c-0.4-0.1-0.8-0.3-1.1-0.5c-0.7-0.5-1.3-1.4-1.8-2.3
		c-0.3-0.5-0.6-1.1-1-1.6L69,5.1c-1.4-1.9-3.4-4.5-5.8-5c-1.6-0.3-2.7-0.2-4.2,0.8c-0.7,0.5-1.4,1.4-1.9,2.1c-0.4,0.5-0.7,1-1.1,1.3
		c-0.1,0.1-0.3,0.3-0.5,0.4c-1.2,1.1-2.8,2.7-3.3,4.1c-0.3,0.7-0.7,1.3-1.1,2c-0.5,0.7-1,1.5-1.3,2.4c-0.3,0.8-0.5,1.5-0.7,2.3
		c-0.3,1.2-0.6,2.3-1.3,3.4c-0.6,0.9-1.1,1.8-1.5,2.7c-0.6,1.1-1.2,2.2-1.9,3.2c-0.9,1.2-1.4,1.7-2.8,1.7c-1.7,0-3.4,0.4-5.3,1.3
		c-0.5,0.2-1,0.6-1.4,0.9c-0.4,0.3-0.9,0.7-1.2,0.8c-0.1,0-0.1,0-0.2,0c-0.1-0.1-0.1-0.2-0.2-0.3c-0.1-0.2-0.2-0.4-0.3-0.6
		c-0.1-0.2-0.3-0.4-0.4-0.7c-1.3-2.1-2.9-4.4-5-5.7c-3.2-1.9-6.7,3-7.8,4.7c-1.8,2.5-2.7,5.3-3.6,7.9c-0.3,0.9-0.6,1.9-1,2.8
		c-0.4,1-1.7,3.2-2.8,5c-0.7,1.1-1.2,2-1.6,2.6c-0.5,1-1.9,1.8-3.9,3.1c-1.7,1-3.7,2.3-6.2,4.2c-0.4,0.3-0.5,0.9-0.2,1.3
		C0.7,54,1,54.2,1.2,54.2s0.4-0.1,0.6-0.2c2.4-1.8,4.4-3.1,6.1-4.1c2.3-1.4,3.8-2.4,4.6-3.8c0.3-0.6,0.9-1.5,1.5-2.5
		c1.2-1.9,2.5-4.1,3-5.3c0.4-1,0.7-1.9,1-2.9c0.9-2.6,1.7-5.1,3.4-7.4c3.1-4.5,4.7-4.5,5.4-4.1c1.8,1.1,3.2,3.2,4.4,5.1
		c0.1,0.2,0.3,0.5,0.4,0.7c0.1,0.2,0.2,0.3,0.3,0.5c0.3,0.4,0.6,1,1.3,1.2c0.2,0.2,0.4,0.3,0.6,0.5c0.9,0.7,1.9,1.5,2.6,2.4
		c0.1,0.1,0.2,0.3,0.3,0.4c0.4,0.6,0.9,1.2,1.8,1.6c-3.3,0.8-5,2.4-5.8,3.4l-4-2.3c-0.3-0.2-0.7-0.2-1,0.1l-2.8,2.2
		c-0.9,0.5-1.8,1.1-2.3,2c-1.1,0.3-2.2,1.8-2.4,2.5c0,0,0,0,0,0.1c-0.8,0.2-1.8,0.8-2.3,1.6c-0.2,0.4-0.4,0.7-0.4,1.1
		c-0.1,0-0.3,0-0.5,0.1c-0.7,0.2-1.5,1.1-1.7,1.6s-0.2,1.2-0.2,1.4c0.1,1,0.9,1.6,1.4,2c0.1,0.1,0.2,0.1,0.3,0.2
		c0.1,0.1,0.3,0.2,0.4,0.3c0.1,0,0.1,0.1,0.2,0.1c0,0.3,0,0.9,0,1.3l-7.5-0.6c-0.2,0-0.5,0.1-0.7,0.2L6.4,56c-0.3,0.2-0.4,0.6-0.3,1
		c0.1,0.3,0.4,0.6,0.8,0.6l12.4,1.3h0.1c0.1,0,0.2,0,0.3-0.1c0,0,0,0,0,0.1c0,0.3-0.5,0.9-2.6,2L16.9,61c-0.5,0.3-1,0.5-1.4,0.7
		c-1.2,0.6-2.5,1.3-3.7,2.2c-0.4,0.3-0.6,0.6-0.8,0.8c-0.1,0.1-0.2,0.2-0.2,0.2s-0.1,0-0.3-0.1c-0.7-0.3-1.5-0.5-2.6-0.7
		c-1.2-0.2-2.3-0.1-3.5,0.1c-0.8,0.1-1.6,0.2-2.4,0.1c-0.5-0.1-1,0.3-1,0.8c-0.1,0.5,0.3,1,0.8,1c0.9,0.1,1.9,0,2.8-0.1
		c1-0.1,2-0.3,2.9-0.1s1.7,0.4,2.2,0.6c0.4,0.2,0.7,0.2,1,0.2c0.7,0,1.1-0.4,1.5-0.8c0.2-0.2,0.3-0.4,0.6-0.6c1.1-0.8,2.2-1.4,3.4-2
		c0.5-0.2,1-0.5,1.5-0.8l0.2-0.1c1.2-0.6,3.3-1.8,3.6-3.4c0.1-0.4,0-1.1-0.6-1.7l1.1-1.4c0.8-0.1,1.7-0.3,2.4-0.7
		c0.2,0,0.4,0.1,0.6,0.1c0.7,0,1.4-0.2,2.2-0.7c0.2,0.2,0.5,0.4,0.8,0.6c0.2,0.1,0.3,0.2,0.5,0.2c0.4,0,0.7-0.3,1.1-0.7
		c0.3-0.3,0.7-0.6,1.1-1c0.6-0.5,1.3-1.2,1.5-1.4l0,0c0.1,0,0.1-0.1,0.2-0.1l0,0l0.1-0.1l0,0l0,0l0,0l0,0V52v-0.1v-0.1v-0.1v-0.1
		v-0.1v-0.1v-0.1v-0.1v-0.1c0,0,0,0-0.1-0.1c0,0,0,0-0.1-0.1c0,0,0,0-0.1-0.1c0,0-0.1,0-0.1-0.1l0,0l0,0l0,0H32
		c-0.1-0.1-0.3-0.1-0.4-0.2c-1.3-0.7-1.9-1.4-2.3-2.6c-0.1-0.2-0.1-0.5-0.1-0.9c0-0.8-0.1-1.7-0.7-2.3c-0.8-0.7-1.8-1-2.6-1.3
		c-0.6-0.2-1.2-0.4-1.6-0.7c-0.2-0.1-0.2-0.2-0.2-0.2l0,0c0-0.2,0.5-0.7,1.6-1.3l0.1-0.1l2.4-1.9l4.6,2.6v2.6c0,0.2,0.1,0.4,0.2,0.6
		l6,7.2c0.2,0.2,0.4,0.3,0.7,0.3c0.2,0,0.4-0.1,0.6-0.2c0.4-0.3,0.4-0.9,0.1-1.3l-5.8-7v-2.8c0-0.3-0.2-0.6-0.4-0.8
		c0.9-1.1,3.4-3,9.1-3c0.5,0.1,1,0.3,1.5,0.6c1.7,0.9,3.8,1,5.8,1l0,0c1.1,0,2.1,0,3,0.1c0.4,0.1,0.9,0.2,1.3,0.4
		c0.5,0.2,1,0.4,1.5,0.5c0.1,0,0.1,0,0.2,0l0,0c0.8,0.1,1.4,0.6,2,1.2c0.5,0.5,1.1,1,1.8,1.3c1.2,0.6,2.5,0.5,3.8,0.4
		c0.5,0,1,0,1.5,0c0.4,0,0.8,0,1.2,0c1.3,0,2.8,0.1,3.8,0.5c0.7,0.3,1.2,0.8,1.7,1.4c0.4,0.5,0.9,1,1.5,1.4c0.7,0.5,1.5,0.7,2.3,0.9
		s1.5,0.4,2.1,1c0.1,0.1,0.2,0.2,0.3,0.4c0.3,0.3,0.5,0.7,0.9,1c0.9,0.5,2,0.5,2.9,0.5c0.4,0,0.8,0,1.1,0h0.1c0.3,0,1.1,0.1,1.3,0.3
		c0,0.1,0,0.3,0.1,0.5c0,0.5,0.1,1.2,0.6,1.7c0.7,0.6,1.3,0.7,1.8,0.8v0.1c0,0.1-0.1,0.3-0.1,0.5c-0.1,0.4-0.2,0.8-0.2,1.4v0.1
		c0.1,1,0.2,1.3,1,1.9l0.3,0.2c0.8,0.6,1.1,1,1.6,1.7c0.1,0.1,0.2,0.2,0.2,0.4c0.3,0.5,0.7,1.1,1.4,1.6c0.5,0.3,1.1,0.4,1.7,0.5
		c0.3,0.1,0.7,0.1,0.8,0.2c0.4,0.5-0.8,2.5-1.3,3.3c-0.3,0.5-0.6,1-0.8,1.4l-0.1,0.2c-0.4,1-0.9,1.9,0.2,3.1
		c0.1,0.2,0.3,0.3,0.5,0.4c-0.6,0.2-1.2,0.5-1.8,0.7c-1.4,0.5-2.8,1.1-4.2,1.8c-1.4,0.8-3.1,1.4-4.9,1.8c-0.2,0-0.4,0.2-0.5,0.3
		l-1.8-2.1l7.5-2.7c0.3-0.1,0.6-0.4,0.6-0.7s-0.1-0.7-0.4-0.9l-9.5-6.8c-0.1-0.1-0.3-0.1-0.4-0.2l-4.8-0.7L65.9,56l-1.8-6.8
		c-0.1-0.2-0.2-0.4-0.4-0.5l-6-3.9c-0.4-0.3-1-0.2-1.3,0.3c-0.3,0.4-0.2,1,0.3,1.3l4.7,3.1h-3.3l-3.9-2.9c-0.2-0.1-0.3-0.2-0.5-0.2
		h-1.4l-5.5-3.5c-0.1-0.1-0.2-0.1-0.4-0.1c-3.1-0.5-3.6-1.1-3.7-1.2c0.1-0.2,0.5-0.6,1-0.9c0.4-0.2,0.6-0.8,0.4-1.2
		c-0.2-0.4-0.8-0.6-1.2-0.4c-0.4,0.2-2.2,1.3-1.9,2.8c0.2,1.3,1.8,2.1,5,2.7l5.6,3.6c0.1,0.1,0.3,0.1,0.5,0.1h1.4l3.9,2.9
		c0.2,0.1,0.3,0.2,0.5,0.2h4.5c0.1,0,0.2,0,0.3-0.1l0.2,0.9l-3,0.6l-6.7-3.2c-0.2-0.1-0.3-0.1-0.5-0.1l-5.1,0.7
		c-0.4,0.1-0.6,0.3-0.7,0.6c-0.1,0.3,0,0.7,0.3,0.9l11.5,10.1c0.2,0.2,0.4,0.2,0.7,0.2l3.9-0.3l6.8,6.7l-6.5,0.5
		c-0.3,0-0.5,0.2-0.7,0.4s-0.2,0.5-0.1,0.8l5.5,15.7c0.1,0.4,0.5,0.6,0.9,0.6c0.1,0,0.2,0,0.3-0.1c0.5-0.2,0.7-0.7,0.6-1.2l-0.5-1.4
		l11.1-1c0.3,0,0.6-0.2,0.8-0.6c0.1-0.3,0.1-0.7-0.1-0.9l-7.1-8.4l-1.1-4c0-0.1,0-0.1-0.1-0.2l0,0c0-0.1-0.1-0.1-0.1-0.2l0,0
		L64.4,60c-0.2-0.2-0.5-0.3-0.7-0.3L59.8,60l-9.7-8.6L53,51l6.7,3.2c0.2,0.1,0.4,0.1,0.6,0.1l3.4-0.7l0.8,3c0.1,0.2,0.2,0.4,0.3,0.5
		l6.9,5.1c0.1,0.1,0.3,0.1,0.4,0.2l4.9,0.7l7.9,5.7l-7.1,2.5c-0.3,0.1-0.5,0.3-0.6,0.6s0,0.6,0.2,0.8l11.1,12.8l0,0l0.3,0.3
		c0.2,0.2,0.4,0.3,0.7,0.3c0.2,0,0.4-0.1,0.6-0.2c0.1-0.1,0.2-0.3,0.3-0.4c0.5-0.1,1.1-0.2,1.7-0.4c2.9-0.6,6.2-1.2,6.6-3.3
		c0.2-1-0.2-1.7-0.5-2.2c-0.1-0.1-0.1-0.3-0.2-0.3c0,0,0.1-0.1,0.2-0.2c0.4-0.3,0.9-0.6,1.5-0.9c1.7-0.9,4-2.1,3.7-4.6
		c-0.1-0.8-0.4-1.5-0.8-2.1c-0.3-0.6-0.6-1.1-0.6-1.6s0.5-1.2,1.2-1.8c1.6-1.4,1.2-2.7,0.8-3.9c-0.3-0.9-0.6-1.8-0.3-3.2
		c0.1-0.3,0.1-0.6,0.1-1c3.9,2.6,4.1,3.6,3.3,5.6c-0.1,0.3-0.7,0.8-1.1,1.2c-0.6,0.6-1.2,1.1-1.5,1.7c-0.7,1.5-0.2,2.8,0.2,4
		c0.3,0.7,0.5,1.4,0.5,2.1c-0.1,0.9-0.5,1.5-1.3,2.4l-0.1,0.1c-0.2,0.2-0.4,0.4-0.6,0.6c-0.6,0.6-1.5,1.3-1.3,2.5
		c0.1,0.5,0.4,0.8,0.6,1c0.1,0.1,0.2,0.3,0.3,0.3c0,0.2,0,0.5-0.1,0.8c-0.2,0.6-0.4,0.8-0.7,1.2c-0.2,0.2-0.4,0.5-0.7,0.9
		c-0.3,0.4-0.2,1,0.2,1.3c0.2,0.1,0.3,0.2,0.5,0.2c0.3,0,0.6-0.1,0.8-0.4c0.2-0.3,0.4-0.5,0.6-0.7c0.4-0.5,0.8-0.9,1.1-1.9
		c0.1-0.4,0.2-1.1,0.1-1.7s-0.5-0.9-0.7-1.2c-0.1-0.1-0.1-0.1-0.2-0.2c0-0.2,0.4-0.5,0.7-0.7c0.2-0.2,0.5-0.5,0.8-0.7l0.1-0.1
		c0.8-1,1.6-1.9,1.7-3.4c0.1-1.1-0.3-2-0.6-2.9c-0.4-1.1-0.6-1.8-0.3-2.5c0.1-0.3,0.6-0.7,1.1-1.1c0.7-0.6,1.3-1.2,1.6-1.8
		c1.5-3.9-0.4-5.6-5.6-8.8c-0.1-0.1-0.2-0.3-0.3-0.4c-1.3-1.2-3.6-1.6-7.1-0.9c-0.1,0-0.2-0.1-0.3-0.1c-1-0.5-1.9-1-2.2-1.7
		l-0.2-0.3c-1.4-4.1-2.6-7.6-9.8-6.3c-0.3,0-0.6,0-0.9,0c-0.7,0-1.5,0.1-1.9-0.2c-0.1-0.1-0.3-0.3-0.4-0.5c-0.2-0.2-0.3-0.5-0.6-0.7
		c-0.9-0.8-1.9-1.1-2.8-1.4c-0.6-0.2-1.3-0.4-1.8-0.7c-0.4-0.3-0.8-0.7-1.2-1.1c-0.6-0.7-1.3-1.4-2.4-1.8c-1.3-0.5-3-0.6-4.5-0.6
		c-0.4,0-0.8,0-1.1,0c-0.6,0-1.1,0-1.7,0c-1.1,0.1-2.1,0.1-2.9-0.3c-0.5-0.2-0.9-0.6-1.4-1c-0.8-0.7-1.7-1.5-3-1.7h-0.1
		c-0.4-0.1-0.7-0.2-1.1-0.4c-0.5-0.2-1.1-0.5-1.8-0.6c-1.1-0.2-2.2-0.2-3.3-0.2l0,0c-1.7,0-3.6-0.1-4.9-0.8
		c-0.7-0.4-1.4-0.6-2.1-0.8l0,0c-0.6-0.2-1.1-0.3-1.7-0.4c-0.8-0.2-1.7-0.3-2.4-0.6s-0.9-0.6-1.4-1.2c-0.1-0.1-0.2-0.3-0.3-0.4
		c-0.7-0.9-1.6-1.7-2.4-2.4c0.2-0.2,0.5-0.4,0.7-0.5c0.4-0.3,0.7-0.6,1-0.7c1.7-0.8,3.2-1.1,4.6-1.1c2.1,0,3.2-0.9,4.3-2.5
		c0.8-1.1,1.4-2.3,2-3.4c0.5-0.9,0.9-1.8,1.5-2.6c0.9-1.4,1.2-2.7,1.5-3.9c0.2-0.7,0.4-1.4,0.6-2.1c0.3-0.7,0.7-1.4,1.1-2
		c0.5-0.7,0.9-1.5,1.3-2.3c0.4-1.1,1.9-2.5,2.9-3.4c0.2-0.2,0.3-0.3,0.5-0.5c0.4-0.4,0.9-1,1.3-1.5c0.5-0.7,1-1.4,1.5-1.7
		c0.9-0.7,1.5-0.8,2.8-0.5c1.8,0.3,3.5,2.7,4.7,4.3l0.3,0.5c0.3,0.4,0.6,0.9,0.9,1.4c0.6,1.1,1.3,2.2,2.4,2.9c0.5,0.3,1,0.5,1.5,0.7
		c0.6,0.2,1.1,0.4,1.4,0.7c0.3,0.3,0.4,0.8,0.6,1.3c0.1,0.2,0.2,0.5,0.2,0.7c0.4,1.1,1.1,2.6,2.3,3.7c1,0.8,1.9,0.8,2.7,0.8
		c0.5,0,0.9,0,1.3,0.1c0.5,0.2,0.7,0.4,1.1,0.8c0.5,0.5,1.2,1.2,2.4,1.4l1.1,0.2c1.4,0.2,2.8,0.4,4.1,0.6c1.6,0.2,2.4,0.6,3.8,1.3
		l0.4,0.2c0.5,0.3,1.1,0.4,1.6,0.5c0.4,0.1,0.8,0.2,1.2,0.4c0.3,0.1,0.6,0.3,0.8,0.5c0.3,0.2,0.7,0.4,1.1,0.6
		c0.8,0.3,1.5,0.5,2.1,0.6c0.9,0.2,1.6,0.3,2.3,0.9c0.4,0.3,0.7,0.6,1.1,0.9c0.8,0.6,1.6,1.3,2.6,1.9c0.2,0.1,0.4,0.2,0.7,0.4
		c1,0.5,2.2,1.2,2.6,2c0.2,0.4,0.8,0.6,1.2,0.4C111.9,31.8,112,31.3,111.8,30.8z M31.9,52.2C31.9,52.2,32,52.2,31.9,52.2
		C32,52.2,31.9,52.2,31.9,52.2L31.9,52.2z M31.8,52.3L31.8,52.3L31.8,52.3L31.8,52.3z M31.6,52.3L31.6,52.3L31.6,52.3L31.6,52.3z
		 M31.3,52.3L31.3,52.3L31.3,52.3L31.3,52.3z M18.7,56.8l-9.7-1L9.9,55l8.9,0.7c0.2,0.1,0.4,0.1,0.7,0.1L18.7,56.8z M21.4,54.1
		L21.4,54.1l-2.3-0.2H19c0-0.7,0-1.8-0.2-2.2s-0.6-0.7-0.9-0.9c-0.1,0-0.2-0.1-0.2-0.1c-0.1-0.1-0.2-0.2-0.4-0.3
		c-0.3-0.2-0.6-0.5-0.7-0.6c0-0.2,0-0.4,0-0.5c0.1-0.1,0.4-0.5,0.6-0.6c0.2,0,0.4,0,0.5-0.2c0.6,0.8,1.5,1.3,2.3,1.7
		c0.5,0.3,0.9,0.5,1.2,0.8c0.1,0.1,0.2,0.5,0.3,0.8c0.2,0.6,0.4,1.4,0.9,2.1C22.1,54,21.7,54,21.4,54.1z M24.4,53.3
		c-0.6-0.2-0.9-1.3-1.2-2.1c-0.2-0.7-0.4-1.2-0.8-1.6c-0.5-0.4-1-0.7-1.6-1c-0.9-0.5-1.7-1-1.9-1.6c0,0,0-0.1,0.1-0.3
		c0.3-0.4,0.9-0.7,1.3-0.8c0.3,0.3,0.7,0.6,0.9,0.7c0.1,0,0.1,0.1,0.2,0.1c0.5,0.4,1.1,0.6,1.6,0.9c0.2,0.1,0.4,0.2,0.7,0.3
		c0.1,0.1,0.3,0.1,0.4,0.2c0.2,0.1,0.5,0.2,0.5,0.3c0.2,0.5,0.2,1,0.3,1.6c0.1,0.7,0.1,1.5,0.5,2.3c0.1,0.3,0.3,0.5,0.4,0.8
		C25.2,53.3,24.7,53.4,24.4,53.3z M25.2,45c0.8,0.2,1.5,0.5,1.9,0.9c0.1,0.2,0.1,0.7,0.1,1.1c0,0.4,0,0.9,0.2,1.3
		c0.5,1.7,1.4,2.6,2.5,3.4c-0.2,0.2-0.4,0.4-0.7,0.6c-0.3,0.3-0.7,0.7-1.1,1c-0.5-0.4-0.9-1-1.2-1.6c-0.2-0.5-0.3-1.1-0.3-1.7
		c-0.1-0.7-0.1-1.4-0.4-2.1c-0.3-0.8-1-1.1-1.4-1.3c-0.1,0-0.2-0.1-0.3-0.1c-0.2-0.1-0.5-0.2-0.7-0.4c-0.5-0.2-0.9-0.5-1.3-0.7
		c-0.1,0-0.2-0.1-0.2-0.2c-0.2-0.1-0.5-0.3-0.7-0.5c0.2-0.3,0.5-0.8,0.8-1.1c0.2,0.2,0.3,0.4,0.6,0.6C23.7,44.5,24.5,44.8,25.2,45z
		 M72.3,73.6c0,0.1,0.1,0.2,0.2,0.3l6.1,7.2L68.8,82l-1.2-3.5l5.7,0.3c0,0,0,0,0.1,0c0.5,0,0.9-0.4,0.9-0.9s-0.4-0.9-0.9-1L67,76.5
		l-0.8-2.4h4.7c0.5,0,0.9-0.4,0.9-0.9s-0.4-0.9-0.9-0.9h-5.4l-0.6-1.8l6.6-0.5L72.3,73.6z M101.4,58.9c0.4,0.4,0.6,1.2,0.3,2.3
		c-0.3,1.8,0.1,3.2,0.4,4.1c0.4,1.1,0.4,1.3-0.3,2c-0.4,0.3-1.7,1.6-1.9,3c-0.1,1,0.4,1.8,0.8,2.6c0.3,0.5,0.5,1,0.6,1.4
		c0.1,1.1-1,1.8-2.7,2.8c-0.7,0.4-1.3,0.7-1.8,1.1c-1.4,1.1-0.8,2.3-0.4,2.8c0.2,0.4,0.3,0.6,0.3,0.9c-0.2,0.8-3.7,1.5-5.2,1.8
		c-0.9,0.2-1.6,0.3-2.2,0.5l-2.9-3.4c1.7-0.3,3.9-0.7,4.4-1c3.2-1.2,5.8-3.1,7.7-5.8c1.1-1.6,0.7-2.5,0.3-3.5
		c-0.1-0.3-0.2-0.5-0.3-0.8c-0.2-0.8,0.2-1.8,0.6-2.7c0.1-0.3,0.3-0.6,0.6-0.9c0.7-1,1.9-2.9,0-4.3c-0.7-0.5-0.8-0.9-0.9-1.6
		c-0.1-0.6-0.3-1.3-0.8-2.1C100.1,58,101.1,58.5,101.4,58.9z M91.3,55l0.1,0.4c0.5,1.4,1.9,2.1,3.1,2.8c0.7,0.4,1.4,0.7,1.7,1.1
		c0.3,0.5,0.4,0.9,0.6,1.4c0.2,0.8,0.4,1.8,1.7,2.7c0.3,0.2,0.5,0.3-0.4,1.7c-0.3,0.4-0.5,0.8-0.7,1.2c-0.4,0.9-1.1,2.4-0.7,4
		c0.1,0.4,0.2,0.7,0.4,1c0.3,0.8,0.4,1-0.1,1.7c-1.7,2.4-4,4.1-6.8,5.2c-0.7,0.3-4.1,0.9-5.3,1l-2.4-2.8c1.9-0.5,3.6-1.1,5-1.9
		c1.2-0.7,2.6-1.2,3.9-1.7c1.2-0.5,2.4-0.9,3.5-1.5c0.3-0.1,0.5-0.4,0.5-0.7s-0.1-0.6-0.3-0.8c-0.3-0.2-0.6-0.4-0.9-0.6
		c-0.3-0.2-0.6-0.3-0.7-0.5c-0.3-0.3-0.3-0.3,0.1-1.2l0.1-0.2c0.1-0.3,0.4-0.7,0.7-1.2c1.1-1.7,2.6-4.1,1.1-5.6
		c-0.4-0.4-1.1-0.5-1.8-0.7c-0.3-0.1-0.8-0.2-1-0.3c-0.3-0.2-0.6-0.6-0.8-1c-0.1-0.1-0.2-0.3-0.3-0.4c-0.6-0.9-1-1.4-2-2.2l-0.3-0.2
		c-0.1-0.1-0.2-0.2-0.3-0.2c0-0.1,0-0.2,0-0.4V55c0-0.2,0-0.4,0.1-0.7s0.2-0.6,0.2-1c0-1.5-0.8-1.8-1.6-1.9c-0.3,0-0.5-0.1-0.8-0.3
		c0,0-0.1-0.3-0.1-0.5c0-0.3,0-0.6-0.2-1C89.6,49.9,90.3,51.9,91.3,55z"/>
	<path class="st0" d="M67,48.5c-0.4-0.3-1-0.2-1.3,0.2s-0.2,1,0.2,1.3l3.1,2.4c0.2,0.1,0.4,0.2,0.6,0.2h0.1l7.8-0.9
		c0.4,0,0.7-0.3,0.8-0.7s0-0.8-0.3-1l-3.3-2.4c-0.4-0.3-1-0.2-1.3,0.2s-0.2,1,0.2,1.3l1.4,1.1l-5.1,0.6L67,48.5z"/>
	<path class="st0" d="M69.1,54.1c-0.4-0.3-1-0.2-1.3,0.2s-0.2,1,0.2,1.3l5.7,4.2c0.2,0.1,0.3,0.2,0.5,0.2c0,0,0,0,0.1,0l11.9-0.9
		c0.4,0,0.7-0.3,0.8-0.6c0.1-0.4,0-0.7-0.3-1l-5.3-4.4c-0.2-0.2-0.5-0.2-0.7-0.2L78,53.3c-0.2,0-0.4,0.1-0.5,0.3l-2.2,2.3
		c-0.4,0.4-0.3,0.9,0,1.3c0.4,0.3,0.9,0.3,1.3,0l2-2.1l2-0.3l3.3,2.7l-9.3,0.7L69.1,54.1z"/>
	<path class="st0" d="M27.5,76.1c0.1,0,0.2,0,0.2,0c0.2-0.1,0.4-0.2,0.6-0.5l6.6-12.4c0.2-0.4,0.1-1-0.4-1.2c-0.4-0.2-1-0.1-1.2,0.4
		l-6.1,11.5L18,68.5c-0.1-0.1-0.3-0.1-0.4-0.1h-0.5c0.6-0.4,1.1-0.7,1.7-1c0.5-0.3,1-0.5,1.4-0.8c0.8-0.5,1.5-1,2.2-1.5
		c0.5-0.3,0.9-0.7,1.4-1c0.1-0.1,0.2-0.1,0.3-0.2c1-0.7,2.5-1.7,2.7-3c0.1-0.7-0.1-1.5-0.6-2.1c-0.7-0.8-1.8-1.3-2.9-1.2
		c-0.5,0-0.9,0.4-0.9,0.9s0.4,0.9,0.9,0.9s1.2,0.2,1.5,0.6c0.2,0.2,0.2,0.4,0.2,0.5c-0.1,0.6-1.2,1.4-1.9,1.8
		c-0.1,0.1-0.2,0.2-0.4,0.2c-0.5,0.4-1,0.7-1.5,1.1c-0.7,0.5-1.3,1-2,1.4c-0.4,0.3-0.9,0.5-1.4,0.8c-1.1,0.6-2.2,1.3-3.2,2.1
		c-0.1,0.1-0.2,0.2-0.3,0.4l-8.1-0.4c-0.2,0-0.4,0.1-0.6,0.2l-5.2,4.2c-0.4,0.3-0.5,0.9-0.1,1.3c0.3,0.4,0.9,0.5,1.3,0.1l5-4
		l10.7,0.5l9.8,5.8C27.2,76.1,27.3,76.1,27.5,76.1z"/>
	<path class="st0" d="M52.3,82.8C52.4,82.8,52.4,82.8,52.3,82.8l8.6-0.6c0.3,0,0.5-0.1,0.7-0.4c0.2-0.2,0.2-0.5,0.2-0.7l-1.6-8.4
		c0-0.2-0.1-0.3-0.2-0.4l-3.2-3.6c-0.2-0.2-0.4-0.3-0.7-0.3s-0.5,0.1-0.7,0.4L52.2,73c-0.1,0.1-0.2,0.3-0.2,0.5l-0.5,8.3
		c0,0.3,0.1,0.5,0.3,0.7C51.9,82.7,52.1,82.8,52.3,82.8z M53.7,73.9l2.4-3.1l2.3,2.6l1.4,7.2L53.4,81L53.7,73.9z"/>
	<path class="st0" d="M48.9,86.5L48.9,86.5c0.6,0,1-0.4,1-0.8l0.8-9.1v-0.1l-0.5-9.7c0-0.1,0-0.1,0-0.2l-2.1-8.5
		c-0.1-0.4-0.5-0.7-1-0.7l-2.3,0.2v-0.4c0-0.2-0.2-0.5-0.3-0.6c-0.2-0.2-0.4-0.2-0.7-0.2l-2.3,0.3l-0.9-3c0,0,0,0,0-0.1
		c0,0,0,0,0-0.1c0,0,0-0.1-0.1-0.1l0,0l0,0c-0.1-0.1-0.2-0.2-0.3-0.2l0,0h-0.1c0,0,0,0-0.1,0h-0.1l0,0h-5.3c-0.3,0-0.6,0.2-0.8,0.5
		l-3.3,6c-0.2,0.3-0.2,0.6,0,0.9c0.2,0.3,0.5,0.5,0.8,0.5h7c0.4,0,0.8-0.3,0.9-0.7l0.7-2.8l0.2,0.6c0.1,0.4,0.6,0.7,1,0.6l2.2-0.3
		l0.7,6.2l-6-1c-0.4-0.1-0.9,0.2-1,0.6l-1.2,3.8c-0.1,0.3,0,0.5,0.1,0.8c0.1,0.2,0.4,0.4,0.7,0.4l7.9,0.9l-0.2,1.5L35.9,71
		c-0.4,0-0.8,0.2-0.9,0.6l-1.6,4.9c-0.1,0.3-0.1,0.6,0.1,0.8c0.2,0.2,0.4,0.4,0.7,0.4l9.5,0.8L43,85.2c-0.1,0.5,0.3,1,0.8,1h0.1
		c0.5,0,0.9-0.4,0.9-0.8l1.6-15.9c0-0.1,0-0.1,0-0.2l-1-9.7l1.5-0.2l1.9,7.6l0.5,9.5l-0.8,9.1C48,86,48.4,86.5,48.9,86.5z
		 M37.2,59.1h-4.7l2.3-4.2h3.5L37.2,59.1z M37.4,67.6l0.6-1.9l5.7,0.9l0.2,1.7L37.4,67.6z M43.4,76.6L35,75.9l1-3.1l7.7,0.7
		L43.4,76.6z"/>
	<g>
		<path class="st0" d="M39.3,108h-2.6v-6.6l-2.9,4.8h-0.3l-2.9-4.8v6.5h-2.5V96.7h2.6l3,5l3-5h2.6L39.3,108L39.3,108z"/>
		<path class="st0" d="M47.8,106.2h-4.2L43,108h-2.8L44,96.8h3.3l3.8,11.2h-2.8L47.8,106.2z M47,103.8l-1.3-4.1l-1.3,4.1H47z"/>
		<path class="st0" d="M51.2,102.4c0-3.3,2.4-5.8,5.8-5.8c2,0,3.8,1,4.8,2.6l-2.2,1.3c-0.5-0.9-1.5-1.4-2.6-1.4
			c-2,0-3.3,1.3-3.3,3.3s1.3,3.3,3.3,3.3c1.1,0,2.1-0.5,2.6-1.4l2.2,1.3c-1,1.6-2.8,2.6-4.8,2.6C53.7,108.2,51.2,105.7,51.2,102.4z"
			/>
		<path class="st0" d="M71.7,96.8V108h-2.6v-4.5h-3.5v4.5h-2.5V96.8h2.6v4.3h3.5v-4.3H71.7z"/>
		<path class="st0" d="M73.6,104.3v-7.6h2.6v7.4c0,0.8,0.4,1.6,1.8,1.6s1.8-0.7,1.8-1.6v-7.4h2.6v7.6c0,2.4-1.9,3.8-4.3,3.8
			S73.6,106.7,73.6,104.3z"/>
		<path class="st0" d="M36.3,119.8c0,2.1-1.7,3.8-3.9,3.8h-1.7v3.5h-2.6v-11.2h4.2C34.6,116,36.3,117.7,36.3,119.8z M33.7,119.8
			c0-0.8-0.6-1.4-1.4-1.4h-1.7v2.9h1.7C33.2,121.2,33.7,120.6,33.7,119.8z"/>
		<path class="st0" d="M40.1,116v11.2h-2.6V116H40.1z"/>
		<path class="st0" d="M41.6,121.6c0-3.3,2.4-5.8,5.8-5.8c2,0,3.8,1,4.8,2.6l-2.2,1.3c-0.5-0.9-1.5-1.4-2.6-1.4
			c-2,0-3.3,1.3-3.3,3.3s1.3,3.3,3.3,3.3c1.1,0,2.1-0.5,2.6-1.4l2.2,1.3c-1,1.6-2.8,2.6-4.8,2.6C44,127.4,41.6,124.9,41.6,121.6z"/>
		<path class="st0" d="M52.8,121.6c0-3.3,2.4-5.8,5.8-5.8c2,0,3.8,1,4.8,2.6l-2.2,1.3c-0.5-0.9-1.5-1.4-2.6-1.4
			c-2,0-3.3,1.3-3.3,3.3s1.3,3.3,3.3,3.3c1.1,0,2.1-0.5,2.6-1.4l2.2,1.3c-1,1.6-2.8,2.6-4.8,2.6C55.2,127.4,52.8,124.9,52.8,121.6z"
			/>
		<path class="st0" d="M73.2,116v11.2h-2.6v-4.5h-3.5v4.5h-2.6V116h2.6v4.3h3.5V116H73.2z"/>
		<path class="st0" d="M75.1,123.5v-7.6h2.6v7.4c0,0.8,0.4,1.6,1.8,1.6s1.8-0.7,1.8-1.6v-7.4h2.6v7.6c0,2.4-1.9,3.8-4.3,3.8
			S75.1,125.9,75.1,123.5z"/>
	</g>
</g>
</svg>
