<?xml version="1.0" encoding="utf-8"?>
<!-- Generator: Adobe Illustrator 22.1.0, SVG Export Plug-In . SVG Version: 6.00 Build 0)  -->
<svg version="1.1" id="Capa_1" xmlns="http://www.w3.org/2000/svg" xmlns:xlink="http://www.w3.org/1999/xlink" x="0px" y="0px"
	 width="500px" height="500px" viewBox="0 0 500 500" style="enable-background:new 0 0 500 500;" xml:space="preserve">
<g>
	<path style="fill:#0047BA;" d="M289.7,208.4c-0.7-1.3-2.2-2.1-3.4-2.7c-0.2-0.1-0.4-0.2-0.6-0.3c-0.9-0.5-1.6-1.1-2.3-1.7
		c-0.4-0.3-0.7-0.6-1.1-0.9c-1-0.8-2.1-1-3.1-1.2c-0.6-0.1-1.2-0.2-1.8-0.5c-0.3-0.1-0.6-0.3-0.8-0.5c-0.3-0.2-0.7-0.4-1.1-0.6
		c-0.5-0.2-0.9-0.3-1.4-0.4c-0.5-0.1-0.9-0.2-1.3-0.4l-0.4-0.2c-1.5-0.7-2.5-1.1-4.3-1.4c-1.4-0.2-2.8-0.4-4.1-0.6l-1.1-0.2
		c-0.7-0.1-0.9-0.4-1.4-0.8c-0.4-0.4-0.9-0.9-1.7-1.2c-0.7-0.3-1.4-0.3-2-0.2c-0.7,0-1.1,0-1.5-0.3c-0.9-0.8-1.5-2-1.8-2.9
		c-0.1-0.2-0.1-0.4-0.2-0.6c-0.2-0.6-0.4-1.4-1-2c-0.6-0.7-1.4-1-2.2-1.3c-0.4-0.1-0.8-0.3-1.1-0.5c-0.7-0.5-1.3-1.4-1.8-2.3
		c-0.3-0.5-0.6-1.1-1-1.6l-0.3-0.4c-1.4-1.9-3.4-4.5-5.8-5c-1.6-0.3-2.7-0.2-4.2,0.8c-0.7,0.5-1.4,1.4-1.9,2.1
		c-0.4,0.5-0.7,1-1.1,1.3c-0.1,0.1-0.3,0.3-0.5,0.4c-1.2,1.1-2.8,2.7-3.3,4.1c-0.3,0.7-0.7,1.3-1.1,2c-0.5,0.7-1,1.5-1.3,2.4
		c-0.3,0.8-0.5,1.5-0.7,2.3c-0.3,1.2-0.6,2.3-1.3,3.4c-0.6,0.9-1.1,1.8-1.5,2.7c-0.6,1.1-1.2,2.2-1.9,3.2c-0.9,1.2-1.4,1.7-2.8,1.7
		c-1.7,0-3.4,0.4-5.3,1.3c-0.5,0.2-1,0.6-1.4,0.9c-0.4,0.3-0.9,0.7-1.2,0.8c-0.1,0-0.1,0-0.2,0c-0.1-0.1-0.1-0.2-0.2-0.3
		c-0.1-0.2-0.2-0.4-0.3-0.6c-0.1-0.2-0.3-0.4-0.4-0.7c-1.3-2.1-2.9-4.4-5-5.7c-3.2-1.9-6.7,3-7.8,4.7c-1.8,2.5-2.7,5.3-3.6,7.9
		c-0.3,0.9-0.6,1.9-1,2.8c-0.4,1-1.7,3.2-2.8,5c-0.7,1.1-1.2,2-1.6,2.6c-0.5,1-1.9,1.8-3.9,3.1c-1.7,1-3.7,2.3-6.2,4.2
		c-0.4,0.3-0.5,0.9-0.2,1.3c0.2,0.2,0.5,0.4,0.7,0.4c0.2,0,0.4-0.1,0.6-0.2c2.4-1.8,4.4-3.1,6.1-4.1c2.3-1.4,3.8-2.4,4.6-3.8
		c0.3-0.6,0.9-1.5,1.5-2.5c1.2-1.9,2.5-4.1,3-5.3c0.4-1,0.7-1.9,1-2.9c0.9-2.6,1.7-5.1,3.4-7.4c3.1-4.5,4.7-4.5,5.4-4.1
		c1.8,1.1,3.2,3.2,4.4,5.1c0.1,0.2,0.3,0.5,0.4,0.7c0.1,0.2,0.2,0.3,0.3,0.5c0.3,0.4,0.6,1,1.3,1.2c0.2,0.2,0.4,0.3,0.6,0.5
		c0.9,0.7,1.9,1.5,2.6,2.4c0.1,0.1,0.2,0.3,0.3,0.4c0.4,0.6,0.9,1.2,1.8,1.6c-3.3,0.8-5,2.4-5.8,3.4l-4-2.3c-0.3-0.2-0.7-0.2-1,0.1
		l-2.8,2.2c-0.9,0.5-1.8,1.1-2.3,2c-1.1,0.3-2.2,1.8-2.4,2.5c0,0,0,0,0,0.1c-0.8,0.2-1.8,0.8-2.3,1.6c-0.2,0.4-0.4,0.7-0.4,1.1
		c-0.1,0-0.3,0-0.5,0.1c-0.7,0.2-1.5,1.1-1.7,1.6c-0.2,0.5-0.2,1.2-0.2,1.4c0.1,1,0.9,1.6,1.4,2c0.1,0.1,0.2,0.1,0.3,0.2
		c0.1,0.1,0.3,0.2,0.4,0.3c0.1,0,0.1,0.1,0.2,0.1c0,0.3,0,0.9,0,1.3l-7.5-0.6c-0.2,0-0.5,0.1-0.7,0.2l-2.8,2.4
		c-0.3,0.2-0.4,0.6-0.3,1c0.1,0.3,0.4,0.6,0.8,0.6l12.4,1.3c0,0,0.1,0,0.1,0c0.1,0,0.2,0,0.3-0.1c0,0,0,0,0,0.1c0,0.3-0.5,0.9-2.6,2
		l-0.2,0.1c-0.5,0.3-1,0.5-1.4,0.7c-1.2,0.6-2.5,1.3-3.7,2.2c-0.4,0.3-0.6,0.6-0.8,0.8c-0.1,0.1-0.2,0.2-0.2,0.2c0,0-0.1,0-0.3-0.1
		c-0.7-0.3-1.5-0.5-2.6-0.7c-1.2-0.2-2.3-0.1-3.5,0.1c-0.8,0.1-1.6,0.2-2.4,0.1c-0.5-0.1-1,0.3-1,0.8c-0.1,0.5,0.3,1,0.8,1
		c0.9,0.1,1.9,0,2.8-0.1c1-0.1,2-0.3,2.9-0.1c0.9,0.2,1.7,0.4,2.2,0.6c0.4,0.2,0.7,0.2,1,0.2c0.7,0,1.1-0.4,1.5-0.8
		c0.2-0.2,0.3-0.4,0.6-0.6c1.1-0.8,2.2-1.4,3.4-2c0.5-0.2,1-0.5,1.5-0.8l0.2-0.1c1.2-0.6,3.3-1.8,3.6-3.4c0.1-0.4,0-1.1-0.6-1.7
		l1.1-1.4c0.8-0.1,1.7-0.3,2.4-0.7c0.2,0,0.4,0.1,0.6,0.1c0.7,0,1.4-0.2,2.2-0.7c0.2,0.2,0.5,0.4,0.8,0.6c0.2,0.1,0.3,0.2,0.5,0.2
		c0.4,0,0.7-0.3,1.1-0.7c0.3-0.3,0.7-0.6,1.1-1c0.6-0.5,1.3-1.2,1.5-1.4c0,0,0,0,0,0c0.1,0,0.1-0.1,0.2-0.1c0,0,0,0,0,0
		c0,0,0.1-0.1,0.1-0.1c0,0,0,0,0,0c0,0,0,0,0,0c0,0,0,0,0,0c0,0,0,0,0,0c0,0,0-0.1,0-0.1c0,0,0-0.1,0-0.1c0,0,0-0.1,0-0.1
		c0,0,0-0.1,0-0.1c0,0,0-0.1,0-0.1c0,0,0-0.1,0-0.1c0,0,0-0.1,0-0.1c0,0,0-0.1,0-0.1c0,0,0-0.1,0-0.1c0,0,0-0.1,0-0.1
		c0,0,0,0-0.1-0.1c0,0,0,0-0.1-0.1c0,0,0,0-0.1-0.1c0,0-0.1,0-0.1-0.1c0,0,0,0,0,0c0,0,0,0,0,0c0,0,0,0,0,0l-0.1,0
		c-0.1-0.1-0.3-0.1-0.4-0.2c-1.3-0.7-1.9-1.4-2.3-2.6c-0.1-0.2-0.1-0.5-0.1-0.9c0-0.8-0.1-1.7-0.7-2.3c-0.8-0.7-1.8-1-2.6-1.3
		c-0.6-0.2-1.2-0.4-1.6-0.7c-0.2-0.1-0.2-0.2-0.2-0.2c0,0,0,0,0,0c0-0.2,0.5-0.7,1.6-1.3c0,0,0.1-0.1,0.1-0.1l2.4-1.9l4.6,2.6v2.6
		c0,0.2,0.1,0.4,0.2,0.6l6,7.2c0.2,0.2,0.4,0.3,0.7,0.3c0.2,0,0.4-0.1,0.6-0.2c0.4-0.3,0.4-0.9,0.1-1.3l-5.8-7v-2.8
		c0-0.3-0.2-0.6-0.4-0.8c0.9-1.1,3.4-3,9.1-3c0.5,0.1,1,0.3,1.5,0.6c1.7,0.9,3.8,1,5.8,1c0,0,0,0,0,0c1.1,0,2.1,0,3,0.1
		c0.4,0.1,0.9,0.2,1.3,0.4c0.5,0.2,1,0.4,1.5,0.5c0.1,0,0.1,0,0.2,0c0,0,0,0,0,0c0.8,0.1,1.4,0.6,2,1.2c0.5,0.5,1.1,1,1.8,1.3
		c1.2,0.6,2.5,0.5,3.8,0.4c0.5,0,1,0,1.5,0c0.4,0,0.8,0,1.2,0c1.3,0,2.8,0.1,3.8,0.5c0.7,0.3,1.2,0.8,1.7,1.4c0.4,0.5,0.9,1,1.5,1.4
		c0.7,0.5,1.5,0.7,2.3,0.9c0.8,0.2,1.5,0.4,2.1,1c0.1,0.1,0.2,0.2,0.3,0.4c0.3,0.3,0.5,0.7,0.9,1c0.9,0.5,2,0.5,2.9,0.5
		c0.4,0,0.8,0,1.1,0l0.1,0c0.3,0,1.1,0.1,1.3,0.3c0,0.1,0,0.3,0.1,0.5c0,0.5,0.1,1.2,0.6,1.7c0.7,0.6,1.3,0.7,1.8,0.8
		c0,0,0,0.1,0,0.1c0,0.1-0.1,0.3-0.1,0.5c-0.1,0.4-0.2,0.8-0.2,1.4l0,0.1c0.1,1,0.2,1.3,1,1.9l0.3,0.2c0.8,0.6,1.1,1,1.6,1.7
		c0.1,0.1,0.2,0.2,0.2,0.4c0.3,0.5,0.7,1.1,1.4,1.6c0.5,0.3,1.1,0.4,1.7,0.5c0.3,0.1,0.7,0.1,0.8,0.2c0.4,0.5-0.8,2.5-1.3,3.3
		c-0.3,0.5-0.6,1-0.8,1.4l-0.1,0.2c-0.4,1-0.9,1.9,0.2,3.1c0.1,0.2,0.3,0.3,0.5,0.4c-0.6,0.2-1.2,0.5-1.8,0.7
		c-1.4,0.5-2.8,1.1-4.2,1.8c-1.4,0.8-3.1,1.4-4.9,1.8c-0.2,0-0.4,0.2-0.5,0.3l-1.8-2.1l7.5-2.7c0.3-0.1,0.6-0.4,0.6-0.7
		c0-0.3-0.1-0.7-0.4-0.9l-9.5-6.8c-0.1-0.1-0.3-0.1-0.4-0.2l-4.8-0.7l-6.5-4.8l-1.8-6.8c-0.1-0.2-0.2-0.4-0.4-0.5l-6-3.9
		c-0.4-0.3-1-0.2-1.3,0.3c-0.3,0.4-0.2,1,0.3,1.3l4.7,3.1H236l-3.9-2.9c-0.2-0.1-0.3-0.2-0.5-0.2h-1.4l-5.5-3.5
		c-0.1-0.1-0.2-0.1-0.4-0.1c-3.1-0.5-3.6-1.1-3.7-1.2c0.1-0.2,0.5-0.6,1-0.9c0.4-0.2,0.6-0.8,0.4-1.2c-0.2-0.4-0.8-0.6-1.2-0.4
		c-0.4,0.2-2.2,1.3-1.9,2.8c0.2,1.3,1.8,2.1,5,2.7l5.6,3.6c0.1,0.1,0.3,0.1,0.5,0.1h1.4l3.9,2.9c0.2,0.1,0.3,0.2,0.5,0.2h4.5
		c0.1,0,0.2,0,0.3-0.1l0.2,0.9l-3,0.6l-6.7-3.2c-0.2-0.1-0.3-0.1-0.5-0.1l-5.1,0.7c-0.4,0.1-0.6,0.3-0.7,0.6c-0.1,0.3,0,0.7,0.3,0.9
		l11.5,10.1c0.2,0.2,0.4,0.2,0.7,0.2l3.9-0.3l6.8,6.7l-6.5,0.5c-0.3,0-0.5,0.2-0.7,0.4c-0.2,0.2-0.2,0.5-0.1,0.8l5.5,15.7
		c0.1,0.4,0.5,0.6,0.9,0.6c0.1,0,0.2,0,0.3-0.1c0.5-0.2,0.7-0.7,0.6-1.2l-0.5-1.4l11.1-1c0.3,0,0.6-0.2,0.8-0.6
		c0.1-0.3,0.1-0.7-0.1-0.9l-7.1-8.4l-1.1-4c0-0.1,0-0.1-0.1-0.2c0,0,0,0,0,0c0-0.1-0.1-0.1-0.1-0.2c0,0,0,0,0,0l-8.6-8.4
		c-0.2-0.2-0.5-0.3-0.7-0.3l-3.9,0.3l-9.7-8.6l2.9-0.4l6.7,3.2c0.2,0.1,0.4,0.1,0.6,0.1l3.4-0.7l0.8,3c0.1,0.2,0.2,0.4,0.3,0.5
		l6.9,5.1c0.1,0.1,0.3,0.1,0.4,0.2l4.9,0.7l7.9,5.7l-7.1,2.5c-0.3,0.1-0.5,0.3-0.6,0.6c-0.1,0.3,0,0.6,0.2,0.8l11.1,12.8
		c0,0,0,0,0,0l0.3,0.3c0.2,0.2,0.4,0.3,0.7,0.3c0.2,0,0.4-0.1,0.6-0.2c0.1-0.1,0.2-0.3,0.3-0.4c0.5-0.1,1.1-0.2,1.7-0.4
		c2.9-0.6,6.2-1.2,6.6-3.3c0.2-1-0.2-1.7-0.5-2.2c-0.1-0.1-0.1-0.3-0.2-0.3c0,0,0.1-0.1,0.2-0.2c0.4-0.3,0.9-0.6,1.5-0.9
		c1.7-0.9,4-2.1,3.7-4.6c-0.1-0.8-0.4-1.5-0.8-2.1c-0.3-0.6-0.6-1.1-0.6-1.6c0-0.5,0.5-1.2,1.2-1.8c1.6-1.4,1.2-2.7,0.8-3.9
		c-0.3-0.9-0.6-1.8-0.3-3.2c0.1-0.3,0.1-0.6,0.1-1c3.9,2.6,4.1,3.6,3.3,5.6c-0.1,0.3-0.7,0.8-1.1,1.2c-0.6,0.6-1.2,1.1-1.5,1.7
		c-0.7,1.5-0.2,2.8,0.2,4c0.3,0.7,0.5,1.4,0.5,2.1c-0.1,0.9-0.5,1.5-1.3,2.4l-0.1,0.1c-0.2,0.2-0.4,0.4-0.6,0.6
		c-0.6,0.6-1.5,1.3-1.3,2.5c0.1,0.5,0.4,0.8,0.6,1c0.1,0.1,0.2,0.3,0.3,0.3c0,0.2,0,0.5-0.1,0.8c-0.2,0.6-0.4,0.8-0.7,1.2
		c-0.2,0.2-0.4,0.5-0.7,0.9c-0.3,0.4-0.2,1,0.2,1.3c0.2,0.1,0.3,0.2,0.5,0.2c0.3,0,0.6-0.1,0.8-0.4c0.2-0.3,0.4-0.5,0.6-0.7
		c0.4-0.5,0.8-0.9,1.1-1.9c0.1-0.4,0.2-1.1,0.1-1.7c-0.1-0.6-0.5-0.9-0.7-1.2c-0.1-0.1-0.1-0.1-0.2-0.2c0-0.2,0.4-0.5,0.7-0.7
		c0.2-0.2,0.5-0.5,0.8-0.7l0.1-0.1c0.8-1,1.6-1.9,1.7-3.4c0.1-1.1-0.3-2-0.6-2.9c-0.4-1.1-0.6-1.8-0.3-2.5c0.1-0.3,0.6-0.7,1.1-1.1
		c0.7-0.6,1.3-1.2,1.6-1.8c1.5-3.9-0.4-5.6-5.6-8.8c-0.1-0.1-0.2-0.3-0.3-0.4c-1.3-1.2-3.6-1.6-7.1-0.9c-0.1,0-0.2-0.1-0.3-0.1
		c-1-0.5-1.9-1-2.2-1.7L271,232c-1.4-4.1-2.6-7.6-9.8-6.3c-0.3,0-0.6,0-0.9,0c-0.7,0-1.5,0.1-1.9-0.2c-0.1-0.1-0.3-0.3-0.4-0.5
		c-0.2-0.2-0.3-0.5-0.6-0.7c-0.9-0.8-1.9-1.1-2.8-1.4c-0.6-0.2-1.3-0.4-1.8-0.7c-0.4-0.3-0.8-0.7-1.2-1.1c-0.6-0.7-1.3-1.4-2.4-1.8
		c-1.3-0.5-3-0.6-4.5-0.6c-0.4,0-0.8,0-1.1,0c-0.6,0-1.1,0-1.7,0c-1.1,0.1-2.1,0.1-2.9-0.3c-0.5-0.2-0.9-0.6-1.4-1
		c-0.8-0.7-1.7-1.5-3-1.7c0,0-0.1,0-0.1,0c-0.4-0.1-0.7-0.2-1.1-0.4c-0.5-0.2-1.1-0.5-1.8-0.6c-1.1-0.2-2.2-0.2-3.3-0.2c0,0,0,0,0,0
		c-1.7,0-3.6-0.1-4.9-0.8c-0.7-0.4-1.4-0.6-2.1-0.8c0,0,0,0,0,0c-0.6-0.2-1.1-0.3-1.7-0.4c-0.8-0.2-1.7-0.3-2.4-0.6
		c-0.7-0.3-0.9-0.6-1.4-1.2c-0.1-0.1-0.2-0.3-0.3-0.4c-0.7-0.9-1.6-1.7-2.4-2.4c0.2-0.2,0.5-0.4,0.7-0.5c0.4-0.3,0.7-0.6,1-0.7
		c1.7-0.8,3.2-1.1,4.6-1.1c2.1,0,3.2-0.9,4.3-2.5c0.8-1.1,1.4-2.3,2-3.4c0.5-0.9,0.9-1.8,1.5-2.6c0.9-1.4,1.2-2.7,1.5-3.9
		c0.2-0.7,0.4-1.4,0.6-2.1c0.3-0.7,0.7-1.4,1.1-2c0.5-0.7,0.9-1.5,1.3-2.3c0.4-1.1,1.9-2.5,2.9-3.4c0.2-0.2,0.3-0.3,0.5-0.5
		c0.4-0.4,0.9-1,1.3-1.5c0.5-0.7,1-1.4,1.5-1.7c0.9-0.7,1.5-0.8,2.8-0.5c1.8,0.3,3.5,2.7,4.7,4.3l0.3,0.5c0.3,0.4,0.6,0.9,0.9,1.4
		c0.6,1.1,1.3,2.2,2.4,2.9c0.5,0.3,1,0.5,1.5,0.7c0.6,0.2,1.1,0.4,1.4,0.7c0.3,0.3,0.4,0.8,0.6,1.3c0.1,0.2,0.2,0.5,0.2,0.7
		c0.4,1.1,1.1,2.6,2.3,3.7c1,0.8,1.9,0.8,2.7,0.8c0.5,0,0.9,0,1.3,0.1c0.5,0.2,0.7,0.4,1.1,0.8c0.5,0.5,1.2,1.2,2.4,1.4l1.1,0.2
		c1.4,0.2,2.8,0.4,4.1,0.6c1.6,0.2,2.4,0.6,3.8,1.3l0.4,0.2c0.5,0.3,1.1,0.4,1.6,0.5c0.4,0.1,0.8,0.2,1.2,0.4
		c0.3,0.1,0.6,0.3,0.8,0.5c0.3,0.2,0.7,0.4,1.1,0.6c0.8,0.3,1.5,0.5,2.1,0.6c0.9,0.2,1.6,0.3,2.3,0.9c0.4,0.3,0.7,0.6,1.1,0.9
		c0.8,0.6,1.6,1.3,2.6,1.9c0.2,0.1,0.4,0.2,0.7,0.4c1,0.5,2.2,1.2,2.6,2c0.2,0.4,0.8,0.6,1.2,0.4
		C289.8,209.4,289.9,208.9,289.7,208.4z M209.8,229.8C209.8,229.8,209.9,229.8,209.8,229.8C209.9,229.8,209.8,229.8,209.8,229.8
		C209.8,229.8,209.8,229.8,209.8,229.8z M209.7,229.9C209.7,229.9,209.7,229.9,209.7,229.9C209.7,229.9,209.7,229.9,209.7,229.9
		C209.7,229.9,209.7,229.9,209.7,229.9z M209.5,229.9C209.5,229.9,209.5,229.9,209.5,229.9C209.5,229.9,209.5,229.9,209.5,229.9
		C209.5,229.9,209.5,229.9,209.5,229.9z M209.2,229.9C209.2,229.9,209.2,229.9,209.2,229.9C209.2,229.9,209.2,229.9,209.2,229.9
		C209.2,229.9,209.2,229.9,209.2,229.9z M196.6,234.4l-9.7-1l0.9-0.8l8.9,0.7c0.2,0.1,0.4,0.1,0.7,0.1L196.6,234.4z M199.3,231.7
		C199.3,231.7,199.3,231.7,199.3,231.7l-2.3-0.2c0,0-0.1,0-0.1,0c0-0.7,0-1.8-0.2-2.2c-0.2-0.4-0.6-0.7-0.9-0.9
		c-0.1,0-0.2-0.1-0.2-0.1c-0.1-0.1-0.2-0.2-0.4-0.3c-0.3-0.2-0.6-0.5-0.7-0.6c0-0.2,0-0.4,0-0.5c0.1-0.1,0.4-0.5,0.6-0.6
		c0.2,0,0.4,0,0.5-0.2c0.6,0.8,1.5,1.3,2.3,1.7c0.5,0.3,0.9,0.5,1.2,0.8c0.1,0.1,0.2,0.5,0.3,0.8c0.2,0.6,0.4,1.4,0.9,2.1
		C200,231.6,199.6,231.6,199.3,231.7z M202.3,230.9c-0.6-0.2-0.9-1.3-1.2-2.1c-0.2-0.7-0.4-1.2-0.8-1.6c-0.5-0.4-1-0.7-1.6-1
		c-0.9-0.5-1.7-1-1.9-1.6c0,0,0-0.1,0.1-0.3c0.3-0.4,0.9-0.7,1.3-0.8c0.3,0.3,0.7,0.6,0.9,0.7c0.1,0,0.1,0.1,0.2,0.1
		c0.5,0.4,1.1,0.6,1.6,0.9c0.2,0.1,0.4,0.2,0.7,0.3c0.1,0.1,0.3,0.1,0.4,0.2c0.2,0.1,0.5,0.2,0.5,0.3c0.2,0.5,0.2,1,0.3,1.6
		c0.1,0.7,0.1,1.5,0.5,2.3c0.1,0.3,0.3,0.5,0.4,0.8C203.1,230.9,202.6,231,202.3,230.9z M203.1,222.6c0.8,0.2,1.5,0.5,1.9,0.9
		c0.1,0.2,0.1,0.7,0.1,1.1c0,0.4,0,0.9,0.2,1.3c0.5,1.7,1.4,2.6,2.5,3.4c-0.2,0.2-0.4,0.4-0.7,0.6c-0.3,0.3-0.7,0.7-1.1,1
		c-0.5-0.4-0.9-1-1.2-1.6c-0.2-0.5-0.3-1.1-0.3-1.7c-0.1-0.7-0.1-1.4-0.4-2.1c-0.3-0.8-1-1.1-1.4-1.3c-0.1,0-0.2-0.1-0.3-0.1
		c-0.2-0.1-0.5-0.2-0.7-0.4c-0.5-0.2-0.9-0.5-1.3-0.7c-0.1,0-0.2-0.1-0.2-0.2c-0.2-0.1-0.5-0.3-0.7-0.5c0.2-0.3,0.5-0.8,0.8-1.1
		c0.2,0.2,0.3,0.4,0.6,0.6C201.6,222.1,202.4,222.4,203.1,222.6z M250.2,251.2c0,0.1,0.1,0.2,0.2,0.3l6.1,7.2l-9.8,0.9l-1.2-3.5
		l5.7,0.3c0,0,0,0,0.1,0c0.5,0,0.9-0.4,0.9-0.9c0-0.5-0.4-0.9-0.9-1l-6.4-0.4l-0.8-2.4h4.7c0.5,0,0.9-0.4,0.9-0.9
		c0-0.5-0.4-0.9-0.9-0.9h-5.4l-0.6-1.8l6.6-0.5L250.2,251.2z M279.3,236.5c0.4,0.4,0.6,1.2,0.3,2.3c-0.3,1.8,0.1,3.2,0.4,4.1
		c0.4,1.1,0.4,1.3-0.3,2c-0.4,0.3-1.7,1.6-1.9,3c-0.1,1,0.4,1.8,0.8,2.6c0.3,0.5,0.5,1,0.6,1.4c0.1,1.1-1,1.8-2.7,2.8
		c-0.7,0.4-1.3,0.7-1.8,1.1c-1.4,1.1-0.8,2.3-0.4,2.8c0.2,0.4,0.3,0.6,0.3,0.9c-0.2,0.8-3.7,1.5-5.2,1.8c-0.9,0.2-1.6,0.3-2.2,0.5
		l-2.9-3.4c1.7-0.3,3.9-0.7,4.4-1c3.2-1.2,5.8-3.1,7.7-5.8c1.1-1.6,0.7-2.5,0.3-3.5c-0.1-0.3-0.2-0.5-0.3-0.8
		c-0.2-0.8,0.2-1.8,0.6-2.7c0.1-0.3,0.3-0.6,0.6-0.9c0.7-1,1.9-2.9,0-4.3c-0.7-0.5-0.8-0.9-0.9-1.6c-0.1-0.6-0.3-1.3-0.8-2.1
		C278,235.6,279,236.1,279.3,236.5z M269.2,232.6l0.1,0.4c0.5,1.4,1.9,2.1,3.1,2.8c0.7,0.4,1.4,0.7,1.7,1.1c0.3,0.5,0.4,0.9,0.6,1.4
		c0.2,0.8,0.4,1.8,1.7,2.7c0.3,0.2,0.5,0.3-0.4,1.7c-0.3,0.4-0.5,0.8-0.7,1.2c-0.4,0.9-1.1,2.4-0.7,4c0.1,0.4,0.2,0.7,0.4,1
		c0.3,0.8,0.4,1-0.1,1.7c-1.7,2.4-4,4.1-6.8,5.2c-0.7,0.3-4.1,0.9-5.3,1l-2.4-2.8c1.9-0.5,3.6-1.1,5-1.9c1.2-0.7,2.6-1.2,3.9-1.7
		c1.2-0.5,2.4-0.9,3.5-1.5c0.3-0.1,0.5-0.4,0.5-0.7c0-0.3-0.1-0.6-0.3-0.8c-0.3-0.2-0.6-0.4-0.9-0.6c-0.3-0.2-0.6-0.3-0.7-0.5
		c-0.3-0.3-0.3-0.3,0.1-1.2l0.1-0.2c0.1-0.3,0.4-0.7,0.7-1.2c1.1-1.7,2.6-4.1,1.1-5.6c-0.4-0.4-1.1-0.5-1.8-0.7
		c-0.3-0.1-0.8-0.2-1-0.3c-0.3-0.2-0.6-0.6-0.8-1c-0.1-0.1-0.2-0.3-0.3-0.4c-0.6-0.9-1-1.4-2-2.2l-0.3-0.2c-0.1-0.1-0.2-0.2-0.3-0.2
		c0-0.1,0-0.2,0-0.4l0-0.1c0-0.2,0-0.4,0.1-0.7c0.1-0.3,0.2-0.6,0.2-1c0-1.5-0.8-1.8-1.6-1.9c-0.3,0-0.5-0.1-0.8-0.3
		c0,0-0.1-0.3-0.1-0.5c0-0.3,0-0.6-0.2-1C267.5,227.5,268.2,229.5,269.2,232.6z"/>
	<path style="fill:#0047BA;" d="M244.9,226.1c-0.4-0.3-1-0.2-1.3,0.2c-0.3,0.4-0.2,1,0.2,1.3l3.1,2.4c0.2,0.1,0.4,0.2,0.6,0.2
		c0,0,0.1,0,0.1,0l7.8-0.9c0.4,0,0.7-0.3,0.8-0.7c0.1-0.4,0-0.8-0.3-1l-3.3-2.4c-0.4-0.3-1-0.2-1.3,0.2s-0.2,1,0.2,1.3l1.4,1.1
		l-5.1,0.6L244.9,226.1z"/>
	<path style="fill:#0047BA;" d="M247,231.7c-0.4-0.3-1-0.2-1.3,0.2c-0.3,0.4-0.2,1,0.2,1.3l5.7,4.2c0.2,0.1,0.3,0.2,0.5,0.2
		c0,0,0,0,0.1,0l11.9-0.9c0.4,0,0.7-0.3,0.8-0.6c0.1-0.4,0-0.7-0.3-1l-5.3-4.4c-0.2-0.2-0.5-0.2-0.7-0.2l-2.7,0.4
		c-0.2,0-0.4,0.1-0.5,0.3l-2.2,2.3c-0.4,0.4-0.3,0.9,0,1.3c0.4,0.3,0.9,0.3,1.3,0l2-2.1l2-0.3l3.3,2.7l-9.3,0.7L247,231.7z"/>
	<path style="fill:#0047BA;" d="M205.4,253.7c0.1,0,0.2,0,0.2,0c0.2-0.1,0.4-0.2,0.6-0.5l6.6-12.4c0.2-0.4,0.1-1-0.4-1.2
		c-0.4-0.2-1-0.1-1.2,0.4l-6.1,11.5l-9.2-5.4c-0.1-0.1-0.3-0.1-0.4-0.1l-0.5,0c0.6-0.4,1.1-0.7,1.7-1c0.5-0.3,1-0.5,1.4-0.8
		c0.8-0.5,1.5-1,2.2-1.5c0.5-0.3,0.9-0.7,1.4-1c0.1-0.1,0.2-0.1,0.3-0.2c1-0.7,2.5-1.7,2.7-3c0.1-0.7-0.1-1.5-0.6-2.1
		c-0.7-0.8-1.8-1.3-2.9-1.2c-0.5,0-0.9,0.4-0.9,0.9c0,0.5,0.4,0.9,0.9,0.9c0.5,0,1.2,0.2,1.5,0.6c0.2,0.2,0.2,0.4,0.2,0.5
		c-0.1,0.6-1.2,1.4-1.9,1.8c-0.1,0.1-0.2,0.2-0.4,0.2c-0.5,0.4-1,0.7-1.5,1.1c-0.7,0.5-1.3,1-2,1.4c-0.4,0.3-0.9,0.5-1.4,0.8
		c-1.1,0.6-2.2,1.3-3.2,2.1c-0.1,0.1-0.2,0.2-0.3,0.4l-8.1-0.4c-0.2,0-0.4,0.1-0.6,0.2l-5.2,4.2c-0.4,0.3-0.5,0.9-0.1,1.3
		c0.3,0.4,0.9,0.5,1.3,0.1l5-4l10.7,0.5l9.8,5.8C205.1,253.7,205.2,253.7,205.4,253.7z"/>
	<path style="fill:#0047BA;" d="M230.2,260.4C230.3,260.4,230.3,260.4,230.2,260.4l8.6-0.6c0.3,0,0.5-0.1,0.7-0.4
		c0.2-0.2,0.2-0.5,0.2-0.7l-1.6-8.4c0-0.2-0.1-0.3-0.2-0.4l-3.2-3.6c-0.2-0.2-0.4-0.3-0.7-0.3c-0.3,0-0.5,0.1-0.7,0.4l-3.2,4.2
		c-0.1,0.1-0.2,0.3-0.2,0.5l-0.5,8.3c0,0.3,0.1,0.5,0.3,0.7C229.8,260.3,230,260.4,230.2,260.4z M231.6,251.5l2.4-3.1l2.3,2.6
		l1.4,7.2l-6.4,0.4L231.6,251.5z"/>
	<path style="fill:#0047BA;" d="M226.8,264.1C226.8,264.1,226.8,264.1,226.8,264.1c0.6,0,1-0.4,1-0.8l0.8-9.1c0,0,0-0.1,0-0.1
		l-0.5-9.7c0-0.1,0-0.1,0-0.2l-2.1-8.5c-0.1-0.4-0.5-0.7-1-0.7l-2.3,0.2l0-0.4c0-0.2-0.2-0.5-0.3-0.6c-0.2-0.2-0.4-0.2-0.7-0.2
		l-2.3,0.3l-0.9-3c0,0,0,0,0-0.1c0,0,0,0,0-0.1c0,0,0-0.1-0.1-0.1c0,0,0,0,0,0c0,0,0,0,0,0c-0.1-0.1-0.2-0.2-0.3-0.2c0,0,0,0,0,0
		c0,0-0.1,0-0.1,0c0,0,0,0-0.1,0c0,0-0.1,0-0.1,0c0,0,0,0,0,0h-5.3c-0.3,0-0.6,0.2-0.8,0.5l-3.3,6c-0.2,0.3-0.2,0.6,0,0.9
		c0.2,0.3,0.5,0.5,0.8,0.5h7c0.4,0,0.8-0.3,0.9-0.7l0.7-2.8l0.2,0.6c0.1,0.4,0.6,0.7,1,0.6l2.2-0.3l0.7,6.2l-6-1
		c-0.4-0.1-0.9,0.2-1,0.6l-1.2,3.8c-0.1,0.3,0,0.5,0.1,0.8c0.1,0.2,0.4,0.4,0.7,0.4l7.9,0.9l-0.2,1.5l-8.4-0.7
		c-0.4,0-0.8,0.2-0.9,0.6l-1.6,4.9c-0.1,0.3-0.1,0.6,0.1,0.8c0.2,0.2,0.4,0.4,0.7,0.4l9.5,0.8l-0.7,6.7c-0.1,0.5,0.3,1,0.8,1
		c0,0,0.1,0,0.1,0c0.5,0,0.9-0.4,0.9-0.8l1.6-15.9c0-0.1,0-0.1,0-0.2l-1-9.7l1.5-0.2l1.9,7.6l0.5,9.5l-0.8,9.1
		C225.9,263.6,226.3,264.1,226.8,264.1z M215.1,236.7h-4.7l2.3-4.2h3.5L215.1,236.7z M215.3,245.2l0.6-1.9l5.7,0.9l0.2,1.7
		L215.3,245.2z M221.3,254.2l-8.4-0.7l1-3.1l7.7,0.7L221.3,254.2z"/>
	<g>
		<path style="fill:#0047BA;" d="M217.2,285.6h-2.6V279l-2.9,4.8h-0.3l-2.9-4.8v6.5H206v-11.2h2.6l3,5l3-5h2.6V285.6z"/>
		<path style="fill:#0047BA;" d="M225.7,283.8h-4.2l-0.6,1.8h-2.8l3.8-11.2h3.3l3.8,11.2h-2.8L225.7,283.8z M224.9,281.4l-1.3-4.1
			l-1.3,4.1H224.9z"/>
		<path style="fill:#0047BA;" d="M229.1,280c0-3.3,2.4-5.8,5.8-5.8c2,0,3.8,1,4.8,2.6l-2.2,1.3c-0.5-0.9-1.5-1.4-2.6-1.4
			c-2,0-3.3,1.3-3.3,3.3s1.3,3.3,3.3,3.3c1.1,0,2.1-0.5,2.6-1.4l2.2,1.3c-1,1.6-2.8,2.6-4.8,2.6C231.6,285.8,229.1,283.3,229.1,280z
			"/>
		<path style="fill:#0047BA;" d="M249.6,274.4v11.2h-2.6v-4.5h-3.5v4.5H241v-11.2h2.6v4.3h3.5v-4.3H249.6z"/>
		<path style="fill:#0047BA;" d="M251.5,281.9v-7.6h2.6v7.4c0,0.8,0.4,1.6,1.8,1.6s1.8-0.7,1.8-1.6v-7.4h2.6v7.6
			c0,2.4-1.9,3.8-4.3,3.8S251.5,284.3,251.5,281.9z"/>
		<path style="fill:#0047BA;" d="M214.2,297.4c0,2.1-1.7,3.8-3.9,3.8h-1.7v3.5H206v-11.2h4.2C212.5,293.6,214.2,295.3,214.2,297.4z
			 M211.6,297.4c0-0.8-0.6-1.4-1.4-1.4h-1.7v2.9h1.7C211.1,298.8,211.6,298.2,211.6,297.4z"/>
		<path style="fill:#0047BA;" d="M218,293.6v11.2h-2.6v-11.2H218z"/>
		<path style="fill:#0047BA;" d="M219.5,299.2c0-3.3,2.4-5.8,5.8-5.8c2,0,3.8,1,4.8,2.6l-2.2,1.3c-0.5-0.9-1.5-1.4-2.6-1.4
			c-2,0-3.3,1.3-3.3,3.3s1.3,3.3,3.3,3.3c1.1,0,2.1-0.5,2.6-1.4l2.2,1.3c-1,1.6-2.8,2.6-4.8,2.6C221.9,305,219.5,302.5,219.5,299.2z
			"/>
		<path style="fill:#0047BA;" d="M230.7,299.2c0-3.3,2.4-5.8,5.8-5.8c2,0,3.8,1,4.8,2.6l-2.2,1.3c-0.5-0.9-1.5-1.4-2.6-1.4
			c-2,0-3.3,1.3-3.3,3.3s1.3,3.3,3.3,3.3c1.1,0,2.1-0.5,2.6-1.4l2.2,1.3c-1,1.6-2.8,2.6-4.8,2.6C233.1,305,230.7,302.5,230.7,299.2z
			"/>
		<path style="fill:#0047BA;" d="M251.1,293.6v11.2h-2.6v-4.5H245v4.5h-2.6v-11.2h2.6v4.3h3.5v-4.3H251.1z"/>
		<path style="fill:#0047BA;" d="M253,301.1v-7.6h2.6v7.4c0,0.8,0.4,1.6,1.8,1.6s1.8-0.7,1.8-1.6v-7.4h2.6v7.6
			c0,2.4-1.9,3.8-4.3,3.8S253,303.5,253,301.1z"/>
	</g>
</g>
</svg>
