<?xml version="1.0" encoding="utf-8"?>
<!-- Generator: Adobe Illustrator 22.1.0, SVG Export Plug-In . SVG Version: 6.00 Build 0)  -->
<svg version="1.1" id="Capa_8" xmlns="http://www.w3.org/2000/svg" xmlns:xlink="http://www.w3.org/1999/xlink" x="0px" y="0px"
	 width="85.5px" height="147px" viewBox="0 0 85.5 147" style="enable-background:new 0 0 85.5 147;" xml:space="preserve">
<style type="text/css">
	.st0{fill:#0047BA;}
</style>
<path class="st0" d="M0,122c-0.1-3.1,2.4-5.7,5.5-5.8c0.1,0,0.2,0,0.3,0c1.9,0,3.8,1,4.8,2.6l-2.2,1.3c-0.6-0.9-1.5-1.4-2.6-1.4
	c-1.8,0-3.3,1.5-3.3,3.3c0,1.8,1.5,3.3,3.3,3.3c1,0,2-0.5,2.6-1.4l2.2,1.3c-1,1.6-2.9,2.6-4.8,2.6c-3.1,0.1-5.7-2.4-5.8-5.5
	C0,122.2,0,122.1,0,122z"/>
<path class="st0" d="M14.8,116.4v11.2h-2.6v-11.2H14.8z"/>
<path class="st0" d="M17,124v-7.6h2.6v7.4c0,0.8,0.4,1.6,1.8,1.6s1.8-0.7,1.8-1.6v-7.4h2.6v7.6c0,2.4-1.9,3.8-4.3,3.8
	S17,126.4,17,124z"/>
<path class="st0" d="M37.8,122c0.1,3-2.2,5.5-5.2,5.6c-0.1,0-0.1,0-0.2,0h-4.5v-11.2h4.5c3,0,5.4,2.4,5.4,5.4
	C37.8,121.9,37.8,121.9,37.8,122z M35.4,122c0.1-1.6-1-3-2.6-3.1c-0.1,0-0.3,0-0.4,0h-1.9v6.3h1.9c1.6,0.1,2.9-1.2,3-2.7
	C35.4,122.3,35.4,122.1,35.4,122L35.4,122z"/>
<path class="st0" d="M45.8,125.9h-4.2l-0.6,1.8h-2.8l3.8-11.2h3.3l3.8,11.2h-2.8L45.8,125.9z M45.1,123.5l-1.3-4.1l-1.3,4.1H45.1z"
	/>
<path class="st0" d="M60.5,122c0.1,3-2.2,5.5-5.2,5.6c-0.1,0-0.1,0-0.2,0h-4.5v-11.2H55c3,0,5.4,2.4,5.5,5.4
	C60.5,121.9,60.5,121.9,60.5,122z M58,122c0.1-1.6-1-3-2.6-3.1c-0.1,0-0.3,0-0.4,0h-1.9v6.3H55c1.6,0.1,2.9-1.2,3-2.7
	C58,122.3,58,122.1,58,122L58,122z"/>
<path class="st0" d="M76.6,122c0.1,3-2.2,5.5-5.2,5.6c-0.1,0-0.1,0-0.2,0h-4.5v-11.2h4.5c3,0,5.4,2.4,5.4,5.4
	C76.6,121.9,76.6,121.9,76.6,122z M74.2,122c0.1-1.6-1-3-2.6-3.1c-0.1,0-0.3,0-0.4,0h-1.9v6.3h1.9c1.6,0.1,2.9-1.2,3-2.7
	C74.2,122.3,74.2,122.1,74.2,122z"/>
<path class="st0" d="M85.5,125.2v2.5h-7v-11.2h7v2.5h-4.4v1.8h4v2.4h-4v2L85.5,125.2z"/>
<path class="st0" d="M24.1,146.8h-2.6v-6.5l-2.9,4.8h-0.3l-2.9-4.8v6.5h-2.6v-11.2h2.6l3,5l3-5H24L24.1,146.8z"/>
<path class="st0" d="M33.5,144.4v2.5h-7v-11.2h7v2.5h-4.4v1.8h4v2.4h-4v2L33.5,144.4z M30.8,134.7h-2.3l1.3-2.2h2.9L30.8,134.7z"/>
<path class="st0" d="M41.2,146.8l-1.9-3.2l-1.9,3.2h-2.9l3.3-5.8l-3.2-5.5h2.8l1.7,3l1.7-3h2.9l-3.2,5.5l3.3,5.8H41.2z"/>
<path class="st0" d="M48.2,135.6v11.2h-2.6v-11.2H48.2z"/>
<path class="st0" d="M50,141.2c-0.1-3.1,2.4-5.7,5.5-5.8c0.1,0,0.2,0,0.3,0c1.9,0,3.8,1,4.8,2.6l-2.2,1.3c-0.6-0.9-1.5-1.4-2.6-1.4
	c-1.8,0-3.3,1.5-3.3,3.3c0,1.8,1.5,3.3,3.3,3.3c1.1,0.1,2-0.5,2.6-1.4l2.2,1.3c-1,1.6-2.9,2.6-4.8,2.6c-3.1,0.1-5.7-2.4-5.8-5.5
	C50,141.4,50,141.3,50,141.2z"/>
<path class="st0" d="M61.6,141.2c0-3.2,2.6-5.8,5.8-5.8c3.2,0,5.8,2.6,5.8,5.8c0,3.2-2.6,5.8-5.8,5.8c-3.2,0-5.8-2.5-5.8-5.7
	C61.6,141.3,61.6,141.2,61.6,141.2z M70.7,141.2c0-1.8-1.5-3.2-3.3-3.2s-3.2,1.5-3.2,3.3c0,1.8,1.5,3.2,3.3,3.2
	c1.8,0,3.2-1.4,3.3-3.1C70.7,141.4,70.7,141.3,70.7,141.2L70.7,141.2z"/>
<path class="st0" d="M11.5,94.7l-0.1-0.4c0-0.3-0.1-0.6-0.1-0.8v-0.3l0.3-0.1c0.8-0.1,1.5-0.5,2-1.2l0.2-0.4l0.4,0.3
	c0.1,0.1,0.2,0.2,0.4,0.2l0.9-0.2l-0.4,0.7c-0.7,1.2-1.9,2-3.2,2.1L11.5,94.7z M12.2,93.7L12.2,93.7c0.8-0.2,1.5-0.6,2-1.1l0,0
	C13.7,93.1,13,93.5,12.2,93.7L12.2,93.7z"/>
<path class="st0" d="M7.2,94.7l-0.4-0.1c-1.4-0.2-2.6-1-3.3-2.1l-0.3-0.7l0.9,0.2c0.1,0,0.3-0.1,0.4-0.2l0.4-0.3L5,91.8
	c0.5,0.6,1.2,1,2,1.2l0.3,0.1v0.3c0,0.3,0,0.6-0.1,0.8L7.2,94.7z M4.6,92.6c0.5,0.6,1.2,1,2,1.1l0,0C5.8,93.5,5.2,93.1,4.6,92.6
	L4.6,92.6z"/>
<path class="st0" d="M70.5,94.7l0-0.4c0-0.3-0.1-0.6-0.1-0.8v-0.3l0.3-0.1c0.8-0.1,1.5-0.5,2-1.2l0.2-0.4l0.4,0.3
	c0.1,0.1,0.2,0.2,0.4,0.2l0.9-0.2l-0.3,0.7c-0.7,1.2-1.9,2-3.3,2.1L70.5,94.7z M71.1,93.7L71.1,93.7c0.8-0.2,1.5-0.6,2-1.1l0,0
	C72.6,93.1,71.9,93.5,71.1,93.7L71.1,93.7z"/>
<path class="st0" d="M66.2,94.7l-0.4-0.1c-1.4-0.2-2.6-1-3.2-2.1l-0.4-0.7l0.9,0.2c0.1,0,0.3-0.1,0.4-0.2l0.4-0.3l0.2,0.4
	c0.5,0.6,1.2,1,2,1.2l0.3,0.1v0.3c0,0.3,0,0.6-0.1,0.8L66.2,94.7z M63.5,92.6c0.5,0.6,1.2,1,2,1.1l0,0
	C64.8,93.5,64.1,93.1,63.5,92.6L63.5,92.6z"/>
<path class="st0" d="M40.6,16.7H36v-1.5h0.9c-0.1-0.6-0.3-1.2-0.7-1.8c-0.3-0.2-0.6-0.3-1-0.4c-0.8-0.2-1.5-0.4-1.6-1.1
	c0-1.1,0.3-2.2,1-3.1c0.4-0.4,1-0.7,1.5-0.8c-0.5-1.7-1.3-3.4-2.5-4.7l-0.1-0.1c-1.5-1.7-1.9-2.2-1.7-2.7c0.1-0.2,0.3-0.4,0.5-0.4
	c0.9-0.2,3.7,1.4,4.4,2.5c0.5,0.8,1,1.6,1.3,2.5c0.3-0.2,0.6-0.2,0.9-0.2c0.4,0.1,0.6,0.4,0.8,0.8l0.5-0.4c1.6-1.3,4-3.2,6-3.4h0.2
	L46.6,2c0.1,0.2,0.2,0.4,0.1,0.6c-0.1,0.7-1,1.3-2.1,1.9c-1.1,0.7-2.1,1.5-3.1,2.4c0.5,0.3,1,0.6,1,1.1c0,0.4-0.1,0.8-0.5,1
	c-0.4,0.4-0.8,0.6-1.3,0.5c0.1,0.2,0.1,0.5,0.1,0.7c0,0.7-0.4,1.3-1,1.6c-0.4,0.2-0.6,0.5-0.7,0.9c-0.1,0.6-0.1,1.3,0.2,1.8
	c0,0.1,0.1,0.2,0.1,0.3l1,0.2L40.6,16.7z M37.8,15.9h2v-0.1l-1-0.2v-0.3c0-0.1-0.1-0.2-0.1-0.3c-0.4-0.7-0.5-1.5-0.3-2.3
	c0.1-0.6,0.5-1.1,1-1.4c0.4-0.2,0.6-0.6,0.6-1c0-0.3,0-0.5-0.1-0.6s-0.4,0-0.6,0.1l-0.5,0.3V9.5c0-0.6,0.3-1.1,0.7-1.5l0.5-0.3
	l0.1,0.6c0,0.2,0.2,0.5,0.4,0.5c0.4,0.1,0.7,0,1-0.3c0.2-0.2,0.2-0.3,0.2-0.3s-0.4-0.4-0.7-0.6s-0.2-0.2-0.4-0.2l-0.3-0.2l0.2-0.3
	c1.1-1.1,2.3-2.1,3.6-3c0.6-0.3,1.1-0.7,1.6-1.2c-1.7,0.4-3.7,2-5.1,3.1c-0.5,0.4-0.8,0.7-1.1,0.9l-0.7,0.5L39,6.3
	c0-0.4-0.1-0.6-0.3-0.7S38.3,5.7,38.2,6l-0.5,1l-0.3-1c-0.3-1-0.8-2-1.5-2.9c-0.9-1.1-2.1-1.8-3.5-2.2c0.5,0.6,1,1.3,1.5,1.8
	l0.1,0.1c1.3,1.6,2.3,3.5,2.7,5.5L37,8.8h-0.4c-0.5,0.1-1.1,0.3-1.5,0.7c-0.5,0.7-0.8,1.6-0.8,2.5c0.1,0.1,0.7,0.3,1,0.4
	c0.4,0.1,0.9,0.3,1.3,0.5c0.7,0.5,1,2.4,1.1,2.7L37.8,15.9z"/>
<path class="st0" d="M38.8,22.4c-0.9,0-1.9-0.1-2.8-0.4l-0.3-0.1v-5h6.1v5L41.6,22C40.7,22.2,39.8,22.3,38.8,22.4z M36.5,21.3
	c1.5,0.4,3.1,0.4,4.5,0v-3.7h-4.5V21.3z"/>
<path class="st0" d="M42.2,73.7h-6.7v-0.4c-0.4-6.3-0.7-13.6-0.7-21.2c0-8.5,0.3-16.5,0.8-23.3v-0.4h6.4v0.4
	c0.5,6.8,0.8,14.8,0.8,23.3c0,7.5-0.2,14.8-0.7,21.2L42.2,73.7z M36.2,72.9h5.3c0.4-6.2,0.6-13.4,0.6-20.7c0-8.3-0.3-16.2-0.8-22.9
	h-5c-0.5,6.7-0.8,14.5-0.8,22.9C35.6,59.6,35.8,66.7,36.2,72.9L36.2,72.9z"/>
<path class="st0" d="M42.2,75.9h-6.6c-0.1,0-0.3,0-0.4-0.1c-0.5-0.1-0.8-0.5-0.8-1c0-0.4,0.3-0.8,0.7-0.9c0.2-0.1,0.4-0.1,0.5-0.1
	h6.7c0.2,0,0.4,0,0.5,0.1c0.4,0.1,0.7,0.5,0.6,0.9c0,0.5-0.3,0.9-0.8,1C42.5,75.8,42.3,75.9,42.2,75.9z M35.5,74.5
	c-0.1,0-0.2,0-0.2,0.1c-0.1,0-0.2,0.1-0.2,0.2c0,0.1,0.1,0.2,0.2,0.3h0.2h6.7h0.2c0.1,0,0.2-0.1,0.2-0.3c0-0.1-0.1-0.2-0.2-0.2
	c-0.1,0-0.1-0.1-0.2-0.1H35.5z"/>
<path class="st0" d="M41.7,28.6h-5.8c-2,0-3.5-2.5-3.5-5.7v-3.1l0.6,0.6c0.7,0.6,1.6,1.1,2.5,1.5l0.4,0.1l0.4,0.1
	c1.7,0.5,3.5,0.5,5.1,0l0.4-0.1c0.1,0,0.3-0.1,0.4-0.1c0.9-0.3,1.8-0.8,2.5-1.5l0.6-0.6v3.1C45.3,26,43.7,28.6,41.7,28.6z
	 M33.2,21.4v1.4c0,2.7,1.3,5,2.8,5h5.8c1.5,0,2.8-2.3,2.8-5v-1.4c-0.6,0.5-1.3,0.8-2.1,1.1c-0.1,0.1-0.3,0.1-0.4,0.1l-0.4,0.1
	c-1.8,0.5-3.7,0.5-5.5,0l-0.4-0.1l-0.4-0.1C34.5,22.2,33.8,21.9,33.2,21.4z"/>
<path class="st0" d="M45.1,81.6H32.6v-5.7h12.5V81.6z M33.4,80.8h10.9v-4.2H33.4V80.8z"/>
<path class="st0" d="M49.8,83.4H27.9v-1.8h21.9V83.4z M28.7,82.6H49v-0.2H28.7V82.6z"/>
<path class="st0" d="M48.5,92.5H29.1v-9.1h19.4V92.5z M29.9,91.7h17.8v-7.6H29.9L29.9,91.7z M42.4,91.6h-7.2v-5.2h7.2V91.6z
	 M36,90.8h5.7v-3.5H36V90.8z"/>
<path class="st0" d="M41.7,90.8H36v-3.5h5.7V90.8z M36.8,90h4.1v-2h-4.1V90z"/>
<path class="st0" d="M50,94.4H27.7l1.4-1.9h19.4L50,94.4z M29.3,93.6h19.1l-0.3-0.3H29.5L29.3,93.6z"/>
<path class="st0" d="M51.4,97H26.3l1.4-2.6H50L51.4,97z M27.6,96.2h22.5l-0.6-1H28.2L27.6,96.2z"/>
<path class="st0" d="M52.2,98.9H25.5V97h26.6L52.2,98.9z M26.3,98.1h25.1v-0.3H26.3V98.1z"/>
<path class="st0" d="M53.7,102.5H24v-3.7h29.7V102.5z M24.8,101.7h28.1v-2.1H24.8V101.7z"/>
<path class="st0" d="M24,102.5h-8.7v-4.4l1.4-2.3H24V102.5z M16.1,101.7h7.1v-5.1h-6.1l-1.1,1.7V101.7z"/>
<path class="st0" d="M62.4,102.5h-8.7v-6.7h7.3l1.4,2.3V102.5z M54.5,101.7h7.1v-3.4l-1.1-1.7h-6.1V101.7z"/>
<path class="st0" d="M62.4,104.4H15.3v-1.9h47.1V104.4z M16.1,103.6h45.5v-0.4H16.1V103.6z"/>
<path class="st0" d="M72.1,104.4h-7.6v-5.2h7.6L72.1,104.4z M65.3,103.6h6.1V100h-6.1V103.6z"/>
<path class="st0" d="M70.6,99.2H66c-0.5-0.2-0.8-0.5-0.8-0.8c-0.1-0.4,0.3-0.9,0.6-1.3c0.1-0.2,0.3-0.4,0.4-0.6l0,0
	c-0.1-0.2-0.4-0.7-0.6-1.1l-0.4-0.6h1l0,0c0-0.1,0-0.3,0.1-0.5s0-0.5,0.1-0.8c0-0.2,0-0.4,0-0.6l0,0c-0.9-0.7-1-1.3-0.9-1.7
	c0.1-0.5,0.5-0.9,1-1l0.5-8.8c0.1-2.4,1.1-2.5,1.4-2.5c0.5,0,1.3,0.4,1.4,2.5l0.5,8.8c0.5,0.1,0.9,0.5,1,1c0.1,0.3,0,0.9-0.9,1.7
	l0,0c0,0.2,0,0.4,0,0.6c0,0.3,0,0.5,0.1,0.8s0.1,0.4,0.1,0.5l0,0h1l-0.4,0.6c-0.2,0.4-0.5,0.9-0.6,1.1l0,0c0.1,0.2,0.3,0.4,0.4,0.6
	c0.4,0.5,0.7,0.9,0.6,1.3s-0.4,0.5-0.8,0.8H70.6z M66.2,98.4h4.2c0.1,0,0.2-0.1,0.3-0.2c0-0.1-0.3-0.4-0.5-0.6s-0.4-0.5-0.5-0.7
	l-0.2-0.4l0.2-0.4l0.3-0.6h-0.2l-0.1-0.7c0,0,0-0.2-0.1-0.5s-0.1-0.5-0.1-0.8c0-0.3,0-0.5,0-0.8l0-0.3l0.2-0.2
	c0.5-0.4,0.6-0.7,0.6-0.9S70.2,91.1,70,91l-0.5-0.2l-0.5-9.4c-0.1-1.2-0.4-1.8-0.7-1.8c-0.1,0-0.5,0.4-0.6,1.8l-0.5,9.4L66.6,91
	c-0.2,0.1-0.5,0.2-0.5,0.4s0.1,0.5,0.6,0.9l0.2,0.2l0,0.3c0,0.3,0.1,0.5,0,0.8c0,0.3,0,0.6-0.1,0.8c0,0.2,0,0.3-0.1,0.5l-0.1,0.7
	h-0.2l0.3,0.6l0.2,0.4l-0.2,0.4c-0.1,0.2-0.3,0.5-0.5,0.7c-0.2,0.2-0.4,0.4-0.5,0.7C66,98.3,66.1,98.3,66.2,98.4z"/>
<path class="st0" d="M13.2,104.4H5.5v-5.2h7.6L13.2,104.4z M6.3,103.6h6.1V100H6.3V103.6z"/>
<path class="st0" d="M11.6,99.2H7c-0.5-0.2-0.8-0.5-0.8-0.8c-0.1-0.4,0.2-0.9,0.6-1.3c0.2-0.2,0.3-0.4,0.4-0.6
	c-0.1-0.2-0.4-0.7-0.6-1.1l-0.4-0.6h1l0,0c0-0.1,0-0.3,0.1-0.5s0-0.5,0.1-0.8c0-0.2,0-0.4,0-0.6l0,0c-0.9-0.7-0.9-1.3-0.9-1.7
	c0.1-0.5,0.5-0.9,1-1l0,0L8,81.4c0.1-2.4,1.1-2.5,1.4-2.5c0.8,0,1.4,1,1.4,2.5l0.5,8.8c0.5,0.1,0.9,0.5,1,1c0.1,0.3,0,0.9-0.9,1.7
	l0,0c0,0.2,0,0.4,0,0.6c0,0.3,0,0.5,0.1,0.8s0.1,0.4,0.1,0.5l0,0h1l-0.4,0.6c-0.2,0.4-0.5,0.9-0.6,1.1l0,0c0.1,0.2,0.3,0.4,0.5,0.6
	c0.4,0.5,0.7,0.9,0.6,1.3s-0.4,0.5-0.8,0.8H11.6z M7.3,98.4h4.2c0.1,0,0.2-0.1,0.3-0.2c0-0.1-0.3-0.4-0.5-0.6s-0.4-0.5-0.5-0.7
	l-0.2-0.4l0.2-0.4l0.3-0.6h-0.2l-0.1-0.7c0,0,0-0.2-0.1-0.5s0-0.5-0.1-0.8c0-0.3,0-0.5,0-0.8v-0.3l0.2-0.2c0.5-0.4,0.6-0.7,0.6-0.9
	S11.2,91.1,11,91l-0.5-0.2l-0.5-9.4c-0.1-1.2-0.4-1.8-0.7-1.8c-0.1,0-0.5,0.4-0.6,1.8l-0.5,9.4L7.6,91c-0.2,0.1-0.5,0.2-0.5,0.4
	s0.1,0.5,0.6,0.9l0.2,0.2L8,92.7c0,0.3,0,0.5,0,0.8c0,0.3,0,0.6-0.1,0.8s0,0.4-0.1,0.5l-0.1,0.7H7.5l0.3,0.6L8,96.5l-0.2,0.4
	c-0.1,0.2-0.3,0.4-0.5,0.7c-0.2,0.2-0.3,0.4-0.5,0.7C7,98.3,7.1,98.3,7.3,98.4z"/>
<path class="st0" d="M73.6,91.9c-0.3,0-0.6-0.3-0.8-0.8c-0.1-0.2-0.1-0.5-0.1-0.7c0-0.2,0-0.5,0.1-0.7c0.2-0.5,0.4-0.8,0.8-0.8
	s0.6,0.3,0.8,0.8c0.1,0.2,0.1,0.5,0.1,0.7c0,0.2,0,0.5-0.1,0.7C74.2,91.6,73.9,91.9,73.6,91.9z M73.6,89.8L73.6,89.8
	c0,0.2-0.1,0.4-0.1,0.5c0,0.2,0,0.3,0.1,0.5v0v0C73.7,90.5,73.7,90.2,73.6,89.8L73.6,89.8L73.6,89.8z"/>
<path class="st0" d="M63,91.9c-0.3,0-0.6-0.3-0.8-0.8c-0.1-0.2-0.1-0.5-0.1-0.7c0-0.2,0-0.5,0.1-0.7c0.2-0.5,0.4-0.8,0.8-0.8
	s0.6,0.3,0.8,0.8c0.1,0.2,0.1,0.5,0.1,0.7c0,0.2,0,0.5-0.1,0.7C63.6,91.6,63.3,91.9,63,91.9z M63,89.8L63,89.8
	c0,0.2-0.1,0.4-0.1,0.5c0,0.2,0,0.3,0.1,0.5v0v0C63.1,90.5,63.1,90.2,63,89.8L63,89.8z"/>
<path class="st0" d="M14.7,91.9c-0.3,0-0.6-0.3-0.8-0.8c-0.1-0.2-0.1-0.5-0.1-0.7c0-0.2,0-0.5,0.1-0.7c0.1-0.5,0.4-0.8,0.8-0.8
	s0.6,0.3,0.8,0.8c0.1,0.2,0.1,0.5,0.1,0.7c0,0.2,0,0.5-0.1,0.7C15.3,91.6,15,91.9,14.7,91.9z M14.7,89.8L14.7,89.8
	c-0.1,0.4-0.1,0.7,0,1v0v0c0-0.2,0.1-0.3,0.1-0.5C14.7,90.2,14.7,90,14.7,89.8L14.7,89.8z"/>
<path class="st0" d="M4.1,91.9c-0.3,0-0.6-0.3-0.8-0.8c-0.1-0.2-0.1-0.5-0.1-0.7c0-0.2,0-0.5,0.1-0.7c0.1-0.5,0.4-0.8,0.8-0.8
	s0.6,0.3,0.8,0.8C4.9,89.9,5,90.1,5,90.3c0,0.2,0,0.5-0.1,0.7C4.7,91.6,4.4,91.9,4.1,91.9z M4.1,89.8L4.1,89.8C4,90,4,90.2,4,90.3
	c0,0.2,0,0.3,0.1,0.5c0,0,0,0,0,0c0,0,0,0,0,0c0-0.2,0.1-0.3,0.1-0.5C4.2,90.2,4.1,90,4.1,89.8L4.1,89.8z"/>
</svg>
