<svg id="Pantalla_1" data-name="Pantalla 1" xmlns="http://www.w3.org/2000/svg" viewBox="0 0 90.8 68.45"><defs><style>.cls-1{fill:#fff;}.cls-2{fill:#737a7d;}.cls-3{fill:none;}.cls-4{fill:#008acb;}</style></defs><title>LOGO_ESSILOR</title><rect class="cls-1" width="90.8" height="68.45"/><path class="cls-2" d="M1442.76,162.58c-2.72,0-4.62-1.57-4.62-3.82s1.9-3.83,4.62-3.83a5.61,5.61,0,0,1,2.31.46l.18.08-3.52,2.21a1.28,1.28,0,0,0-.6.83,1.29,1.29,0,0,0,.19,1,1.41,1.41,0,0,0,1.9.39l6.49-4a8.2,8.2,0,0,0-7-3.33c-4.4,0-7.84,2.74-7.84,6.24s3.44,6.23,7.84,6.23,7.74-2.67,7.83-6.09h-3.22c-.08,2.17-2,3.68-4.61,3.68" transform="translate(-1431.64 -100.08)"/><rect class="cls-3" x="3.28" y="52.45" width="15.67" height="12.47"/><path class="cls-2" d="M1464.38,157.45h-3a.7.7,0,0,0-.41-.66,10.4,10.4,0,0,0-5.57,0,.7.7,0,0,0-.41.66.75.75,0,0,0,.57.76,13.51,13.51,0,0,0,2.74.29,16.18,16.18,0,0,1,3.92.51c1.45.49,2.17,1.32,2.17,2.51q0,3-6.21,3t-6.21-3h3a.7.7,0,0,0,.41.67,10.4,10.4,0,0,0,5.57,0,.71.71,0,0,0,.41-.68.74.74,0,0,0-.53-.74,12.37,12.37,0,0,0-2.75-.3,16.2,16.2,0,0,1-3.92-.52c-1.47-.46-2.21-1.3-2.21-2.51q0-3,6.21-3t6.21,3" transform="translate(-1431.64 -100.08)"/><path class="cls-2" d="M1478.59,157.45h-3a.68.68,0,0,0-.41-.66,6.71,6.71,0,0,0-2.78-.38,6.8,6.8,0,0,0-2.79.38.7.7,0,0,0-.41.66.75.75,0,0,0,.57.76,13.54,13.54,0,0,0,2.75.29,16.08,16.08,0,0,1,3.91.51c1.45.49,2.18,1.32,2.18,2.51q0,3-6.21,3t-6.21-3h3a.7.7,0,0,0,.41.67,6.8,6.8,0,0,0,2.79.38,6.71,6.71,0,0,0,2.78-.38.69.69,0,0,0,.41-.68.74.74,0,0,0-.52-.74,12.58,12.58,0,0,0-2.76-.3,16.28,16.28,0,0,1-3.92-.52c-1.47-.46-2.2-1.3-2.2-2.51q0-3,6.21-3t6.21,3" transform="translate(-1431.64 -100.08)"/><path class="cls-2" d="M1483.59,152.43h-3v-2h3Zm-3,2h3v10.11h-3Z" transform="translate(-1431.64 -100.08)"/><path class="cls-2" d="M1493.74,164.54c-7.73.41-7.72-.51-7.72-3.66V150.45h3v10.43c0,.52-.16,1.4.36,1.69.74.42,2.46.21,4.34.21Z" transform="translate(-1431.64 -100.08)"/><path class="cls-2" d="M1509,160q0,5.16-7.17,5.16t-7.19-5.16q0-5.17,7.19-5.17T1509,160m-3,0a2.93,2.93,0,0,0-.79-2.27,6.87,6.87,0,0,0-6.73,0,3.67,3.67,0,0,0,0,4.55,7,7,0,0,0,6.73,0A2.94,2.94,0,0,0,1506,160" transform="translate(-1431.64 -100.08)"/><path class="cls-2" d="M1518.45,156.41a10.39,10.39,0,0,0-3.89.51,1.25,1.25,0,0,0-.78,1.18v6.44h-3V158.1c0-2.44,2.56-3.67,7.68-3.67Z" transform="translate(-1431.64 -100.08)"/><rect class="cls-4" x="3.98" y="3.98" width="82.84" height="41.91"/><path class="cls-1" d="M1477.91,109.17a27.93,27.93,0,0,0-26,17.61l-.06.18s7.67,14.14,24.47,13.89c19.94-.29,26-17.67,26-17.67a28.87,28.87,0,0,0-24.35-14m-5,29.73c-14.56-3.14-18.33-17-18.33-17l.08-.13a24.8,24.8,0,0,1,26.05-10.16,25.56,25.56,0,0,1,18.22,17.09s-8.73,13.95-26,10.21" transform="translate(-1431.64 -100.08)"/><path class="cls-1" d="M1477,131.37c-4.22,0-7.17-2.44-7.17-5.93s3-5.94,7.17-5.94a9,9,0,0,1,3.6.71l.17.08-5.43,3.38a2.14,2.14,0,0,0-1,1.37,2,2,0,0,0,.3,1.6,2.28,2.28,0,0,0,3.09.64L1488,120.9c-2.09-3.28-6.3-5.32-11-5.32-6.94,0-12.38,4.33-12.38,9.86s5.44,9.86,12.38,9.86,12.28-4.26,12.37-9.72h-5.2c-.08,3.42-3,5.79-7.17,5.79" transform="translate(-1431.64 -100.08)"/></svg>