<svg id="Capa_8" data-name="Capa 8" xmlns="http://www.w3.org/2000/svg" viewBox="0 0 155.45 75.62"><defs><style>.cls-1{fill:#d55019;}.cls-2{fill:#d55019;}</style></defs><title>CUBA</title><path class="cls-1" d="M5575.07,879.73a5.68,5.68,0,0,1,5.83-5.82,5.6,5.6,0,0,1,4.8,2.59l-2.21,1.28a2.89,2.89,0,0,0-2.59-1.38,3.33,3.33,0,0,0,0,6.66,2.87,2.87,0,0,0,2.59-1.37l2.21,1.28a5.55,5.55,0,0,1-4.8,2.59A5.68,5.68,0,0,1,5575.07,879.73Z" transform="translate(-5529.27 -809.94)"/><path class="cls-1" d="M5587.22,881.72v-7.59h2.56v7.37c0,.84.4,1.56,1.76,1.56s1.76-.72,1.76-1.56v-7.37h2.56v7.59c0,2.4-1.86,3.84-4.32,3.84S5587.22,884.12,5587.22,881.72Z" transform="translate(-5529.27 -809.94)"/><path class="cls-1" d="M5606.42,882.06a3.36,3.36,0,0,1-3.62,3.28h-4.7V874.13h4.38a3.28,3.28,0,0,1,3.54,3.2,2.82,2.82,0,0,1-1,2.2A2.87,2.87,0,0,1,5606.42,882.06Zm-5.76-5.53v2h1.82a1,1,0,0,0,0-2Zm3.2,5.33a1,1,0,0,0-1.06-1.07h-2.14v2.15h2.14A1,1,0,0,0,5603.86,881.86Z" transform="translate(-5529.27 -809.94)"/><path class="cls-1" d="M5614.66,883.58h-4.16l-.56,1.76h-2.8l3.81-11.21h3.26l3.81,11.21h-2.8Zm-.77-2.41-1.31-4.11-1.31,4.11Z" transform="translate(-5529.27 -809.94)"/><path class="cls-2" d="M5557.15,840.26a6.81,6.81,0,1,0,6.82,6.81A6.82,6.82,0,0,0,5557.15,840.26Zm0,13a6.14,6.14,0,1,1,6.15-6.14A6.16,6.16,0,0,1,5557.15,853.21Z" transform="translate(-5529.27 -809.94)"/><path class="cls-2" d="M5557,841.36a5.78,5.78,0,1,0,6,5.78A5.9,5.9,0,0,0,5557,841.36Zm0,10.88a5.11,5.11,0,1,1,5.32-5.1A5.23,5.23,0,0,1,5557,852.24Z" transform="translate(-5529.27 -809.94)"/><path class="cls-2" d="M5677.36,841a29.54,29.54,0,0,0,.24-3.2.6.6,0,0,0-.22-.46,1.25,1.25,0,0,0-.63-.26c-.13-2.3-.37-4.57-.47-5.38.78-1.47,2.64-5.3,1.89-7a19.93,19.93,0,0,0,2.77-6.55,1,1,0,0,0-.28-.89c-.58-.59-2.1-2.16-28.66,1.48-.41-.66-1.83-2.09-6.75-5.54-7.52-5.28-53.86-2.55-55.83-2.44l-.75,0,.33.68s.12.23.3.63c-4.49,3.77-8.14,10.65-8.9,12.14l-45.66.14h-.14l-.12.07c-1.48.88-3.78,3.62-1.88,7.65a3.6,3.6,0,0,0,.58.89l0,0c-.08.15-1.74,3.5-.72,6.33a12.9,12.9,0,0,1,.75,3.6c-1.43-.07-2.55-.1-2.89-.11H5530l-.07.26a29.75,29.75,0,0,0-.69,5.87,1.79,1.79,0,0,0,.7,1.43c1,.87,3.17,1.16,5.45,1.16A38.93,38.93,0,0,0,5542,851c2-.36,2.67-1.46,2.84-2.31a4,4,0,0,0-.14-1.94l0-.11a22,22,0,0,1,2.89-6,13.45,13.45,0,0,0-1.81,6.51,11.46,11.46,0,0,0,22.91,0v-.08a16,16,0,0,0-.81-2.58,23.21,23.21,0,0,1,4,5l.14.26,60.78.28h.59l-.09-.59a8.55,8.55,0,0,1,.28-3.47,11.32,11.32,0,0,0-.15,1.84,11.45,11.45,0,1,0,22.69-2.18c.74.32,1.49.67,2.28,1a1.43,1.43,0,0,1,.85.84,1.62,1.62,0,0,1-.23,1.18l-.7,1.08,1.25-.31s2.61-.64,5.71-1.54a1.41,1.41,0,0,0,.9.42c.53,0,1.29.08,2.22.08,4,0,11-.52,14.91-2,1-.36,1.42-.83,1.39-1.4C5684.63,843.23,5679.07,841.5,5677.36,841Zm-32.69-27a41.42,41.42,0,0,1,6.18,4.88l-.22,0-.79.11a15.47,15.47,0,0,0-9.93-5.93h0s-2.32-.11-5.64-.24l-.65,0,1.85,8.36-.69.11-1.72-7.81v-.07l-.35-.62-.28,0c-7.14-.28-16.33-.59-19.6-.51a.94.94,0,0,0-.69.34c-.62.76-.32,2.81-.21,3.42l2.05,8.09h-1.6l-.14-.59c-2.51-10.81-2.67-10.85-3.15-11s-3.19-.12-6.26-.12c-3.53,0-7.37,0-8,.11a1.59,1.59,0,0,0-1.13.6,3,3,0,0,0-.42,2l2,8.81-3.11.06v-.35h0c1.65-2.6-.24-8.05-1.63-11.3h0l-.16-.36,0-.06-.12-.27C5596.33,811.37,5637.94,809.28,5644.67,814Zm4,5.19c-4.2.59-8.38,1.22-12.27,1.84l-1.58-7.15,5,.21A14.93,14.93,0,0,1,5648.7,819.19Zm-15,2.26c-7.38,1.18-13.38,2.21-15.83,2.64H5615l-2.1-8.27a5.72,5.72,0,0,1,0-2.56c3.24-.08,12.16.22,19.21.5Zm-22.44,2.67-15,.06-2.11-9.16a2,2,0,0,1,.23-1.26.58.58,0,0,1,.43-.22c1.25-.12,12.08-.14,13.74,0,.46,1.12,1.83,7,2.58,10.23Zm-21.7-10.59a.18.18,0,0,1,.32,0c.8,2,1.95,5.29,1.87,7.68h-.22a3.7,3.7,0,0,0-3.86,3l-6,0Zm-.84,10.61h0a2.66,2.66,0,0,1,2.4-1.87v1.1a2.34,2.34,0,0,1-1.84.74h-.55Zm-53.87,1.25c2.2,0,28.37-.08,53.32-.17h.54v-.11h.33l2.07,0v.13h.5l19.88-.09,0,.14,3.68-.08,0-.07,2.73,0h.09c2.44-.43,8.48-1.47,15.92-2.65h0l2.6-.42c4.06-.63,8.44-1.29,12.81-1.91h0l2.25-.33c8-1.1,14.46-1.83,19.18-2.17,7.91-.56,9,.14,9.13.33a19.12,19.12,0,0,1-2.78,6.44l-.2.3.23.29c.61.76-.53,3.8-1.65,6l-141.13,1.78a2.6,2.6,0,0,1-.9-1.08C5531.71,827.84,5534.3,825.79,5534.89,825.39Zm127,7.17h0ZM5544.13,848.5c-.19,1-1,1.55-2.3,1.79-4.47.81-9.83.93-11.43-.4a1.15,1.15,0,0,1-.46-.92,27.82,27.82,0,0,1,.62-5.44c.82,0,1.72.06,2.66.1v.17l.46,0c7.59.37,8.62.8,8.75.88a4.59,4.59,0,0,1,1.29,1.92l.45,1.16A2.88,2.88,0,0,1,5544.13,848.5Zm23.86-1.32a10.78,10.78,0,0,1-21.55,0c0-3.57,1.93-8.36,5.59-9.38h.47a23.39,23.39,0,0,1,13.88,5.42A11.89,11.89,0,0,1,5568,847.18Zm76.9,11.39a10.77,10.77,0,0,1-10.17-14.34,13.15,13.15,0,0,1,5.66-2.74,15.93,15.93,0,0,1,1.68,0,6.85,6.85,0,1,0,7.83,1.69c1.65.54,3.47,1.23,5.48,2.1a11.12,11.12,0,0,1,.3,2.51A10.79,10.79,0,0,1,5644.89,858.57Zm-1.11-16.87a33.13,33.13,0,0,1,4.57,1,6.16,6.16,0,1,1-4.57-1Zm20.84,5.36c-1.81.52-3.4.94-4.36,1.19a2.17,2.17,0,0,0,0-1,2.39,2.39,0,0,0-1.39-1.48c-11.67-5.52-19.68-6.74-23.8-3.63-2.8,2.1-2.88,5.52-2.79,6.88l-59.63-.27a26.26,26.26,0,0,0-6.52-7.06c-1.59-1.77-3.93-3-7.39-3.82a24.63,24.63,0,0,0-6.16-1.11c-2.23-.11-4.23,1.08-6,3.52a21,21,0,0,0-2.46,4.87,4.22,4.22,0,0,0-1.12-1.27c-.27-.18-1-.64-8.81-1a14.13,14.13,0,0,0-.8-3.82c-.72-2,.19-4.45.54-5.26h.21a4.18,4.18,0,0,0,3,.28l7-.08c7.28.25,32.2.42,60.6.42,16.75,0,32.49-.06,44.33-.16,5.76-.06,10.3.15,13.44-.19,1.52-.16,5.42-.72,5.42-.72s-3.9-.45-5.41-.73c-.1,0-.21,0-.31,0l13.17-.15c.1,1,.27,2.68.38,4.43A70.6,70.6,0,0,0,5666,838l-.3.06-.09.29C5665.4,839,5663.82,844.47,5664.62,847.06Zm18.46-1.3c-4.58,1.75-13.93,2.19-16.83,1.91a.86.86,0,0,1-.23-.06l-.28-.48c-.89-1.49.16-6.16.74-8.19,1.42-.25,7.41-1.28,9.74-1.07l.58,0v-.14a.37.37,0,0,1,.14.07,32.78,32.78,0,0,1-.27,3.36l0,.29.28.08c2.94.81,7.09,2.42,7.14,3.44C5684.05,845.26,5683.7,845.53,5683.08,845.76Z" transform="translate(-5529.27 -809.94)"/><path class="cls-2" d="M5644.69,853.59a5.78,5.78,0,1,0-6-5.78A5.89,5.89,0,0,0,5644.69,853.59Zm0-10.89a5.11,5.11,0,1,1-5.33,5.11A5.22,5.22,0,0,1,5644.69,842.7Z" transform="translate(-5529.27 -809.94)"/></svg>