<svg id="Capa_8" data-name="Capa 8" xmlns="http://www.w3.org/2000/svg" viewBox="0 0 160.32 76.56"><defs><style>.cls-1{fill:#0047ba;}</style></defs><title>CURAZAO</title><path class="cls-1" d="M5385.45,879.73a5.68,5.68,0,0,1,5.82-5.82,5.61,5.61,0,0,1,4.81,2.59l-2.21,1.28a2.92,2.92,0,0,0-2.6-1.38,3.33,3.33,0,0,0,0,6.66,2.89,2.89,0,0,0,2.6-1.37l2.21,1.28a5.57,5.57,0,0,1-4.81,2.59A5.68,5.68,0,0,1,5385.45,879.73Z" transform="translate(-5345.78 -809)"/><path class="cls-1" d="M5397.59,881.72v-7.59h2.56v7.37c0,.84.4,1.56,1.76,1.56s1.76-.72,1.76-1.56v-7.37h2.57v7.59c0,2.4-1.86,3.84-4.33,3.84S5397.59,884.12,5397.59,881.72Z" transform="translate(-5345.78 -809)"/><path class="cls-1" d="M5412.25,881.65H5411v3.69h-2.56V874.13H5413a3.83,3.83,0,0,1,3.84,3.84,3.68,3.68,0,0,1-2.06,3.25l2.38,4.12h-2.75Zm-1.22-2.24H5413a1.45,1.45,0,0,0,0-2.88H5411Z" transform="translate(-5345.78 -809)"/><path class="cls-1" d="M5425.27,883.58h-4.16l-.56,1.76h-2.8l3.81-11.21h3.27l3.81,11.21h-2.81Zm-.76-2.41-1.32-4.11-1.31,4.11Z" transform="translate(-5345.78 -809)"/><path class="cls-1" d="M5437.27,882.87v2.47h-7.68v-2l4.29-6.75h-4.21v-2.47h7.52v2l-4.29,6.75Z" transform="translate(-5345.78 -809)"/><path class="cls-1" d="M5445.67,883.58h-4.16l-.56,1.76h-2.8l3.81-11.21h3.27l3.81,11.21h-2.81Zm-.76-2.41-1.32-4.11-1.31,4.11Z" transform="translate(-5345.78 -809)"/><path class="cls-1" d="M5449.51,879.73a5.83,5.83,0,1,1,5.83,5.83A5.78,5.78,0,0,1,5449.51,879.73Zm9.09,0a3.27,3.27,0,1,0-3.26,3.33A3.19,3.19,0,0,0,5458.6,879.73Z" transform="translate(-5345.78 -809)"/><path class="cls-1" d="M5505.9,818.29a.65.65,0,0,0-.52-.15c-.35.06-35.38,6.12-84.58,9.74V817h3a.6.6,0,0,0,.61-.6v-3.89a.61.61,0,0,0-.61-.6h-3a3.81,3.81,0,0,0-3.92-2.93h0l-34.58,0a3.82,3.82,0,0,0-3.93,2.94h-2a.6.6,0,0,0-.61.6v3.88a.6.6,0,0,0,.6.61h2v12.17c-20.35-.34-31.6-2.1-31.77-2.12a.58.58,0,0,0-.52.16.63.63,0,0,0-.18.52c0,.06.21,1.44.68,3.42h0c.06.26.12.53.19.8l.09.32h0l.18.64h0l0,.13v0l.22.77h0s0,0,0,0h0c.08.27.17.55.27.85h0v0h0a30.28,30.28,0,0,0,1.54,3.87.58.58,0,0,1,0-.61.55.55,0,0,1,.25-.2.63.63,0,0,1,.31-.05l.33,0a29.11,29.11,0,0,1-1.34-3.44h0l-.26-.83h0l0-.1h0l-.47-1.68h0l1.13.14.12,0,1.21.14h.06l1.37.15.37,0,1.16.11.46,0,1.61.14.5.05,1.3.1.75.06,1.35.1.67,0,2,.13.9.05,1.39.08,1,.05,2.23.11.93,0,1.67.07,1.15,0,1.79,0,1,0,2.63.06,1.24,0,1.89,0h9l2.23,0,1.23,0,3.39-.07,1.24,0,2.55-.08,1.39-.05,3-.12.86,0,3.93-.19,1.23-.07,2.31-.13.76-.05,1.3-.08c1.42-.09,2.85-.18,4.3-.29l2.37-.17.87-.06h0a5.89,5.89,0,0,0-.71.48,6.43,6.43,0,0,0-2.42,5.33l-1.5.11-3.11.21-1.48.09-1.49.1h-.09l-1.32.08-1.67.09-1.44.08-.79,0-.49,0H5405l-1.62.07-1.25.06-1.58.06h-.13l-.71,0h-.37l-1.59,0-1.14,0-1.3,0-.82,0-.54,0-1.67,0-.93,0-.93,0h-1.62l-1.65,0h-7.81l-1.68,0h-.72l-.85,0H5375l-1.72,0h-.38l-.77,0-.88,0h-.32l-1.67-.06-.83,0-1.06,0h-.25l-1.21,0-.9,0-1.27-.06h-.15l-.88,0-.79,0h0l-1.48-.09h-.11l-.6,0-.86,0h-.05l-1.44-.1h0l-.42,0-.83-.06h-.16l-1.23-.1h-.11l-.23,0-.83-.07-.13,0h0l-1.09-.1H5352l-.78-.08H5351l-.91-.1h-.1l-.33,0a.65.65,0,0,0-.31.05.59.59,0,0,0-.3.81h0c.24.5.5,1,.76,1.41l.23.39a.1.1,0,0,0,0,0,.05.05,0,0,0,0,0,14.69,14.69,0,0,0,.84,1.23h0c.12.16.24.32.37.47h0l.1.11a2.2,2.2,0,0,0,.2.23h0c.2.21.41.4.63.61a.82.82,0,0,0,.2.12.67.67,0,0,1-.12-.06,7.8,7.8,0,0,0,1.32,1c6.33,3.57,22.4,5.37,47.92,5.37q11.74,0,26.14-.5c30.39-1.08,58.73-3.55,59-3.57a.79.79,0,0,0,.22-.06,17.81,17.81,0,0,0,2.78-2l0,0c.41-.34.87-.75,1.35-1.2h0l.4-.39h0l0,0,.42-.42.61-.62.43-.47h0l.65-.71.2-.23h0c.52-.6,1.07-1.26,1.63-2v0l.12-.15c.34-.43.68-.88,1-1.35h0l.16-.21c.35-.48.7-1,1.06-1.5h0l.13-.2c.37-.55.75-1.12,1.13-1.72h0l.15-.25.15-.23h0c.44-.7.85-1.36,1.23-2a.67.67,0,0,0,.09-.14h0a.67.67,0,0,1-.09.14l.1-.15.06-.11c.52-.85,1-1.67,1.45-2.45l.12-.22c.23-.41.43-.78.64-1.17h0l.59-1.06h0l.16-.3a0,0,0,0,0,0,0h0l.24-.47h0l0,0,.23-.45h0v0l.17-.33h0l.36-.74h0a13.42,13.42,0,0,0,1.29-3.52A.61.61,0,0,0,5505.9,818.29Zm-85.71-5.15h3v2.67H5407.1v-2.67h13.1Zm-.6,14.83-.75.06q-6.1.44-11.74.7V817h12.48Zm-37.36-17.74,34.58,0h0a2.69,2.69,0,0,1,2.69,1.72H5407a.67.67,0,0,0-.09-.14.63.63,0,0,0-.43-.17h-1a.59.59,0,0,0-.51.31h-11.52a.57.57,0,0,0-.52-.31h-1a.63.63,0,0,0-.43.17.67.67,0,0,0-.09.14h-11.91A2.68,2.68,0,0,1,5382.23,810.23Zm22.67,6.8v11.8c-4,.17-7.75.29-11.34.36V817Zm-11.34-1.2v-2.67h11.34v2.67Zm-2.18,13.4q-6.39.09-11.92,0V817.05h11.91Zm-13.13-13.39h-1.37v-2.67h14.5v2.67h-13.12Zm41.5,22.08a5.19,5.19,0,0,1,2-4.29l0,0,.92,1a3.93,3.93,0,0,0-1.54,3.18,4,4,0,0,0,.05.6,4,4,0,0,0,.16.59h0a1.47,1.47,0,0,0,.1.22l-.53.47h0l-.55.49,0,.12,0,0v-.16a3.43,3.43,0,0,1-.19-.44h0a3.94,3.94,0,0,1-.22-.63h0a4.34,4.34,0,0,1-.14-.6c0-.2,0-.4-.05-.6Zm3.66-2.34.24-.15a2.75,2.75,0,0,1,.85-.32,2.63,2.63,0,0,1,.49,0,2.66,2.66,0,0,1,2,.88,2.53,2.53,0,0,1,.34.45,2.14,2.14,0,0,1,.23.54,2.38,2.38,0,0,1,.06.37h-.08l-2.36.19-.58,0h0l-2.25.17A2.71,2.71,0,0,1,5423.41,835.58Zm-.45-2.68a5.3,5.3,0,0,1,5.94,1.32l-1,.92h0a3.92,3.92,0,0,0-3.59-1.21,2.07,2.07,0,0,0-.33.1Zm4.26,6.31-2.15.17-1.33.1-.72.06a2.19,2.19,0,0,1-.34-.46c0-.05-.05-.11-.08-.16h0l1.64-.13.32,0,1.49-.12.7-.06.79-.06a2.63,2.63,0,0,1-.32.68C5427.46,839.19,5427.24,839.21,5427.22,839.21Zm-2.22,2.41a3.71,3.71,0,0,0,.81-.08l.31-.09,1,1.1a5.3,5.3,0,0,1-6-1.22l.54-.48.5-.44v0a3.54,3.54,0,0,0,.42.35A3.87,3.87,0,0,0,5425,841.62Zm-1.25-1.53,2.87-.23h0a2,2,0,0,1-.28.19,2.63,2.63,0,0,1-.78.3A2.67,2.67,0,0,1,5423.75,840.09Zm-72.45-.39-.37,0h0c-.11-.17-.21-.35-.31-.53h.08l1.89.19.25,0,.3,0,2,.17.47,0,2.16.16.65,0,2.61.17.46,0,2.54.14.64,0,.49,0,2.58.12.63,0,3.1.1.41,0,3.6.08h.76c2.45.05,5,.06,7.75.06h1.48l3.08,0,1.39,0,4.31-.08h.33c1.58,0,3.21-.1,4.87-.16l1.33,0,3.77-.16,1.67-.08,3.82-.21,1.59-.09c1.81-.11,3.65-.23,5.53-.37l1.58-.11c.05.21.09.43.16.64h0l-1,.07-2.38.16h.08l-.8,0,.72,0-.72,0h0l-1.34.09-.62,0-1.07.06h0l-1.8.11-.64,0-.52,0h0l-1.91.1-1,0-2.05.09-.79,0-2.23.09-.55,0-2.16.07-.56,0-2.15.06h-.51l-2.2,0h-.38l-2.15,0h-.38l-2.14,0h-2.73c-.66,0-1.3,0-1.94,0h-2.68l-1.79,0H5378l-1.71,0h-.44l-1.61,0h-.47l-1.49,0h-.52l-1.4,0h-.55l-1.29-.05h-.6l-1.23-.06-.39,0h-.18l-1.17-.06-.57,0-1.09-.06-.59,0-1-.06-.45,0h-.15l-.92-.06-.47,0h-.15l-.85-.06-.62-.05-.78-.06-.62,0-.73-.06-.6,0-.68-.05-.58-.06-.62-.05-.57-.06-.57-.05-.54-.06Zm135.17,4.7c-4.05.34-99.37,8.42-127.39.7l.39.07c.45.09.93.17,1.41.25l1,.17,1.62.23,1,.15,2,.24.84.1c1,.11,2,.21,3,.3l1.07.09,2.22.18,1.45.09,2.05.13,1.64.09,2.06.1,1.8.08,2.12.08,1.92.06,2.21,0,2,0,2.29,0,2.15,0h9.88l4,0h1l4.17-.08,1.47,0,4.46-.11,1.73,0,3.73-.11,1.14,0h0l2.53-.09,1.21,0,1.32-.05,1.37,0,1.13,0,1.42-.05,1.08,0,1.42-.06,1,0,1.48-.07.95,0,1.49-.07.89,0,1.56-.07.74,0,1.62-.08.72,0,1.63-.08.52,0,1.8-.09h.08l6.09-.34h.29l1.39-.08.75,0,1.21-.07.89,0,1.15-.07.91-.06.94-.06,1.15-.07.72-.05,1.3-.08.54,0,1.39-.09.45,0,1.64-.11h0l2.3-.16.41,0,1.76-.12.41,0,1.76-.12h.11l3.5-.26,3.16-.24C5486.91,844.14,5486.61,844.32,5486.47,844.4Zm5.23-4.37,0,0-.59.6-.84.81c-.37.35-.72.66-1.05.94l-.11.1h0l-.2,0-.57,0-3.83.3h0l-3.81.28-.4,0-1.25.09-.68,0-2,.13-.9.07-1.23.08-1,.07-1.19.07-2,.14-1.12.07-1.36.08-1.14.08-1.47.09-1.89.11-1.53.1-1.4.08-1.26.07-1.48.09-1.35.07-2.7.15-1.11.06-.91.05h0l2.11-.22.33,0,2.06-.23.62-.06,6.41-.72.23,0,2-.23.33,0,5.94-.72.2,0,1.77-.22.39,0,5.11-.65.33-.05,1.49-.19.42-.06,4.41-.6.22,0,1.31-.19.3,0,3.57-.51.38-.06.52-.07h0Zm-1.59-1.08,3-.44Zm3.74.51h0c.11-.12.21-.25.31-.37C5494.06,839.21,5494,839.34,5493.85,839.46Zm3.84-7.12-.7,1h0l-.05.07-.08.13c-.35.51-.7,1-1,1.46h0l-.16.22c-.33.46-.67.9-1,1.32l-.12.15a3,3,0,0,1-.21.26l0,0-.53.66-.4.47c-.1.11-.19.23-.29.33h0c-3.54.53-8.21,1.2-13.83,2l-.54.07-.19,0-1.6.21-.25,0-1.56.2-.58.08-1.32.16-.78.1-1.17.15-.91.11-1.12.14-1.11.13-.94.11-1.42.17-.71.09-1.47.17-.73.08-4.48.51h0c-9.32,1-19.85,2.08-31.3,3l-6.91.2H5420l-2.47.06-.94,0-2.61.05-.71,0-2.26,0-1,0-2.14,0h-1l-2.39,0H5395l-1.54,0-1.26,0-1.49,0-1.2,0-1.4,0-1.24,0-1.3,0-1.23,0-1.21-.05-1.27,0-1.09-.05-1.28-.06-1.08-.06-1.22-.07-1-.06-1.18-.08-1-.07-1.15-.08-.93-.08-1.12-.09-.91-.09-1.05-.1-.85-.09-1-.11-.77-.09-1-.12-.74-.1-1-.13-.7-.1-.92-.14-.68-.11-.85-.14-.68-.13-.76-.14-.67-.14-.69-.15-.63-.15-.64-.15-.6-.16-.58-.15-.57-.17-.52-.16c-.19-.05-.36-.12-.54-.18l-.41-.14h0c-.16-.14-.32-.29-.47-.45l-.26-.31h0l0,0-.27-.33,0,0h0l-.08-.1.31,0,1.53.14.14,0,.41,0,.16,0,2,.17h0l.44,0h.15l1.86.14.46,0h.05l.23,0,2.4.15h.08l.49,0,.25,0,2.33.12.22,0,.44,0h.17l2.8.13h.84l2.89.09h.68l3.31.08h.89l3.75,0h5.35l3.06,0,1.38,0,4.59-.09h.28l4.51-.14,1.6-.07,3.45-.15,1.84-.09,3.61-.19,1.71-.1,5.46-.36,1.47-.11a5.42,5.42,0,0,0,.83,1.12,6.5,6.5,0,0,0,7.55,1.44l.43-.23a8.42,8.42,0,0,0,.87-.6,6.5,6.5,0,0,0,1.91-2.64l.84-.07.21,0,.72-.06.5,0,1.89-.17.28,0,1-.09.24,0,1.8-.16.33,0,1-.09.19,0,1.66-.16.4,0,1.06-.11h.32l1.38-.13.44,0,.86-.09.32,0,1.5-.15.47,0,.66-.07.5-.05,1.41-.14.49,0,.62-.07.56-.06,1.28-.13.54-.06.57-.06.57-.06,1.23-.13.58-.07.58-.06.53-.06,1.1-.12.62-.07.72-.08.41,0,1-.12.63-.07.66-.07.5-.06.92-.11.63-.07.54-.07.58-.06.84-.1.65-.08.56-.07.58-.07.74-.09.62-.07.61-.08.58-.07.63-.08.63-.07.67-.09.5-.06.55-.07.63-.08.66-.08.52-.07.5-.06.61-.08.59-.08.57-.07.44-.06.54-.07.69-.09.54-.07.32-.05.41,0,.82-.11.56-.08.2,0h.05l.2,0,1-.13.74-.11,1.21-.16.65-.09,1.16-.17.6-.08,1.14-.16.54-.08,1.07-.16.5-.07,1.1-.16.36-.06,1.07-.16.31,0,1-.16.28,0,1-.14.13,0Zm1.34-2.14c-.15.26-.32.52-.48.79h0l-4.65.7h0l-.22,0-.19,0-1.08.15-.1,0-.16,0-.42.06-1,.15-.12,0h-.08l-.27,0-2,.28-.59.09L5485,833h0l-.36,0-1.57.22h-.14l-.57.08.44-.06-1.62.22,1.18-.16-1.18.16-.2,0-.17,0-1.23.16-.38,0-.18,0-.5.07-1.27.16-.17,0-.16,0-.74.09-1.57.2-.83.1h0l-1.31.16-.19,0,.11,0h.1l-.21,0-1,.11h0l-.76.09-.69.08-1.11.14h0l-.45.05-.92.11-1.26.15h0l-.35,0-.68.07-.25,0-1.43.17-1.21.14-1.61.18h0l-1,.12-1.83.2-.43,0-.19,0-.21,0-2.14.23-.62.07h0l-2.39.25-.7.07-2.4.24h-.06l-.32,0-.18,0-2.62.26h-.15l-3.08.3H5442q-4.85.47-10,.9h0l-.37,0-.3,0-1.26.1a5,5,0,0,1-.19.63,5.89,5.89,0,0,1-.29.63,5.25,5.25,0,0,1-1.29,1.58s0,0,0,0l-.92-1h0a4.47,4.47,0,0,0,.45-.42h0a3.19,3.19,0,0,0,.47-.64,3.78,3.78,0,0,0,.31-.64h0a3.93,3.93,0,0,0,.19-.67h0a3.69,3.69,0,0,0,0-1.21l-.24,0-.29,0,.48,0h.05a3.53,3.53,0,0,0-.13-.63c0-.08-.08-.16-.11-.24l1.09-1a5.44,5.44,0,0,1,.53,1.72c0,.2,0,.4,0,.61s0,.4,0,.61a5,5,0,0,1-.1.66l1.26-.1c0-.22.05-.44.07-.67h0l.31,0,1.56-.14,1.65-.14.29,0,1.57-.14.78-.07,1.09-.1,1.61-.15,1.73-.16,1.67-.16,1.62-.16,1.68-.16,1.54-.16,1.64-.16.23,0,1.32-.13,1.52-.16,1.53-.16,1.56-.17.71-.08.7-.08,1.59-.17,1.38-.16,1.52-.17.5-.06.81-.09,1.5-.17,1.23-.15,1.51-.18,1.18-.14,1.48-.18,1.11-.14,1.45-.18,1-.13,1.46-.18.94-.12,1.43-.19.69-.09.24,0,1.37-.18.83-.11h.07l1.3-.18.54-.07.24,0,1.38-.19.34-.05.31,0,1.34-.19.69-.1,1-.13.26,0,.61-.09c4.06-.58,7.42-1.09,10-1.5Zm3.88-6.57Zm.28-.75,0,0-.63,1.23c-.32.6-.68,1.25-1.05,1.92l-.3.53c-.42.73-.85,1.48-1.33,2.27h0l-2,.31-.43.06-.73.12-.92.14-.48.07-.32.05h0l-1.21.18-.31.05h-.05l-1.22.19-.29,0-.18,0-.69.1-.87.13-.21,0h0l-1.39.2-.24,0-.2,0H5488l-1.43.2-.25,0-.24,0-1.82.25-.25,0-.72.1-.74.1-.4.05-.32,0-1.93.26-.33,0-.34,0L5478,832l-.39,0-.37,0h-.07l-1.22.16-.62.08-.57.07h-.08l-1.32.17-.59.07-.53.07h0l-1.23.15-.76.09-.59.07-2.07.25-.64.08h-.07l-.24,0-1.8.21-.7.08-2.16.25-.71.08-2.39.27-.55.06-2.43.26-.62.07h0l-2.1.23-.31,0-.69.07-.49.05-1.61.17-.17,0-.93.09-2.33.24-.93.09h0l-.71.07-1.76.17-.84.08-1.47.14-.9.08-1.06.1h0l-2.24.21-.73.06-.49,0-1.31.11-1.31.11h0l-.89.07-.45,0a6.38,6.38,0,0,0-.72-2.32l-.09-.17a7.22,7.22,0,0,0-.79-1.09,6.6,6.6,0,0,0-2.41-1.66l.76-.06,2.69-.22,1.46-.12,2.52-.22,1.49-.13,2.43-.21,1.48-.14,2.31-.21,1.49-.15,2.27-.21,1.41-.14,2.22-.23,1.4-.14,2.17-.22,1.32-.14L5457,829l1.26-.14,2.14-.23,1.16-.13,2.12-.24,1.09-.13,2.1-.24,1-.12,2.11-.25.87-.11,2.12-.26.8-.1,2.22-.28.54-.07,2.41-.31.27,0,4-.53,5.71-.78h.08l2-.29.25,0,1.69-.24.38-.06,1.43-.21.4-.06,1.31-.2.32,0,1.26-.19.25,0,1.13-.17.3-.05,1-.16.16,0,1-.16h0l.91-.15h.08l.31,0Zm.64-1.36h0l-.23,0-.23,0-.53.09-.32,0-.6.1-.43.06-.59.1-.61.1-.59.09-.67.11-.73.11-.72.11-.74.12-.86.12-.76.12-.94.14-.87.13-1,.15-.85.12-1.18.17-.82.12-1.29.18-.91.13-1.32.18-1,.13-1.43.2-1,.13-1.47.2-1.11.14-1.52.2-1.11.14-1.62.21-1.16.15-1.66.2-1.23.16-1.74.21-1.24.15-1.83.21-1.25.15-1.91.22-1.34.15-1.94.22-1.35.15-2,.22-1.32.14-2.18.23-1.3.14-2.26.23-1.43.14-2.23.23L5445,829l-2.29.22-1.46.13-2.38.22-1.61.15-2.32.2-1.69.15-2.34.2-1.71.14-2.39.19-1.81.14-2.37.19-1.8.13-.6,0-.61,0-1.24.09-3.73.25-1.52.09-1.05.07-1.08.06-1.62.09-2,.1-.29,0-.61,0-.79,0h-.19l-.61,0-1,0-1.72.07-1.66.06-1.69.06h-.34l-1.26,0-1.63,0-1.57,0h-.54l-1.05,0-1,0h-2l-1.47,0h-7.09l-1.36,0h-1.3l-1.32,0-1.24,0-1.28,0-1.19,0-1.22,0-1.14,0-1.18,0-1.08-.05-1.13,0-1-.05-1.09,0-1,0-1.06-.06-.89-.06-1-.06-.82,0-1-.07-.76,0-.91-.07-.73,0-.82-.07-.72-.06-.72-.06-.69-.06-.65-.06-.66-.06-.54-.06-.66-.06-.41,0-.67-.07-.3,0-.68-.08h-.13l-.71-.08h0l-.81-.1-.38-.05h-.08c-.2-.86-.35-1.59-.44-2.1a271.68,271.68,0,0,0,31.15,2h1.2q5.53.07,11.92,0h.6l1,0h.6q5.4-.1,11.34-.36l.61,0,1,0,.61,0q5.67-.27,11.82-.7l.66,0,.61-.05.6,0c44.85-3.3,78-8.63,83.86-9.61C5504.5,820,5504.25,820.61,5503.83,821.52Z" transform="translate(-5345.78 -809)"/><path class="cls-1" d="M5483.84,834.34l-.19,0h0Z" transform="translate(-5345.78 -809)"/><path class="cls-1" d="M5373,837.22H5377a.59.59,0,0,0,.42-.17.6.6,0,0,0,.18-.43v-1.72a.6.6,0,0,0-.6-.61H5373a.61.61,0,0,0-.43.17.64.64,0,0,0-.18.43v1.72A.6.6,0,0,0,5373,837.22Zm3.33-1.73V836h-2.73v-.52Z" transform="translate(-5345.78 -809)"/><path class="cls-1" d="M5410.32,827.33h5.89a.6.6,0,0,0,.61-.6v-6.59a.6.6,0,0,0-.61-.6h-5.89a.6.6,0,0,0-.6.6v6.59A.6.6,0,0,0,5410.32,827.33Zm.61-6.58h4.68v5.38h-4.68Z" transform="translate(-5345.78 -809)"/><path class="cls-1" d="M5395.93,827.33h5.89a.6.6,0,0,0,.6-.6v-6.59a.6.6,0,0,0-.6-.6h-5.89a.6.6,0,0,0-.61.6v6.59A.6.6,0,0,0,5395.93,827.33Zm.6-6.58h4.68v5.38h-4.68Z" transform="translate(-5345.78 -809)"/><path class="cls-1" d="M5382.38,827.33h5.89a.6.6,0,0,0,.61-.6v-6.59a.6.6,0,0,0-.61-.6h-5.89a.6.6,0,0,0-.6.6v6.59A.6.6,0,0,0,5382.38,827.33Zm.61-6.58h4.68v5.38H5383Z" transform="translate(-5345.78 -809)"/></svg>