<svg id="Capa_8" data-name="Capa 8" xmlns="http://www.w3.org/2000/svg" viewBox="0 0 111.79 126.91"><defs><style>.cls-1{fill:#d55019;}</style></defs><title>MACHUPICCHU</title><polygon class="cls-1" points="38.71 107.49 38.71 96.28 36.15 96.28 33.11 101.26 30.07 96.28 27.51 96.28 27.51 107.49 30.07 107.49 30.07 100.97 32.97 105.73 33.25 105.73 36.15 100.97 36.15 107.49 38.71 107.49"/><path class="cls-1" d="M5244.43,883.58h4.17l.56,1.76h2.8l-3.81-11.21h-3.27l-3.81,11.21h2.8Zm2.08-6.52,1.32,4.12h-2.63Z" transform="translate(-5201 -777.85)"/><path class="cls-1" d="M5258.26,885.56a5.55,5.55,0,0,0,4.8-2.59l-2.21-1.28a2.87,2.87,0,0,1-2.59,1.37,3.33,3.33,0,0,1,0-6.65,2.88,2.88,0,0,1,2.59,1.37l2.21-1.28a5.6,5.6,0,0,0-4.8-2.59,5.83,5.83,0,1,0,0,11.65Z" transform="translate(-5201 -777.85)"/><polygon class="cls-1" points="63.65 96.28 63.65 107.49 66.21 107.49 66.21 103.04 69.73 103.04 69.73 107.49 72.3 107.49 72.3 96.28 69.73 96.28 69.73 100.57 66.21 100.57 66.21 96.28 63.65 96.28"/><path class="cls-1" d="M5275.54,874.13v7.59c0,2.4,1.85,3.84,4.32,3.84s4.32-1.44,4.32-3.84v-7.59h-2.56v7.37c0,.84-.4,1.56-1.76,1.56s-1.76-.72-1.76-1.56v-7.37Z" transform="translate(-5201 -777.85)"/><path class="cls-1" d="M5231.8,893.33h-4.24v11.21h2.56V901h1.68a3.85,3.85,0,1,0,0-7.69Zm0,5.28h-1.68v-2.88h1.68a1.44,1.44,0,0,1,0,2.88Z" transform="translate(-5201 -777.85)"/><rect class="cls-1" x="36.39" y="115.48" width="2.56" height="11.2"/><path class="cls-1" d="M5247.63,895.6a2.91,2.91,0,0,1,2.59,1.38l2.21-1.28a5.6,5.6,0,0,0-4.8-2.59,5.83,5.83,0,1,0,0,11.65,5.56,5.56,0,0,0,4.8-2.59l-2.21-1.28a2.88,2.88,0,0,1-2.59,1.37,3.33,3.33,0,0,1,0-6.66Z" transform="translate(-5201 -777.85)"/><path class="cls-1" d="M5259.21,895.6a2.89,2.89,0,0,1,2.59,1.38l2.21-1.28a5.59,5.59,0,0,0-4.8-2.59,5.83,5.83,0,1,0,0,11.65,5.55,5.55,0,0,0,4.8-2.59l-2.21-1.28a2.87,2.87,0,0,1-2.59,1.37,3.33,3.33,0,0,1,0-6.66Z" transform="translate(-5201 -777.85)"/><polygon class="cls-1" points="70.69 119.77 67.16 119.77 67.16 115.48 64.6 115.48 64.6 126.69 67.16 126.69 67.16 122.24 70.69 122.24 70.69 126.69 73.25 126.69 73.25 115.48 70.69 115.48 70.69 119.77"/><path class="cls-1" d="M5282.57,900.7c0,.84-.4,1.56-1.76,1.56s-1.76-.72-1.76-1.56v-7.37h-2.56v7.59c0,2.4,1.85,3.84,4.32,3.84s4.32-1.44,4.32-3.84v-7.59h-2.56Z" transform="translate(-5201 -777.85)"/><path class="cls-1" d="M5312.69,808.94a7.89,7.89,0,0,0-3.37-2.73l-.63-.34a15,15,0,0,1-2.33-1.71c-.35-.3-.72-.61-1.12-.92a6.62,6.62,0,0,0-3.07-1.2,8.46,8.46,0,0,1-1.77-.49,4.76,4.76,0,0,1-.84-.48,8,8,0,0,0-1.13-.62A11.58,11.58,0,0,0,5297,800a8.24,8.24,0,0,1-1.3-.41l-.43-.2A13.58,13.58,0,0,0,5291,798c-1.37-.19-2.77-.41-4.12-.62l-1.09-.17a2.32,2.32,0,0,1-1.39-.84,4.58,4.58,0,0,0-1.72-1.22,4.88,4.88,0,0,0-2-.25,1.94,1.94,0,0,1-1.5-.33,7.27,7.27,0,0,1-1.81-2.92,6.45,6.45,0,0,1-.21-.62,5.4,5.4,0,0,0-1-2,4.84,4.84,0,0,0-2.17-1.27,5.77,5.77,0,0,1-1.09-.48,6.3,6.3,0,0,1-1.78-2.29,15.48,15.48,0,0,0-1-1.61l-.33-.44c-1.42-1.9-3.35-4.51-5.83-5a4.78,4.78,0,0,0-4.19.82,9.61,9.61,0,0,0-1.94,2.15,11.47,11.47,0,0,1-1.06,1.32l-.46.44a14.11,14.11,0,0,0-3.32,4.09,11.91,11.91,0,0,1-1.11,2,12.77,12.77,0,0,0-1.32,2.39,21.64,21.64,0,0,0-.67,2.26,11.1,11.1,0,0,1-1.32,3.41c-.56.89-1.06,1.82-1.54,2.72a27.37,27.37,0,0,1-1.89,3.23c-.87,1.24-1.42,1.68-2.77,1.7a12.94,12.94,0,0,0-5.34,1.3,7,7,0,0,0-1.4.92,4.2,4.2,0,0,1-1.16.75l-.16,0-.19-.32-.34-.57-.44-.67c-1.34-2.07-2.85-4.41-5-5.73-3.24-1.94-6.69,3-7.82,4.67a30.77,30.77,0,0,0-3.59,7.88c-.31.93-.64,1.88-1,2.82a47.61,47.61,0,0,1-2.81,5c-.67,1.09-1.25,2-1.57,2.63-.53,1-1.89,1.84-3.93,3.1a70.7,70.7,0,0,0-6.2,4.18.92.92,0,0,0-.18,1.29.94.94,0,0,0,.73.36.9.9,0,0,0,.56-.19,69.56,69.56,0,0,1,6.05-4.08c2.3-1.42,3.82-2.36,4.58-3.79.3-.56.89-1.52,1.52-2.55a45.73,45.73,0,0,0,3-5.25c.37-1,.7-2,1-2.88a28.82,28.82,0,0,1,3.37-7.44c3.13-4.52,4.71-4.53,5.36-4.14,1.82,1.1,3.21,3.25,4.44,5.15l.45.69c.11.17.2.33.28.47a2.1,2.1,0,0,0,1.34,1.2l.59.48a15.05,15.05,0,0,1,2.56,2.4l.3.4a4.45,4.45,0,0,0,1.79,1.65,10.46,10.46,0,0,0-5.8,3.37l-4-2.29a.91.91,0,0,0-1,.07l-2.82,2.19a5.22,5.22,0,0,0-2.25,2,4.69,4.69,0,0,0-2.43,2.54.19.19,0,0,0,0,.07,4.2,4.2,0,0,0-2.32,1.57,2.34,2.34,0,0,0-.4,1.13,1.25,1.25,0,0,0-.47.09,3.67,3.67,0,0,0-1.7,1.62,3,3,0,0,0-.17,1.37,2.77,2.77,0,0,0,1.41,2l.3.21a2.63,2.63,0,0,0,.41.27l.2.12c0,.3,0,.87,0,1.29l-7.52-.57a1,1,0,0,0-.66.22l-2.84,2.45a.91.91,0,0,0-.28,1,.89.89,0,0,0,.78.63l12.37,1.29h.09a1,1,0,0,0,.34-.07s0,0,0,.07c0,.31-.54.91-2.62,2l-.16.08c-.47.26-.95.5-1.43.74a23.88,23.88,0,0,0-3.71,2.17,5.6,5.6,0,0,0-.84.77,2.49,2.49,0,0,1-.22.23,1.57,1.57,0,0,1-.28-.09,13.72,13.72,0,0,0-2.57-.71,10.27,10.27,0,0,0-3.46.06,10.24,10.24,0,0,1-2.37.13.92.92,0,0,0-1,.82.93.93,0,0,0,.82,1,12.29,12.29,0,0,0,2.79-.15,9.05,9.05,0,0,1,2.88-.07,11.87,11.87,0,0,1,2.23.61,2.72,2.72,0,0,0,1,.23,2,2,0,0,0,1.51-.82,4.08,4.08,0,0,1,.6-.55,22.45,22.45,0,0,1,3.44-2c.49-.24,1-.49,1.47-.76l.15-.08c1.17-.62,3.35-1.78,3.57-3.39a2,2,0,0,0-.58-1.7l1.09-1.42a6.36,6.36,0,0,0,2.38-.74,3.1,3.1,0,0,0,.62.07,4.72,4.72,0,0,0,2.23-.68,6.64,6.64,0,0,0,.78.59.88.88,0,0,0,.48.16c.38,0,.71-.3,1.15-.69l1.12-1c.56-.51,1.33-1.21,1.53-1.38h0l.16-.13s0,0,0,0l.09-.13,0,0s0,0,0,0l0,0a.09.09,0,0,0,0-.05l0-.08s0-.06,0-.09,0-.06,0-.09v-.09s0-.06,0-.08a.29.29,0,0,0,0-.09.19.19,0,0,0,0-.08l0-.09,0-.07a.56.56,0,0,0,0-.08l-.05-.07a.23.23,0,0,1-.07-.07l-.06-.05-.09-.06,0,0-.05,0a.05.05,0,0,0,0,0l-.05,0-.38-.17a3.87,3.87,0,0,1-2.29-2.65,4.53,4.53,0,0,1-.09-.86,3.25,3.25,0,0,0-.66-2.28,6.21,6.21,0,0,0-2.64-1.32,6,6,0,0,1-1.65-.68.71.71,0,0,1-.23-.21h0c0-.18.48-.72,1.55-1.28l.14-.09,2.4-1.87,4.61,2.64v2.58a1,1,0,0,0,.21.59l6,7.24a.92.92,0,0,0,1.29.12.91.91,0,0,0,.12-1.29l-5.77-7v-2.78a.9.9,0,0,0-.45-.78c.95-1.07,3.44-3,9.11-3a7.79,7.79,0,0,1,1.51.6,12.19,12.19,0,0,0,5.77,1h0a21.74,21.74,0,0,1,3,.14,5.18,5.18,0,0,1,1.33.44,7.73,7.73,0,0,0,1.54.51h.19a3.94,3.94,0,0,1,2,1.21,8.12,8.12,0,0,0,1.81,1.3,7.83,7.83,0,0,0,3.77.44c.53,0,1,0,1.49,0l1.2,0a11.91,11.91,0,0,1,3.82.47,5,5,0,0,1,1.71,1.39,8.11,8.11,0,0,0,1.49,1.35,7.89,7.89,0,0,0,2.26.93,5,5,0,0,1,2.1,1,3,3,0,0,1,.32.39,3.14,3.14,0,0,0,.95,1,5.1,5.1,0,0,0,2.92.46,8.66,8.66,0,0,1,1.14,0h.09a3.33,3.33,0,0,1,1.32.31,1.57,1.57,0,0,1,.06.45,2.27,2.27,0,0,0,.64,1.71,3,3,0,0,0,1.75.8v.11a2.17,2.17,0,0,1-.11.53,3.44,3.44,0,0,0-.19,1.36v.15a2,2,0,0,0,1.05,1.87l.26.19a6,6,0,0,1,1.61,1.74l.23.37a3.58,3.58,0,0,0,3,2.09,5.08,5.08,0,0,1,.84.19c.42.53-.81,2.47-1.34,3.31a12,12,0,0,0-.81,1.39l-.1.22c-.44,1-.86,1.94.19,3.14a2.38,2.38,0,0,0,.47.43l-1.77.69a36.34,36.34,0,0,0-4.16,1.81,19.92,19.92,0,0,1-4.91,1.84.92.92,0,0,0-.47.29l-1.83-2.1,7.52-2.67a.9.9,0,0,0,.61-.73.93.93,0,0,0-.38-.87l-9.53-6.85a.94.94,0,0,0-.4-.16l-4.84-.73-6.49-4.8-1.85-6.84a.86.86,0,0,0-.38-.53l-6.05-3.94a.91.91,0,1,0-1,1.53l4.73,3.09H5259l-3.92-2.88a.86.86,0,0,0-.54-.18h-1.44l-5.52-3.52a.93.93,0,0,0-.35-.13c-3.08-.48-3.62-1.09-3.69-1.2a2.34,2.34,0,0,1,1-.86.92.92,0,0,0-.86-1.62c-.37.2-2.19,1.25-1.93,2.78.23,1.33,1.78,2.15,5,2.68l5.58,3.56a.93.93,0,0,0,.49.14h1.41l3.91,2.88a.9.9,0,0,0,.54.18h4.53a.72.72,0,0,0,.29-.06l.24.89-3,.59-6.69-3.17a1,1,0,0,0-.52-.08l-5.14.74a.91.91,0,0,0-.74.64.9.9,0,0,0,.27.95L5259.47,840a.92.92,0,0,0,.69.23l3.85-.33,6.81,6.71-6.53.47a.92.92,0,0,0-.7.41.9.9,0,0,0-.1.8L5269,864a.9.9,0,0,0,.86.61.84.84,0,0,0,.31-.05.91.91,0,0,0,.56-1.16l-.5-1.44,11.14-1a.89.89,0,0,0,.76-.57.92.92,0,0,0-.14-.94l-7.08-8.36-1.11-4a1,1,0,0,0-.08-.18l0,0a.66.66,0,0,0-.12-.17s0,0,0,0l-8.55-8.43a.89.89,0,0,0-.72-.26l-3.89.33-9.7-8.57,2.89-.41,6.72,3.18a.94.94,0,0,0,.57.07l3.4-.68.82,3a.87.87,0,0,0,.34.5l6.93,5.13a.88.88,0,0,0,.41.17l4.85.73,7.93,5.69-7.14,2.53a.9.9,0,0,0-.58.63.91.91,0,0,0,.19.84l11.15,12.8h0l.27.32a.91.91,0,0,0,.7.31.93.93,0,0,0,.6-.22,1,1,0,0,0,.27-.43c.5-.12,1.12-.25,1.73-.37,2.89-.58,6.17-1.24,6.61-3.26a3,3,0,0,0-.46-2.2,2.87,2.87,0,0,1-.18-.34s.08-.09.18-.18a10.42,10.42,0,0,1,1.53-.92c1.67-.9,3.95-2.12,3.7-4.56a5.86,5.86,0,0,0-.77-2.06,2.06,2.06,0,0,1,.64-3.32c1.64-1.41,1.21-2.74.83-3.92a5.88,5.88,0,0,1-.34-3.21,8.67,8.67,0,0,0,.12-1c3.88,2.56,4.08,3.55,3.27,5.57a5.53,5.53,0,0,1-1.09,1.16,6,6,0,0,0-1.49,1.67,4.76,4.76,0,0,0,.2,4,5.29,5.29,0,0,1,.47,2.11,4,4,0,0,1-1.27,2.36l-.08.08a5,5,0,0,1-.57.55,2.64,2.64,0,0,0-1.25,2.52,2.13,2.13,0,0,0,.61,1,1.92,1.92,0,0,1,.26.32,2.07,2.07,0,0,1-.07.76,3.11,3.11,0,0,1-.73,1.22,7.7,7.7,0,0,0-.7.89.92.92,0,1,0,1.52,1c.19-.28.38-.5.56-.72a4.63,4.63,0,0,0,1.1-1.87,3.6,3.6,0,0,0,.11-1.67,2.45,2.45,0,0,0-.7-1.19l-.17-.19c0-.18.36-.48.67-.74a8.92,8.92,0,0,0,.77-.75l.07-.08a5.74,5.74,0,0,0,1.7-3.4,6.81,6.81,0,0,0-.58-2.87c-.4-1.11-.62-1.82-.27-2.54a5.51,5.51,0,0,1,1.06-1.11,5.5,5.5,0,0,0,1.57-1.84c1.55-3.88-.41-5.61-5.62-8.84a2.85,2.85,0,0,0-.33-.39c-1.25-1.24-3.57-1.55-7.08-.93l-.26-.13c-.95-.49-1.94-1-2.18-1.71l-.12-.35c-1.37-4.07-2.55-7.57-9.83-6.32-.31,0-.63,0-.93,0a3.81,3.81,0,0,1-1.92-.21,2.54,2.54,0,0,1-.39-.47,4,4,0,0,0-.57-.67,6.62,6.62,0,0,0-2.82-1.36,6.17,6.17,0,0,1-1.76-.7,6.71,6.71,0,0,1-1.15-1.07,6.79,6.79,0,0,0-2.36-1.83,12.79,12.79,0,0,0-4.48-.61l-1.14,0c-.55,0-1.12,0-1.67,0a4.35,4.35,0,0,1-4.29-1.29,5.61,5.61,0,0,0-3-1.66h-.12a5.47,5.47,0,0,1-1.11-.39,7.24,7.24,0,0,0-1.79-.55,23.14,23.14,0,0,0-3.32-.16h0a10.67,10.67,0,0,1-4.87-.77,9.41,9.41,0,0,0-2.06-.8h0c-.57-.16-1.14-.27-1.7-.38a16.27,16.27,0,0,1-2.45-.62,2.56,2.56,0,0,1-1.37-1.17l-.33-.45a14.65,14.65,0,0,0-2.43-2.36l.72-.53a5.63,5.63,0,0,1,1-.7,11.24,11.24,0,0,1,4.62-1.14,4.73,4.73,0,0,0,4.25-2.47,30.67,30.67,0,0,0,2-3.43c.46-.87.94-1.77,1.47-2.59a12.94,12.94,0,0,0,1.54-3.94,19.35,19.35,0,0,1,.62-2.07,10.57,10.57,0,0,1,1.13-2,12.83,12.83,0,0,0,1.28-2.31,13.71,13.71,0,0,1,2.89-3.44c.17-.16.33-.31.47-.46a12.08,12.08,0,0,0,1.26-1.53,8.18,8.18,0,0,1,1.52-1.74,3,3,0,0,1,2.8-.52c1.77.32,3.53,2.69,4.69,4.25l.34.46a14.27,14.27,0,0,1,.89,1.41,7.62,7.62,0,0,0,2.38,2.92,7.32,7.32,0,0,0,1.47.67,3.21,3.21,0,0,1,1.4.74,3.87,3.87,0,0,1,.6,1.34c.08.24.15.49.24.72A9,9,0,0,0,5278,796a3.63,3.63,0,0,0,2.74.77,3.45,3.45,0,0,1,1.3.13,3,3,0,0,1,1.07.8,4.06,4.06,0,0,0,2.4,1.36l1.1.17,4.14.63a11.48,11.48,0,0,1,3.84,1.25l.42.19a10.08,10.08,0,0,0,1.61.53,7.38,7.38,0,0,1,1.15.35,5.5,5.5,0,0,1,.84.47,8,8,0,0,0,1.1.61,10.25,10.25,0,0,0,2.15.61,5,5,0,0,1,2.29.85c.38.28.73.58,1.07.87a16.78,16.78,0,0,0,2.61,1.91l.66.36a6.39,6.39,0,0,1,2.63,2,.92.92,0,0,0,1.61-.88Zm-79.86,21.37h0l-.05,0Zm-.12.05h0l-.06,0Zm-.25,0h0Zm-.23,0h0Zm-12.67,4.56-9.75-1,.94-.81,8.93.68a6.18,6.18,0,0,0,.67.12Zm2.72-2.78h0l-2.3-.17-.09,0a6.81,6.81,0,0,0-.19-2.23,2.14,2.14,0,0,0-.94-.88l-.21-.13-.36-.27c-.32-.22-.64-.45-.65-.63a2.07,2.07,0,0,1,0-.47,2.56,2.56,0,0,1,.59-.6.87.87,0,0,0,.54-.15,7.31,7.31,0,0,0,2.25,1.71,9.4,9.4,0,0,1,1.23.79c.07.14.19.52.28.8a8.13,8.13,0,0,0,.9,2.07A6.13,6.13,0,0,1,5222.28,832.16Zm3.06-.76c-.6-.21-.94-1.28-1.19-2.07a3.4,3.4,0,0,0-.79-1.58,9.21,9.21,0,0,0-1.56-1,4.22,4.22,0,0,1-1.95-1.63s-.05-.12.08-.3a2.49,2.49,0,0,1,1.31-.83,5.48,5.48,0,0,0,.93.71l.19.13a13.33,13.33,0,0,0,1.59.88q.33.15.66.33l.38.18c.23.1.46.21.5.3a6.12,6.12,0,0,1,.26,1.55,6.56,6.56,0,0,0,.48,2.33,5.57,5.57,0,0,0,.43.8A1.89,1.89,0,0,1,5225.34,831.4Zm.8-8.31a4.76,4.76,0,0,1,1.88.86,3.75,3.75,0,0,1,.13,1.07,6,6,0,0,0,.15,1.29,5.46,5.46,0,0,0,2.53,3.37l-.67.61-1.05,1a4.83,4.83,0,0,1-1.21-1.64,5.21,5.21,0,0,1-.33-1.72,7.22,7.22,0,0,0-.37-2,2.38,2.38,0,0,0-1.45-1.33l-.29-.14-.71-.35a11.5,11.5,0,0,1-1.35-.74l-.23-.15a4,4,0,0,1-.66-.5,4.22,4.22,0,0,1,.84-1.07,2.61,2.61,0,0,0,.63.6A7.1,7.1,0,0,0,5226.14,823.09Zm47,28.64a.78.78,0,0,0,.18.35l6.07,7.17-9.85.92-1.23-3.53,5.65.34h.06a.92.92,0,0,0,.05-1.83l-6.41-.38-.83-2.37h4.74a.92.92,0,1,0,0-1.83h-5.38l-.62-1.8,6.61-.47ZM5302.33,837c.45.45.55,1.16.34,2.31a7.81,7.81,0,0,0,.4,4.11c.36,1.08.44,1.34-.27,2a5.17,5.17,0,0,0-1.86,3,4.76,4.76,0,0,0,.79,2.57,4.35,4.35,0,0,1,.57,1.38c.12,1.13-1,1.82-2.74,2.75a12.49,12.49,0,0,0-1.83,1.12,2,2,0,0,0-.44,2.84c.22.39.33.61.27.91-.19.85-3.69,1.55-5.18,1.85-.86.17-1.64.33-2.25.51l-2.93-3.37a32.68,32.68,0,0,0,4.45-.95,16,16,0,0,0,7.67-5.84,3.07,3.07,0,0,0,.32-3.5c-.1-.25-.2-.51-.29-.81a4.08,4.08,0,0,1,.57-2.68,7.56,7.56,0,0,1,.55-.9c.68-1,1.94-2.9,0-4.27a2.2,2.2,0,0,1-.94-1.61,5.39,5.39,0,0,0-.85-2.05C5301,836.12,5302,836.61,5302.33,837Zm-10.09-3.84.12.35c.49,1.42,1.87,2.13,3.09,2.76a5.48,5.48,0,0,1,1.7,1.12,3.58,3.58,0,0,1,.56,1.42,4,4,0,0,0,1.68,2.7c.35.24.49.34-.44,1.73a7.86,7.86,0,0,0-.7,1.17,5.81,5.81,0,0,0-.66,4,10.21,10.21,0,0,0,.36,1c.32.81.4,1-.13,1.75a14.22,14.22,0,0,1-6.81,5.18,34.92,34.92,0,0,1-5.26,1l-2.41-2.77a22,22,0,0,0,5-1.93,33.2,33.2,0,0,1,3.94-1.71,37.65,37.65,0,0,0,3.51-1.48.92.92,0,0,0,.18-1.51,4.4,4.4,0,0,0-.92-.57,2.78,2.78,0,0,1-.75-.47c-.28-.32-.28-.32.11-1.2l.1-.22a10,10,0,0,1,.68-1.15c1.09-1.73,2.59-4.09,1.05-5.62a3.28,3.28,0,0,0-1.76-.67,3.83,3.83,0,0,1-1-.25,3,3,0,0,1-.81-1c-.08-.15-.17-.29-.27-.44a7.67,7.67,0,0,0-2-2.18l-.27-.2-.27-.21a3,3,0,0,1,0-.36v-.15a1.84,1.84,0,0,1,.12-.68,4.2,4.2,0,0,0,.19-1c0-1.52-.79-1.83-1.56-1.94a1.19,1.19,0,0,1-.78-.32,1.34,1.34,0,0,1-.06-.46,3.63,3.63,0,0,0-.15-1C5290.53,828,5291.18,830,5292.24,833.13Z" transform="translate(-5201 -777.85)"/><path class="cls-1" d="M5267.91,826.57a.91.91,0,1,0-1.12,1.44l3.05,2.39a1,1,0,0,0,.56.19h.1l7.82-.86a.92.92,0,0,0,.45-1.65l-3.3-2.44a.92.92,0,1,0-1.09,1.47l1.42,1-5.13.56Z" transform="translate(-5201 -777.85)"/><path class="cls-1" d="M5270,832.2a.92.92,0,1,0-1.08,1.48l5.68,4.18a.91.91,0,0,0,.55.18h.07l11.91-.95a.91.91,0,0,0,.51-1.62l-5.31-4.37a1,1,0,0,0-.71-.2l-2.75.37a.92.92,0,0,0-.54.28l-2.19,2.29a.91.91,0,0,0,1.32,1.26l2-2.06,2-.27,3.26,2.68-9.32.74Z" transform="translate(-5201 -777.85)"/><path class="cls-1" d="M5228.4,854.23a1,1,0,0,0,.25,0,.93.93,0,0,0,.56-.45l6.6-12.37a.91.91,0,0,0-.38-1.24.92.92,0,0,0-1.24.37L5228,852l-9.16-5.38a.89.89,0,0,0-.42-.12l-.47,0c.55-.35,1.12-.69,1.71-1s.95-.55,1.42-.84c.77-.48,1.48-1,2.17-1.54.46-.34.94-.7,1.42-1,.1-.08.22-.15.33-.23,1-.7,2.47-1.65,2.71-3a2.45,2.45,0,0,0-.58-2.06,3.9,3.9,0,0,0-2.92-1.21.92.92,0,1,0,.06,1.83,2.06,2.06,0,0,1,1.47.58.63.63,0,0,1,.17.54c-.11.61-1.25,1.37-1.93,1.83l-.35.24c-.51.35-1,.72-1.48,1.08-.69.52-1.34,1-2,1.44-.45.28-.9.54-1.37.81a24,24,0,0,0-3.24,2.12.81.81,0,0,0-.27.37l-8.09-.39a.86.86,0,0,0-.62.2l-5.22,4.21a.92.92,0,1,0,1.15,1.43l4.95-4,10.7.53,9.79,5.75A.93.93,0,0,0,5228.4,854.23Z" transform="translate(-5201 -777.85)"/><path class="cls-1" d="M5253.24,860.92h.06l8.49-.55a.92.92,0,0,0,.84-1.09l-1.62-8.43a1,1,0,0,0-.22-.44l-3.21-3.57a.93.93,0,0,0-.72-.3.91.91,0,0,0-.69.36l-3.21,4.24a.92.92,0,0,0-.18.5l-.46,8.31a1,1,0,0,0,.27.71A.92.92,0,0,0,5253.24,860.92Zm1.35-8.9,2.37-3.13,2.3,2.56,1.37,7.16-6.42.41Z" transform="translate(-5201 -777.85)"/><path class="cls-1" d="M5249.76,864.6h.09a.91.91,0,0,0,.91-.83l.82-9.13a.57.57,0,0,0,0-.13l-.55-9.65,0-.17-2.11-8.46a.91.91,0,0,0-1-.69l-2.34.25-.05-.41a.88.88,0,0,0-.34-.62.92.92,0,0,0-.69-.19l-2.34.32-.87-3,0-.07,0-.07a.63.63,0,0,0-.07-.12l0,0h0a1.07,1.07,0,0,0-.31-.25l0,0-.14,0-.06,0h-5.43a.91.91,0,0,0-.8.48l-3.3,6a.92.92,0,0,0,0,.91.9.9,0,0,0,.79.45h7a.92.92,0,0,0,.89-.68l.74-2.82.18.58a.92.92,0,0,0,1,.65l2.18-.3.67,6.25-6-1a.92.92,0,0,0-1,.63l-1.19,3.76a.88.88,0,0,0,.1.77.93.93,0,0,0,.67.41l7.9.86-.15,1.52-8.4-.72a.91.91,0,0,0-.94.62l-1.65,4.86a.89.89,0,0,0,.1.79.91.91,0,0,0,.68.42l9.53.84-.68,6.73a.92.92,0,0,0,.82,1h.1a.92.92,0,0,0,.91-.83l1.59-15.91v-.19l-1-9.74,1.55-.16,1.89,7.6.54,9.5-.82,9.06A.92.92,0,0,0,5249.76,864.6Zm-11.65-27.35h-4.7l2.29-4.15h3.52Zm.21,8.4.61-1.93,5.75.93.19,1.71Zm5.94,9.07-8.38-.75,1-3.07,7.66.65Z" transform="translate(-5201 -777.85)"/></svg>