<svg id="Capa_8" data-name="Capa 8" xmlns="http://www.w3.org/2000/svg" viewBox="0 0 143.63 113.38"><defs><style>.cls-1{fill:#d55019;}</style></defs><title>MADRID</title><path class="cls-1" d="M4895.16,885.34h-2.57v-6.52l-2.89,4.76h-.29l-2.9-4.76v6.52H4884V874.13h2.56l3,5,3-5h2.57Z" transform="translate(-4848.18 -771.95)"/><path class="cls-1" d="M4904,883.58h-4.17l-.56,1.76h-2.8l3.81-11.21h3.27l3.81,11.21h-2.81Zm-.77-2.41-1.32-4.11-1.31,4.11Z" transform="translate(-4848.18 -771.95)"/><path class="cls-1" d="M4918.68,879.73a5.44,5.44,0,0,1-5.45,5.61h-4.48V874.13h4.48A5.43,5.43,0,0,1,4918.68,879.73Zm-2.47,0a2.88,2.88,0,0,0-3-3.13h-1.92v6.27h1.92A2.89,2.89,0,0,0,4916.21,879.73Z" transform="translate(-4848.18 -771.95)"/><path class="cls-1" d="M4924.29,881.65h-1.22v3.69h-2.56V874.13H4925a3.84,3.84,0,0,1,3.85,3.84,3.69,3.69,0,0,1-2.07,3.25l2.39,4.12h-2.76Zm-1.22-2.24H4925a1.45,1.45,0,0,0,0-2.88h-1.92Z" transform="translate(-4848.18 -771.95)"/><path class="cls-1" d="M4933.31,874.13v11.21h-2.56V874.13Z" transform="translate(-4848.18 -771.95)"/><path class="cls-1" d="M4945.56,879.73a5.44,5.44,0,0,1-5.45,5.61h-4.48V874.13h4.48A5.43,5.43,0,0,1,4945.56,879.73Zm-2.47,0a2.88,2.88,0,0,0-3-3.13h-1.92v6.27h1.92A2.88,2.88,0,0,0,4943.09,879.73Z" transform="translate(-4848.18 -771.95)"/><path class="cls-1" d="M4901.39,794.75a.53.53,0,0,0-.53.53v5.38a.53.53,0,0,0,.53.52.52.52,0,0,0,.52-.52v-5.38A.52.52,0,0,0,4901.39,794.75Zm.17,5.91a.18.18,0,0,1-.17.17.18.18,0,0,1-.18-.17v-5.38a.18.18,0,0,1,.18-.18.18.18,0,0,1,.17.18Z" transform="translate(-4848.18 -771.95)"/><path class="cls-1" d="M4907,801.18a.53.53,0,0,0,.53-.52v-5.38a.53.53,0,1,0-1,0v5.38A.53.53,0,0,0,4907,801.18Zm-.17-5.9a.18.18,0,0,1,.17-.18.18.18,0,0,1,.18.18v5.38a.18.18,0,0,1-.18.17.18.18,0,0,1-.17-.17Z" transform="translate(-4848.18 -771.95)"/><path class="cls-1" d="M4938.6,801.18a.52.52,0,0,0,.52-.52v-5.38a.52.52,0,0,0-.52-.53.53.53,0,0,0-.53.53v5.38A.53.53,0,0,0,4938.6,801.18Zm-.18-5.9a.18.18,0,0,1,.18-.18.18.18,0,0,1,.17.18v5.38a.18.18,0,0,1-.17.17.18.18,0,0,1-.18-.17Z" transform="translate(-4848.18 -771.95)"/><path class="cls-1" d="M4932.94,801.18a.52.52,0,0,0,.52-.52v-5.38a.52.52,0,0,0-.52-.53.53.53,0,0,0-.53.53v5.38A.53.53,0,0,0,4932.94,801.18Zm-.18-5.9a.18.18,0,0,1,.18-.18.17.17,0,0,1,.17.18v5.38a.17.17,0,0,1-.17.17.18.18,0,0,1-.18-.17Z" transform="translate(-4848.18 -771.95)"/><path class="cls-1" d="M4991.46,856.75h-2.3v-7.57H4989v-1.11h-.46V820.5a1.6,1.6,0,0,0,1-1.37s0-.07,0-.11v-2.86h-.94v-2.94h.69v-1.71h1.18v-2.17h-3.26v-4.45H4986l.19-2.6a3.24,3.24,0,0,0,.41-.39.34.34,0,0,0-.34-.57l.3-4.06a.34.34,0,0,0-.32-.37.36.36,0,0,0-.38.32l-.34,4.69a.3.3,0,0,1-.14.06,3.13,3.13,0,0,1-.83-.37l.25-.7a1.25,1.25,0,0,0-.05-1,1.32,1.32,0,0,0-.77-.68,1.26,1.26,0,0,0-1,.09,1.29,1.29,0,0,0-.65.81l-.22.77a.91.91,0,0,0,0,.17c-.62.21-1.44.58-1.6,1,0,.1-.11.37-.2.72l-.34-.09a2.55,2.55,0,0,0-.55-2.43c-1.06-1-3-.4-3.07-.38l-2.55.8,2.66.23a1.53,1.53,0,0,1,.57.2,1.9,1.9,0,0,0-.17,1.57,5.41,5.41,0,0,0-.63.24,25,25,0,0,0-2.44-1l-.77-.26.07.8a6.29,6.29,0,0,0,.64,2.44h-4.88a1.65,1.65,0,0,0,.18-.51,2.42,2.42,0,0,0,.37-2.87,2.74,2.74,0,0,0,.23-.37.35.35,0,0,0-.14-.47.36.36,0,0,0-.48.14,2,2,0,0,1-.54.71,3.19,3.19,0,0,1-.9-.14l.06-.74a1.33,1.33,0,0,0-.31-1,1.3,1.3,0,0,0-.92-.46,1.35,1.35,0,0,0-1,.35,1.31,1.31,0,0,0-.42,1v.79a.47.47,0,0,0,0,.17c-.54.36-1.23.92-1.28,1.39a.57.57,0,0,0-.22.11l-1,.84a2.94,2.94,0,0,1,.42-1.11,1.71,1.71,0,0,0,.27-.6,1.73,1.73,0,0,0-.33-1.5,1.88,1.88,0,0,0-1.49-.73h-3.88l1.57,1a3.73,3.73,0,0,1,1.38,3.13,7.64,7.64,0,0,1-3.64-2.37l-.55-.69-.34.81a3.27,3.27,0,0,0,.05,2.46,2.94,2.94,0,0,0,.5.71h-12.85v-1.6h-2.3V802h-.69v-7.76h.69V793h.55v-2.6h-.54c-6.09-6.34-12-6.78-12.27-6.79l-.37,0v.7l-1.17-.17a4.29,4.29,0,0,0-2.21-3.26,2.06,2.06,0,0,0-.09-1.57,1.75,1.75,0,0,0-1.23-.92h0a1.09,1.09,0,0,1-.71-.58v-2.3h-.42a2,2,0,0,0-1.6-1.46V772.3a.36.36,0,0,0-.71,0V774a2,2,0,0,0-1.61,1.46h-.41v2.33c-.1.39-.24.68-.43.75h0a.7.7,0,0,1-.14-.18l-.18-1a1.25,1.25,0,0,0-2.48.21v.34a2.94,2.94,0,0,1-.58-1.51.36.36,0,0,0-.38-.32.34.34,0,0,0-.32.37,3.51,3.51,0,0,0,.81,2l-.1.06,0,0a8.71,8.71,0,0,1-2.58-1.82.87.87,0,0,0-1.1-.23c-1.19.5-2.75,3.1-2.59,4.34l0,.19.18.08a1.55,1.55,0,0,0,.63.12,2.16,2.16,0,0,0,.85-.19,4.1,4.1,0,0,0,2.74,2.19c.16.33.3.63.41.84l-2,.3v-.67l-.37,0c-.26,0-6.19.45-12.27,6.79h-.55V793h.55v1.25h.69V802h-.69v1.25h-2.3v1.6h-12.85a2.47,2.47,0,0,0,.5-.71,3.29,3.29,0,0,0,.06-2.46l-.34-.81-.56.69a7.55,7.55,0,0,1-3.64,2.37,3.75,3.75,0,0,1,1.39-3.13l1.56-1h-3.88a1.9,1.9,0,0,0-1.49.73,1.73,1.73,0,0,0-.33,1.5,1.93,1.93,0,0,0,.28.6,3.1,3.1,0,0,1,.41,1.11l-1-.84a.65.65,0,0,0-.22-.11c-.06-.47-.75-1-1.28-1.39a.47.47,0,0,0,0-.17v-.79a1.39,1.39,0,0,0-.42-1,1.37,1.37,0,0,0-1-.35,1.34,1.34,0,0,0-1.23,1.44l.07.74a3.24,3.24,0,0,1-.9.14,2.11,2.11,0,0,1-.55-.71.35.35,0,0,0-.47-.14.34.34,0,0,0-.14.47,4.15,4.15,0,0,1,.59,3.24,2,2,0,0,0,.18.51h-4.88a6.29,6.29,0,0,0,.64-2.44l.07-.8-.76.26a25.68,25.68,0,0,0-2.45,1,4.67,4.67,0,0,0-.62-.24,1.94,1.94,0,0,0-.18-1.57,1.5,1.5,0,0,1,.58-.2l2.65-.23-2.54-.8c-.09,0-2-.61-3.07.38a2.55,2.55,0,0,0-.56,2.43l-.34.09c-.08-.35-.16-.62-.19-.72-.17-.45-1-.82-1.6-1a.47.47,0,0,0,0-.17l-.21-.77a1.33,1.33,0,0,0-.66-.81,1.26,1.26,0,0,0-1-.09,1.32,1.32,0,0,0-.82,1.7l.26.7a3.14,3.14,0,0,1-.84.37.28.28,0,0,1-.13-.06l-.35-4.69a.35.35,0,0,0-.7,0l.3,4.06a.32.32,0,0,0-.32.08.35.35,0,0,0,0,.49,4.14,4.14,0,0,0,.41.39l.2,2.6h-1.18v4.45h-3.25v2.17h1.18v1.71h.69v2.94h-.94V819a.41.41,0,0,0,0,.11,1.57,1.57,0,0,0,1,1.37v27.57H4851v1.11h-.2v7.57h-2.3a.35.35,0,0,0,0,.7H4909a.34.34,0,0,0,.29-.17h21.46a.35.35,0,0,0,.3.17h60.44a.35.35,0,1,0,0-.7ZM4986,805.24h.86v4.1h-.35v-3.75H4986Zm-.05.7h.21v3.4h-.46Zm-1.68-4.52.06-.16-.06.16Zm0,.8a2.77,2.77,0,0,0,1.24.45l-.19,2.54a.65.65,0,0,0,0,.2.51.51,0,0,0,0,.13l-.28,3.8h-17.52l-.62-1c.1-.2.25-.54.4-.92a.4.4,0,0,0,.15,0h13.92a5.76,5.76,0,0,0,.06.68l.12.74.49-.57a14,14,0,0,0,1.11-1.46c1-.7,2.12-1.63,2.17-2.17s-.62-1.1-1-1.32A3.42,3.42,0,0,1,4984.26,802.22Zm-16.87,4.89.1-.28.05-.06h13.81c0,.12,0,.24,0,.35h-13.95Zm16.41-7.25a.63.63,0,0,1,.36.32.53.53,0,0,1,.06.24.53.53,0,0,0-.06-.24A.63.63,0,0,0,4983.8,799.86Zm.34.92-.16.45h0Zm-.23-1.25a1.26,1.26,0,0,1,.26.13,1.26,1.26,0,0,0-.26-.13l-.18,0Zm-.31,0h0Zm0,.36h0Zm-.28.54a.31.31,0,0,1,.13-.17.28.28,0,0,1,.22,0,.23.23,0,0,1,.15.14.26.26,0,0,1,0,.21l-.23.62-.47-.15Zm-.19-.78h0s0,0,0,0S4983.13,799.6,4983.15,799.6Zm-.15.69a1,1,0,0,1,0-.1,1,1,0,0,0,0,.1l-.12.45Zm-.33-.1s0,0,0-.05,0,0,0,.05l-.21.73h0Zm-1.51,2.12a3.88,3.88,0,0,1,1.5-.72l.87.29a.47.47,0,0,0,.06.09,4.26,4.26,0,0,0,.08,1.72l0,.13.12.07c.4.23.77.6.76.74a4.06,4.06,0,0,1-.94.94,2.8,2.8,0,0,0-.73-1.65.35.35,0,0,0-.49,0,.36.36,0,0,0,0,.49,1.9,1.9,0,0,1,.54,1.31,5.1,5.1,0,0,1-.76,1.29v0a.47.47,0,0,0-.11-.31,3.54,3.54,0,0,1,.18-.73l.14-.37-.38-.09c-.28-.07-.55-.15-.78-.23a.53.53,0,0,0-.49-.32h-.14A18.69,18.69,0,0,1,4981.16,802.31Zm-.42,3.63a.71.71,0,0,0,.25-.06l.49.14c0,.13-.06.27-.09.4h-13.57c.12-.16.25-.32.36-.48Zm-6.19-1.05a3.72,3.72,0,0,1-.57-1.31,3.72,3.72,0,0,0,.57,1.31Zm5.36.7,0,0a.44.44,0,0,0,0-.32h.06c0,.07.07.19.35.35Zm-.53-2.13a.58.58,0,0,0,.32-.1l.44.11a10.83,10.83,0,0,0-.23,1.42h-.36a20.6,20.6,0,0,0-2.48-1.53,4.36,4.36,0,0,1,1.18-.16.54.54,0,0,0,.47.16.51.51,0,0,0,.24-.1.6.6,0,0,0,.3.19Zm-1.82-1.88a2.47,2.47,0,0,1,.47.92l-.5,0A1.33,1.33,0,0,1,4977.56,801.58Zm1.12.67a2,2,0,0,1,.07.26h0A2,2,0,0,0,4978.68,802.25Zm.25-1.47h0l-.2-.15A1.49,1.49,0,0,1,4978.93,800.78Zm-.24.26a1.23,1.23,0,0,1,.3,1,3.42,3.42,0,0,0-.69-1.21A1,1,0,0,1,4978.69,801Zm-.64,0,.05.06-.05-.06Zm-.24.26a2.74,2.74,0,0,1,.58,1.16h0a2.74,2.74,0,0,0-.58-1.16Zm-.11-.93h0Zm-.43,0,.31.24h0a2,2,0,0,0-.39-.23Zm-1.68.07h0l.86.08Zm.92.08a2.15,2.15,0,0,1,.75.29h0A2.22,2.22,0,0,0,4976.51,800.57Zm.11,2.95a23.32,23.32,0,0,1,2.32,1.37h0a21.38,21.38,0,0,0-2.32-1.36Zm1,1.37H4975a3.14,3.14,0,0,1-.76-1.68A25.16,25.16,0,0,1,4977.64,804.89Zm-1.79-1.74h0c-1.25-.59-2.17-.9-2.19-.91A20.7,20.7,0,0,1,4975.85,803.15Zm-2.42-.73a5.79,5.79,0,0,0,.69,2.47h0A5.79,5.79,0,0,1,4973.43,802.42Zm.51,2.82a2.85,2.85,0,0,0,.28.35h-5.79l.22-.35Zm-5.22-3.07a.7.7,0,0,0,.17-.09,1.7,1.7,0,0,1-.2,1.57,2.7,2.7,0,0,0-.94-.5,3.35,3.35,0,0,1-.35-1.09A2.75,2.75,0,0,0,4968.72,802.17Zm-1.45-1.56h0a.9.9,0,0,0-.23-.72A.9.9,0,0,1,4967.27,800.61Zm-.34,0h0a.62.62,0,0,0-.15-.45.6.6,0,0,0-.43-.22h0a.6.6,0,0,1,.43.22A.62.62,0,0,1,4966.93,800.57Zm-.62-1h.06l.24.05-.24-.05h-.06Zm-.27,1a.28.28,0,0,1,.08-.2.31.31,0,0,1,.2-.07.26.26,0,0,1,.19.09.31.31,0,0,1,.07.2l-.06.67-.49,0Zm-.39-.71a.88.88,0,0,1,.15-.12.88.88,0,0,0-.15.12l0,.05Zm.24.26a.57.57,0,0,0-.2.44v0A.57.57,0,0,1,4965.89,800.07Zm-1.47,2.87a3.93,3.93,0,0,1,1.27-1.08l.91,0h0l.07.07a4.26,4.26,0,0,0,.53,1.64l.07.12.13,0c.44.13.9.38.93.52a2,2,0,0,1-.3.6.54.54,0,0,0-.4.47,2.8,2.8,0,0,0-1.1-1.32.34.34,0,0,0-.48.1.35.35,0,0,0,.1.48c.23.16.84.66.85,1.13a5.63,5.63,0,0,1-.49,1.66,3.6,3.6,0,0,1-.12-1.28l0-.4h-.4a7.41,7.41,0,0,1-1.49-.1,1.15,1.15,0,0,0,0-.14.31.31,0,0,0,0-.1.65.65,0,0,0,0-.2A19.25,19.25,0,0,1,4964.42,802.94Zm-.69,1.22c0,.24,0,.49,0,.73h-.92Zm.08,1.08c0,.12,0,.24,0,.35h-2.37l.53-.13a1.56,1.56,0,0,0,.38-.22Zm-1.29-3.31a1.17,1.17,0,0,1-.17.38,1.35,1.35,0,0,0-.15.26,1.35,1.35,0,0,1,.15-.26,1.17,1.17,0,0,0,.17-.38h0Zm.08-1.12a1.46,1.46,0,0,1,.22.43,1.46,1.46,0,0,0-.22-.43,1.61,1.61,0,0,0-.39-.35A1.44,1.44,0,0,1,4962.6,800.81Zm-.28.22,0,0,0,0a1.19,1.19,0,0,0-.67-.43A1.19,1.19,0,0,1,4962.32,801Zm-.94-.11a.83.83,0,0,1,.66.32.72.72,0,0,1,.14.61.68.68,0,0,1-.12.26,4.07,4.07,0,0,0-.57,1.45,5.31,5.31,0,0,0-.91-2.64Zm0,4.67Zm-.21-1.38h0v0Zm-1.31-3.64.19.22a2.23,2.23,0,0,0-.21-.22Zm-.6,0-.52-.32h0l.52.32a4.14,4.14,0,0,1,1.56,3.53h0A4.17,4.17,0,0,0,4959.25,800.54Zm1.13,5.05H4959s0,0,0,0a.34.34,0,0,0,0-.14l.54-.18h.84a.28.28,0,0,0,0,.09A.46.46,0,0,0,4960.38,805.59Zm-.71-.77-.2.07h-.92a2.47,2.47,0,0,1-1.63-1.16,1.89,1.89,0,0,1-.17-.66A8.73,8.73,0,0,0,4959.67,804.82Zm-3.19-2.54a6.14,6.14,0,0,0,.43.45l-.2-.19-.24-.25Zm-.19,1.75a3.12,3.12,0,0,1-.15-.39,3.12,3.12,0,0,0,.15.39,2.49,2.49,0,0,0,.7.86h0A2.49,2.49,0,0,1,4956.29,804Zm-12.67,1.21h13.24a4.83,4.83,0,0,0,.59.35h-13.83Zm0,.7h20.3a.64.64,0,0,0,.06.14c.06.1.18.27,1,.34h-21.35Zm0,.83h22.08c0,.12,0,.23,0,.35h-22.12Zm0,2.14v-1.44h22.19a6,6,0,0,0,.35,1.07l.3.68.06-.11.14.24h-23Zm45.8,1.48v.07h-49.24v-.07h49.24Zm-4.89,1.77v-.65h3.71v.65Zm3,1.06v2.94h-2.32v-2.94Zm-18,12.45v-1.11h1.93v1.11Zm1.93,1.05v1.11h-1.93v-1.11Zm-1.93-3.21v-2.1h6v1.46h-4.09v.64Zm0-2.45v-.35h6v.35Zm3,5.66v-2.8h8.63v4.55h-8.63Zm4.09-3.85v-1.46h.46v1.46Zm-1.05-2.51h-5.74a1.55,1.55,0,0,0,.76-1.23.41.41,0,0,0,0-.11v-.28h12.49V819a.41.41,0,0,0,0,.11,1.58,1.58,0,0,0,.76,1.23h-8.29Zm-5-2.67v-.48h12.49v.48Zm12.49-1.53h-13.43v-2.74h14.55v2.74h-1.12Zm-12.73-3.79v-.86h13.15v.86Zm-4.76-.21v-.65h3.71v.65Zm3,1.06v2.94h-2.32v-2.94Zm-8.71,7.41v-1.89h.35v1.89A.53.53,0,0,0,4959.87,820.63Zm.35.47a.31.31,0,0,1,0,.13l-.22.3h-.1v-.46l0-.05a.19.19,0,0,1,.14-.07.17.17,0,0,1,.1,0A.2.2,0,0,1,4960.22,821.1Zm-3.61-3.41h-11.47v-.48h19v.48Zm.76,6.29-.28-.09,1.92-5.15h.51V821Zm.13.42.33.14-.05.07a.17.17,0,0,1-.28-.2Zm-.36.24-.31-.1a.24.24,0,0,0,.06-.11l.08-.21.2.06A.46.46,0,0,0,4957.14,824.64Zm-.38-.85-.35-.08,1.85-5h.37Zm-.13.33-.06.19a.2.2,0,0,1-.23.1.22.22,0,0,1-.1-.09.17.17,0,0,1,0-.14l.05-.14Zm-.56-.48-.18,0,.59-4.87h1.41Zm-.13.33,0,.09a.46.46,0,0,0,0,.26h-.08l0-.35Zm-.39-.4-.35,0,.57-4.79h.36Zm0,.34,0,.3h-1.8l0-.29c.32,0,.65-.06,1-.06A8.85,8.85,0,0,1,4955.51,823.91Zm-.66-.4h-.56l-.57-4.77h1.7Zm-.91,0-.35,0-.58-4.84h.36Zm-.61.78h-.05a.5.5,0,0,0,0-.27l0-.07h.06Zm-.08-.69-.15,0-1.82-4.91h1.38Zm-.32.55a.22.22,0,0,1,0,.14.18.18,0,0,1-.1.09.18.18,0,0,1-.22-.1l-.06-.17.34-.08Zm-.17-.45-.35.08-1.88-5.07h.37Zm-.75.57.19-.06.07.19a.54.54,0,0,0,.07.13l-.33.11a.21.21,0,0,0,0-.07A.52.52,0,0,0,4952,824.3Zm.07-.39-.27.09-2.25-3.17v-2.09h.6Zm-.38.63a.26.26,0,0,1-.07.11.19.19,0,0,1-.25,0l0,0,.33-.14A.36.36,0,0,1,4951.7,824.54Zm-.23-.41-.33.15-1.7-2.4h.12v-.44Zm-.37.68a.61.61,0,0,0,.19.17,7.63,7.63,0,0,0-4.26,6.23h-.35a8,8,0,0,1,4.35-6.49Zm-3.75,9.55v-2.53a7.27,7.27,0,1,1,14.53,0v24.4h-14.53Zm10.55-9.4a.61.61,0,0,0,.17-.15l.08-.12a8,8,0,0,1,4.4,6.52h-.35A7.6,7.6,0,0,0,4957.9,825Zm.14-.71-.33-.14,1.81-2.55v.32h.2Zm-9.18-3.58v-1.93h.35v1.87A.54.54,0,0,0,4948.86,820.67Zm.35.31v.55h0l-.21-.3a.16.16,0,0,1,0-.13.19.19,0,0,1,.07-.12.19.19,0,0,1,.1,0A.16.16,0,0,1,4949.21,821Zm.86-8.61h-4.93v-.86h19.38v.86h-14.45Zm8.05,1v2.74h-7v-2.74Zm-8.05,0v2.74h-5.69v-2.74h5.69Zm-4.94,5.71s0-.07,0-.11v-.28h3.37v2.09h-4.42v-.33A1.6,1.6,0,0,0,4945.13,819.13Zm-1-6.76h-3.91v-.86h3.91Zm-.76,1v1.12h-3.15v-1.12Zm0,2.17v.57h-3.15v-.57Zm0,.92v.35h-1.64v-.35Zm-1.64,2.33h.31v.07h-.31Zm-.93,3H4943v.23h-2.28Zm0-1v-.38a1.6,1.6,0,0,0,.84-.91h.48a1.57,1.57,0,0,0,1,1v.33Zm1.32-2.34h-.39v-1.28h2.4v.33a1.56,1.56,0,0,0-.53-.1A1.58,1.58,0,0,0,4942.08,818.49Zm2,2.69h4.51a.58.58,0,0,0,.09.25l.07.1h-4.67Zm15.08-5v-2.74h6v2.74h-6ZM4942,804.42v-.08h.53v3.52H4942Zm0,4.49h.53v.43h-11.9v-.43H4942Zm-10.66,5v-2.1h7.75v2.1Zm7.75,1.05v1.22h-7.59v-1.22Zm-8.46-4.2v-.35h8.46v.35Zm-5.26,9.89v-2.07h.35v2.07A.53.53,0,0,0,4925.41,820.63Zm.35.47a.31.31,0,0,1,0,.13l-.22.3h-.1v-.46l0-.05a.19.19,0,0,1,.14-.07.17.17,0,0,1,.1,0A.2.2,0,0,1,4925.76,821.1Zm-1.12-4.94v-2.74h5.69v2.74h-5.69Zm-12.5,15.23a8,8,0,0,1,4.41-6.7l.09.12a.57.57,0,0,0,.16.15,7.62,7.62,0,0,0-4.33,6.87v24.4h-.35v-22h.35v-2.8Zm2.35-10.76v-2.07h.35v2.07A.53.53,0,0,0,4914.49,820.63Zm.35.44v.46h-.11l-.21-.3a.16.16,0,0,1,0-.13.19.19,0,0,1,.07-.12.19.19,0,0,1,.1,0,.17.17,0,0,1,.14.07Zm-3.95-4.91h-1.4v-2.74h6.05v2.74Zm3.25,5a.58.58,0,0,0,.09.25l.07.1h-4.46v-.35Zm-4.3-.35v-.33a1.57,1.57,0,0,0,1-1.37.41.41,0,0,0,0-.11v-.46h3.25v2.27ZM4922.9,824l-.27-.09,2-5.35h.45V821Zm.13.43.32.14,0,0a.17.17,0,0,1-.24,0,.19.19,0,0,1-.07-.11A.14.14,0,0,1,4923,824.43Zm-.34.24-.33-.11a.33.33,0,0,0,.07-.13l.07-.19.2.06a.63.63,0,0,0,0,.3Zm-.4-.86-.34-.08,1.92-5.17h.37Zm-5.54-5.25h1.45l.61,5.05-.17,0Zm1.72,5.62a.19.19,0,0,1-.11.23.18.18,0,0,1-.22-.1l-.07-.19.34-.08Zm.38-.22,0,.35h-.07a.48.48,0,0,0,0-.26l0-.09Zm-.29-5.4h.35l.6,5-.35,0Zm.72.18H4921l-.58,4.77h-.55Zm.81,5.12c.33,0,.66,0,1,.06l0,.29h-1.79l0-.3A8.69,8.69,0,0,1,4920.09,823.86Zm.67-.32.6-5h.35l-.6,5Zm.66.44h.06l0,.07a.5.5,0,0,0,0,.27h-.06Zm0-.35.61-5.07h1.42l-1.89,5.09Zm.37.43.34.08-.06.17a.2.2,0,0,1-.23.1.22.22,0,0,1-.1-.09.17.17,0,0,1,0-.14Zm1.76-9.52h-7v-1.12h7Zm0,1.05v.57h-7v-.57Zm-5.3,8.12-.34.08-1.95-5.23h.38Zm-.75.57.19-.06.08.21.06.11-.3.1A.56.56,0,0,0,4917.54,824.28Zm.07-.39-.28.09-2.14-3v-2.4h.44Zm-.44.76a.18.18,0,0,1-.25,0l-.05-.07.33-.14h0A.19.19,0,0,1,4917.17,824.65Zm-2-2.77v-.32l1.81,2.55-.33.14-1.69-2.37Zm-2.37,10a7.27,7.27,0,1,1,14.53,0v24.4h-14.53Zm10.59-6.85a.55.55,0,0,0,.2-.17l.06-.09a8,8,0,0,1,4.36,6.67h-.35A7.62,7.62,0,0,0,4923.41,825Zm.15-.7-.33-.15,1.83-2.57v.32h.2Zm1.08-11.91h-15.15v-.47h20.84v.47Zm3.86-8h.91v3.52h-19v-3.44h0v-.08h18.16Zm-16.13-1.05v-9h15.08v9Zm17.25,7.1v.46h-19.25v-.46Zm-19.25-1v-.43h19v.43Zm19.84-7.3v1.25h-1.71V793.23h-17.18v10.06h-1.55V802h-.69v-7.76h.69V793h20.44v1.25h.7V802Zm-26.79,0v-7.76h.69V793h.21v1.25h.69V802h-.69v1.25h-.21V802Zm1.26,2.3h4.61v.08h-4.61Zm.69-11.11V793h3.35v.2Zm2.66,1V802h-2v-7.76Zm.69,8.81v.2h-3.35v-.2Zm.39-16.83v4.17h-7.2A21.07,21.07,0,0,1,4909.11,786.26Zm-8.25,4.17h0a21.33,21.33,0,0,1,8.45-5h0A21.53,21.53,0,0,0,4900.86,790.43Zm9.3,1.55v-.5h19.46v.5Zm20.52-6.51h0a21.32,21.32,0,0,1,8.44,5h0A21.52,21.52,0,0,0,4930.68,785.47Zm7.39,5h-7.2v-4.17A20.89,20.89,0,0,1,4938.07,790.43Zm-6.81,2.8V793h3.36v.2Zm2.66,1V802h-2v-7.76Zm.7,8.81v.2h-3.36v-.2Zm.69,1.25v.08h-4.61v-.08Zm1.25-10.06V802h-.69v1.25h-.2V802h-.7v-7.76h.7V793h.2v1.25Zm4.43,13.58h-10.32v-2.39H4941Zm0-3.52v.08h-4.61v-.08Zm-4.05-11.11V793h3.35v.2Zm2.66,1V802h-2v-7.76Zm.69,8.81v.2h-3.35v-.2Zm.55-11.61v.5h-9.95v-.5h9.95Zm-11.44-7.1c1.34.2,6.09,1.22,11,6h-.71a21.1,21.1,0,0,0-9.17-5.38l-.64-.14v.15l-.44-.12Zm-4.36-2.86c.41.25,2,1.36,1.79,3.12a2.84,2.84,0,0,1-1.59,2,5.4,5.4,0,0,0-.07-.8,3.41,3.41,0,0,0,.47-1.54,6,6,0,0,0-1.17-2A4.82,4.82,0,0,0,4925,781.52Zm-.57,4.32a4.24,4.24,0,0,1,0,1.2,2.53,2.53,0,0,1-.6.09c-.46,0-.85.08-1,.42l0,.05a2.59,2.59,0,0,1-1.75,1.55,5.84,5.84,0,0,1-1.75.19,5,5,0,0,0,1.33-2.21l.3,0h.12c-.23.33-.44.67-.61.94a.36.36,0,0,0,.12.48.41.41,0,0,0,.18.05.34.34,0,0,0,.3-.17,7.81,7.81,0,0,1,1.43-1.88,1.83,1.83,0,0,1,.68,0,.36.36,0,0,0,.43-.26.34.34,0,0,0-.18-.38,3.57,3.57,0,0,1,.73-1.21l.09-.1v-.14a.31.31,0,0,1,.31-.31h.21a.63.63,0,0,1,.07.21,3.12,3.12,0,0,1-.43,1.24l-.06.1Zm-3.55-11.13a1.33,1.33,0,0,1,1.2.79h-2.42A1.34,1.34,0,0,1,4920.9,774.71Zm-1.32,1.84h2.63v.26h-2.63Zm-.33,1.31h1.25V778a.35.35,0,0,0,.35.35.35.35,0,0,0,.35-.35v-.17h1.32a2.2,2.2,0,0,0,.37.63,4.31,4.31,0,0,0-.85.49,1.46,1.46,0,0,1-2,.1,4,4,0,0,0-1.09-.44A3.59,3.59,0,0,0,4919.25,777.86Zm-1.68,1.69c.15-.15.78-.63,2.15.14a2.14,2.14,0,0,0,2.73-.14,2.29,2.29,0,0,1,1-.48,1.09,1.09,0,0,1,1.19.56c.33.64,0,1.54-.86,2.4l-.23.22.2.25c.25.31.51.66.73,1a1,1,0,0,0-.8.84,4.15,4.15,0,0,0-.83,1.51l-.36,0a1.49,1.49,0,0,0-.66.48,2.17,2.17,0,0,1-1.66-.13,1.74,1.74,0,0,1-.71-.92c.71-2.16-1.36-4-1.63-4.19A1.63,1.63,0,0,1,4917.57,779.55Zm-2.78-.08c.25-.69,1.16-.61,1.21-.6a.36.36,0,0,0,.38-.32.35.35,0,0,0-.31-.38H4916v-.61a.55.55,0,0,1,.55-.55.54.54,0,0,1,.54.46l.17,1c-.24.44-1,2,0,3.15l0,0s2.09,1.71,1.4,3.55c-.26.69-1.42,1.07-1.92,1.23l-.27.1a1.32,1.32,0,0,0-.64.74,2.18,2.18,0,0,1-1.27.49h0l0-.15a2.82,2.82,0,0,1,1.71-3.2,2.14,2.14,0,0,0,1,.42h.05a.34.34,0,0,0,.34-.3.35.35,0,0,0-.29-.4,1.41,1.41,0,0,1-.71-.37,3.34,3.34,0,0,1-.26-1.47.35.35,0,1,0-.7,0,5.74,5.74,0,0,0,.16,1.37l-.69.08-.07-.4C4915,782.55,4914.54,780.16,4914.79,779.47Zm-4.67.69a1.52,1.52,0,0,1-1,.27,5.6,5.6,0,0,1,2.17-3.38c.2-.08.25,0,.28,0a9.11,9.11,0,0,0,2.67,1.95.81.81,0,0,0-.1.21,1.58,1.58,0,0,0-.09.36,2.57,2.57,0,0,0-1.75-.52.71.71,0,0,0-.41.33h0a1.75,1.75,0,0,0-1.25.44A5.75,5.75,0,0,1,4910.12,780.16Zm.61.45.29-.19c.42-.28.52-.35.77-.33a8.91,8.91,0,0,0,.67,2.17A3.11,3.11,0,0,1,4910.73,780.61Zm1.74-.83s0,0,0,0a2.73,2.73,0,0,1,1.4.59.27.27,0,0,0,.11,0,25.62,25.62,0,0,0,.38,3.07,3.37,3.37,0,0,1,.06.36h0l-.49.06a.09.09,0,0,0,0,0c-.19-.37-.38-.76-.55-1.15h0A7.87,7.87,0,0,1,4912.47,779.78Zm-1.17,5.7V785c.64-.1,2.24-.35,3.61-.52a3.55,3.55,0,0,0-1,3.27l.13.6.2,0a1.28,1.28,0,0,0,.38,0,2.56,2.56,0,0,0,1.07-.25,3.08,3.08,0,0,0,0,.43.36.36,0,0,0,.35.32h0a.36.36,0,0,0,.32-.38,1.65,1.65,0,0,1,.42-1.4l.22-.07a4.79,4.79,0,0,0,2-1.05,2.37,2.37,0,0,0,.77.78l.3.16a3.83,3.83,0,0,1-1.72,2.3l-.88.43.95.23a5.49,5.49,0,0,0,1.23.12,6.55,6.55,0,0,0,1.7-.22,3.32,3.32,0,0,0,2.21-2l.4,0a1.75,1.75,0,0,0,1.05-.31,3.79,3.79,0,0,0,2.48-2.68l1.21.18v.46l1.13.3v4.65h-19.66v-4.65Zm-.7-1.1v.56l-.44.12v-.15l-.64.14a21.16,21.16,0,0,0-9.17,5.38h-.71C4904.51,785.6,4909.26,784.58,4910.6,784.38Zm-11.43,7.6v-.5h9.94v.5h-9.94Zm3.89,11.11v.2h-3.35v-.2ZM4900.4,802v-7.76h2V802Zm-.69-8.81V793h3.35v.2Zm-.69,11.11h4.61v.08H4899Zm0,1.13h10.3v2.39H4899Zm-1.58-1.13h.53v3.52h-.53Zm0,4.57h11.91v.43h-11.91Zm3.45,5v-2.1h7.58v2.1Zm7.58,1.05v1.22h-7.58v-1.22Zm-7.58-4.2v-.35h8.46v.35Zm-4.5-5.5v.35h-13.83a4.18,4.18,0,0,0,.59-.35Zm-12.52-1.6a2,2,0,0,1-.14.39,2.61,2.61,0,0,1-.7.86,2.61,2.61,0,0,0,.7-.86A2,2,0,0,0,4883.84,803.64Zm-.33-1.36h0l-.24.25-.19.19C4883.22,802.59,4883.37,802.44,4883.51,802.28Zm-.28.79a1.88,1.88,0,0,1-.16.66,2.52,2.52,0,0,1-1.63,1.16h-.92l-.2-.07A8.7,8.7,0,0,0,4883.23,803.07Zm-3.61,2.17h.84l.53.18a.68.68,0,0,0,0,.14s0,0,0,0h-1.43a.58.58,0,0,0,0-.26A.28.28,0,0,1,4879.62,805.24Zm1.11-4.7.52-.32h0l-.53.32a4.14,4.14,0,0,0-1.55,3.53h0A4.12,4.12,0,0,1,4880.73,800.54Zm-.6,0h0l-.2.22Zm-.73.35a5.21,5.21,0,0,0-.9,2.64,4.09,4.09,0,0,0-.58-1.45,1.23,1.23,0,0,1-.12-.26.72.72,0,0,1,.14-.61.86.86,0,0,1,.66-.32Zm-.57,3.28h0v0Zm-.21,1.39h0Zm-.95-4.56a1.13,1.13,0,0,1,.66-.43,1.13,1.13,0,0,0-.66.43s0,0,0,0S4877.65,801,4877.67,801Zm-.21.9h0a1.2,1.2,0,0,0,.18.38l.15.26-.15-.26A1.2,1.2,0,0,1,4877.46,801.93Zm-1.21,2.23.89.73h-.93C4876.23,804.65,4876.24,804.4,4876.25,804.16Zm-.07,1.08h1.41a1.35,1.35,0,0,0,.39.22l.53.13h-2.37C4876.15,805.48,4876.17,805.36,4876.18,805.24Zm-.18.84a.64.64,0,0,0,.06-.14h20.3v.48H4875C4875.83,806.35,4875.94,806.18,4876,806.08Zm-1.75,1h0c0-.12,0-.23.05-.35h22.07v.35Zm22.11.35v1.87h-23l.15-.24.05.11.31-.68a6.52,6.52,0,0,0,.34-1.07h22.19Zm-22-7.66,0,.05,0-.05a1,1,0,0,0-.16-.12A1,1,0,0,1,4874.34,799.81Zm0,.7v0a.57.57,0,0,0-.2-.44A.57.57,0,0,1,4874.3,800.51Zm-.35,0v.66l-.49,0-.06-.67a.25.25,0,0,1,.06-.2.28.28,0,0,1,.19-.09.29.29,0,0,1,.2.07A.25.25,0,0,1,4874,800.52Zm-.34-1h0l-.24.05Zm-.55,1a.58.58,0,0,1,.15-.45.6.6,0,0,1,.43-.22h0a.6.6,0,0,0-.43.22.58.58,0,0,0-.15.45Zm-.35,0a1,1,0,0,1,.23-.72,1,1,0,0,0-.23.72Zm0,3.14.08-.12a4.34,4.34,0,0,0,.52-1.64.23.23,0,0,0,.07-.07h0l.91,0a3.93,3.93,0,0,1,1.27,1.08,18.94,18.94,0,0,1-.07,2.27.46.46,0,0,0-.05.2s0,.07,0,.1a.46.46,0,0,1,0,.14,7.41,7.41,0,0,1-1.49.1h-.4l.05.4a3.6,3.6,0,0,1-.13,1.28,5.63,5.63,0,0,1-.49-1.66c0-.47.62-1,.85-1.13a.35.35,0,1,0-.38-.58,2.86,2.86,0,0,0-1.1,1.32.53.53,0,0,0-.39-.47,1.74,1.74,0,0,1-.3-.6c0-.14.48-.39.92-.52Zm-13.78,4.1a.34.34,0,0,0-.12-.38h13.76a.41.41,0,0,0,.16,0c.15.38.3.72.39.92l-.62,1h-14Zm-.29-1.08h13.82l.05.06.09.28h-13.94C4858.65,807,4858.64,806.89,4858.63,806.77Zm12.47-4.69a.56.56,0,0,0,.17.09,2.75,2.75,0,0,0,1.32-.11,3.93,3.93,0,0,1-.35,1.09,2.74,2.74,0,0,0-.95.5A1.69,1.69,0,0,1,4871.1,802.08Zm.23,3.16.23.35h-5.8a2.83,2.83,0,0,0,.29-.35Zm-5.89-.35h0a4.13,4.13,0,0,0,.57-1.31A3.91,3.91,0,0,1,4865.44,804.89Zm.17.35a1.72,1.72,0,0,1-.3.28A1.72,1.72,0,0,0,4865.61,805.24Zm.25-.35h0a5.65,5.65,0,0,0,.69-2.47A5.65,5.65,0,0,1,4865.86,804.89Zm.46-2.65s-.93.32-2.18.91h0A20.7,20.7,0,0,1,4866.32,802.24Zm-.59,1a3.08,3.08,0,0,1-.75,1.68h-2.63A25.76,25.76,0,0,1,4865.73,803.21Zm-2.37.31h0a20.46,20.46,0,0,0-2.32,1.36h0A23.22,23.22,0,0,1,4863.36,803.52Zm1-3h0l-.87.08Zm-1.66.37h0a2.22,2.22,0,0,1,.75-.29A2.3,2.3,0,0,0,4862.72,800.86Zm0-.44h.08a2.26,2.26,0,0,0-.38.23h0Zm-.26,2.12-.49,0a2.47,2.47,0,0,1,.46-.92A1.28,1.28,0,0,1,4862.45,802.54Zm-.17-2.14h0Zm-.1.93a2.74,2.74,0,0,0-.59,1.16,2.86,2.86,0,0,1,.58-1.16Zm-.24-.26h0a.34.34,0,0,1-.06.06Zm-.26-.24A3.26,3.26,0,0,0,4861,802a1.2,1.2,0,0,1,.29-1A1,1,0,0,1,4861.68,800.83Zm-.38,1.42-.06.26h0C4861.25,802.42,4861.28,802.33,4861.3,802.25Zm-.25-1.47a1.49,1.49,0,0,1,.2-.15l-.2.15a1.07,1.07,0,0,0-.14.16A1.07,1.07,0,0,1,4861.05,800.78Zm-.76,2.58a.55.55,0,0,0,.31.1h.12a.56.56,0,0,0,.3-.19.54.54,0,0,0,.71-.06,4.43,4.43,0,0,1,1.19.16,19.85,19.85,0,0,0-2.48,1.53h-.37a10.83,10.83,0,0,0-.23-1.42Zm-.23,1.88h0a.5.5,0,0,0,0,.32l0,0h-.37C4860,805.43,4860,805.31,4860.06,805.24Zm11.74.7.37.48h-13.58c0-.13-.05-.27-.08-.4l.49-.14a.61.61,0,0,0,.24.06Zm-13-3.63a18.69,18.69,0,0,1,.56,2.58h-.15a.53.53,0,0,0-.49.32c-.23.08-.5.16-.77.23l-.39.09.15.37a3,3,0,0,1,.17.73.47.47,0,0,0-.11.31.09.09,0,0,0,0,0,4.81,4.81,0,0,1-.76-1.29c-.11-.46.35-1.1.53-1.31a.34.34,0,0,0,0-.49.35.35,0,0,0-.49,0,2.93,2.93,0,0,0-.73,1.65,4.3,4.3,0,0,1-.94-.94c0-.14.37-.51.76-.74l.12-.07,0-.13a4.37,4.37,0,0,0,.09-1.72.41.41,0,0,0,.05-.09l.87-.29A4,4,0,0,1,4858.83,802.31Zm-3.06-1.86a.51.51,0,0,0,0,.21l.2.57h0l-.2-.57A.51.51,0,0,1,4855.77,800.45Zm1.55-.26.19.67-.19-.67s0,0,0-.05S4857.31,800.17,4857.32,800.19Zm-.34.1.13.45-.13-.45a.3.3,0,0,0,0-.1A.3.3,0,0,1,4857,800.29Zm-.14-.69,0,0s0,0,0,0h0Zm-.45-.12h0Zm0,.35h0Zm.1.38a.33.33,0,0,1,.14.17l.17.64-.46.15-.23-.62a.26.26,0,0,1,0-.21.25.25,0,0,1,.16-.14A.26.26,0,0,1,4856.51,800.21Zm-.43-.68.17,0-.17,0a1.05,1.05,0,0,0-.26.13A1.05,1.05,0,0,1,4856.08,799.53Zm-.26.65a.69.69,0,0,1,.37-.32.69.69,0,0,0-.37.32,1.05,1.05,0,0,0-.06.24A1.05,1.05,0,0,1,4855.82,800.18Zm-.35.6.23.64h0l-.23-.64a1.15,1.15,0,0,1-.06-.37A1.15,1.15,0,0,0,4855.47,800.78Zm.26,1.44a4.06,4.06,0,0,1-.06,1.15c-.35.22-1,.73-1,1.32s1.19,1.47,2.16,2.17a15.66,15.66,0,0,0,1.11,1.46l.05.06-.25.79a.49.49,0,0,0,0,.17H4855l-.28-3.8a.51.51,0,0,0,0-.13.46.46,0,0,0-.05-.2l-.19-2.54A2.76,2.76,0,0,0,4855.73,802.22Zm-1.45,7.12h-.46v-3.4h.2Zm-1.16-4.1h.85l0,.35h-.53v3.75h-.35Zm-2.42,5.22h-.13v-.07h49.24v.07H4850.7Zm46,4.08v-1.12h3.15v1.12Zm3.15,1.05v.57h-3.15v-.57Zm-3.15-3.22h-.76v-.86h3.91v.86Zm-5.88,8.24v-1.87h.35v1.93A.55.55,0,0,0,4890.78,820.61Zm.26.49a.31.31,0,0,1,0,.13l-.22.3h0V821a.11.11,0,0,1,.08,0,.17.17,0,0,1,.1,0A.2.2,0,0,1,4891,821.1Zm-3.59-3.41h-11.56v-.48h19v.48Zm.73,6.31-.27-.09,1.92-5.17h.6v2.09Zm.13.43.32.14,0,0a.17.17,0,0,1-.24,0,.19.19,0,0,1-.07-.11A.14.14,0,0,1,4888.31,824.43Zm-.34.24-.33-.11a.33.33,0,0,0,.07-.13l.08-.19.19.06a.63.63,0,0,0,0,.3Zm-.4-.86-.34-.08,1.85-5h.37Zm-.12.33-.06.17a.2.2,0,0,1-.23.1.22.22,0,0,1-.1-.09.17.17,0,0,1,0-.14l0-.12Zm-.57-.49-.14,0,.58-4.89h1.39Zm-.12.34,0,.07a.5.5,0,0,0,0,.27h-.06l.05-.34Zm-.37-.41-.35,0,.58-4.8h.35Zm0,.34,0,.29h-1.79l0-.3a8.69,8.69,0,0,1,.89,0C4885.7,823.86,4886,823.89,4886.35,823.92Zm-.66-.41h-.55l-.58-4.77h1.71Zm-.9,0-.35,0-.58-4.83h.35Zm-.62.78h-.07a.47.47,0,0,0,0-.26l0-.09h.09Zm-.08-.7-.17,0-1.82-4.9h1.4Zm-.34.57a.22.22,0,0,1,0,.14.18.18,0,0,1-.1.09.18.18,0,0,1-.22-.1l-.07-.19.34-.08Zm-.18-.47-.34.08-1.88-5h.37Zm-.75.57.19-.06.08.21.06.11-.3.1A.56.56,0,0,0,4882.82,824.28Zm.07-.39-.28.09-2.14-3v-2.22h.51Zm-.44.76a.18.18,0,0,1-.25,0l-.05-.07.33-.14h0A.19.19,0,0,1,4882.45,824.65Zm-.17-.54-.33.14-1.69-2.37h.21v-.32Zm-.36.7a.57.57,0,0,0,.16.15,7.62,7.62,0,0,0-4.3,6.25h-.35a8,8,0,0,1,4.4-6.52Zm-3.82,7a7.27,7.27,0,1,1,14.53,0v24.4H4878.1Zm10.59-6.85a.55.55,0,0,0,.2-.17l.06-.09a7.94,7.94,0,0,1,4.35,6.49H4893A7.63,7.63,0,0,0,4888.69,825Zm.15-.7-.33-.15,1.92-2.69v.44h.11Zm-9.07-3.65v-1.89h.35v1.89A.53.53,0,0,0,4879.77,820.63Zm.35.44v.46H4880l-.21-.3a.16.16,0,0,1,0-.13.19.19,0,0,1,.07-.12.19.19,0,0,1,.1,0,.17.17,0,0,1,.14.07Zm.7-8.7h-5.36v-.86h19.39v.86h-14Zm8.05,1v2.74h-7v-2.74Zm-8.05,0v2.74h-6v-2.74Zm-4.94,5.71s0-.07,0-.11v-.28h3.53v2.09h-4.58v-.33A1.6,1.6,0,0,0,4875.88,819.13Zm3.54,2a.58.58,0,0,0,.09.25l.07.1h-4.74v-.35Zm10.5-5v-2.74h5.69v2.74h-5.69Zm-19.21-4v-.65h3.7v.65Zm3,1.06v2.94h-2.32v-2.94Zm-17.85,12.45v-1.11h1.93v1.11Zm1.93,1.05v1.11h-1.93v-1.11Zm-1.93-3.21v-2.1h6v1.46h-4.09v.64Zm0-2.45v-.35h6v.35Zm3,5.66v-2.8h8.63v4.55h-8.63Zm4.09-3.85v-1.46h.46v1.46Zm-1-2.51h-5.74a1.55,1.55,0,0,0,.76-1.23.41.41,0,0,0,0-.11v-.28h12.49V819s0,.07,0,.11a1.58,1.58,0,0,0,.76,1.23h-8.29Zm-5-2.67v-.48h12.49v.48Zm12.49-1.53h-13.6v-2.74h14.54v2.74Zm-12.91-3.79v-.86h13.16v.86Zm-4.75-.21v-.65h3.7v.65Zm3,1.06v2.94h-2.32v-2.94Zm-3.26,4h4.37v.33a1.5,1.5,0,0,0-.52-.1,1.57,1.57,0,0,0-1.48,1h-.37a1.57,1.57,0,0,0-1.48-1,1.5,1.5,0,0,0-.52.1Zm3.32,5.95v24.91h-2.27V823.16Zm-2.27-1v-.23h2.27v.23Zm2.86,27v.06h-3.33v-.06Zm-.59-28.29h-2.27v-.33a1.58,1.58,0,0,0,.95-1h.37a1.58,1.58,0,0,0,.95,1ZM4851.88,853h.87v1.73h-.87Zm3.73,3.22h-3.73v-.44h3.73Zm0-1.49h-1.81V853h1.81Zm0-2.78h-3.73v-1.73h3.73Zm.16-33.12a.51.51,0,0,0-.42-.21.53.53,0,0,0-.43.21h-.06a.52.52,0,0,1,1,0Zm2,37.91h-1.14v-7.57h-.2v-1.11h-.59v-3.44h1.93Zm0-13.17h-1.93V842h1.93Zm0-2.62h-1.93v-1.58h1.93Zm0-2.63h-1.93v-1.57h1.93Zm10.38,18.42h-10V844.63h.35v12h9.33v-12h.35Zm-10-15.79v-1.58h.35V841Zm.7,15.27V835.65h8.63v20.58Zm9.33-15.27h-.35v-1.58h.35Zm0-5.25h-.35v-.41h-9.33v.41h-.35V835h10Zm2.28,12.36H4870v1.11h-.2v7.57h-1.26V844.63h1.93Zm0-4.49h-1.93V842h1.93Zm0-2.62h-1.93v-1.58h1.93Zm0-2.63h-1.93v-1.57h1.93Zm0-2.62h-1.93V834.6H4857.8v1.11h-1.93v-1.87h14.59Zm0-2.92h-14.59v-.7h14.59Zm0-1.75h-14.59v-.18h14.59Zm0-1.23h-14.59v-.93h1.93v.64h10.73v-.64h1.93Zm0-2h-1.93v-1.11h1.93Zm0-2.16h-1.93v-1.11h1.93Zm0-2.51v.35h-1.93v-.64h-4.08v-1.46h6Zm0-2.33v.23h-6v-.35h6Zm0-3.62h4.38v.33a1.56,1.56,0,0,0-.53-.1,1.58,1.58,0,0,0-1.48,1h-.37a1.53,1.53,0,0,0-2-1Zm4.38,15h2v1h-2Zm-1.05-9.1v24.91h-2.28V823.16Zm-2.28-1v-.23h2.28v.23Zm2.86,27v.06H4871v-.06Zm-.58-28.29h-2.28v-.33a1.54,1.54,0,0,0,.95-1h.37a1.57,1.57,0,0,0,1,1ZM4870.84,853h.88v1.73h-.88Zm3.73,3.22h-3.73v-.44h3.73Zm0-1.49h-1.8V853h1.8Zm0-2.78h-3.73v-1.73h3.73Zm.17-33.12a.53.53,0,0,0-.43-.21.51.51,0,0,0-.42.21h-.07a.52.52,0,0,1,1,0Zm2.31,37.91h-1.43v-7.57h-.2v-1.11h-.58V834.36h2.21Zm-2.21-25.54v-9.33h5l1.8,2.52a8.35,8.35,0,0,0-4.55,6.81Zm18.49,25.54H4877.4V834.36h.35v22.22H4893V834.36h.35Zm2.57-8.68h-.47v1.11h-.2v7.57h-1.55V834.36h2.22Zm0-14.76h-2.22v-1h2.22Zm0-10.15v8.05h-2.24a8.34,8.34,0,0,0-4.5-6.78l1.81-2.55h4.93Zm0-1.63h-4.68l.07-.1a.58.58,0,0,0,.09-.25h4.52Zm0-.7h-4.42v-2.09h3.37V819s0,.07,0,.11a1.57,1.57,0,0,0,1,1.37Zm0-3.62h2.39v1.28h-.39a1.57,1.57,0,0,0-1.48-1,1.5,1.5,0,0,0-.52.1Zm2.39,1.63v.08h-.3s0,0,0-.07Zm-2,34.17h.61v1.73h-.61Zm2.39,3.22h-2.39v-.44h2.39Zm0-1.49h-.73V853h.73Zm0-2.78h-2.39v-1.73h2.39Zm.2-2.78h-2.39v-.06h2.39Zm.35-1.11H4897V823.16h2.27Zm0-26H4897v-.23h2.27Zm0-1.28H4897v-.33a1.58,1.58,0,0,0,.95-1h.49a1.58,1.58,0,0,0,.83.91Zm.12-3.62h4.38v.33a1.56,1.56,0,0,0-.53-.1,1.58,1.58,0,0,0-1.48,1h-.37a1.56,1.56,0,0,0-1.48-1,1.5,1.5,0,0,0-.52.1Zm1.05,4.9v-.23h2.28v.23Zm2.28,1v24.91h-2.28V823.16Zm-2.28-2.33v-.33a1.58,1.58,0,0,0,.95-1h.37a1.57,1.57,0,0,0,1,1v.33Zm-.67,32.18h.87v1.73h-.87Zm3.53,3.22h-3.53v-.44h3.53Zm0-1.49h-1.61V853h1.61Zm0-2.78h-3.53v-1.73h3.53Zm0-2.78h-3v-.06h3Zm.36-30.34a.53.53,0,0,0-.84,0h-.07a.52.52,0,0,1,1,0Zm1.18,37.91h-.29v-.17h.29Zm0-4.79v4.27h-.29v-6h.29Zm0-2.08h-.29v-.35h.29Zm.68-29v27.24H4905v1.11h-.7v-1.11h-.58V820.5a.88.88,0,0,1,1.75,0Zm0-3.62h4.26v.3a1.41,1.41,0,0,0-.41-.07,1.57,1.57,0,0,0-1.48,1h-.37a1.58,1.58,0,0,0-1.48-1,1.5,1.5,0,0,0-.52.1Zm3.32,5.95v24.91h-2.27V823.16Zm-2.27-1v-.23h2.27v.23Zm2.85,27v.06h-3.32v-.06Zm-.58-28.29h-2.27v-.33a1.58,1.58,0,0,0,.95-1h.37a1.58,1.58,0,0,0,.95,1ZM4905.84,853h.88v1.73h-.88Zm3.74,3.22h-3.74v-.44h3.74Zm0-1.49h-1.81V853h1.81Zm0-2.78h-3.74v-1.73h3.74Zm.16-33.12a.54.54,0,0,0-.85,0h-.07a.54.54,0,0,1,.5-.35.53.53,0,0,1,.49.35Zm2,38.09h-1.14v-.35h1.14Zm0-.7h-1.14v-7.05h-.21v-1.11h-.58V834.19h1.93Zm-1.93-24.84v-9.51h4.71l1.8,2.52a8.33,8.33,0,0,0-4.56,7Zm18.21,25.54h-15.93v-.35h15.93Zm0-.7h-.35v-22h.35Zm1.31.7h-1v-.35h1Zm.78-8.86h-.58v1.11h-.2v7.05h-1v-22h1.74Zm0-24.91v8.23h-1.76a8.31,8.31,0,0,0-4.5-7l1.81-2.55h4.45Zm0-1.63h-4.2l.07-.1a.58.58,0,0,0,.09-.25h4Zm0-.7h-4v-2.27h3V819s0,.07,0,.11a1.6,1.6,0,0,0,1,1.37Zm0-3.62h4.38v.33a1.53,1.53,0,0,0-2,1h-.37a1.58,1.58,0,0,0-1.48-1,1.56,1.56,0,0,0-.53.1Zm1.07,4.67h2.26v.23h-2.28v-.23Zm0-1v-.33a1.57,1.57,0,0,0,1-1h.37a1.54,1.54,0,0,0,.95,1v.33h-2.28Zm2.28,2.33v24.91h-2.28V823.16Zm.47,26v.06h-3.33v-.06Zm-3.76-30.28a.52.52,0,0,1,1,0h-.07a.51.51,0,0,0-.42-.21.5.5,0,0,0-.42.21Zm.23,34.17h1.8v1.73h-1.8Zm3.73,3.22h-3.73v-.44h3.73Zm0-1.49h-.88V853h.88Zm0-2.78h-3.73v-1.73h3.73Zm2.13-31.13v27.24h-.58v1.11h-.21v7.57h-.29v-7.57h-.2v-1.11h-.47V820.5a.88.88,0,0,1,1.75,0Zm0-2a.53.53,0,0,1,.49-.35.54.54,0,0,1,.5.35h-.07a.54.54,0,0,0-.85,0Zm3.29,3v.23h-2.27v-.23Zm-2.27-1v-.33a1.58,1.58,0,0,0,1-1h.37a1.58,1.58,0,0,0,.95,1v.33Zm2.27,2.33v24.91h-2.27V823.16Zm.12,26v.06h-3v-.06Zm-3.18,3.89h1.81v1.73h-1.81Zm3.74,3.22h-3.74v-.44h3.74Zm0-1.49h-.88V853h.88Zm0-2.78h-3.74v-1.73h3.74Zm.37-34.42a1.5,1.5,0,0,0-.52-.1,1.58,1.58,0,0,0-1.48,1h-.37a1.56,1.56,0,0,0-1.48-1,1.5,1.5,0,0,0-.52.1v-.33h4.37Zm.12,5.62H4943v24.91h-2.28Zm.35,26h2.39v.06h-2.39Zm.21,3.89h.73v1.73h-.73Zm2.39,3.22h-2.39v-.44h2.39Zm0-1.49h-.61V853h.61Zm0-2.78h-2.39v-1.73h2.39Zm2.59,4.79h-1.54v-7.57h-.21v-1.11h-.46V834.36h2.21Zm0-23.44h-2.21v-1h2.21Zm-2.21-2.1v-9.33H4949l1.82,2.55a8.34,8.34,0,0,0-4.5,6.78Zm18.49,25.54h-15.93V834.36h.35v22.22h15.23V834.36h.35Zm2.57-8.68h-.59v1.11h-.2v7.57h-1.43V834.36h2.22Zm0-14.76h-2v-1h2Zm0-10.15v8.05h-2.24a8.35,8.35,0,0,0-4.55-6.81l1.79-2.52h5Zm0-1.63h-4.75l.07-.1a.58.58,0,0,0,.09-.25h4.59Zm0-.7h-4.58v-2.09h3.53V819a.41.41,0,0,0,0,.11,1.57,1.57,0,0,0,1,1.37Zm0-3.62h4.37v.33a1.5,1.5,0,0,0-.52-.1,1.57,1.57,0,0,0-1.48,1h-.37a1.57,1.57,0,0,0-1.48-1,1.5,1.5,0,0,0-.52.1Zm3.32,4.67v.23h-2.27v-.23Zm-2.27-1v-.33a1.58,1.58,0,0,0,.95-1h.37a1.58,1.58,0,0,0,.95,1v.33Zm2.27,2.33v24.91h-2.27V823.16Zm.47,26v.06h-3.33v-.06Zm-3.76-30.28a.52.52,0,0,1,.49-.35.54.54,0,0,1,.5.35h-.07a.53.53,0,0,0-.43-.21.51.51,0,0,0-.42.21Zm.23,34.17h1.81v1.73h-1.81Zm3.73,3.22h-3.73v-.44h3.73Zm0-1.49h-.87V853h.87Zm0-2.78h-3.73v-1.73h3.73Zm2.31,4.79h-1.26v-7.57h-.2v-1.11h-.47v-3.44h1.93Zm0-13.17h-1.93V842h1.93Zm0-2.62h-1.93v-1.58h1.93Zm0-2.63h-1.93v-1.57h1.93Zm10.38,18.42h-10V844.63h.35v12h9.33v-12h.35Zm-10-15.79v-1.58h.35V841Zm.7,15.27V835.65h8.63v20.58Zm9.33-15.27h-.35v-1.58h.35Zm0-5.25h-.35v-.41h-9.33v.41h-.35V835h10Zm2.28,12.36h-.58v1.11h-.21v7.57h-1.14V844.63h1.93Zm0-4.49h-1.93V842h1.93Zm0-2.62h-1.93v-1.58h1.93Zm0-2.63h-1.93v-1.57h1.93Zm0-2.62h-1.93V834.6h-10.73v1.11h-1.93v-1.87h14.59Zm0-2.92h-14.59v-.7h14.59Zm0-1.75h-14.59v-.18h14.59Zm0-1.23h-14.59v-.93h1.93v.64h10.73v-.64h1.93Zm0-2h-1.93v-1.11h1.93Zm0-2.16h-1.93v-1.11h1.93Zm0-2.51v.35h-1.93v-.64h-4.08v-1.46h6Zm0-2.33v.23h-6v-.35h6Zm0-3.62h4.38v.33a1.56,1.56,0,0,0-.53-.1,1.58,1.58,0,0,0-1.48,1h-.37a1.53,1.53,0,0,0-2-1Zm3.33,4.67v.23h-2.28v-.23Zm-2.28-1v-.33a1.54,1.54,0,0,0,.95-1h.37a1.57,1.57,0,0,0,1,1v.33Zm2.28,2.33v24.91h-2.28V823.16Zm.46,26v.06h-3.32v-.06Zm-3.76-30.28a.54.54,0,0,1,.5-.35.53.53,0,0,1,.49.35h-.07a.54.54,0,0,0-.85,0Zm.23,34.17h1.81v1.73h-1.81Zm3.74,3.22h-3.74v-.44h3.74Zm0-1.49h-.88V853h.88Zm0-2.78h-3.74v-1.73h3.74Z" transform="translate(-4848.18 -771.95)"/><path class="cls-1" d="M4913.46,801.05h12.9v-5.77h-12.9Zm1.05-4.72h10.8V800h-10.8Z" transform="translate(-4848.18 -771.95)"/><path class="cls-1" d="M4921.26,783.72a1.3,1.3,0,0,0,1.3-1.29v-1.59H4920v1.59A1.29,1.29,0,0,0,4921.26,783.72Zm-.24-1.83h.49v.54a.25.25,0,0,1-.49,0Z" transform="translate(-4848.18 -771.95)"/></svg>