<svg id="Capa_8" data-name="Capa 8" xmlns="http://www.w3.org/2000/svg" viewBox="0 0 85.51 147.04"><defs><style>.cls-1{fill:#0047ba;}</style></defs><title>MEXICO</title><path class="cls-1" d="M5727.47,879.73a5.68,5.68,0,0,1,5.83-5.82,5.6,5.6,0,0,1,4.8,2.59l-2.21,1.28a2.91,2.91,0,0,0-2.59-1.38,3.33,3.33,0,0,0,0,6.66,2.88,2.88,0,0,0,2.59-1.37l2.21,1.28a5.55,5.55,0,0,1-4.8,2.59A5.68,5.68,0,0,1,5727.47,879.73Z" transform="translate(-5727.47 -757.72)"/><path class="cls-1" d="M5742.26,874.13v11.21h-2.56V874.13Z" transform="translate(-5727.47 -757.72)"/><path class="cls-1" d="M5744.49,881.72v-7.59h2.57v7.37c0,.84.4,1.56,1.76,1.56s1.76-.72,1.76-1.56v-7.37h2.56v7.59c0,2.4-1.86,3.84-4.32,3.84S5744.49,884.12,5744.49,881.72Z" transform="translate(-5727.47 -757.72)"/><path class="cls-1" d="M5765.3,879.73a5.43,5.43,0,0,1-5.44,5.61h-4.48V874.13h4.48A5.42,5.42,0,0,1,5765.3,879.73Zm-2.47,0a2.87,2.87,0,0,0-3-3.13h-1.92v6.27h1.92A2.88,2.88,0,0,0,5762.83,879.73Z" transform="translate(-5727.47 -757.72)"/><path class="cls-1" d="M5773.3,883.58h-4.16l-.56,1.76h-2.81l3.81-11.21h3.27l3.81,11.21h-2.8Zm-.77-2.41-1.31-4.11-1.32,4.11Z" transform="translate(-5727.47 -757.72)"/><path class="cls-1" d="M5787.94,879.73a5.43,5.43,0,0,1-5.44,5.61H5778V874.13h4.49A5.42,5.42,0,0,1,5787.94,879.73Zm-2.47,0a2.87,2.87,0,0,0-3-3.13h-1.92v6.27h1.92A2.88,2.88,0,0,0,5785.47,879.73Z" transform="translate(-5727.47 -757.72)"/><path class="cls-1" d="M5804.1,879.73a5.43,5.43,0,0,1-5.44,5.61h-4.49V874.13h4.49A5.42,5.42,0,0,1,5804.1,879.73Zm-2.47,0a2.87,2.87,0,0,0-3-3.13h-1.92v6.27h1.92A2.88,2.88,0,0,0,5801.63,879.73Z" transform="translate(-5727.47 -757.72)"/><path class="cls-1" d="M5813,882.87v2.47h-7V874.13h7v2.47h-4.4v1.85h4v2.44h-4v2Z" transform="translate(-5727.47 -757.72)"/><path class="cls-1" d="M5751.57,904.54H5749V898l-2.89,4.76h-.29l-2.9-4.76v6.52h-2.56V893.33h2.56l3,5,3-5h2.56Z" transform="translate(-5727.47 -757.72)"/><path class="cls-1" d="M5760.93,902.07v2.47h-7V893.33h7v2.47h-4.4v1.85h4v2.44h-4v2Zm-2.69-9.7h-2.3l1.28-2.24h2.88Z" transform="translate(-5727.47 -757.72)"/><path class="cls-1" d="M5768.66,904.54l-1.89-3.24-1.89,3.24H5762l3.34-5.75-3.18-5.46H5765l1.73,3,1.73-3h2.91l-3.18,5.46,3.34,5.75Z" transform="translate(-5727.47 -757.72)"/><path class="cls-1" d="M5775.65,893.33v11.21h-2.56V893.33Z" transform="translate(-5727.47 -757.72)"/><path class="cls-1" d="M5777.49,898.93a5.68,5.68,0,0,1,5.82-5.82,5.61,5.61,0,0,1,4.81,2.59l-2.21,1.28a2.92,2.92,0,0,0-2.6-1.38,3.33,3.33,0,0,0,0,6.66,2.89,2.89,0,0,0,2.6-1.37l2.21,1.28a5.57,5.57,0,0,1-4.81,2.59A5.68,5.68,0,0,1,5777.49,898.93Z" transform="translate(-5727.47 -757.72)"/><path class="cls-1" d="M5789.07,898.93a5.83,5.83,0,1,1,5.83,5.83A5.78,5.78,0,0,1,5789.07,898.93Zm9.09,0a3.27,3.27,0,1,0-3.26,3.33A3.19,3.19,0,0,0,5798.16,898.93Z" transform="translate(-5727.47 -757.72)"/><path class="cls-1" d="M5739,852.38l-.06-.42a7.56,7.56,0,0,1-.06-.85v-.32l.31-.06a3.2,3.2,0,0,0,2-1.17l.23-.39.35.29a.55.55,0,0,0,.37.16l.87-.17-.35.71a4.48,4.48,0,0,1-3.25,2.14Zm.67-1v0a4,4,0,0,0,2-1.13h0A4,4,0,0,1,5739.67,851.41Z" transform="translate(-5727.47 -757.72)"/><path class="cls-1" d="M5734.7,852.38l-.41-.08a4.5,4.5,0,0,1-3.26-2.14l-.34-.71.86.17a.53.53,0,0,0,.37-.16l.35-.29.24.39a3.18,3.18,0,0,0,2,1.17l.31.06v.32a5.73,5.73,0,0,1-.07.85Zm-2.64-2.08a4,4,0,0,0,2,1.13v0a4,4,0,0,1-1.94-1.12Z" transform="translate(-5727.47 -757.72)"/><path class="cls-1" d="M5797.93,852.38l-.05-.42a5.73,5.73,0,0,1-.07-.85v-.32l.31-.06a3.18,3.18,0,0,0,2-1.17l.23-.39.35.29a.57.57,0,0,0,.38.16l.86-.17-.34.71a4.49,4.49,0,0,1-3.26,2.14Zm.68-1v0a4,4,0,0,0,2-1.13h0A4,4,0,0,1,5798.61,851.41Z" transform="translate(-5727.47 -757.72)"/><path class="cls-1" d="M5793.63,852.38l-.41-.08a4.45,4.45,0,0,1-3.25-2.14l-.35-.71.87.17a.57.57,0,0,0,.37-.16l.35-.29.24.39a3.15,3.15,0,0,0,2,1.17l.31.06v.32a7.73,7.73,0,0,1-.06.85ZM5791,850.3a4,4,0,0,0,2,1.13v0a4,4,0,0,1-1.95-1.12Z" transform="translate(-5727.47 -757.72)"/><path class="cls-1" d="M5768.07,774.42h-4.61v-1.51h.88a3.8,3.8,0,0,0-.72-1.75,3.56,3.56,0,0,0-1-.39c-.75-.22-1.52-.44-1.6-1.07a5,5,0,0,1,1-3.11,3.3,3.3,0,0,1,1.55-.85,12.62,12.62,0,0,0-2.46-4.74l-.11-.14c-1.46-1.67-1.9-2.18-1.74-2.68a.68.68,0,0,1,.54-.44c.9-.22,3.66,1.38,4.42,2.55a15.56,15.56,0,0,1,1.33,2.46,1.06,1.06,0,0,1,.9-.15,1.22,1.22,0,0,1,.77.75l.55-.44c1.59-1.28,4-3.22,6-3.36h.22l.13.18a.76.76,0,0,1,.12.6c-.12.66-1.05,1.3-2.06,1.94a26.5,26.5,0,0,0-3.12,2.44c.47.28,1,.61,1,1.14a1.19,1.19,0,0,1-.45,1,1.83,1.83,0,0,1-1.34.55,1.89,1.89,0,0,1,.07.7,1.81,1.81,0,0,1-1,1.6,1.32,1.32,0,0,0-.71.93,2.68,2.68,0,0,0,.24,1.83c0,.1.09.19.12.29l1,.17Zm-2.81-.79h2v-.07l-.95-.16v-.34a1.4,1.4,0,0,0-.12-.3,3.48,3.48,0,0,1-.29-2.32,2.06,2.06,0,0,1,1-1.41,1.06,1.06,0,0,0,.63-1c0-.29,0-.5-.13-.56s-.44,0-.57.06l-.55.26v-.61a1.77,1.77,0,0,1,.74-1.47l.52-.3.07.6a.64.64,0,0,0,.44.53,1,1,0,0,0,1-.29c.18-.16.23-.28.22-.34s-.43-.4-.7-.57-.25-.15-.37-.23l-.3-.2.18-.32a19.59,19.59,0,0,1,3.63-3,7.38,7.38,0,0,0,1.59-1.2c-1.7.37-3.73,2-5.11,3.12-.45.37-.84.68-1.14.88l-.74.51.13-.88c.05-.39-.11-.62-.29-.67s-.36.07-.48.33l-.45,1-.28-1a11.29,11.29,0,0,0-1.46-2.92,7.38,7.38,0,0,0-3.49-2.21,22.34,22.34,0,0,0,1.52,1.85l.12.13a13.35,13.35,0,0,1,2.72,5.52l.08.46H5764a2.43,2.43,0,0,0-1.46.68,4.35,4.35,0,0,0-.77,2.46c.07.14.7.32,1,.41a4.22,4.22,0,0,1,1.27.52c.73.54,1.05,2.36,1.11,2.72Z" transform="translate(-5727.47 -757.72)"/><path class="cls-1" d="M5766.31,780.07a9.94,9.94,0,0,1-2.78-.4l-.28-.09v-5.05h6.12v5.05l-.27.09A10,10,0,0,1,5766.31,780.07ZM5764,779a9,9,0,0,0,4.55,0v-3.67H5764Z" transform="translate(-5727.47 -757.72)"/><path class="cls-1" d="M5769.68,831.45H5763l0-.37c-.43-6.3-.66-13.61-.66-21.15,0-8.49.28-16.55.81-23.3l0-.36h6.41l0,.36c.53,6.78.81,14.83.81,23.3,0,7.53-.23,14.85-.66,21.15Zm-6-.79H5769c.41-6.2.63-13.36.63-20.73,0-8.3-.27-16.2-.78-22.87h-5c-.52,6.65-.78,14.55-.78,22.87C5763.06,817.3,5763.27,824.46,5763.68,830.66Z" transform="translate(-5727.47 -757.72)"/><path class="cls-1" d="M5769.65,833.59H5763a1.23,1.23,0,0,1-.42-.07,1.08,1.08,0,0,1-.79-1,1.05,1.05,0,0,1,.66-.94,1.26,1.26,0,0,1,.55-.13h6.67a1.26,1.26,0,0,1,.55.13,1,1,0,0,1,.65.94,1.07,1.07,0,0,1-.78,1A1.23,1.23,0,0,1,5769.65,833.59Zm-6.67-1.36a.49.49,0,0,0-.22.06.29.29,0,0,0-.2.23.33.33,0,0,0,.25.26l.17,0h6.67l.17,0a.33.33,0,0,0,.25-.26.29.29,0,0,0-.2-.23.49.49,0,0,0-.22-.06Z" transform="translate(-5727.47 -757.72)"/><path class="cls-1" d="M5769.21,786.27h-5.79c-2,0-3.55-2.51-3.55-5.73v-3.12l.65.59a7.73,7.73,0,0,0,2.48,1.47l.37.13.38.11a9.71,9.71,0,0,0,5.13,0l.35-.11a3.14,3.14,0,0,0,.4-.13,7.73,7.73,0,0,0,2.48-1.47l.65-.59v3.12C5772.76,783.76,5771.2,786.27,5769.21,786.27Zm-8.56-7.15v1.42c0,2.68,1.27,5,2.77,5h5.79c1.5,0,2.77-2.27,2.77-5v-1.42a8.73,8.73,0,0,1-2.08,1.09,2.83,2.83,0,0,1-.41.14l-.41.13a10.52,10.52,0,0,1-5.54,0l-.41-.13-.4-.13A9.14,9.14,0,0,1,5760.65,779.12Z" transform="translate(-5727.47 -757.72)"/><path class="cls-1" d="M5772.56,839.32h-12.49v-5.73h12.49Zm-11.7-.79h10.91v-4.15h-10.91Z" transform="translate(-5727.47 -757.72)"/><path class="cls-1" d="M5777.25,841.07h-21.87v-1.75h21.87Zm-21.09-.79h20.31v-.18h-20.31Z" transform="translate(-5727.47 -757.72)"/><path class="cls-1" d="M5776,850.21h-19.41v-9.14H5776Zm-18.62-.78h17.83v-7.58H5757.4Zm12.53-.1h-7.23v-5.15h7.23Zm-6.45-.79h5.66V845h-5.66Z" transform="translate(-5727.47 -757.72)"/><path class="cls-1" d="M5769.14,848.54h-5.66V845h5.66Zm-4.87-.78h4.09v-2h-4.09Z" transform="translate(-5727.47 -757.72)"/><path class="cls-1" d="M5777.45,852.12h-22.27l1.43-1.91H5776Zm-20.7-.78h19.13l-.26-.34H5757Z" transform="translate(-5727.47 -757.72)"/><path class="cls-1" d="M5778.88,854.75h-25.13l1.43-2.63h22.27Zm-23.81-.79h22.49l-.58-1.05h-21.33Z" transform="translate(-5727.47 -757.72)"/><path class="cls-1" d="M5779.64,856.58H5753v-1.83h26.65Zm-25.86-.79h25.07v-.26h-25.07Z" transform="translate(-5727.47 -757.72)"/><path class="cls-1" d="M5781.15,860.24h-29.67v-3.66h29.67Zm-28.88-.79h28.09v-2.09h-28.09Z" transform="translate(-5727.47 -757.72)"/><path class="cls-1" d="M5751.48,860.24h-8.7v-4.38l1.43-2.27h7.27Zm-7.92-.79h7.14v-5.07h-6.06l-1.08,1.71Z" transform="translate(-5727.47 -757.72)"/><path class="cls-1" d="M5789.85,860.24h-8.7v-6.65h7.27l1.43,2.27Zm-7.92-.79h7.13v-3.36l-1.07-1.71h-6.06Z" transform="translate(-5727.47 -757.72)"/><path class="cls-1" d="M5789.85,862.14h-47.07v-1.9h47.07Zm-46.29-.78h45.5V861h-45.5Z" transform="translate(-5727.47 -757.72)"/><path class="cls-1" d="M5799.6,862.14H5792V856.9h7.64Zm-6.85-.78h6.07v-3.68h-6.07Z" transform="translate(-5727.47 -757.72)"/><path class="cls-1" d="M5798.05,856.88l-4.62,0c-.49-.23-.76-.48-.83-.76-.11-.43.26-.9.63-1.35.15-.19.31-.39.44-.59h0c-.12-.25-.4-.74-.64-1.14l-.38-.63,1,0h0c0-.1,0-.26.07-.46s.05-.48.06-.75a2.7,2.7,0,0,0,0-.61h0c-.86-.73-.95-1.31-.88-1.66a1.39,1.39,0,0,1,1-1l.5-8.82c.14-2.36,1.1-2.55,1.4-2.55.5,0,1.32.4,1.44,2.55l.5,8.82a1.39,1.39,0,0,1,1,1c.07.35,0,.93-.87,1.66h0a3.37,3.37,0,0,0,0,.61c0,.27,0,.54.06.75s.07.42.08.46h0l1,0-.38.63c-.23.4-.52.89-.64,1.14h0a4.75,4.75,0,0,0,.44.59c.38.47.73.92.63,1.35s-.35.54-.84.76Zm-4.36-.79h4.19a.8.8,0,0,0,.34-.23c0-.07-.33-.43-.49-.63s-.36-.45-.5-.67l-.23-.38.19-.39.31-.56h-.19l-.13-.67c0-.05-.05-.24-.08-.5s-.06-.54-.07-.83a3.11,3.11,0,0,1,.05-.79l.05-.27.2-.18c.48-.4.65-.74.62-.9s-.27-.31-.48-.37l-.53-.16-.52-9.36c-.07-1.23-.39-1.8-.68-1.81-.12,0-.52.43-.59,1.81l-.53,9.36-.53.16c-.21.06-.45.21-.48.37s.15.5.62.9l.21.18.05.27a4.3,4.3,0,0,1,.05.78,6.67,6.67,0,0,1-.08.84,3.54,3.54,0,0,1-.07.46l-.14.71h-.19l.31.56.19.39-.23.37c-.14.23-.32.45-.49.68a2.61,2.61,0,0,0-.47.68A3.27,3.27,0,0,0,5793.69,856.09Z" transform="translate(-5727.47 -757.72)"/><path class="cls-1" d="M5740.67,862.14H5733V856.9h7.64Zm-6.85-.78h6.06v-3.68h-6.06Z" transform="translate(-5727.47 -757.72)"/><path class="cls-1" d="M5739.12,856.88l-4.62,0c-.49-.23-.77-.48-.84-.76-.1-.43.25-.87.63-1.34a5.72,5.72,0,0,0,.44-.6c-.12-.25-.41-.74-.64-1.14l-.38-.63,1,0h0c0-.11,0-.27.08-.46s.05-.48.06-.75a3.3,3.3,0,0,0,0-.61h0c-.85-.73-.94-1.31-.87-1.66a1.39,1.39,0,0,1,1-1h0l.5-8.82c.13-2.36,1.1-2.55,1.4-2.55.83,0,1.35,1,1.44,2.55l.49,8.82a1.39,1.39,0,0,1,1,1c.07.35,0,.93-.88,1.66h0a2.7,2.7,0,0,0,0,.61c0,.27,0,.54.06.75s.07.42.07.46h0l1,0-.38.63c-.24.4-.52.89-.65,1.14h0a6.14,6.14,0,0,0,.45.59c.37.47.73.92.63,1.35s-.35.54-.84.76Zm-4.37-.79h4.19a.8.8,0,0,0,.34-.23c0-.07-.33-.43-.48-.63s-.36-.45-.5-.67l-.23-.38.19-.39.31-.56h-.2l-.13-.67c0-.05,0-.24-.08-.5s-.05-.54-.06-.83a3.69,3.69,0,0,1,0-.79l0-.27.21-.18c.47-.4.65-.74.62-.9s-.27-.31-.48-.37l-.53-.16-.53-9.36c-.06-1.17-.39-1.8-.68-1.81-.11,0-.51.43-.59,1.81l-.52,9.36-.53.16c-.21.06-.45.21-.48.37s.14.5.61.9l.21.18.06.27a3.63,3.63,0,0,1,0,.78c0,.3,0,.6-.07.83s-.05.38-.07.46l-.14.72h-.19l.31.56.19.39-.23.38c-.14.22-.32.44-.5.67a3.35,3.35,0,0,0-.47.68A3.27,3.27,0,0,0,5734.75,856.09Z" transform="translate(-5727.47 -757.72)"/><path class="cls-1" d="M5801.08,849.62c-.33,0-.61-.32-.77-.84a2.56,2.56,0,0,1-.11-.71,2.5,2.5,0,0,1,.11-.71c.16-.53.44-.84.77-.84s.61.31.77.84a2.48,2.48,0,0,1,.1.71,2.53,2.53,0,0,1-.1.71C5801.69,849.3,5801.4,849.62,5801.08,849.62Zm0-2.09,0,.05a1.66,1.66,0,0,0-.07.49,1.64,1.64,0,0,0,.07.48l0,.05v-.05a1.51,1.51,0,0,0,0-1h0Z" transform="translate(-5727.47 -757.72)"/><path class="cls-1" d="M5790.49,849.62c-.33,0-.61-.32-.77-.84a2.56,2.56,0,0,1-.11-.71,2.5,2.5,0,0,1,.11-.71c.16-.53.44-.84.77-.84s.61.31.77.84a2.48,2.48,0,0,1,.1.71,2.53,2.53,0,0,1-.1.71C5791.1,849.3,5790.81,849.62,5790.49,849.62Zm0-2.09,0,.05a1.66,1.66,0,0,0-.07.49,1.64,1.64,0,0,0,.07.48l0,.05v-.05a1.51,1.51,0,0,0,0-1Z" transform="translate(-5727.47 -757.72)"/><path class="cls-1" d="M5742.14,849.62c-.32,0-.61-.32-.76-.84a2.23,2.23,0,0,1-.11-.71,2.19,2.19,0,0,1,.11-.71c.15-.53.44-.84.76-.84s.61.31.77.84a2.5,2.5,0,0,1,.11.71,2.56,2.56,0,0,1-.11.71C5742.75,849.3,5742.47,849.62,5742.14,849.62Zm0-2.09v.05a1.51,1.51,0,0,0,0,1v.05l0-.05a1.64,1.64,0,0,0,.07-.48,1.66,1.66,0,0,0-.07-.49Z" transform="translate(-5727.47 -757.72)"/><path class="cls-1" d="M5731.55,849.62c-.32,0-.61-.32-.76-.84a2.19,2.19,0,0,1-.11-.71,2.11,2.11,0,0,1,.11-.71c.15-.53.44-.84.76-.84s.61.31.77.84a2.45,2.45,0,0,1,.11.71,2.56,2.56,0,0,1-.11.71C5732.16,849.3,5731.87,849.62,5731.55,849.62Zm0-2.09v.05a1.67,1.67,0,0,0-.08.49,1.61,1.61,0,0,0,.08.48s0,0,0,.05a.08.08,0,0,0,0-.05,1.64,1.64,0,0,0,.07-.48,1.66,1.66,0,0,0-.07-.49Z" transform="translate(-5727.47 -757.72)"/></svg>