<svg id="Capa_8" data-name="Capa 8" xmlns="http://www.w3.org/2000/svg" viewBox="0 0 67.16 130.21"><defs><style>.cls-1{fill:#0047ba;}</style></defs><title>RIO</title><path class="cls-1" d="M5062.66,881.65h-1.22v3.69h-2.56V874.13h4.48a3.83,3.83,0,0,1,3.84,3.84,3.68,3.68,0,0,1-2.06,3.25l2.38,4.12h-2.75Zm-1.22-2.24h1.92a1.45,1.45,0,0,0,0-2.88h-1.92Z" transform="translate(-5050.73 -774.55)"/><path class="cls-1" d="M5069,873.17l1.28-2.24h2.88l-1.85,2.24Zm.16,1v11.21h2.56V874.13Z" transform="translate(-5050.73 -774.55)"/><path class="cls-1" d="M5073.52,879.73a5.83,5.83,0,1,1,5.83,5.83A5.78,5.78,0,0,1,5073.52,879.73Zm9.09,0a3.27,3.27,0,1,0-3.26,3.33A3.19,3.19,0,0,0,5082.61,879.73Z" transform="translate(-5050.73 -774.55)"/><path class="cls-1" d="M5101.33,879.73a5.43,5.43,0,0,1-5.44,5.61h-4.48V874.13h4.48A5.42,5.42,0,0,1,5101.33,879.73Zm-2.46,0a2.88,2.88,0,0,0-3-3.13H5094v6.27h1.92A2.89,2.89,0,0,0,5098.87,879.73Z" transform="translate(-5050.73 -774.55)"/><path class="cls-1" d="M5110.21,882.87v2.47h-7V874.13h7v2.47h-4.4v1.85h4v2.44h-4v2Z" transform="translate(-5050.73 -774.55)"/><path class="cls-1" d="M5050.73,902.58l2.22-1.28a1.58,1.58,0,0,0,1.59,1c1.12,0,1.45-.64,1.45-1.32v-7.61h2.57v7.61c0,2.46-1.73,3.82-4,3.82A4,4,0,0,1,5050.73,902.58Z" transform="translate(-5050.73 -774.55)"/><path class="cls-1" d="M5067,902.78h-4.17l-.56,1.76h-2.8l3.81-11.21h3.27l3.81,11.21h-2.81Zm-.77-2.4-1.32-4.12-1.31,4.12Z" transform="translate(-5050.73 -774.55)"/><path class="cls-1" d="M5080.56,893.33v11.21h-1.93l-4.32-6.09v6.09h-2.56V893.33h1.92l4.33,6.08v-6.08Z" transform="translate(-5050.73 -774.55)"/><path class="cls-1" d="M5089.91,902.07v2.47h-7V893.33h7v2.47h-4.4v1.85h4v2.44h-4v2Z" transform="translate(-5050.73 -774.55)"/><path class="cls-1" d="M5094.31,893.33v11.21h-2.56V893.33Z" transform="translate(-5050.73 -774.55)"/><path class="cls-1" d="M5100.41,900.85h-1.22v3.69h-2.56V893.33h4.48a3.84,3.84,0,0,1,3.85,3.84,3.69,3.69,0,0,1-2.07,3.25l2.39,4.12h-2.76Zm-1.22-2.24h1.92a1.45,1.45,0,0,0,0-2.88h-1.92Z" transform="translate(-5050.73 -774.55)"/><path class="cls-1" d="M5106.23,898.93a5.83,5.83,0,1,1,5.83,5.83A5.78,5.78,0,0,1,5106.23,898.93Zm9.1,0a3.27,3.27,0,1,0-3.27,3.33A3.19,3.19,0,0,0,5115.33,898.93Z" transform="translate(-5050.73 -774.55)"/><path class="cls-1" d="M5110.81,787.9h-20.59c1.14-5.53,0-10-3.11-12.22a6.15,6.15,0,0,0-7.09,0c-3.11,2.18-4.24,6.69-3.1,12.22H5050.8l.2,1.21c0,.14.65,3.4,5.54,3.72a9.51,9.51,0,0,0,4.33,5.28l.25.15h8.76l2.48,2.77-.78,10,2,.33-.86,7.89,1.7,1-1.82,27.91h-4.5l-3.64,10.59a5.25,5.25,0,0,0,5,7h29.72a5.25,5.25,0,0,0,4.72-7.55l-4.88-10h-3.34l-1.06-16.37,2.05-3.45-.45-3,.09,0,.59.22.93-.83-.14-.54L5094.8,801l2.46-2.75H5106l.24-.15a9.51,9.51,0,0,0,4.33-5.28c4.89-.32,5.51-3.58,5.54-3.72l.2-1.21Zm-15,62.34h1.92l4.31,8.84a3.2,3.2,0,0,1-2.87,4.59h-29.72a3.19,3.19,0,0,1-3-4.23l3.16-9.2h26.22Zm-11.66-24,8.35,5.11,1.1,16.85h-18.92l1.75-26.7Zm10.21,2-.81,1.36-.13-.08h0l-1.06-.65h0l-8.19-5-5.79-3.55-1.68-1-1.68-1-.07,0,.71-6.47.93.16v2.44l10.88.92v7.12l4.56,1.6h0l1,.37h0l.93.33.2,1.29,0,.12.29,1.91-.15.25Zm-20.56-18.91.59-7.5.08-1,.08-1,.15-2a19.47,19.47,0,0,0,1.87.63v11.33l-1.73-.29-1-.17Zm7.42-31.92a4.05,4.05,0,0,1,4.74,0,6.51,6.51,0,0,1,2.47,4.32,15.74,15.74,0,0,1-.29,6.21h-.26v-7.5l-.21-.15-.23-.15c-3-2.11-3.44-2.23-3.6-2.27l-.25-.06-.25.06c-.16,0-.61.16-3.6,2.27l-.23.16-.21.14v7.5H5079a15.74,15.74,0,0,1-.29-6.21A6.45,6.45,0,0,1,5081.2,777.37Zm-2.6,34.81V798.9a28.21,28.21,0,0,0,3.94.44c.34,0,.68,0,1,0h.45l.58,0c.89,0,1.83-.07,2.8-.15v13.92l-8.83-.74Zm-4.71-17a11.82,11.82,0,0,1-5.32-5.25h18.82v7.2c-1,.09-1.91.13-2.8.14h-1c-.35,0-.7,0-1,0a25,25,0,0,1-3.94-.46c-.35-.07-.7-.14-1-.23s-.69-.19-1-.3l-1-.33A17.6,17.6,0,0,1,5073.89,795.21Zm7.6-13.52v-.32c1.09-.76,1.74-1.17,2.08-1.37.34.2,1,.61,2.08,1.37v3.36a2.13,2.13,0,0,1-4.16,0v-3Zm4.31,6.21h-.21l.21-.14Zm-4.46-.14.21.14h-.21Zm-15,2.2a12.86,12.86,0,0,0,3.71,5.13,15.59,15.59,0,0,0,2.63,1.78l-.11,1.32-1.77-2h-9.11a7.33,7.33,0,0,1-3.56-6.24Zm28.39,32.74-.77-.27h0l-.32-.11-.72-.25h0l-1.05-.36h0l-2.35-.82V790h0l1.92,0,1.2,9.74.12,1,.13,1,1.09,8.89,1.51,12.25Zm-1.3-32.74H5109a7.33,7.33,0,0,1-3.56,6.24h-9.1l-1.87,2.09Z" transform="translate(-5050.73 -774.55)"/></svg>